M48
METRIC,LZ,000.000
;FILE_FORMAT=3:3
;TYPE=PLATED
;Layer: PTH_Through
;EasyEDA v6.5.22, 2023-02-04 00:38:19
;1b58cd9aca174a3e8f89bbe905d80933,4bb84c5f6c124816bf94f4484d05adb3,10
;Gerber Generator version 0.2
;Holesize 1 = 0.915 mm
T01C0.915
;Holesize 2 = 1.000 mm
T02C1.000
;Holesize 3 = 1.021 mm
T03C1.021
;Holesize 4 = 1.101 mm
T04C1.101
;Holesize 5 = 3.000 mm
T05C3.000
%
G05
G90
T01
X034290Y076835
X034290Y074295
X034290Y071755
X034290Y069215
X009906Y076835
X009906Y074295
X009906Y071755
X009906Y069215
T02
X018446Y061558
X020946Y061558
X022946Y061558
X025446Y061558
T03
X022098Y070358
X022098Y072898
X022098Y075438
T04
X028721Y059608G85X028721Y060608
X015221Y059608G85X015221Y060608
T05
X009652Y060706
X034290Y060706
X009652Y085344
X034290Y085344
M30
