G04 Layer: TopSilkscreenLayer*
G04 EasyEDA v6.5.22, 2023-02-03 23:32:18*
G04 9f92e8cc1d6f4f83b316cd320a267f73,4bb84c5f6c124816bf94f4484d05adb3,10*
G04 Gerber Generator version 0.2*
G04 Scale: 100 percent, Rotated: No, Reflected: No *
G04 Dimensions in millimeters *
G04 leading zeros omitted , absolute positions ,4 integer and 5 decimal *
%FSLAX45Y45*%
%MOMM*%

%ADD10C,0.2032*%
%ADD11C,0.2540*%
%ADD12C,0.2030*%

%LPD*%
G36*
X2189683Y8740140D02*
G01*
X2177186Y8739835D01*
X2171039Y8739327D01*
X2159000Y8737600D01*
X2153513Y8736380D01*
X2147519Y8734602D01*
X2141118Y8732418D01*
X2134514Y8729878D01*
X2121052Y8723884D01*
X2108352Y8717229D01*
X2102612Y8713825D01*
X2097481Y8710422D01*
X2093112Y8707170D01*
X2089607Y8704072D01*
X2080361Y8694877D01*
X2097582Y8679434D01*
X2117648Y8693150D01*
X2128164Y8699093D01*
X2139086Y8704072D01*
X2150313Y8708034D01*
X2156002Y8709660D01*
X2167636Y8712098D01*
X2179320Y8713622D01*
X2191156Y8714079D01*
X2202942Y8713622D01*
X2214676Y8712098D01*
X2226259Y8709660D01*
X2231999Y8708034D01*
X2243226Y8704072D01*
X2254097Y8699093D01*
X2259431Y8696248D01*
X2264613Y8693150D01*
X2284730Y8679434D01*
X2301951Y8694877D01*
X2289048Y8707475D01*
X2285136Y8710726D01*
X2280920Y8713825D01*
X2276449Y8716772D01*
X2271725Y8719566D01*
X2261565Y8724696D01*
X2250694Y8729116D01*
X2239162Y8732875D01*
X2233168Y8734501D01*
X2220976Y8737092D01*
X2208530Y8738971D01*
X2195931Y8739936D01*
G37*
G36*
X2187549Y8689136D02*
G01*
X2181707Y8688933D01*
X2175967Y8688476D01*
X2170328Y8687765D01*
X2164892Y8686749D01*
X2159660Y8685479D01*
X2154732Y8683904D01*
X2150059Y8682024D01*
X2139696Y8677198D01*
X2131822Y8673236D01*
X2126234Y8669883D01*
X2122779Y8666988D01*
X2121204Y8664295D01*
X2121357Y8661552D01*
X2123033Y8658606D01*
X2126030Y8655253D01*
X2134158Y8646972D01*
X2159254Y8658961D01*
X2164130Y8660942D01*
X2173478Y8663940D01*
X2178050Y8665006D01*
X2186838Y8666175D01*
X2191156Y8666327D01*
X2195423Y8666175D01*
X2204262Y8665006D01*
X2208784Y8663940D01*
X2218182Y8660942D01*
X2228088Y8656675D01*
X2248154Y8646972D01*
X2256231Y8655253D01*
X2258314Y8657742D01*
X2259584Y8660282D01*
X2260092Y8662720D01*
X2259888Y8665159D01*
X2258974Y8667546D01*
X2257450Y8669832D01*
X2255367Y8672068D01*
X2252675Y8674201D01*
X2249525Y8676233D01*
X2245868Y8678164D01*
X2241804Y8679992D01*
X2237384Y8681669D01*
X2227529Y8684615D01*
X2216708Y8686901D01*
X2205228Y8688425D01*
X2193442Y8689136D01*
G37*
G36*
X2194814Y8644686D02*
G01*
X2189632Y8644636D01*
X2184298Y8643823D01*
X2178913Y8642299D01*
X2173528Y8640013D01*
X2167534Y8636660D01*
X2162352Y8632952D01*
X2157984Y8628786D01*
X2154275Y8624062D01*
X2151278Y8618829D01*
X2148941Y8612936D01*
X2147163Y8606332D01*
X2145944Y8598966D01*
X2143709Y8581085D01*
X2090572Y8581136D01*
X2075332Y8580983D01*
X2067102Y8580374D01*
X2060041Y8579053D01*
X2056942Y8578037D01*
X2054047Y8576767D01*
X2051354Y8575192D01*
X2048764Y8573262D01*
X2046376Y8570976D01*
X2044039Y8568334D01*
X2041753Y8565184D01*
X2039518Y8561628D01*
X2037283Y8557564D01*
X2032762Y8547760D01*
X2027885Y8535670D01*
X2016048Y8503361D01*
X1999048Y8455660D01*
X2037588Y8455660D01*
X2038756Y8460689D01*
X2046782Y8486140D01*
X2067712Y8546998D01*
X2314549Y8546998D01*
X2332685Y8494572D01*
X2338070Y8478367D01*
X2342134Y8465413D01*
X2344420Y8457387D01*
X2344724Y8455660D01*
X2344521Y8455253D01*
X2342946Y8454593D01*
X2339644Y8453983D01*
X2334412Y8453424D01*
X2317699Y8452561D01*
X2291486Y8452002D01*
X2254504Y8451646D01*
X2163368Y8451545D01*
X2083307Y8452104D01*
X2059584Y8452764D01*
X2045004Y8453678D01*
X2040788Y8454237D01*
X2038350Y8454898D01*
X2037740Y8455253D01*
X2037588Y8455660D01*
X1999048Y8455660D01*
X1991156Y8433562D01*
X1991156Y8378596D01*
X2035860Y8378596D01*
X2036368Y8383676D01*
X2037740Y8389010D01*
X2039975Y8393785D01*
X2043023Y8398052D01*
X2046732Y8401659D01*
X2051050Y8404656D01*
X2055825Y8406942D01*
X2060905Y8408517D01*
X2066188Y8409432D01*
X2071573Y8409533D01*
X2076957Y8408822D01*
X2082139Y8407349D01*
X2087016Y8405012D01*
X2091537Y8401761D01*
X2094788Y8398256D01*
X2097328Y8394090D01*
X2099208Y8389366D01*
X2100326Y8384286D01*
X2100643Y8379561D01*
X2281021Y8379561D01*
X2281326Y8384641D01*
X2282444Y8389416D01*
X2284323Y8393836D01*
X2286914Y8397900D01*
X2290114Y8401456D01*
X2293823Y8404453D01*
X2298090Y8406892D01*
X2302764Y8408670D01*
X2307793Y8409686D01*
X2313127Y8409990D01*
X2318715Y8409432D01*
X2324455Y8407958D01*
X2330297Y8405571D01*
X2334666Y8402777D01*
X2338527Y8399068D01*
X2341727Y8394598D01*
X2344216Y8389721D01*
X2345893Y8384489D01*
X2346655Y8379256D01*
X2346502Y8374125D01*
X2345232Y8369350D01*
X2342997Y8364728D01*
X2340203Y8360613D01*
X2336952Y8357057D01*
X2333294Y8354009D01*
X2329332Y8351570D01*
X2325166Y8349640D01*
X2320798Y8348319D01*
X2316327Y8347557D01*
X2311806Y8347405D01*
X2307386Y8347811D01*
X2303018Y8348827D01*
X2298903Y8350453D01*
X2294991Y8352739D01*
X2291435Y8355584D01*
X2288286Y8359089D01*
X2285593Y8363203D01*
X2283104Y8368792D01*
X2281580Y8374278D01*
X2281021Y8379561D01*
X2100643Y8379561D01*
X2100275Y8373719D01*
X2099056Y8368588D01*
X2096973Y8363762D01*
X2093975Y8359140D01*
X2090572Y8355330D01*
X2086711Y8352281D01*
X2082596Y8349996D01*
X2078278Y8348421D01*
X2073757Y8347506D01*
X2069185Y8347303D01*
X2064664Y8347659D01*
X2060143Y8348624D01*
X2055825Y8350148D01*
X2051710Y8352231D01*
X2047951Y8354771D01*
X2044547Y8357768D01*
X2041601Y8361222D01*
X2039162Y8365032D01*
X2037334Y8369249D01*
X2036216Y8373770D01*
X2035860Y8378596D01*
X1991156Y8378596D01*
X1991207Y8298027D01*
X1991512Y8281771D01*
X1992172Y8268919D01*
X1993290Y8258962D01*
X1994052Y8255000D01*
X1995017Y8251647D01*
X1996186Y8248853D01*
X1997506Y8246516D01*
X1999081Y8244636D01*
X2000859Y8243214D01*
X2002891Y8242096D01*
X2005228Y8241284D01*
X2007819Y8240725D01*
X2013915Y8240217D01*
X2025599Y8240166D01*
X2033371Y8240623D01*
X2040077Y8242046D01*
X2045817Y8244382D01*
X2050542Y8247634D01*
X2054250Y8251748D01*
X2056892Y8256828D01*
X2058466Y8262772D01*
X2059025Y8269579D01*
X2059025Y8281060D01*
X2323287Y8281060D01*
X2323287Y8269579D01*
X2323795Y8262772D01*
X2325420Y8256828D01*
X2328062Y8251748D01*
X2331720Y8247634D01*
X2336444Y8244382D01*
X2342184Y8242046D01*
X2348941Y8240623D01*
X2356662Y8240166D01*
X2368397Y8240217D01*
X2374493Y8240725D01*
X2377084Y8241284D01*
X2379370Y8242096D01*
X2381453Y8243214D01*
X2383231Y8244636D01*
X2384755Y8246516D01*
X2386126Y8248853D01*
X2387244Y8251647D01*
X2388209Y8255000D01*
X2389632Y8263585D01*
X2390495Y8274964D01*
X2390952Y8289442D01*
X2391156Y8433562D01*
X2357069Y8528659D01*
X2351938Y8542020D01*
X2347214Y8552942D01*
X2344978Y8557564D01*
X2342743Y8561628D01*
X2338273Y8568334D01*
X2335936Y8570976D01*
X2333498Y8573262D01*
X2330958Y8575192D01*
X2328214Y8576767D01*
X2325319Y8578037D01*
X2322220Y8579053D01*
X2318867Y8579815D01*
X2311247Y8580780D01*
X2302306Y8581136D01*
X2238552Y8581085D01*
X2236419Y8598560D01*
X2235250Y8605164D01*
X2233574Y8611311D01*
X2231390Y8617051D01*
X2228697Y8622334D01*
X2225598Y8627110D01*
X2222093Y8631377D01*
X2218232Y8635085D01*
X2214067Y8638235D01*
X2209546Y8640775D01*
X2204872Y8642756D01*
X2199944Y8644026D01*
G37*
G36*
X2104390Y8180578D02*
G01*
X2104390Y8039100D01*
X2118614Y8039100D01*
X2118614Y8109203D01*
X2125675Y8116062D01*
X2132228Y8120989D01*
X2138883Y8123936D01*
X2146046Y8124952D01*
X2150719Y8124545D01*
X2154682Y8123377D01*
X2157984Y8121396D01*
X2160625Y8118551D01*
X2162606Y8114893D01*
X2164029Y8110270D01*
X2164842Y8104733D01*
X2165096Y8098281D01*
X2165096Y8039100D01*
X2179574Y8039100D01*
X2179574Y8100059D01*
X2179116Y8108746D01*
X2177846Y8116316D01*
X2175611Y8122767D01*
X2172512Y8128101D01*
X2168448Y8132267D01*
X2163368Y8135264D01*
X2157374Y8137042D01*
X2150364Y8137652D01*
X2145588Y8137296D01*
X2141067Y8136331D01*
X2136851Y8134756D01*
X2132787Y8132724D01*
X2128977Y8130286D01*
X2125268Y8127492D01*
X2118106Y8121142D01*
X2118614Y8141462D01*
X2118614Y8180578D01*
G37*
G36*
X2800096Y8180578D02*
G01*
X2800096Y8039100D01*
X2814320Y8039100D01*
X2814320Y8109203D01*
X2821482Y8116062D01*
X2828036Y8120989D01*
X2834589Y8123936D01*
X2841752Y8124952D01*
X2846425Y8124545D01*
X2850388Y8123377D01*
X2853690Y8121396D01*
X2856331Y8118551D01*
X2858312Y8114893D01*
X2859735Y8110270D01*
X2860548Y8104733D01*
X2860802Y8098281D01*
X2860802Y8039100D01*
X2875280Y8039100D01*
X2875280Y8100059D01*
X2874822Y8108746D01*
X2873552Y8116316D01*
X2871317Y8122767D01*
X2868218Y8128101D01*
X2864154Y8132267D01*
X2859074Y8135264D01*
X2853080Y8137042D01*
X2846070Y8137652D01*
X2841294Y8137296D01*
X2836773Y8136331D01*
X2832557Y8134756D01*
X2828493Y8132724D01*
X2824683Y8130286D01*
X2820974Y8127492D01*
X2813812Y8121142D01*
X2814320Y8141462D01*
X2814320Y8180578D01*
G37*
G36*
X3421634Y8180578D02*
G01*
X3421634Y8142986D01*
X3422396Y8126222D01*
X3415944Y8130997D01*
X3409492Y8134603D01*
X3402584Y8136890D01*
X3394710Y8137652D01*
X3389223Y8137245D01*
X3383940Y8136077D01*
X3378860Y8134096D01*
X3374085Y8131454D01*
X3369665Y8128050D01*
X3365601Y8123986D01*
X3361994Y8119313D01*
X3358946Y8113979D01*
X3356457Y8108086D01*
X3354628Y8101634D01*
X3353460Y8094624D01*
X3353054Y8087106D01*
X3368040Y8087106D01*
X3368598Y8095183D01*
X3370275Y8102498D01*
X3372916Y8109000D01*
X3376422Y8114538D01*
X3380689Y8119059D01*
X3385616Y8122412D01*
X3391103Y8124494D01*
X3396996Y8125206D01*
X3403142Y8124647D01*
X3409238Y8122818D01*
X3415334Y8119516D01*
X3421634Y8114538D01*
X3421634Y8062722D01*
X3415233Y8056727D01*
X3408883Y8052460D01*
X3402431Y8049869D01*
X3395726Y8049006D01*
X3389426Y8049666D01*
X3383889Y8051647D01*
X3379165Y8054848D01*
X3375202Y8059216D01*
X3372104Y8064652D01*
X3369868Y8071205D01*
X3368497Y8078673D01*
X3368040Y8087106D01*
X3353054Y8087106D01*
X3353358Y8079333D01*
X3354324Y8072170D01*
X3355848Y8065617D01*
X3357981Y8059724D01*
X3360623Y8054492D01*
X3363823Y8049869D01*
X3367532Y8045907D01*
X3371697Y8042706D01*
X3376320Y8040116D01*
X3381349Y8038287D01*
X3386836Y8037169D01*
X3392678Y8036814D01*
X3401161Y8037880D01*
X3409086Y8040827D01*
X3416198Y8045196D01*
X3422396Y8050530D01*
X3422904Y8050530D01*
X3424174Y8039100D01*
X3436112Y8039100D01*
X3436112Y8180578D01*
G37*
G36*
X2618232Y8179816D02*
G01*
X2563368Y8007350D01*
X2574036Y8007350D01*
X2628900Y8179816D01*
G37*
G36*
X2688082Y8179816D02*
G01*
X2632964Y8007350D01*
X2643632Y8007350D01*
X2698750Y8179816D01*
G37*
G36*
X1394460Y8175752D02*
G01*
X1390294Y8175040D01*
X1387094Y8173008D01*
X1385011Y8169859D01*
X1384300Y8165846D01*
X1385011Y8161680D01*
X1387094Y8158480D01*
X1390294Y8156397D01*
X1394460Y8155686D01*
X1398371Y8156397D01*
X1401521Y8158480D01*
X1403604Y8161680D01*
X1404366Y8165846D01*
X1403604Y8169859D01*
X1401521Y8173008D01*
X1398371Y8175040D01*
G37*
G36*
X842264Y8171688D02*
G01*
X836168Y8171383D01*
X830326Y8170519D01*
X824737Y8169046D01*
X819403Y8167014D01*
X814374Y8164474D01*
X809650Y8161375D01*
X805281Y8157768D01*
X801319Y8153603D01*
X797712Y8149031D01*
X794512Y8143900D01*
X791718Y8138363D01*
X789381Y8132368D01*
X787552Y8125917D01*
X786231Y8119059D01*
X785368Y8111794D01*
X785114Y8104124D01*
X785368Y8096402D01*
X786180Y8089138D01*
X787552Y8082280D01*
X789330Y8075828D01*
X791616Y8069834D01*
X794359Y8064296D01*
X797509Y8059216D01*
X801065Y8054644D01*
X805027Y8050580D01*
X809294Y8046974D01*
X813917Y8043925D01*
X818845Y8041386D01*
X824077Y8039404D01*
X829564Y8037982D01*
X835304Y8037118D01*
X841248Y8036814D01*
X847344Y8037118D01*
X853084Y8038084D01*
X858469Y8039608D01*
X863549Y8041690D01*
X868273Y8044332D01*
X872744Y8047532D01*
X876960Y8051190D01*
X880871Y8055356D01*
X872744Y8064753D01*
X866038Y8058353D01*
X858824Y8053628D01*
X850849Y8050733D01*
X842010Y8049768D01*
X835812Y8050225D01*
X830021Y8051495D01*
X824687Y8053578D01*
X819810Y8056473D01*
X815441Y8060131D01*
X811580Y8064550D01*
X808228Y8069630D01*
X805434Y8075371D01*
X803249Y8081822D01*
X801674Y8088833D01*
X800658Y8096453D01*
X800354Y8104631D01*
X800709Y8112658D01*
X801725Y8120176D01*
X803351Y8127085D01*
X805637Y8133384D01*
X808482Y8139023D01*
X811936Y8144052D01*
X815848Y8148320D01*
X820318Y8151926D01*
X825195Y8154720D01*
X830580Y8156803D01*
X836371Y8158073D01*
X842518Y8158480D01*
X850493Y8157616D01*
X857707Y8155127D01*
X864006Y8151215D01*
X869442Y8146034D01*
X877569Y8155686D01*
X874572Y8158683D01*
X871169Y8161629D01*
X867308Y8164322D01*
X863041Y8166760D01*
X858418Y8168792D01*
X853389Y8170316D01*
X848004Y8171332D01*
G37*
G36*
X1139190Y8169148D02*
G01*
X1112710Y8091678D01*
X1126490Y8091678D01*
X1138580Y8129320D01*
X1145032Y8151215D01*
X1146556Y8156956D01*
X1147318Y8156956D01*
X1160780Y8113014D01*
X1167638Y8091678D01*
X1112710Y8091678D01*
X1094740Y8039100D01*
X1109472Y8039100D01*
X1122934Y8080248D01*
X1171448Y8080248D01*
X1184402Y8039100D01*
X1199896Y8039100D01*
X1155446Y8169148D01*
G37*
G36*
X1518158Y8162290D02*
G01*
X1516380Y8135112D01*
X1501394Y8134096D01*
X1501394Y8123174D01*
X1515872Y8123174D01*
X1515872Y8068056D01*
X1516176Y8061401D01*
X1517192Y8055356D01*
X1518970Y8050022D01*
X1521561Y8045500D01*
X1525168Y8041792D01*
X1529791Y8039100D01*
X1535582Y8037372D01*
X1542542Y8036814D01*
X1546707Y8037118D01*
X1551076Y8037931D01*
X1559560Y8040370D01*
X1556766Y8051292D01*
X1551127Y8049564D01*
X1548180Y8048955D01*
X1545336Y8048752D01*
X1538173Y8050022D01*
X1533550Y8053781D01*
X1531061Y8059674D01*
X1530350Y8067548D01*
X1530350Y8123174D01*
X1556766Y8123174D01*
X1556766Y8135112D01*
X1530350Y8135112D01*
X1530350Y8162290D01*
G37*
G36*
X1786636Y8162290D02*
G01*
X1784857Y8135112D01*
X1769618Y8134096D01*
X1769618Y8123174D01*
X1784350Y8123174D01*
X1784350Y8068056D01*
X1784654Y8061401D01*
X1785670Y8055356D01*
X1787398Y8050022D01*
X1790039Y8045500D01*
X1793595Y8041792D01*
X1798167Y8039100D01*
X1803857Y8037372D01*
X1810766Y8036814D01*
X1814931Y8037118D01*
X1819300Y8037931D01*
X1827784Y8040370D01*
X1824989Y8051292D01*
X1819503Y8049564D01*
X1816607Y8048955D01*
X1813814Y8048752D01*
X1806498Y8050022D01*
X1801825Y8053781D01*
X1799336Y8059674D01*
X1798574Y8067548D01*
X1798574Y8123174D01*
X1825243Y8123174D01*
X1825243Y8135112D01*
X1798574Y8135112D01*
X1798574Y8162290D01*
G37*
G36*
X2216404Y8162290D02*
G01*
X2214626Y8135112D01*
X2199386Y8134096D01*
X2199386Y8123174D01*
X2213864Y8123174D01*
X2213864Y8068056D01*
X2214168Y8061401D01*
X2215184Y8055356D01*
X2217013Y8050022D01*
X2219655Y8045500D01*
X2223262Y8041792D01*
X2227884Y8039100D01*
X2233625Y8037372D01*
X2240534Y8036814D01*
X2244699Y8037118D01*
X2249068Y8037931D01*
X2257552Y8040370D01*
X2254758Y8051292D01*
X2249271Y8049564D01*
X2246376Y8048955D01*
X2243582Y8048752D01*
X2236266Y8050022D01*
X2231593Y8053781D01*
X2229104Y8059674D01*
X2228342Y8067548D01*
X2228342Y8123174D01*
X2254758Y8123174D01*
X2254758Y8135112D01*
X2228342Y8135112D01*
X2228342Y8162290D01*
G37*
G36*
X2277872Y8162290D02*
G01*
X2276094Y8135112D01*
X2261108Y8134096D01*
X2261108Y8123174D01*
X2275586Y8123174D01*
X2275586Y8068056D01*
X2275890Y8061401D01*
X2276906Y8055356D01*
X2278735Y8050022D01*
X2281377Y8045500D01*
X2284984Y8041792D01*
X2289606Y8039100D01*
X2295347Y8037372D01*
X2302256Y8036814D01*
X2306421Y8037118D01*
X2310790Y8037931D01*
X2319274Y8040370D01*
X2316480Y8051292D01*
X2310993Y8049564D01*
X2308098Y8048955D01*
X2305304Y8048752D01*
X2297988Y8050022D01*
X2293315Y8053781D01*
X2290826Y8059674D01*
X2290064Y8067548D01*
X2290064Y8123174D01*
X2316480Y8123174D01*
X2316480Y8135112D01*
X2290064Y8135112D01*
X2290064Y8162290D01*
G37*
G36*
X939546Y8137652D02*
G01*
X933856Y8137347D01*
X928369Y8136432D01*
X923137Y8135112D01*
X918210Y8133384D01*
X913637Y8131403D01*
X905560Y8127085D01*
X902208Y8124952D01*
X908050Y8114792D01*
X914095Y8118602D01*
X921054Y8122056D01*
X928827Y8124494D01*
X937260Y8125459D01*
X942898Y8124901D01*
X947419Y8123275D01*
X951026Y8120735D01*
X953719Y8117484D01*
X955598Y8113623D01*
X956818Y8109254D01*
X957478Y8104631D01*
X957580Y8099806D01*
X947775Y8098485D01*
X938885Y8096910D01*
X930910Y8095081D01*
X923899Y8092998D01*
X917702Y8090611D01*
X912418Y8087868D01*
X907999Y8084820D01*
X904392Y8081365D01*
X901649Y8077606D01*
X899668Y8073390D01*
X898550Y8068767D01*
X898226Y8064753D01*
X912114Y8064753D01*
X912672Y8069478D01*
X914450Y8073694D01*
X917600Y8077504D01*
X922172Y8080857D01*
X928369Y8083753D01*
X936244Y8086242D01*
X945946Y8088274D01*
X957580Y8089900D01*
X957580Y8061959D01*
X950569Y8056118D01*
X943813Y8051901D01*
X937056Y8049361D01*
X929894Y8048498D01*
X923036Y8049412D01*
X917397Y8052257D01*
X913536Y8057286D01*
X912114Y8064753D01*
X898226Y8064753D01*
X898144Y8063738D01*
X898702Y8057642D01*
X900277Y8052257D01*
X902766Y8047634D01*
X906119Y8043773D01*
X910234Y8040776D01*
X914958Y8038592D01*
X920292Y8037271D01*
X926084Y8036814D01*
X934872Y8037880D01*
X943254Y8040827D01*
X951128Y8045297D01*
X958342Y8050784D01*
X958850Y8050784D01*
X960119Y8039100D01*
X972058Y8039100D01*
X972058Y8098536D01*
X971854Y8104225D01*
X971296Y8109559D01*
X970280Y8114487D01*
X968806Y8119059D01*
X966927Y8123174D01*
X964539Y8126882D01*
X961694Y8130031D01*
X958342Y8132724D01*
X954481Y8134807D01*
X950061Y8136381D01*
X945083Y8137347D01*
G37*
G36*
X1044702Y8137652D02*
G01*
X1036726Y8136178D01*
X1029360Y8132114D01*
X1022807Y8125764D01*
X1017269Y8117586D01*
X1016762Y8117586D01*
X1015492Y8135112D01*
X1003808Y8135112D01*
X1003808Y8039100D01*
X1018032Y8039100D01*
X1018032Y8101584D01*
X1023518Y8112252D01*
X1029817Y8119313D01*
X1036421Y8123224D01*
X1042924Y8124444D01*
X1047546Y8124037D01*
X1051814Y8122920D01*
X1054608Y8135366D01*
X1052322Y8136483D01*
X1050036Y8137194D01*
X1047546Y8137550D01*
G37*
G36*
X1249172Y8137652D02*
G01*
X1241806Y8137093D01*
X1235303Y8135569D01*
X1229715Y8133080D01*
X1225092Y8129828D01*
X1221435Y8125815D01*
X1218793Y8121243D01*
X1217218Y8116163D01*
X1216660Y8110728D01*
X1217320Y8105089D01*
X1219200Y8100263D01*
X1222044Y8096148D01*
X1225753Y8092694D01*
X1230071Y8089747D01*
X1234897Y8087207D01*
X1253083Y8079841D01*
X1260297Y8075930D01*
X1265478Y8070900D01*
X1267460Y8064246D01*
X1266240Y8057997D01*
X1262481Y8052917D01*
X1256233Y8049514D01*
X1247394Y8048244D01*
X1239012Y8049107D01*
X1231595Y8051495D01*
X1224838Y8055102D01*
X1218438Y8059674D01*
X1211326Y8050022D01*
X1214831Y8047278D01*
X1218692Y8044738D01*
X1222857Y8042503D01*
X1227277Y8040573D01*
X1231950Y8038998D01*
X1236776Y8037830D01*
X1241806Y8037068D01*
X1246886Y8036814D01*
X1254760Y8037372D01*
X1261668Y8039049D01*
X1267561Y8041640D01*
X1272387Y8045043D01*
X1276197Y8049209D01*
X1278940Y8053984D01*
X1280617Y8059166D01*
X1281176Y8064753D01*
X1280464Y8071103D01*
X1278534Y8076387D01*
X1275537Y8080756D01*
X1271676Y8084362D01*
X1267104Y8087309D01*
X1262126Y8089849D01*
X1251458Y8094218D01*
X1243584Y8097164D01*
X1236929Y8100669D01*
X1232357Y8105241D01*
X1230630Y8111490D01*
X1231747Y8117078D01*
X1235151Y8121700D01*
X1240891Y8124799D01*
X1249172Y8125968D01*
X1255471Y8125358D01*
X1261059Y8123580D01*
X1266291Y8120938D01*
X1271270Y8117586D01*
X1278382Y8126984D01*
X1272336Y8131098D01*
X1265377Y8134502D01*
X1257604Y8136788D01*
G37*
G36*
X1331468Y8137652D02*
G01*
X1324152Y8137093D01*
X1317701Y8135569D01*
X1312164Y8133080D01*
X1307490Y8129828D01*
X1303832Y8125815D01*
X1301140Y8121243D01*
X1299514Y8116163D01*
X1298956Y8110728D01*
X1299616Y8105089D01*
X1301496Y8100263D01*
X1304340Y8096148D01*
X1308049Y8092694D01*
X1312367Y8089747D01*
X1317193Y8087207D01*
X1335379Y8079841D01*
X1342593Y8075930D01*
X1347774Y8070900D01*
X1349756Y8064246D01*
X1348536Y8057997D01*
X1344777Y8052917D01*
X1338529Y8049514D01*
X1329690Y8048244D01*
X1321308Y8049107D01*
X1313891Y8051495D01*
X1307134Y8055102D01*
X1300734Y8059674D01*
X1293622Y8050022D01*
X1297127Y8047278D01*
X1300988Y8044738D01*
X1305153Y8042503D01*
X1309573Y8040573D01*
X1314246Y8038998D01*
X1319072Y8037830D01*
X1324102Y8037068D01*
X1329182Y8036814D01*
X1337056Y8037372D01*
X1343964Y8039049D01*
X1349857Y8041640D01*
X1354734Y8045043D01*
X1358493Y8049209D01*
X1361236Y8053984D01*
X1362913Y8059166D01*
X1363472Y8064753D01*
X1362760Y8071103D01*
X1360830Y8076387D01*
X1357833Y8080756D01*
X1353972Y8084362D01*
X1349451Y8087309D01*
X1344523Y8089849D01*
X1334008Y8094218D01*
X1325981Y8097164D01*
X1319276Y8100669D01*
X1314653Y8105241D01*
X1312926Y8111490D01*
X1314043Y8117078D01*
X1317447Y8121700D01*
X1323187Y8124799D01*
X1331468Y8125968D01*
X1337767Y8125358D01*
X1343355Y8123580D01*
X1348587Y8120938D01*
X1353566Y8117586D01*
X1360678Y8126984D01*
X1354632Y8131098D01*
X1347673Y8134502D01*
X1339900Y8136788D01*
G37*
G36*
X1461770Y8137652D02*
G01*
X1454404Y8137093D01*
X1447850Y8135569D01*
X1442262Y8133080D01*
X1437589Y8129828D01*
X1433880Y8125815D01*
X1431188Y8121243D01*
X1429562Y8116163D01*
X1429004Y8110728D01*
X1429664Y8105089D01*
X1431544Y8100263D01*
X1434388Y8096148D01*
X1438097Y8092694D01*
X1442415Y8089747D01*
X1447241Y8087207D01*
X1465529Y8079841D01*
X1472742Y8075930D01*
X1477822Y8070900D01*
X1479804Y8064246D01*
X1478584Y8057997D01*
X1474876Y8052917D01*
X1468678Y8049514D01*
X1459992Y8048244D01*
X1451508Y8049107D01*
X1444091Y8051495D01*
X1437386Y8055102D01*
X1431036Y8059674D01*
X1423670Y8050022D01*
X1427276Y8047278D01*
X1431188Y8044738D01*
X1435404Y8042503D01*
X1439875Y8040573D01*
X1444548Y8038998D01*
X1449374Y8037830D01*
X1454404Y8037068D01*
X1459484Y8036814D01*
X1467307Y8037372D01*
X1474165Y8039049D01*
X1480058Y8041640D01*
X1484934Y8045043D01*
X1488744Y8049209D01*
X1491538Y8053984D01*
X1493215Y8059166D01*
X1493774Y8064753D01*
X1493062Y8071103D01*
X1491081Y8076387D01*
X1488033Y8080756D01*
X1484172Y8084362D01*
X1479600Y8087309D01*
X1474571Y8089849D01*
X1464056Y8094218D01*
X1456029Y8097164D01*
X1449324Y8100669D01*
X1444701Y8105241D01*
X1442974Y8111490D01*
X1444091Y8117078D01*
X1447495Y8121700D01*
X1453388Y8124799D01*
X1461770Y8125968D01*
X1467916Y8125358D01*
X1473606Y8123580D01*
X1478838Y8120938D01*
X1483868Y8117586D01*
X1490980Y8126984D01*
X1484934Y8131098D01*
X1477873Y8134502D01*
X1470101Y8136788D01*
G37*
G36*
X1609852Y8137652D02*
G01*
X1604162Y8137347D01*
X1598676Y8136432D01*
X1593443Y8135112D01*
X1588516Y8133384D01*
X1583944Y8131403D01*
X1575866Y8127085D01*
X1572514Y8124952D01*
X1578356Y8114792D01*
X1584401Y8118602D01*
X1591360Y8122056D01*
X1599133Y8124494D01*
X1607566Y8125459D01*
X1613204Y8124901D01*
X1617726Y8123275D01*
X1621332Y8120735D01*
X1624025Y8117484D01*
X1625904Y8113623D01*
X1627124Y8109254D01*
X1627784Y8104631D01*
X1627886Y8099806D01*
X1618081Y8098485D01*
X1609191Y8096910D01*
X1601216Y8095081D01*
X1594205Y8092998D01*
X1588008Y8090611D01*
X1582724Y8087868D01*
X1578305Y8084820D01*
X1574698Y8081365D01*
X1571955Y8077606D01*
X1569974Y8073390D01*
X1568856Y8068767D01*
X1568532Y8064753D01*
X1582420Y8064753D01*
X1582978Y8069478D01*
X1584756Y8073694D01*
X1587906Y8077504D01*
X1592478Y8080857D01*
X1598676Y8083753D01*
X1606550Y8086242D01*
X1616252Y8088274D01*
X1627886Y8089900D01*
X1627886Y8061959D01*
X1620875Y8056118D01*
X1614119Y8051901D01*
X1607362Y8049361D01*
X1600200Y8048498D01*
X1593342Y8049412D01*
X1587703Y8052257D01*
X1583842Y8057286D01*
X1582420Y8064753D01*
X1568532Y8064753D01*
X1568450Y8063738D01*
X1569008Y8057642D01*
X1570583Y8052257D01*
X1573072Y8047634D01*
X1576425Y8043773D01*
X1580540Y8040776D01*
X1585264Y8038592D01*
X1590598Y8037271D01*
X1596390Y8036814D01*
X1605178Y8037880D01*
X1613560Y8040827D01*
X1621434Y8045297D01*
X1628648Y8050784D01*
X1629156Y8050784D01*
X1630426Y8039100D01*
X1642364Y8039100D01*
X1642364Y8098536D01*
X1642160Y8104225D01*
X1641602Y8109559D01*
X1640586Y8114487D01*
X1639112Y8119059D01*
X1637233Y8123174D01*
X1634896Y8126882D01*
X1632000Y8130031D01*
X1628648Y8132724D01*
X1624787Y8134807D01*
X1620367Y8136381D01*
X1615389Y8137347D01*
G37*
G36*
X1720088Y8137652D02*
G01*
X1715262Y8137296D01*
X1710740Y8136331D01*
X1706473Y8134756D01*
X1702409Y8132724D01*
X1698498Y8130286D01*
X1694738Y8127492D01*
X1687575Y8121142D01*
X1687068Y8121142D01*
X1685798Y8135112D01*
X1674114Y8135112D01*
X1674114Y8039100D01*
X1688338Y8039100D01*
X1688338Y8109203D01*
X1695399Y8116062D01*
X1701952Y8120989D01*
X1708607Y8123936D01*
X1715770Y8124952D01*
X1720443Y8124545D01*
X1724406Y8123377D01*
X1727707Y8121396D01*
X1730349Y8118551D01*
X1732330Y8114893D01*
X1733753Y8110270D01*
X1734566Y8104733D01*
X1734820Y8098281D01*
X1734820Y8039100D01*
X1749298Y8039100D01*
X1749298Y8100059D01*
X1748840Y8108746D01*
X1747570Y8116316D01*
X1745335Y8122767D01*
X1742236Y8128101D01*
X1738172Y8132267D01*
X1733092Y8135264D01*
X1727098Y8137042D01*
G37*
G36*
X2383282Y8137652D02*
G01*
X2374950Y8136534D01*
X2366924Y8133486D01*
X2359304Y8129066D01*
X2352294Y8123936D01*
X2351786Y8123936D01*
X2350262Y8135112D01*
X2338578Y8135112D01*
X2338578Y8059420D01*
X2353056Y8059420D01*
X2353056Y8111490D01*
X2360168Y8117484D01*
X2366975Y8121802D01*
X2373579Y8124342D01*
X2379980Y8125206D01*
X2386584Y8124494D01*
X2392172Y8122513D01*
X2396794Y8119313D01*
X2400452Y8114995D01*
X2403246Y8109712D01*
X2405176Y8103463D01*
X2406294Y8096402D01*
X2406650Y8088630D01*
X2406091Y8079943D01*
X2404465Y8072170D01*
X2401824Y8065363D01*
X2398318Y8059674D01*
X2394051Y8055102D01*
X2389073Y8051749D01*
X2383485Y8049717D01*
X2377440Y8049006D01*
X2372258Y8049564D01*
X2366314Y8051342D01*
X2359812Y8054594D01*
X2353056Y8059420D01*
X2338578Y8059420D01*
X2338578Y7997952D01*
X2353056Y7997952D01*
X2353056Y8030972D01*
X2352548Y8047990D01*
X2359406Y8043265D01*
X2366213Y8039760D01*
X2373020Y8037575D01*
X2379726Y8036814D01*
X2385212Y8037220D01*
X2390495Y8038388D01*
X2395575Y8040319D01*
X2400401Y8042960D01*
X2404872Y8046364D01*
X2408986Y8050428D01*
X2412593Y8055203D01*
X2415692Y8060639D01*
X2418181Y8066735D01*
X2420061Y8073390D01*
X2421229Y8080705D01*
X2421636Y8088630D01*
X2421382Y8095792D01*
X2420518Y8102498D01*
X2419197Y8108696D01*
X2417267Y8114436D01*
X2414828Y8119618D01*
X2411882Y8124190D01*
X2408428Y8128152D01*
X2404414Y8131505D01*
X2399893Y8134146D01*
X2394864Y8136077D01*
X2389327Y8137245D01*
G37*
G36*
X2474722Y8137652D02*
G01*
X2467356Y8137093D01*
X2460853Y8135569D01*
X2455265Y8133080D01*
X2450642Y8129828D01*
X2446985Y8125815D01*
X2444343Y8121243D01*
X2442768Y8116163D01*
X2442210Y8110728D01*
X2442870Y8105089D01*
X2444750Y8100263D01*
X2447594Y8096148D01*
X2451303Y8092694D01*
X2455621Y8089747D01*
X2460447Y8087207D01*
X2478633Y8079841D01*
X2485847Y8075930D01*
X2491028Y8070900D01*
X2493010Y8064246D01*
X2491790Y8057997D01*
X2488031Y8052917D01*
X2481783Y8049514D01*
X2472944Y8048244D01*
X2464562Y8049107D01*
X2457145Y8051495D01*
X2450388Y8055102D01*
X2443988Y8059674D01*
X2436876Y8050022D01*
X2440381Y8047278D01*
X2444242Y8044738D01*
X2448407Y8042503D01*
X2452827Y8040573D01*
X2457500Y8038998D01*
X2462326Y8037830D01*
X2467356Y8037068D01*
X2472436Y8036814D01*
X2480310Y8037372D01*
X2487218Y8039049D01*
X2493111Y8041640D01*
X2497988Y8045043D01*
X2501747Y8049209D01*
X2504490Y8053984D01*
X2506167Y8059166D01*
X2506726Y8064753D01*
X2506014Y8071103D01*
X2504084Y8076387D01*
X2501087Y8080756D01*
X2497226Y8084362D01*
X2492654Y8087309D01*
X2487676Y8089849D01*
X2477008Y8094218D01*
X2469134Y8097164D01*
X2462479Y8100669D01*
X2457907Y8105241D01*
X2456180Y8111490D01*
X2457297Y8117078D01*
X2460701Y8121700D01*
X2466492Y8124799D01*
X2474722Y8125968D01*
X2481021Y8125358D01*
X2486609Y8123580D01*
X2491841Y8120938D01*
X2496820Y8117586D01*
X2503932Y8126984D01*
X2497886Y8131098D01*
X2490927Y8134502D01*
X2483154Y8136788D01*
G37*
G36*
X2744470Y8137652D02*
G01*
X2737104Y8137093D01*
X2730550Y8135569D01*
X2724962Y8133080D01*
X2720289Y8129828D01*
X2716580Y8125815D01*
X2713888Y8121243D01*
X2712262Y8116163D01*
X2711704Y8110728D01*
X2712364Y8105089D01*
X2714244Y8100263D01*
X2717139Y8096148D01*
X2720898Y8092694D01*
X2725216Y8089747D01*
X2730042Y8087207D01*
X2748280Y8079841D01*
X2755544Y8075930D01*
X2760776Y8070900D01*
X2762758Y8064246D01*
X2761538Y8057997D01*
X2757779Y8052917D01*
X2751531Y8049514D01*
X2742692Y8048244D01*
X2734310Y8049107D01*
X2726893Y8051495D01*
X2720136Y8055102D01*
X2713736Y8059674D01*
X2706370Y8050022D01*
X2709976Y8047278D01*
X2713888Y8044738D01*
X2718104Y8042503D01*
X2722575Y8040573D01*
X2727248Y8038998D01*
X2732074Y8037830D01*
X2737104Y8037068D01*
X2742184Y8036814D01*
X2750058Y8037372D01*
X2756966Y8039049D01*
X2762859Y8041640D01*
X2767736Y8045043D01*
X2771495Y8049209D01*
X2774238Y8053984D01*
X2775915Y8059166D01*
X2776474Y8064753D01*
X2775762Y8071103D01*
X2773832Y8076387D01*
X2770835Y8080756D01*
X2766974Y8084362D01*
X2762402Y8087309D01*
X2757424Y8089849D01*
X2746756Y8094218D01*
X2738882Y8097164D01*
X2732227Y8100669D01*
X2727655Y8105241D01*
X2725928Y8111490D01*
X2727045Y8117078D01*
X2730449Y8121700D01*
X2736240Y8124799D01*
X2744470Y8125968D01*
X2750769Y8125358D01*
X2756357Y8123580D01*
X2761589Y8120938D01*
X2766568Y8117586D01*
X2773680Y8126984D01*
X2767634Y8131098D01*
X2760675Y8134502D01*
X2752902Y8136788D01*
G37*
G36*
X2943606Y8137652D02*
G01*
X2937814Y8137245D01*
X2932226Y8136128D01*
X2926892Y8134248D01*
X2921812Y8131657D01*
X2917139Y8128355D01*
X2912872Y8124393D01*
X2909112Y8119719D01*
X2905861Y8114436D01*
X2903220Y8108492D01*
X2901289Y8101939D01*
X2900070Y8094827D01*
X2899664Y8087106D01*
X2914396Y8087106D01*
X2914954Y8095284D01*
X2916529Y8102701D01*
X2919069Y8109203D01*
X2922524Y8114741D01*
X2926791Y8119160D01*
X2931769Y8122462D01*
X2937408Y8124494D01*
X2943606Y8125206D01*
X2949854Y8124494D01*
X2955493Y8122462D01*
X2960522Y8119160D01*
X2964840Y8114741D01*
X2968294Y8109203D01*
X2970885Y8102701D01*
X2972511Y8095284D01*
X2973070Y8087106D01*
X2972511Y8078927D01*
X2970885Y8071510D01*
X2968294Y8065008D01*
X2964840Y8059470D01*
X2960522Y8055051D01*
X2955493Y8051749D01*
X2949854Y8049717D01*
X2943606Y8049006D01*
X2937408Y8049717D01*
X2931769Y8051749D01*
X2926791Y8055051D01*
X2922524Y8059470D01*
X2919069Y8065008D01*
X2916529Y8071510D01*
X2914954Y8078927D01*
X2914396Y8087106D01*
X2899664Y8087106D01*
X2900070Y8079435D01*
X2901289Y8072374D01*
X2903220Y8065871D01*
X2905861Y8059978D01*
X2909112Y8054695D01*
X2912872Y8050072D01*
X2917139Y8046110D01*
X2921812Y8042808D01*
X2926892Y8040217D01*
X2932226Y8038338D01*
X2937814Y8037220D01*
X2943606Y8036814D01*
X2949448Y8037220D01*
X2955086Y8038338D01*
X2960522Y8040217D01*
X2965653Y8042808D01*
X2970377Y8046110D01*
X2974695Y8050072D01*
X2978505Y8054695D01*
X2981756Y8059978D01*
X2984449Y8065871D01*
X2986379Y8072374D01*
X2987649Y8079435D01*
X2988056Y8087106D01*
X2987649Y8094827D01*
X2986379Y8101939D01*
X2984449Y8108492D01*
X2981756Y8114436D01*
X2978505Y8119719D01*
X2974695Y8124393D01*
X2970377Y8128355D01*
X2965653Y8131657D01*
X2960522Y8134248D01*
X2955086Y8136128D01*
X2949448Y8137245D01*
G37*
G36*
X3060192Y8137652D02*
G01*
X3055366Y8137296D01*
X3050844Y8136331D01*
X3046577Y8134756D01*
X3042513Y8132724D01*
X3038602Y8130286D01*
X3034842Y8127492D01*
X3027680Y8121142D01*
X3027172Y8121142D01*
X3025902Y8135112D01*
X3013964Y8135112D01*
X3013964Y8039100D01*
X3028442Y8039100D01*
X3028442Y8109203D01*
X3035503Y8116062D01*
X3042056Y8120989D01*
X3048711Y8123936D01*
X3055874Y8124952D01*
X3060496Y8124545D01*
X3064408Y8123377D01*
X3067710Y8121396D01*
X3070352Y8118551D01*
X3072384Y8114893D01*
X3073806Y8110270D01*
X3074670Y8104733D01*
X3074924Y8098281D01*
X3074924Y8039100D01*
X3089402Y8039100D01*
X3089402Y8100059D01*
X3088944Y8108746D01*
X3087674Y8116316D01*
X3085439Y8122767D01*
X3082340Y8128101D01*
X3078276Y8132267D01*
X3073196Y8135264D01*
X3067202Y8137042D01*
G37*
G36*
X3205480Y8137652D02*
G01*
X3199434Y8137245D01*
X3193643Y8136128D01*
X3188055Y8134248D01*
X3182772Y8131657D01*
X3177895Y8128355D01*
X3173476Y8124393D01*
X3169564Y8119719D01*
X3166211Y8114436D01*
X3163468Y8108492D01*
X3161436Y8101939D01*
X3160217Y8094827D01*
X3159760Y8087106D01*
X3160166Y8079435D01*
X3161334Y8072374D01*
X3163214Y8065871D01*
X3165754Y8059978D01*
X3168954Y8054695D01*
X3172663Y8050072D01*
X3176930Y8046110D01*
X3181705Y8042808D01*
X3186887Y8040217D01*
X3192424Y8038338D01*
X3198317Y8037220D01*
X3204464Y8036814D01*
X3212998Y8037626D01*
X3221075Y8040065D01*
X3228594Y8043875D01*
X3235452Y8049006D01*
X3229102Y8058658D01*
X3224174Y8054898D01*
X3218586Y8051850D01*
X3212388Y8049768D01*
X3205734Y8049006D01*
X3199079Y8049717D01*
X3193084Y8051749D01*
X3187801Y8055051D01*
X3183280Y8059470D01*
X3179673Y8065008D01*
X3176981Y8071510D01*
X3175304Y8078927D01*
X3174746Y8087106D01*
X3175355Y8095284D01*
X3177133Y8102701D01*
X3179927Y8109203D01*
X3183686Y8114741D01*
X3188309Y8119160D01*
X3193592Y8122462D01*
X3199536Y8124494D01*
X3205988Y8125206D01*
X3211728Y8124596D01*
X3216859Y8122869D01*
X3221583Y8120176D01*
X3226054Y8116570D01*
X3233674Y8125968D01*
X3228136Y8130489D01*
X3221786Y8134197D01*
X3214268Y8136737D01*
G37*
G36*
X3289808Y8137652D02*
G01*
X3284016Y8137245D01*
X3278428Y8136128D01*
X3273094Y8134248D01*
X3268014Y8131657D01*
X3263341Y8128355D01*
X3259074Y8124393D01*
X3255314Y8119719D01*
X3252063Y8114436D01*
X3249422Y8108492D01*
X3247491Y8101939D01*
X3246272Y8094827D01*
X3245866Y8087106D01*
X3260598Y8087106D01*
X3261156Y8095284D01*
X3262731Y8102701D01*
X3265271Y8109203D01*
X3268726Y8114741D01*
X3272993Y8119160D01*
X3277971Y8122462D01*
X3283610Y8124494D01*
X3289808Y8125206D01*
X3296056Y8124494D01*
X3301695Y8122462D01*
X3306724Y8119160D01*
X3310991Y8114741D01*
X3314496Y8109203D01*
X3317087Y8102701D01*
X3318713Y8095284D01*
X3319272Y8087106D01*
X3318713Y8078927D01*
X3317087Y8071510D01*
X3314496Y8065008D01*
X3310991Y8059470D01*
X3306724Y8055051D01*
X3301695Y8051749D01*
X3296056Y8049717D01*
X3289808Y8049006D01*
X3283610Y8049717D01*
X3277971Y8051749D01*
X3272993Y8055051D01*
X3268726Y8059470D01*
X3265271Y8065008D01*
X3262731Y8071510D01*
X3261156Y8078927D01*
X3260598Y8087106D01*
X3245866Y8087106D01*
X3246272Y8079435D01*
X3247491Y8072374D01*
X3249422Y8065871D01*
X3252063Y8059978D01*
X3255314Y8054695D01*
X3259074Y8050072D01*
X3263341Y8046110D01*
X3268014Y8042808D01*
X3273094Y8040217D01*
X3278428Y8038338D01*
X3284016Y8037220D01*
X3289808Y8036814D01*
X3295650Y8037220D01*
X3301288Y8038338D01*
X3306673Y8040217D01*
X3311753Y8042808D01*
X3316478Y8046110D01*
X3320745Y8050072D01*
X3324555Y8054695D01*
X3327806Y8059978D01*
X3330397Y8065871D01*
X3332378Y8072374D01*
X3333597Y8079435D01*
X3334004Y8087106D01*
X3333597Y8094827D01*
X3332378Y8101939D01*
X3330397Y8108492D01*
X3327806Y8114436D01*
X3324555Y8119719D01*
X3320745Y8124393D01*
X3316478Y8128355D01*
X3311753Y8131657D01*
X3306673Y8134248D01*
X3301288Y8136128D01*
X3295650Y8137245D01*
G37*
G36*
X3504946Y8137652D02*
G01*
X3499459Y8137245D01*
X3494074Y8136077D01*
X3488893Y8134096D01*
X3484016Y8131454D01*
X3479393Y8128050D01*
X3475177Y8123986D01*
X3471468Y8119313D01*
X3468217Y8113979D01*
X3465626Y8108086D01*
X3463645Y8101634D01*
X3462418Y8094472D01*
X3476244Y8094472D01*
X3477463Y8101533D01*
X3479647Y8107730D01*
X3482543Y8113166D01*
X3486150Y8117636D01*
X3490315Y8121243D01*
X3494938Y8123834D01*
X3499967Y8125409D01*
X3505200Y8125968D01*
X3510737Y8125459D01*
X3515614Y8123936D01*
X3519881Y8121446D01*
X3523437Y8117941D01*
X3526282Y8113471D01*
X3528364Y8108086D01*
X3529634Y8101736D01*
X3530092Y8094472D01*
X3462418Y8094472D01*
X3462020Y8087106D01*
X3462426Y8079435D01*
X3463645Y8072374D01*
X3465576Y8065871D01*
X3468217Y8059978D01*
X3471519Y8054695D01*
X3475329Y8050072D01*
X3479749Y8046110D01*
X3484575Y8042808D01*
X3489858Y8040217D01*
X3495548Y8038338D01*
X3501491Y8037220D01*
X3507740Y8036814D01*
X3517036Y8037575D01*
X3525316Y8039658D01*
X3532632Y8042706D01*
X3539236Y8046466D01*
X3533901Y8056118D01*
X3528415Y8052866D01*
X3522573Y8050377D01*
X3516274Y8048802D01*
X3509518Y8048244D01*
X3502609Y8048904D01*
X3496360Y8050784D01*
X3490874Y8053882D01*
X3486150Y8057997D01*
X3482289Y8063179D01*
X3479393Y8069224D01*
X3477412Y8076133D01*
X3476498Y8083803D01*
X3542029Y8083803D01*
X3542487Y8085785D01*
X3542792Y8090255D01*
X3542487Y8099399D01*
X3541674Y8105648D01*
X3540251Y8111388D01*
X3538321Y8116671D01*
X3535883Y8121396D01*
X3532936Y8125561D01*
X3529431Y8129168D01*
X3525469Y8132165D01*
X3521049Y8134502D01*
X3516122Y8136229D01*
X3510737Y8137296D01*
G37*
G36*
X3594100Y8137652D02*
G01*
X3586734Y8137093D01*
X3580180Y8135569D01*
X3574592Y8133080D01*
X3569919Y8129828D01*
X3566210Y8125815D01*
X3563518Y8121243D01*
X3561892Y8116163D01*
X3561334Y8110728D01*
X3561994Y8105089D01*
X3563874Y8100263D01*
X3566718Y8096148D01*
X3570427Y8092694D01*
X3574745Y8089747D01*
X3579571Y8087207D01*
X3597859Y8079841D01*
X3605072Y8075930D01*
X3610152Y8070900D01*
X3612134Y8064246D01*
X3610914Y8057997D01*
X3607155Y8052917D01*
X3601008Y8049514D01*
X3592322Y8048244D01*
X3583838Y8049107D01*
X3576421Y8051495D01*
X3569715Y8055102D01*
X3563365Y8059674D01*
X3556000Y8050022D01*
X3559606Y8047278D01*
X3563518Y8044738D01*
X3567734Y8042503D01*
X3572205Y8040573D01*
X3576878Y8038998D01*
X3581704Y8037830D01*
X3586734Y8037068D01*
X3591814Y8036814D01*
X3599637Y8037372D01*
X3606495Y8039049D01*
X3612387Y8041640D01*
X3617264Y8045043D01*
X3621074Y8049209D01*
X3623868Y8053984D01*
X3625545Y8059166D01*
X3626104Y8064753D01*
X3625392Y8071103D01*
X3623411Y8076387D01*
X3620363Y8080756D01*
X3616502Y8084362D01*
X3611930Y8087309D01*
X3606901Y8089849D01*
X3596386Y8094218D01*
X3588461Y8097164D01*
X3581755Y8100669D01*
X3577082Y8105241D01*
X3575304Y8111490D01*
X3576421Y8117078D01*
X3579825Y8121700D01*
X3585718Y8124799D01*
X3594100Y8125968D01*
X3600246Y8125358D01*
X3605936Y8123580D01*
X3611168Y8120938D01*
X3616198Y8117586D01*
X3623310Y8126984D01*
X3617264Y8131098D01*
X3610203Y8134502D01*
X3602431Y8136788D01*
G37*
G36*
X1387094Y8135112D02*
G01*
X1387094Y8039100D01*
X1401572Y8039100D01*
X1401572Y8135112D01*
G37*
G36*
X2537206Y8132572D02*
G01*
X2533040Y8131708D01*
X2529535Y8129270D01*
X2527147Y8125510D01*
X2526284Y8120634D01*
X2527147Y8116062D01*
X2529535Y8112455D01*
X2533040Y8110067D01*
X2537206Y8109203D01*
X2541473Y8110067D01*
X2544927Y8112455D01*
X2547264Y8116062D01*
X2548128Y8120634D01*
X2547264Y8125510D01*
X2544927Y8129270D01*
X2541473Y8131708D01*
G37*
G36*
X1958848Y8124952D02*
G01*
X1951685Y8123529D01*
X1945893Y8119618D01*
X1941982Y8113826D01*
X1940560Y8106664D01*
X1941982Y8099501D01*
X1945893Y8093709D01*
X1951685Y8089798D01*
X1958848Y8088375D01*
X1966010Y8089798D01*
X1971802Y8093709D01*
X1975713Y8099501D01*
X1977136Y8106664D01*
X1975713Y8113826D01*
X1971802Y8119618D01*
X1966010Y8123529D01*
G37*
G36*
X2537206Y8059928D02*
G01*
X2533040Y8059115D01*
X2529535Y8056778D01*
X2527147Y8053070D01*
X2526284Y8048244D01*
X2527147Y8043570D01*
X2529535Y8039963D01*
X2533040Y8037626D01*
X2537206Y8036814D01*
X2541473Y8037626D01*
X2544927Y8039963D01*
X2547264Y8043570D01*
X2548128Y8048244D01*
X2547264Y8053070D01*
X2544927Y8056778D01*
X2541473Y8059115D01*
G37*
G36*
X3128518Y8059928D02*
G01*
X3124403Y8059115D01*
X3120999Y8056778D01*
X3118713Y8053070D01*
X3117850Y8048244D01*
X3118713Y8043570D01*
X3120999Y8039963D01*
X3124403Y8037626D01*
X3128518Y8036814D01*
X3132836Y8037626D01*
X3136392Y8039963D01*
X3138779Y8043570D01*
X3139694Y8048244D01*
X3138779Y8053070D01*
X3136392Y8056778D01*
X3132836Y8059115D01*
G37*
G36*
X1176274Y7765288D02*
G01*
X1170889Y7764983D01*
X1165809Y7764119D01*
X1161034Y7762748D01*
X1156462Y7760868D01*
X1152144Y7758582D01*
X1148080Y7755940D01*
X1144168Y7752994D01*
X1140460Y7749794D01*
X1148334Y7740396D01*
X1154226Y7745628D01*
X1160830Y7749743D01*
X1167993Y7752384D01*
X1175766Y7753350D01*
X1180846Y7752943D01*
X1185316Y7751825D01*
X1189228Y7749946D01*
X1192530Y7747457D01*
X1195120Y7744358D01*
X1197051Y7740700D01*
X1198219Y7736586D01*
X1198626Y7732014D01*
X1198168Y7726680D01*
X1196746Y7721752D01*
X1194206Y7717332D01*
X1190548Y7713522D01*
X1185570Y7710424D01*
X1179220Y7708087D01*
X1171448Y7706614D01*
X1162050Y7706106D01*
X1162050Y7694675D01*
X1172514Y7694168D01*
X1181252Y7692745D01*
X1188364Y7690459D01*
X1193952Y7687360D01*
X1198168Y7683500D01*
X1201013Y7678928D01*
X1202690Y7673746D01*
X1203198Y7668006D01*
X1202690Y7662418D01*
X1201166Y7657388D01*
X1198727Y7653070D01*
X1195527Y7649413D01*
X1191564Y7646466D01*
X1186891Y7644384D01*
X1181709Y7643063D01*
X1176020Y7642606D01*
X1170482Y7642910D01*
X1165453Y7643825D01*
X1160830Y7645247D01*
X1156665Y7647127D01*
X1152804Y7649413D01*
X1149299Y7651953D01*
X1143000Y7657592D01*
X1135634Y7648194D01*
X1138986Y7644790D01*
X1142796Y7641539D01*
X1147064Y7638542D01*
X1151839Y7635900D01*
X1157173Y7633614D01*
X1163066Y7631887D01*
X1169619Y7630820D01*
X1176782Y7630414D01*
X1182370Y7630718D01*
X1187754Y7631531D01*
X1192834Y7632903D01*
X1197559Y7634833D01*
X1201877Y7637221D01*
X1205788Y7640167D01*
X1209243Y7643571D01*
X1212138Y7647431D01*
X1214526Y7651750D01*
X1216253Y7656474D01*
X1217320Y7661656D01*
X1217676Y7667244D01*
X1217117Y7673695D01*
X1215491Y7679537D01*
X1212951Y7684770D01*
X1209548Y7689291D01*
X1205433Y7693202D01*
X1200759Y7696352D01*
X1195578Y7698790D01*
X1189990Y7700518D01*
X1189990Y7701280D01*
X1195019Y7703413D01*
X1199540Y7706106D01*
X1203502Y7709255D01*
X1206906Y7712964D01*
X1209649Y7717180D01*
X1211681Y7721904D01*
X1212951Y7727188D01*
X1213358Y7733030D01*
X1212646Y7740243D01*
X1210564Y7746644D01*
X1207262Y7752181D01*
X1202842Y7756804D01*
X1197406Y7760462D01*
X1191056Y7763103D01*
X1183995Y7764729D01*
G37*
G36*
X1322070Y7765288D02*
G01*
X1316634Y7764983D01*
X1311452Y7764119D01*
X1306626Y7762748D01*
X1302054Y7760868D01*
X1297686Y7758582D01*
X1293622Y7755940D01*
X1289710Y7752994D01*
X1286002Y7749794D01*
X1294130Y7740396D01*
X1299921Y7745628D01*
X1306525Y7749743D01*
X1313789Y7752384D01*
X1321562Y7753350D01*
X1326540Y7752943D01*
X1331010Y7751825D01*
X1334871Y7749946D01*
X1338122Y7747457D01*
X1340713Y7744358D01*
X1342593Y7740700D01*
X1343761Y7736586D01*
X1344168Y7732014D01*
X1343710Y7726680D01*
X1342288Y7721752D01*
X1339748Y7717332D01*
X1336090Y7713522D01*
X1331112Y7710424D01*
X1324762Y7708087D01*
X1316990Y7706614D01*
X1307592Y7706106D01*
X1307592Y7694675D01*
X1318056Y7694168D01*
X1326794Y7692745D01*
X1333906Y7690459D01*
X1339494Y7687360D01*
X1343710Y7683500D01*
X1346555Y7678928D01*
X1348232Y7673746D01*
X1348740Y7668006D01*
X1348232Y7662418D01*
X1346708Y7657388D01*
X1344269Y7653070D01*
X1341069Y7649413D01*
X1337106Y7646466D01*
X1332433Y7644384D01*
X1327251Y7643063D01*
X1321562Y7642606D01*
X1316024Y7642910D01*
X1310995Y7643825D01*
X1306372Y7645247D01*
X1302207Y7647127D01*
X1298448Y7649413D01*
X1294942Y7651953D01*
X1291742Y7654696D01*
X1288796Y7657592D01*
X1281176Y7648194D01*
X1284528Y7644790D01*
X1288338Y7641539D01*
X1292606Y7638542D01*
X1297381Y7635900D01*
X1302766Y7633614D01*
X1308709Y7631887D01*
X1315313Y7630820D01*
X1322578Y7630414D01*
X1328115Y7630718D01*
X1333449Y7631531D01*
X1338529Y7632903D01*
X1343202Y7634833D01*
X1347571Y7637221D01*
X1351483Y7640167D01*
X1354937Y7643571D01*
X1357884Y7647431D01*
X1360271Y7651750D01*
X1361998Y7656474D01*
X1363116Y7661656D01*
X1363472Y7667244D01*
X1362913Y7673695D01*
X1361287Y7679537D01*
X1358747Y7684770D01*
X1355344Y7689291D01*
X1351229Y7693202D01*
X1346555Y7696352D01*
X1341374Y7698790D01*
X1335786Y7700518D01*
X1335786Y7701280D01*
X1340713Y7703413D01*
X1345184Y7706106D01*
X1349146Y7709255D01*
X1352499Y7712964D01*
X1355191Y7717180D01*
X1357223Y7721904D01*
X1358493Y7727188D01*
X1358900Y7733030D01*
X1358188Y7740243D01*
X1356156Y7746644D01*
X1352854Y7752181D01*
X1348486Y7756804D01*
X1343101Y7760462D01*
X1336802Y7763103D01*
X1329791Y7764729D01*
G37*
G36*
X1375918Y7728712D02*
G01*
X1410970Y7632700D01*
X1427734Y7632700D01*
X1462024Y7728712D01*
X1447800Y7728712D01*
X1428750Y7672831D01*
X1419860Y7644638D01*
X1419098Y7644638D01*
X1409954Y7672831D01*
X1390904Y7728712D01*
G37*
G36*
X1251712Y7653528D02*
G01*
X1247546Y7652715D01*
X1244041Y7650378D01*
X1241653Y7646670D01*
X1240790Y7641844D01*
X1241653Y7637170D01*
X1244041Y7633563D01*
X1247546Y7631226D01*
X1251712Y7630414D01*
X1256030Y7631226D01*
X1259586Y7633563D01*
X1261973Y7637170D01*
X1262888Y7641844D01*
X1261973Y7646670D01*
X1259586Y7650378D01*
X1256030Y7652715D01*
G37*
G36*
X1199896Y7511288D02*
G01*
X1193596Y7510983D01*
X1187500Y7510119D01*
X1181709Y7508646D01*
X1176172Y7506614D01*
X1170990Y7504074D01*
X1166114Y7500975D01*
X1161592Y7497368D01*
X1157427Y7493203D01*
X1153718Y7488631D01*
X1150416Y7483500D01*
X1147521Y7477963D01*
X1145133Y7471968D01*
X1143254Y7465517D01*
X1141831Y7458659D01*
X1141018Y7451394D01*
X1140714Y7443724D01*
X1140968Y7436002D01*
X1141831Y7428738D01*
X1143152Y7421880D01*
X1145032Y7415428D01*
X1147318Y7409434D01*
X1150112Y7403896D01*
X1153363Y7398816D01*
X1157020Y7394244D01*
X1161034Y7390180D01*
X1165453Y7386574D01*
X1170228Y7383525D01*
X1175308Y7380986D01*
X1180744Y7379004D01*
X1186434Y7377582D01*
X1192428Y7376718D01*
X1198626Y7376414D01*
X1205026Y7376668D01*
X1211072Y7377480D01*
X1216710Y7378801D01*
X1221994Y7380579D01*
X1226820Y7382764D01*
X1231188Y7385303D01*
X1235100Y7388199D01*
X1238504Y7391400D01*
X1238504Y7445248D01*
X1196594Y7445248D01*
X1196594Y7433056D01*
X1224788Y7433056D01*
X1224788Y7397496D01*
X1220063Y7394092D01*
X1214170Y7391552D01*
X1207414Y7389926D01*
X1200150Y7389368D01*
X1193342Y7389825D01*
X1187094Y7391095D01*
X1181354Y7393178D01*
X1176172Y7396073D01*
X1171549Y7399731D01*
X1167485Y7404150D01*
X1164031Y7409230D01*
X1161135Y7414971D01*
X1158900Y7421422D01*
X1157274Y7428433D01*
X1156309Y7436053D01*
X1155954Y7444231D01*
X1156309Y7452258D01*
X1157376Y7459776D01*
X1159052Y7466685D01*
X1161440Y7472984D01*
X1164386Y7478623D01*
X1167942Y7483652D01*
X1172057Y7487920D01*
X1176731Y7491526D01*
X1181862Y7494320D01*
X1187551Y7496403D01*
X1193647Y7497673D01*
X1200150Y7498080D01*
X1209395Y7497114D01*
X1217066Y7494524D01*
X1223467Y7490561D01*
X1228852Y7485634D01*
X1236980Y7495286D01*
X1233982Y7498181D01*
X1230579Y7501026D01*
X1226718Y7503718D01*
X1222349Y7506157D01*
X1217523Y7508240D01*
X1212138Y7509865D01*
X1206296Y7510932D01*
G37*
G36*
X1270000Y7508748D02*
G01*
X1270000Y7378700D01*
X1283970Y7378700D01*
X1283919Y7455103D01*
X1283106Y7475016D01*
X1282192Y7489698D01*
X1282954Y7489698D01*
X1297178Y7463028D01*
X1346200Y7378700D01*
X1361440Y7378700D01*
X1361440Y7508748D01*
X1347470Y7508748D01*
X1347520Y7433411D01*
X1348333Y7412990D01*
X1349248Y7398003D01*
X1348486Y7398003D01*
X1334516Y7424674D01*
X1285240Y7508748D01*
G37*
G36*
X1397762Y7508748D02*
G01*
X1397762Y7496809D01*
X1428496Y7496809D01*
X1434236Y7496606D01*
X1439570Y7495895D01*
X1444548Y7494828D01*
X1449120Y7493253D01*
X1453337Y7491323D01*
X1457198Y7488936D01*
X1460703Y7486192D01*
X1463802Y7482992D01*
X1466545Y7479436D01*
X1468932Y7475474D01*
X1470914Y7471156D01*
X1472590Y7466482D01*
X1473860Y7461453D01*
X1474774Y7456068D01*
X1475282Y7450328D01*
X1475486Y7444231D01*
X1475282Y7438136D01*
X1474774Y7432395D01*
X1473860Y7426959D01*
X1472590Y7421880D01*
X1470914Y7417104D01*
X1468932Y7412736D01*
X1466545Y7408722D01*
X1463802Y7405065D01*
X1460703Y7401864D01*
X1457198Y7399020D01*
X1453337Y7396581D01*
X1449120Y7394549D01*
X1444548Y7392974D01*
X1439570Y7391806D01*
X1434236Y7391146D01*
X1428496Y7390892D01*
X1412494Y7390892D01*
X1412494Y7496809D01*
X1397762Y7496809D01*
X1397762Y7378700D01*
X1430274Y7378700D01*
X1437436Y7379004D01*
X1444142Y7379817D01*
X1450441Y7381240D01*
X1456283Y7383170D01*
X1461668Y7385659D01*
X1466646Y7388656D01*
X1471117Y7392162D01*
X1475130Y7396124D01*
X1478686Y7400594D01*
X1481785Y7405522D01*
X1484426Y7410907D01*
X1486611Y7416749D01*
X1488287Y7422997D01*
X1489506Y7429652D01*
X1490218Y7436764D01*
X1490472Y7444231D01*
X1490218Y7451699D01*
X1489506Y7458760D01*
X1488287Y7465364D01*
X1486611Y7471562D01*
X1484426Y7477302D01*
X1481785Y7482636D01*
X1478686Y7487462D01*
X1475079Y7491831D01*
X1471015Y7495692D01*
X1466494Y7499096D01*
X1461516Y7502042D01*
X1456080Y7504430D01*
X1450187Y7506309D01*
X1443837Y7507630D01*
X1437030Y7508494D01*
X1429766Y7508748D01*
G37*
G36*
X1525778Y7269734D02*
G01*
X1519986Y7259726D01*
X1514856Y7249414D01*
X1510436Y7238847D01*
X1506728Y7227925D01*
X1503781Y7216597D01*
X1501648Y7204811D01*
X1500327Y7192568D01*
X1499971Y7186269D01*
X1499971Y7173315D01*
X1500886Y7160768D01*
X1502613Y7148728D01*
X1505153Y7137196D01*
X1508506Y7126122D01*
X1512570Y7115403D01*
X1517345Y7104989D01*
X1522831Y7094880D01*
X1525778Y7089902D01*
X1534922Y7094220D01*
X1529486Y7103872D01*
X1524762Y7113930D01*
X1520799Y7124293D01*
X1517548Y7135012D01*
X1515059Y7145985D01*
X1513230Y7157110D01*
X1512163Y7168438D01*
X1511808Y7179818D01*
X1512163Y7191197D01*
X1513230Y7202525D01*
X1515059Y7213650D01*
X1517548Y7224623D01*
X1520799Y7235342D01*
X1524762Y7245705D01*
X1529486Y7255764D01*
X1534922Y7265416D01*
G37*
G36*
X1753362Y7269734D02*
G01*
X1744472Y7265416D01*
X1749907Y7255764D01*
X1754632Y7245705D01*
X1758594Y7235342D01*
X1761845Y7224623D01*
X1764334Y7213650D01*
X1766163Y7202525D01*
X1767230Y7191197D01*
X1767586Y7179818D01*
X1767230Y7168438D01*
X1766163Y7157110D01*
X1764334Y7145985D01*
X1761845Y7135012D01*
X1758594Y7124293D01*
X1754632Y7113930D01*
X1749907Y7103872D01*
X1744472Y7094220D01*
X1753362Y7089902D01*
X1759204Y7099909D01*
X1764436Y7110171D01*
X1768906Y7120737D01*
X1772615Y7131608D01*
X1774240Y7137196D01*
X1776780Y7148728D01*
X1778507Y7160768D01*
X1779422Y7173315D01*
X1779422Y7186269D01*
X1778507Y7198766D01*
X1776780Y7210755D01*
X1774240Y7222286D01*
X1770837Y7233412D01*
X1768906Y7238847D01*
X1764436Y7249414D01*
X1759204Y7259726D01*
G37*
G36*
X1185418Y7257288D02*
G01*
X1179779Y7256983D01*
X1174394Y7256119D01*
X1169416Y7254748D01*
X1164742Y7252868D01*
X1160475Y7250480D01*
X1156665Y7247686D01*
X1153363Y7244486D01*
X1150569Y7240879D01*
X1148283Y7236917D01*
X1146657Y7232650D01*
X1145641Y7228078D01*
X1145286Y7223252D01*
X1145946Y7216597D01*
X1147724Y7210755D01*
X1150518Y7205776D01*
X1154023Y7201509D01*
X1158087Y7197902D01*
X1162558Y7194854D01*
X1167130Y7192314D01*
X1190498Y7181850D01*
X1199235Y7177735D01*
X1203045Y7175500D01*
X1206347Y7173010D01*
X1209040Y7170115D01*
X1211122Y7166711D01*
X1212392Y7162596D01*
X1212850Y7157720D01*
X1212342Y7152944D01*
X1210868Y7148677D01*
X1208481Y7144867D01*
X1205179Y7141565D01*
X1201064Y7138974D01*
X1196136Y7136993D01*
X1190498Y7135774D01*
X1184148Y7135368D01*
X1178966Y7135672D01*
X1173886Y7136536D01*
X1169009Y7137908D01*
X1164285Y7139838D01*
X1159764Y7142175D01*
X1155496Y7145020D01*
X1151534Y7148271D01*
X1147826Y7151878D01*
X1138936Y7141718D01*
X1143304Y7137450D01*
X1148080Y7133640D01*
X1153261Y7130338D01*
X1158748Y7127595D01*
X1164590Y7125360D01*
X1170736Y7123734D01*
X1177188Y7122769D01*
X1183894Y7122414D01*
X1190396Y7122718D01*
X1196492Y7123684D01*
X1202131Y7125208D01*
X1207262Y7127290D01*
X1211884Y7129881D01*
X1215948Y7132929D01*
X1219504Y7136434D01*
X1222451Y7140295D01*
X1224737Y7144512D01*
X1226464Y7148982D01*
X1227480Y7153757D01*
X1227836Y7158736D01*
X1227277Y7165594D01*
X1225702Y7171537D01*
X1223213Y7176668D01*
X1219860Y7181138D01*
X1215847Y7184948D01*
X1211224Y7188250D01*
X1206144Y7191197D01*
X1200658Y7193788D01*
X1181862Y7201662D01*
X1174292Y7205116D01*
X1167333Y7209536D01*
X1162253Y7215682D01*
X1160272Y7224268D01*
X1160729Y7228636D01*
X1162050Y7232497D01*
X1164234Y7235901D01*
X1167130Y7238746D01*
X1170787Y7241031D01*
X1175054Y7242708D01*
X1179982Y7243724D01*
X1185418Y7244080D01*
X1194257Y7243216D01*
X1202131Y7240727D01*
X1209141Y7236815D01*
X1215390Y7231634D01*
X1223264Y7241286D01*
X1219708Y7244689D01*
X1215796Y7247737D01*
X1211529Y7250480D01*
X1206906Y7252817D01*
X1201978Y7254697D01*
X1196746Y7256119D01*
X1191209Y7256983D01*
G37*
G36*
X1303020Y7257288D02*
G01*
X1296974Y7256983D01*
X1291183Y7256119D01*
X1285595Y7254646D01*
X1280312Y7252614D01*
X1275283Y7250074D01*
X1270609Y7246975D01*
X1266291Y7243368D01*
X1262278Y7239203D01*
X1258671Y7234631D01*
X1255471Y7229500D01*
X1252728Y7223963D01*
X1250391Y7217968D01*
X1248562Y7211517D01*
X1247241Y7204659D01*
X1246378Y7197394D01*
X1246124Y7189724D01*
X1246378Y7182002D01*
X1247190Y7174738D01*
X1248511Y7167880D01*
X1250340Y7161428D01*
X1252575Y7155434D01*
X1255318Y7149896D01*
X1258417Y7144816D01*
X1261973Y7140244D01*
X1265885Y7136180D01*
X1270152Y7132574D01*
X1274724Y7129525D01*
X1279652Y7126986D01*
X1284884Y7125004D01*
X1290320Y7123582D01*
X1296060Y7122718D01*
X1302004Y7122414D01*
X1308150Y7122718D01*
X1313942Y7123684D01*
X1319326Y7125208D01*
X1324406Y7127290D01*
X1329131Y7129932D01*
X1333550Y7133132D01*
X1337716Y7136790D01*
X1341628Y7140956D01*
X1333500Y7150353D01*
X1326845Y7143953D01*
X1319631Y7139228D01*
X1311706Y7136333D01*
X1302766Y7135368D01*
X1296568Y7135825D01*
X1290777Y7137095D01*
X1285443Y7139178D01*
X1280566Y7142073D01*
X1276197Y7145731D01*
X1272336Y7150150D01*
X1268984Y7155230D01*
X1266190Y7160971D01*
X1264005Y7167422D01*
X1262430Y7174433D01*
X1261414Y7182053D01*
X1261110Y7190231D01*
X1261465Y7198258D01*
X1262481Y7205776D01*
X1264107Y7212685D01*
X1266393Y7218984D01*
X1269238Y7224623D01*
X1272692Y7229652D01*
X1276604Y7233920D01*
X1281074Y7237526D01*
X1285951Y7240320D01*
X1291336Y7242403D01*
X1297127Y7243673D01*
X1303274Y7244080D01*
X1311402Y7243216D01*
X1318564Y7240727D01*
X1324914Y7236815D01*
X1330452Y7231634D01*
X1338580Y7241286D01*
X1335532Y7244283D01*
X1332077Y7247229D01*
X1328216Y7249922D01*
X1323949Y7252360D01*
X1319276Y7254392D01*
X1314246Y7255916D01*
X1308811Y7256932D01*
G37*
G36*
X1586992Y7257288D02*
G01*
X1581200Y7256932D01*
X1575816Y7255865D01*
X1570786Y7254189D01*
X1566062Y7251953D01*
X1561592Y7249159D01*
X1557324Y7245908D01*
X1553159Y7242251D01*
X1549146Y7238238D01*
X1557782Y7229856D01*
X1563674Y7236002D01*
X1570278Y7240930D01*
X1577594Y7244181D01*
X1585468Y7245350D01*
X1591411Y7244842D01*
X1596491Y7243318D01*
X1600758Y7240930D01*
X1604162Y7237730D01*
X1606804Y7233818D01*
X1608632Y7229297D01*
X1609750Y7224217D01*
X1610106Y7218680D01*
X1609902Y7214412D01*
X1609242Y7209993D01*
X1608124Y7205522D01*
X1606550Y7200900D01*
X1604518Y7196175D01*
X1602079Y7191298D01*
X1595678Y7181138D01*
X1587347Y7170318D01*
X1576984Y7158837D01*
X1571091Y7152741D01*
X1557680Y7140041D01*
X1550162Y7133336D01*
X1550162Y7124700D01*
X1630680Y7124700D01*
X1630680Y7137146D01*
X1588211Y7137095D01*
X1577289Y7136587D01*
X1572006Y7136130D01*
X1583385Y7147153D01*
X1593596Y7157923D01*
X1602536Y7168489D01*
X1610055Y7178903D01*
X1613306Y7184034D01*
X1616151Y7189114D01*
X1618589Y7194194D01*
X1620621Y7199223D01*
X1622247Y7204252D01*
X1623364Y7209231D01*
X1624076Y7214209D01*
X1624330Y7219188D01*
X1624025Y7224775D01*
X1623161Y7230059D01*
X1621739Y7234885D01*
X1619808Y7239355D01*
X1617319Y7243368D01*
X1614322Y7246924D01*
X1610868Y7249972D01*
X1606956Y7252563D01*
X1602587Y7254595D01*
X1597761Y7256068D01*
X1592580Y7256983D01*
G37*
G36*
X1684782Y7257288D02*
G01*
X1678939Y7256932D01*
X1673453Y7255865D01*
X1668424Y7254189D01*
X1663649Y7251953D01*
X1659178Y7249159D01*
X1654962Y7245908D01*
X1650898Y7242251D01*
X1646936Y7238238D01*
X1655318Y7229856D01*
X1661261Y7236002D01*
X1667916Y7240930D01*
X1675231Y7244181D01*
X1683004Y7245350D01*
X1688947Y7244842D01*
X1694078Y7243318D01*
X1698345Y7240930D01*
X1701850Y7237730D01*
X1704492Y7233818D01*
X1706422Y7229297D01*
X1707540Y7224217D01*
X1707896Y7218680D01*
X1707692Y7214412D01*
X1707032Y7209993D01*
X1705914Y7205522D01*
X1704339Y7200900D01*
X1702307Y7196175D01*
X1699818Y7191298D01*
X1696872Y7186320D01*
X1693418Y7181138D01*
X1689506Y7175855D01*
X1685036Y7170318D01*
X1674672Y7158837D01*
X1668729Y7152741D01*
X1655216Y7140041D01*
X1647698Y7133336D01*
X1647698Y7124700D01*
X1728216Y7124700D01*
X1728216Y7137146D01*
X1685747Y7137095D01*
X1674825Y7136587D01*
X1669542Y7136130D01*
X1680921Y7147153D01*
X1691132Y7157923D01*
X1700123Y7168489D01*
X1704136Y7173722D01*
X1707743Y7178903D01*
X1710994Y7184034D01*
X1713839Y7189114D01*
X1716328Y7194194D01*
X1718360Y7199223D01*
X1719986Y7204252D01*
X1721154Y7209231D01*
X1721866Y7214209D01*
X1722120Y7219188D01*
X1721815Y7224775D01*
X1720951Y7230059D01*
X1719529Y7234885D01*
X1717598Y7239355D01*
X1715109Y7243368D01*
X1712112Y7246924D01*
X1708657Y7249972D01*
X1704746Y7252563D01*
X1700377Y7254595D01*
X1695551Y7256068D01*
X1690370Y7256983D01*
G37*
G36*
X1366520Y7254748D02*
G01*
X1366520Y7124700D01*
X1438656Y7124700D01*
X1438656Y7137146D01*
X1381252Y7137146D01*
X1381252Y7254748D01*
G37*
G36*
X1544320Y7015734D02*
G01*
X1538478Y7005726D01*
X1533245Y6995414D01*
X1528775Y6984847D01*
X1525066Y6973925D01*
X1523441Y6968286D01*
X1520901Y6956755D01*
X1519174Y6944766D01*
X1518259Y6932269D01*
X1518259Y6919315D01*
X1519174Y6906768D01*
X1520901Y6894728D01*
X1523441Y6883196D01*
X1526844Y6872122D01*
X1528775Y6866737D01*
X1533245Y6856171D01*
X1538478Y6845909D01*
X1544320Y6835902D01*
X1553210Y6840220D01*
X1547774Y6849872D01*
X1543050Y6859930D01*
X1539087Y6870293D01*
X1535836Y6881012D01*
X1533347Y6891985D01*
X1531518Y6903110D01*
X1530451Y6914438D01*
X1530096Y6925818D01*
X1530451Y6937197D01*
X1531518Y6948525D01*
X1533347Y6959650D01*
X1535836Y6970623D01*
X1539087Y6981342D01*
X1543050Y6991705D01*
X1547774Y7001764D01*
X1553210Y7011416D01*
G37*
G36*
X1771904Y7015734D02*
G01*
X1763014Y7011416D01*
X1768348Y7001764D01*
X1773021Y6991705D01*
X1776933Y6981342D01*
X1780184Y6970623D01*
X1782673Y6959650D01*
X1784451Y6948525D01*
X1785518Y6937197D01*
X1785874Y6925818D01*
X1785518Y6914438D01*
X1784451Y6903110D01*
X1782673Y6891985D01*
X1780184Y6881012D01*
X1776933Y6870293D01*
X1773021Y6859930D01*
X1768348Y6849872D01*
X1763014Y6840220D01*
X1771904Y6835902D01*
X1777695Y6845909D01*
X1782825Y6856171D01*
X1787245Y6866737D01*
X1790954Y6877608D01*
X1793900Y6888937D01*
X1796034Y6900672D01*
X1797354Y6912965D01*
X1797710Y6919315D01*
X1797710Y6932269D01*
X1796796Y6944766D01*
X1795068Y6956755D01*
X1792528Y6968286D01*
X1789175Y6979412D01*
X1785112Y6990181D01*
X1780336Y7000595D01*
X1774850Y7010755D01*
G37*
G36*
X1185418Y7003288D02*
G01*
X1179779Y7002983D01*
X1174394Y7002119D01*
X1169416Y7000748D01*
X1164742Y6998868D01*
X1160475Y6996480D01*
X1156665Y6993686D01*
X1153363Y6990486D01*
X1150569Y6986879D01*
X1148283Y6982917D01*
X1146657Y6978650D01*
X1145641Y6974078D01*
X1145286Y6969252D01*
X1145946Y6962597D01*
X1147724Y6956755D01*
X1150518Y6951776D01*
X1154023Y6947509D01*
X1158087Y6943902D01*
X1162558Y6940854D01*
X1167130Y6938314D01*
X1190498Y6927850D01*
X1199235Y6923735D01*
X1203045Y6921500D01*
X1206347Y6919010D01*
X1209040Y6916115D01*
X1211122Y6912711D01*
X1212392Y6908596D01*
X1212850Y6903720D01*
X1212342Y6898944D01*
X1210868Y6894677D01*
X1208481Y6890867D01*
X1205179Y6887565D01*
X1201064Y6884974D01*
X1196136Y6882993D01*
X1190498Y6881774D01*
X1184148Y6881368D01*
X1178966Y6881672D01*
X1173886Y6882536D01*
X1169009Y6883908D01*
X1164285Y6885838D01*
X1159764Y6888175D01*
X1155496Y6891020D01*
X1151534Y6894271D01*
X1147826Y6897878D01*
X1138936Y6887718D01*
X1143304Y6883450D01*
X1148080Y6879640D01*
X1153261Y6876338D01*
X1158748Y6873595D01*
X1164590Y6871360D01*
X1170736Y6869734D01*
X1177188Y6868769D01*
X1183894Y6868414D01*
X1190396Y6868718D01*
X1196492Y6869684D01*
X1202131Y6871208D01*
X1207262Y6873290D01*
X1211884Y6875881D01*
X1215948Y6878929D01*
X1219504Y6882434D01*
X1222451Y6886295D01*
X1224737Y6890512D01*
X1226464Y6894982D01*
X1227480Y6899757D01*
X1227836Y6904736D01*
X1227277Y6911594D01*
X1225702Y6917537D01*
X1223213Y6922668D01*
X1219860Y6927138D01*
X1215847Y6930948D01*
X1211224Y6934250D01*
X1206144Y6937197D01*
X1200658Y6939788D01*
X1181862Y6947662D01*
X1174292Y6951116D01*
X1167333Y6955536D01*
X1162253Y6961682D01*
X1160272Y6970268D01*
X1160729Y6974636D01*
X1162050Y6978497D01*
X1164234Y6981901D01*
X1167130Y6984746D01*
X1170787Y6987031D01*
X1175054Y6988708D01*
X1179982Y6989724D01*
X1185418Y6990080D01*
X1194257Y6989216D01*
X1202131Y6986727D01*
X1209141Y6982815D01*
X1215390Y6977634D01*
X1223264Y6987286D01*
X1219708Y6990689D01*
X1215796Y6993737D01*
X1211529Y6996480D01*
X1206906Y6998817D01*
X1201978Y7000697D01*
X1196746Y7002119D01*
X1191209Y7002983D01*
G37*
G36*
X1605280Y7003288D02*
G01*
X1599488Y7002932D01*
X1594104Y7001865D01*
X1589074Y7000189D01*
X1584350Y6997953D01*
X1579880Y6995159D01*
X1575612Y6991908D01*
X1571447Y6988251D01*
X1567434Y6984238D01*
X1576070Y6975856D01*
X1581962Y6982002D01*
X1588566Y6986930D01*
X1595882Y6990181D01*
X1603756Y6991350D01*
X1609699Y6990842D01*
X1614779Y6989318D01*
X1619046Y6986930D01*
X1622450Y6983730D01*
X1625092Y6979818D01*
X1626920Y6975297D01*
X1628038Y6970217D01*
X1628394Y6964680D01*
X1628190Y6960412D01*
X1627530Y6955993D01*
X1626412Y6951522D01*
X1624888Y6946900D01*
X1622856Y6942175D01*
X1620418Y6937298D01*
X1617472Y6932320D01*
X1614068Y6927138D01*
X1605737Y6916318D01*
X1595374Y6904837D01*
X1582978Y6892493D01*
X1568450Y6879336D01*
X1568450Y6870700D01*
X1648968Y6870700D01*
X1648968Y6883146D01*
X1606499Y6883095D01*
X1595577Y6882587D01*
X1590294Y6882130D01*
X1601673Y6893153D01*
X1611884Y6903923D01*
X1620824Y6914489D01*
X1628343Y6924903D01*
X1631594Y6930034D01*
X1634439Y6935114D01*
X1636877Y6940194D01*
X1638909Y6945223D01*
X1640535Y6950252D01*
X1641652Y6955231D01*
X1642364Y6960209D01*
X1642618Y6965188D01*
X1642313Y6970775D01*
X1641449Y6976059D01*
X1640027Y6980885D01*
X1638096Y6985355D01*
X1635607Y6989368D01*
X1632610Y6992924D01*
X1629156Y6995972D01*
X1625244Y6998563D01*
X1620875Y7000595D01*
X1616049Y7002068D01*
X1610868Y7002983D01*
G37*
G36*
X1253744Y7000748D02*
G01*
X1253744Y6988809D01*
X1284478Y6988809D01*
X1290218Y6988606D01*
X1295552Y6987895D01*
X1300530Y6986828D01*
X1305102Y6985253D01*
X1309319Y6983323D01*
X1313180Y6980936D01*
X1316685Y6978192D01*
X1319784Y6974992D01*
X1322527Y6971436D01*
X1324914Y6967474D01*
X1326896Y6963156D01*
X1328572Y6958482D01*
X1329842Y6953453D01*
X1330756Y6948068D01*
X1331264Y6942328D01*
X1331468Y6936231D01*
X1331264Y6930136D01*
X1330756Y6924395D01*
X1329842Y6918959D01*
X1328572Y6913880D01*
X1326896Y6909104D01*
X1324914Y6904736D01*
X1322527Y6900722D01*
X1319784Y6897065D01*
X1316685Y6893864D01*
X1313180Y6891020D01*
X1309319Y6888581D01*
X1305102Y6886549D01*
X1300530Y6884974D01*
X1295552Y6883806D01*
X1290218Y6883146D01*
X1284478Y6882892D01*
X1268476Y6882892D01*
X1268476Y6988809D01*
X1253744Y6988809D01*
X1253744Y6870700D01*
X1286256Y6870700D01*
X1293418Y6871004D01*
X1300124Y6871817D01*
X1306423Y6873240D01*
X1312265Y6875170D01*
X1317650Y6877659D01*
X1322628Y6880656D01*
X1327099Y6884162D01*
X1331112Y6888124D01*
X1334668Y6892594D01*
X1337767Y6897522D01*
X1340408Y6902907D01*
X1342593Y6908749D01*
X1344269Y6914997D01*
X1345488Y6921652D01*
X1346200Y6928764D01*
X1346454Y6936231D01*
X1346200Y6943699D01*
X1345488Y6950760D01*
X1344269Y6957364D01*
X1342593Y6963562D01*
X1340408Y6969302D01*
X1337767Y6974636D01*
X1334668Y6979462D01*
X1331061Y6983831D01*
X1326997Y6987692D01*
X1322476Y6991096D01*
X1317498Y6994042D01*
X1312062Y6996430D01*
X1306169Y6998309D01*
X1299819Y6999630D01*
X1293012Y7000494D01*
X1285748Y7000748D01*
G37*
G36*
X1400302Y7000748D02*
G01*
X1373822Y6923278D01*
X1387856Y6923278D01*
X1401368Y6966305D01*
X1407922Y6988556D01*
X1408430Y6988556D01*
X1415084Y6966407D01*
X1422146Y6944614D01*
X1428750Y6923278D01*
X1373822Y6923278D01*
X1355852Y6870700D01*
X1370584Y6870700D01*
X1384046Y6911848D01*
X1432560Y6911848D01*
X1445514Y6870700D01*
X1461262Y6870700D01*
X1416558Y7000748D01*
G37*
G36*
X1706372Y7000748D02*
G01*
X1700936Y6997953D01*
X1694789Y6995515D01*
X1687830Y6993534D01*
X1679956Y6991858D01*
X1679956Y6982459D01*
X1703070Y6982459D01*
X1703070Y6882892D01*
X1673860Y6882892D01*
X1673860Y6870700D01*
X1743964Y6870700D01*
X1743964Y6882892D01*
X1717293Y6882892D01*
X1717293Y7000748D01*
G37*
G36*
X2992374Y7765288D02*
G01*
X2986989Y7764983D01*
X2981909Y7764119D01*
X2977134Y7762748D01*
X2972562Y7760868D01*
X2968244Y7758582D01*
X2964180Y7755940D01*
X2960268Y7752994D01*
X2956560Y7749794D01*
X2964434Y7740396D01*
X2970326Y7745628D01*
X2976930Y7749743D01*
X2984093Y7752384D01*
X2991866Y7753350D01*
X2996946Y7752943D01*
X3001416Y7751825D01*
X3005328Y7749946D01*
X3008630Y7747457D01*
X3011220Y7744358D01*
X3013151Y7740700D01*
X3014319Y7736586D01*
X3014726Y7732014D01*
X3014268Y7726680D01*
X3012846Y7721752D01*
X3010306Y7717332D01*
X3006648Y7713522D01*
X3001670Y7710424D01*
X2995320Y7708087D01*
X2987548Y7706614D01*
X2978150Y7706106D01*
X2978150Y7694675D01*
X2988614Y7694168D01*
X2997352Y7692745D01*
X3004464Y7690459D01*
X3010052Y7687360D01*
X3014268Y7683500D01*
X3017113Y7678928D01*
X3018790Y7673746D01*
X3019298Y7668006D01*
X3018790Y7662418D01*
X3017266Y7657388D01*
X3014827Y7653070D01*
X3011627Y7649413D01*
X3007664Y7646466D01*
X3002991Y7644384D01*
X2997809Y7643063D01*
X2992120Y7642606D01*
X2986582Y7642910D01*
X2981553Y7643825D01*
X2976930Y7645247D01*
X2972765Y7647127D01*
X2968904Y7649413D01*
X2965399Y7651953D01*
X2959100Y7657592D01*
X2951734Y7648194D01*
X2955086Y7644790D01*
X2958896Y7641539D01*
X2963164Y7638542D01*
X2967939Y7635900D01*
X2973273Y7633614D01*
X2979166Y7631887D01*
X2985719Y7630820D01*
X2992882Y7630414D01*
X2998470Y7630718D01*
X3003854Y7631531D01*
X3008934Y7632903D01*
X3013659Y7634833D01*
X3017977Y7637221D01*
X3021888Y7640167D01*
X3025343Y7643571D01*
X3028238Y7647431D01*
X3030575Y7651750D01*
X3032353Y7656474D01*
X3033420Y7661656D01*
X3033776Y7667244D01*
X3033217Y7673695D01*
X3031591Y7679537D01*
X3029051Y7684770D01*
X3025648Y7689291D01*
X3021533Y7693202D01*
X3016859Y7696352D01*
X3011678Y7698790D01*
X3006090Y7700518D01*
X3006090Y7701280D01*
X3011119Y7703413D01*
X3015640Y7706106D01*
X3019602Y7709255D01*
X3023006Y7712964D01*
X3025749Y7717180D01*
X3027781Y7721904D01*
X3029051Y7727188D01*
X3029458Y7733030D01*
X3028746Y7740243D01*
X3026664Y7746644D01*
X3023362Y7752181D01*
X3018891Y7756804D01*
X3013506Y7760462D01*
X3007156Y7763103D01*
X3000095Y7764729D01*
G37*
G36*
X3138170Y7765288D02*
G01*
X3132734Y7764983D01*
X3127552Y7764119D01*
X3122726Y7762748D01*
X3118154Y7760868D01*
X3113786Y7758582D01*
X3109722Y7755940D01*
X3105810Y7752994D01*
X3102102Y7749794D01*
X3110230Y7740396D01*
X3116021Y7745628D01*
X3122625Y7749743D01*
X3129889Y7752384D01*
X3137662Y7753350D01*
X3142640Y7752943D01*
X3147110Y7751825D01*
X3150971Y7749946D01*
X3154222Y7747457D01*
X3156813Y7744358D01*
X3158693Y7740700D01*
X3159861Y7736586D01*
X3160268Y7732014D01*
X3159810Y7726680D01*
X3158388Y7721752D01*
X3155848Y7717332D01*
X3152190Y7713522D01*
X3147212Y7710424D01*
X3140862Y7708087D01*
X3133090Y7706614D01*
X3123692Y7706106D01*
X3123692Y7694675D01*
X3134156Y7694168D01*
X3142894Y7692745D01*
X3150006Y7690459D01*
X3155594Y7687360D01*
X3159810Y7683500D01*
X3162655Y7678928D01*
X3164332Y7673746D01*
X3164840Y7668006D01*
X3164332Y7662418D01*
X3162808Y7657388D01*
X3160369Y7653070D01*
X3157169Y7649413D01*
X3153206Y7646466D01*
X3148533Y7644384D01*
X3143351Y7643063D01*
X3137662Y7642606D01*
X3132124Y7642910D01*
X3127095Y7643825D01*
X3122472Y7645247D01*
X3118307Y7647127D01*
X3114548Y7649413D01*
X3111042Y7651953D01*
X3107842Y7654696D01*
X3104896Y7657592D01*
X3097276Y7648194D01*
X3100628Y7644790D01*
X3104438Y7641539D01*
X3108706Y7638542D01*
X3113481Y7635900D01*
X3118866Y7633614D01*
X3124809Y7631887D01*
X3131413Y7630820D01*
X3138678Y7630414D01*
X3144215Y7630718D01*
X3149549Y7631531D01*
X3154629Y7632903D01*
X3159302Y7634833D01*
X3163671Y7637221D01*
X3167583Y7640167D01*
X3171037Y7643571D01*
X3173984Y7647431D01*
X3176371Y7651750D01*
X3178098Y7656474D01*
X3179216Y7661656D01*
X3179572Y7667244D01*
X3179013Y7673695D01*
X3177387Y7679537D01*
X3174847Y7684770D01*
X3171444Y7689291D01*
X3167329Y7693202D01*
X3162655Y7696352D01*
X3157474Y7698790D01*
X3151886Y7700518D01*
X3151886Y7701280D01*
X3156813Y7703413D01*
X3161284Y7706106D01*
X3165246Y7709255D01*
X3168599Y7712964D01*
X3171291Y7717180D01*
X3173323Y7721904D01*
X3174593Y7727188D01*
X3175000Y7733030D01*
X3174288Y7740243D01*
X3172256Y7746644D01*
X3168954Y7752181D01*
X3164586Y7756804D01*
X3159201Y7760462D01*
X3152902Y7763103D01*
X3145891Y7764729D01*
G37*
G36*
X3192018Y7728712D02*
G01*
X3227070Y7632700D01*
X3243834Y7632700D01*
X3278124Y7728712D01*
X3263900Y7728712D01*
X3244850Y7672831D01*
X3235960Y7644638D01*
X3235198Y7644638D01*
X3226054Y7672831D01*
X3207004Y7728712D01*
G37*
G36*
X3067812Y7653528D02*
G01*
X3063646Y7652715D01*
X3060141Y7650378D01*
X3057753Y7646670D01*
X3056890Y7641844D01*
X3057753Y7637170D01*
X3060141Y7633563D01*
X3063646Y7631226D01*
X3067812Y7630414D01*
X3072130Y7631226D01*
X3075686Y7633563D01*
X3078124Y7637170D01*
X3078988Y7641844D01*
X3078124Y7646670D01*
X3075686Y7650378D01*
X3072130Y7652715D01*
G37*
G36*
X2990596Y7511288D02*
G01*
X2984296Y7510983D01*
X2978200Y7510119D01*
X2972409Y7508646D01*
X2966872Y7506614D01*
X2961690Y7504074D01*
X2956814Y7500975D01*
X2952292Y7497368D01*
X2948127Y7493203D01*
X2944418Y7488631D01*
X2941116Y7483500D01*
X2938221Y7477963D01*
X2935833Y7471968D01*
X2933954Y7465517D01*
X2932531Y7458659D01*
X2931718Y7451394D01*
X2931414Y7443724D01*
X2931668Y7436002D01*
X2932531Y7428738D01*
X2933852Y7421880D01*
X2935732Y7415428D01*
X2938018Y7409434D01*
X2940812Y7403896D01*
X2944063Y7398816D01*
X2947720Y7394244D01*
X2951734Y7390180D01*
X2956153Y7386574D01*
X2960928Y7383525D01*
X2966008Y7380986D01*
X2971444Y7379004D01*
X2977134Y7377582D01*
X2983128Y7376718D01*
X2989326Y7376414D01*
X2995726Y7376668D01*
X3001772Y7377480D01*
X3007410Y7378801D01*
X3012694Y7380579D01*
X3017520Y7382764D01*
X3021888Y7385303D01*
X3025800Y7388199D01*
X3029204Y7391400D01*
X3029204Y7445248D01*
X2987294Y7445248D01*
X2987294Y7433056D01*
X3015488Y7433056D01*
X3015488Y7397496D01*
X3010763Y7394092D01*
X3004870Y7391552D01*
X2998114Y7389926D01*
X2990850Y7389368D01*
X2984042Y7389825D01*
X2977794Y7391095D01*
X2972054Y7393178D01*
X2966872Y7396073D01*
X2962249Y7399731D01*
X2958185Y7404150D01*
X2954731Y7409230D01*
X2951835Y7414971D01*
X2949600Y7421422D01*
X2947974Y7428433D01*
X2947009Y7436053D01*
X2946654Y7444231D01*
X2947009Y7452258D01*
X2948076Y7459776D01*
X2949752Y7466685D01*
X2952140Y7472984D01*
X2955086Y7478623D01*
X2958642Y7483652D01*
X2962757Y7487920D01*
X2967431Y7491526D01*
X2972562Y7494320D01*
X2978251Y7496403D01*
X2984347Y7497673D01*
X2990850Y7498080D01*
X3000095Y7497114D01*
X3007766Y7494524D01*
X3014167Y7490561D01*
X3019552Y7485634D01*
X3027680Y7495286D01*
X3024682Y7498181D01*
X3021279Y7501026D01*
X3017418Y7503718D01*
X3013049Y7506157D01*
X3008223Y7508240D01*
X3002838Y7509865D01*
X2996996Y7510932D01*
G37*
G36*
X3060700Y7508748D02*
G01*
X3060700Y7378700D01*
X3074670Y7378700D01*
X3074619Y7455103D01*
X3073806Y7475016D01*
X3072892Y7489698D01*
X3073654Y7489698D01*
X3087878Y7463028D01*
X3136900Y7378700D01*
X3152140Y7378700D01*
X3152140Y7508748D01*
X3138170Y7508748D01*
X3138220Y7433411D01*
X3139033Y7412990D01*
X3139948Y7398003D01*
X3139186Y7398003D01*
X3125216Y7424674D01*
X3075940Y7508748D01*
G37*
G36*
X3188462Y7508748D02*
G01*
X3188462Y7496809D01*
X3219196Y7496809D01*
X3224936Y7496606D01*
X3230270Y7495895D01*
X3235248Y7494828D01*
X3239820Y7493253D01*
X3244037Y7491323D01*
X3247898Y7488936D01*
X3251403Y7486192D01*
X3254502Y7482992D01*
X3257245Y7479436D01*
X3259632Y7475474D01*
X3261614Y7471156D01*
X3263290Y7466482D01*
X3264560Y7461453D01*
X3265474Y7456068D01*
X3265982Y7450328D01*
X3266186Y7444231D01*
X3265982Y7438136D01*
X3265474Y7432395D01*
X3264560Y7426959D01*
X3263290Y7421880D01*
X3261614Y7417104D01*
X3259632Y7412736D01*
X3257245Y7408722D01*
X3254502Y7405065D01*
X3251403Y7401864D01*
X3247898Y7399020D01*
X3244037Y7396581D01*
X3239820Y7394549D01*
X3235248Y7392974D01*
X3230270Y7391806D01*
X3224936Y7391146D01*
X3219196Y7390892D01*
X3203194Y7390892D01*
X3203194Y7496809D01*
X3188462Y7496809D01*
X3188462Y7378700D01*
X3220974Y7378700D01*
X3228136Y7379004D01*
X3234842Y7379817D01*
X3241141Y7381240D01*
X3246983Y7383170D01*
X3252368Y7385659D01*
X3257346Y7388656D01*
X3261817Y7392162D01*
X3265830Y7396124D01*
X3269386Y7400594D01*
X3272485Y7405522D01*
X3275126Y7410907D01*
X3277311Y7416749D01*
X3278987Y7422997D01*
X3280206Y7429652D01*
X3280918Y7436764D01*
X3281172Y7444231D01*
X3280918Y7451699D01*
X3280206Y7458760D01*
X3278987Y7465364D01*
X3277311Y7471562D01*
X3275126Y7477302D01*
X3272485Y7482636D01*
X3269386Y7487462D01*
X3265779Y7491831D01*
X3261715Y7495692D01*
X3257194Y7499096D01*
X3252215Y7502042D01*
X3246780Y7504430D01*
X3240887Y7506309D01*
X3234537Y7507630D01*
X3227730Y7508494D01*
X3220466Y7508748D01*
G37*
G36*
X3024632Y7269734D02*
G01*
X3018790Y7259726D01*
X3013557Y7249414D01*
X3009087Y7238847D01*
X3005378Y7227925D01*
X3003753Y7222286D01*
X3001213Y7210755D01*
X2999486Y7198766D01*
X2998571Y7186269D01*
X2998571Y7173315D01*
X2999486Y7160768D01*
X3001213Y7148728D01*
X3003753Y7137196D01*
X3007156Y7126122D01*
X3009087Y7120737D01*
X3013557Y7110171D01*
X3018790Y7099909D01*
X3024632Y7089902D01*
X3033522Y7094220D01*
X3028086Y7103872D01*
X3023362Y7113930D01*
X3019399Y7124293D01*
X3016148Y7135012D01*
X3013659Y7145985D01*
X3011830Y7157110D01*
X3010763Y7168438D01*
X3010408Y7179818D01*
X3010763Y7191197D01*
X3011830Y7202525D01*
X3013659Y7213650D01*
X3016148Y7224623D01*
X3019399Y7235342D01*
X3023362Y7245705D01*
X3028086Y7255764D01*
X3033522Y7265416D01*
G37*
G36*
X3251962Y7269734D02*
G01*
X3243326Y7265416D01*
X3248660Y7255764D01*
X3253333Y7245705D01*
X3257245Y7235342D01*
X3258972Y7230008D01*
X3261817Y7219188D01*
X3263950Y7208113D01*
X3265373Y7196886D01*
X3266084Y7185507D01*
X3266084Y7174128D01*
X3265373Y7162749D01*
X3263950Y7151522D01*
X3261817Y7140448D01*
X3258972Y7129627D01*
X3255365Y7119061D01*
X3251098Y7108850D01*
X3246069Y7098995D01*
X3243326Y7094220D01*
X3251962Y7089902D01*
X3257803Y7099909D01*
X3263036Y7110171D01*
X3267506Y7120737D01*
X3271215Y7131608D01*
X3272840Y7137196D01*
X3275380Y7148728D01*
X3277108Y7160768D01*
X3278022Y7173315D01*
X3278022Y7186269D01*
X3277108Y7198766D01*
X3275380Y7210755D01*
X3272840Y7222286D01*
X3269437Y7233412D01*
X3267506Y7238847D01*
X3263036Y7249414D01*
X3257803Y7259726D01*
G37*
G36*
X2684018Y7257288D02*
G01*
X2678379Y7256983D01*
X2672994Y7256119D01*
X2668016Y7254748D01*
X2663342Y7252868D01*
X2659075Y7250480D01*
X2655265Y7247686D01*
X2651963Y7244486D01*
X2649169Y7240879D01*
X2646883Y7236917D01*
X2645257Y7232650D01*
X2644241Y7228078D01*
X2643886Y7223252D01*
X2644495Y7216597D01*
X2646324Y7210755D01*
X2649016Y7205776D01*
X2652522Y7201509D01*
X2656586Y7197902D01*
X2661005Y7194854D01*
X2665679Y7192314D01*
X2689098Y7181850D01*
X2697835Y7177735D01*
X2701645Y7175500D01*
X2704947Y7173010D01*
X2707640Y7170115D01*
X2709722Y7166711D01*
X2710992Y7162596D01*
X2711450Y7157720D01*
X2710942Y7152944D01*
X2709468Y7148677D01*
X2707081Y7144867D01*
X2703779Y7141565D01*
X2699664Y7138974D01*
X2694736Y7136993D01*
X2689098Y7135774D01*
X2682748Y7135368D01*
X2677566Y7135672D01*
X2672486Y7136536D01*
X2667609Y7137908D01*
X2662885Y7139838D01*
X2658364Y7142175D01*
X2654096Y7145020D01*
X2650134Y7148271D01*
X2646426Y7151878D01*
X2637536Y7141718D01*
X2641904Y7137450D01*
X2646680Y7133640D01*
X2651861Y7130338D01*
X2657348Y7127595D01*
X2663190Y7125360D01*
X2669336Y7123734D01*
X2675788Y7122769D01*
X2682494Y7122414D01*
X2688996Y7122718D01*
X2695092Y7123684D01*
X2700731Y7125208D01*
X2705862Y7127290D01*
X2710484Y7129881D01*
X2714548Y7132929D01*
X2718104Y7136434D01*
X2721051Y7140295D01*
X2723337Y7144512D01*
X2725064Y7148982D01*
X2726080Y7153757D01*
X2726436Y7158736D01*
X2725877Y7165594D01*
X2724302Y7171537D01*
X2721813Y7176668D01*
X2718460Y7181138D01*
X2714447Y7184948D01*
X2709824Y7188250D01*
X2704744Y7191197D01*
X2699258Y7193788D01*
X2680462Y7201662D01*
X2672892Y7205116D01*
X2665933Y7209536D01*
X2660853Y7215682D01*
X2658872Y7224268D01*
X2659329Y7228636D01*
X2660650Y7232497D01*
X2662834Y7235901D01*
X2665730Y7238746D01*
X2669387Y7241031D01*
X2673654Y7242708D01*
X2678582Y7243724D01*
X2684018Y7244080D01*
X2692857Y7243216D01*
X2700731Y7240727D01*
X2707741Y7236815D01*
X2713990Y7231634D01*
X2721864Y7241286D01*
X2718308Y7244689D01*
X2714396Y7247737D01*
X2710129Y7250480D01*
X2705506Y7252817D01*
X2700578Y7254697D01*
X2695346Y7256119D01*
X2689809Y7256983D01*
G37*
G36*
X2801620Y7257288D02*
G01*
X2795574Y7256983D01*
X2789783Y7256119D01*
X2784195Y7254646D01*
X2778912Y7252614D01*
X2773883Y7250074D01*
X2769209Y7246975D01*
X2764891Y7243368D01*
X2760878Y7239203D01*
X2757271Y7234631D01*
X2754071Y7229500D01*
X2751328Y7223963D01*
X2748991Y7217968D01*
X2747162Y7211517D01*
X2745841Y7204659D01*
X2744978Y7197394D01*
X2744724Y7189724D01*
X2744978Y7182002D01*
X2745790Y7174738D01*
X2747111Y7167880D01*
X2748940Y7161428D01*
X2751175Y7155434D01*
X2753918Y7149896D01*
X2757017Y7144816D01*
X2760573Y7140244D01*
X2764485Y7136180D01*
X2768752Y7132574D01*
X2773324Y7129525D01*
X2778252Y7126986D01*
X2783484Y7125004D01*
X2788920Y7123582D01*
X2794660Y7122718D01*
X2800604Y7122414D01*
X2806750Y7122718D01*
X2812542Y7123684D01*
X2817926Y7125208D01*
X2823006Y7127290D01*
X2827731Y7129932D01*
X2832150Y7133132D01*
X2836316Y7136790D01*
X2840228Y7140956D01*
X2832100Y7150353D01*
X2825445Y7143953D01*
X2818231Y7139228D01*
X2810306Y7136333D01*
X2801366Y7135368D01*
X2795168Y7135825D01*
X2789377Y7137095D01*
X2784043Y7139178D01*
X2779166Y7142073D01*
X2774797Y7145731D01*
X2770936Y7150150D01*
X2767584Y7155230D01*
X2764790Y7160971D01*
X2762605Y7167422D01*
X2761030Y7174433D01*
X2760014Y7182053D01*
X2759710Y7190231D01*
X2760065Y7198258D01*
X2761081Y7205776D01*
X2762707Y7212685D01*
X2764993Y7218984D01*
X2767838Y7224623D01*
X2771241Y7229652D01*
X2775204Y7233920D01*
X2779674Y7237526D01*
X2784551Y7240320D01*
X2789936Y7242403D01*
X2795727Y7243673D01*
X2801874Y7244080D01*
X2810002Y7243216D01*
X2817164Y7240727D01*
X2823514Y7236815D01*
X2829052Y7231634D01*
X2837180Y7241286D01*
X2834132Y7244283D01*
X2830677Y7247229D01*
X2826816Y7249922D01*
X2822549Y7252360D01*
X2817876Y7254392D01*
X2812846Y7255916D01*
X2807411Y7256932D01*
G37*
G36*
X3085592Y7257288D02*
G01*
X3079800Y7256932D01*
X3074416Y7255865D01*
X3069386Y7254189D01*
X3064662Y7251953D01*
X3060192Y7249159D01*
X3055924Y7245908D01*
X3051759Y7242251D01*
X3047746Y7238238D01*
X3056382Y7229856D01*
X3062274Y7236002D01*
X3068878Y7240930D01*
X3076194Y7244181D01*
X3084068Y7245350D01*
X3090011Y7244842D01*
X3095091Y7243318D01*
X3099358Y7240930D01*
X3102762Y7237730D01*
X3105404Y7233818D01*
X3107232Y7229297D01*
X3108350Y7224217D01*
X3108706Y7218680D01*
X3108502Y7214412D01*
X3107842Y7209993D01*
X3106724Y7205522D01*
X3105200Y7200900D01*
X3103168Y7196175D01*
X3100730Y7191298D01*
X3097784Y7186320D01*
X3094329Y7181138D01*
X3086049Y7170318D01*
X3075686Y7158837D01*
X3063290Y7146493D01*
X3048762Y7133336D01*
X3048762Y7124700D01*
X3129280Y7124700D01*
X3129280Y7137146D01*
X3086811Y7137095D01*
X3075889Y7136587D01*
X3070606Y7136130D01*
X3081985Y7147153D01*
X3092196Y7157923D01*
X3101136Y7168489D01*
X3108655Y7178903D01*
X3111906Y7184034D01*
X3114751Y7189114D01*
X3117189Y7194194D01*
X3119221Y7199223D01*
X3120847Y7204252D01*
X3121964Y7209231D01*
X3122676Y7214209D01*
X3122930Y7219188D01*
X3122625Y7224775D01*
X3121761Y7230059D01*
X3120339Y7234885D01*
X3118408Y7239355D01*
X3115919Y7243368D01*
X3112922Y7246924D01*
X3109468Y7249972D01*
X3105556Y7252563D01*
X3101187Y7254595D01*
X3096361Y7256068D01*
X3091180Y7256983D01*
G37*
G36*
X3183382Y7257288D02*
G01*
X3177540Y7256932D01*
X3172053Y7255865D01*
X3167024Y7254189D01*
X3162249Y7251953D01*
X3157778Y7249159D01*
X3153562Y7245908D01*
X3149498Y7242251D01*
X3145536Y7238238D01*
X3153918Y7229856D01*
X3159963Y7236002D01*
X3166618Y7240930D01*
X3173831Y7244181D01*
X3181604Y7245350D01*
X3187547Y7244842D01*
X3192678Y7243318D01*
X3196945Y7240930D01*
X3200450Y7237730D01*
X3203092Y7233818D01*
X3205022Y7229297D01*
X3206140Y7224217D01*
X3206496Y7218680D01*
X3206292Y7214412D01*
X3205632Y7209993D01*
X3204514Y7205522D01*
X3202940Y7200900D01*
X3200908Y7196175D01*
X3198418Y7191298D01*
X3195472Y7186320D01*
X3192018Y7181138D01*
X3188106Y7175855D01*
X3183636Y7170318D01*
X3173272Y7158837D01*
X3167329Y7152741D01*
X3153816Y7140041D01*
X3146298Y7133336D01*
X3146298Y7124700D01*
X3226816Y7124700D01*
X3226816Y7137146D01*
X3184347Y7137095D01*
X3173425Y7136587D01*
X3168142Y7136130D01*
X3179521Y7147153D01*
X3189732Y7157923D01*
X3198723Y7168489D01*
X3202736Y7173722D01*
X3206343Y7178903D01*
X3209594Y7184034D01*
X3212439Y7189114D01*
X3214928Y7194194D01*
X3216960Y7199223D01*
X3218586Y7204252D01*
X3219754Y7209231D01*
X3220466Y7214209D01*
X3220720Y7219188D01*
X3220415Y7224775D01*
X3219551Y7230059D01*
X3218129Y7234885D01*
X3216198Y7239355D01*
X3213709Y7243368D01*
X3210712Y7246924D01*
X3207258Y7249972D01*
X3203346Y7252563D01*
X3198977Y7254595D01*
X3194151Y7256068D01*
X3188970Y7256983D01*
G37*
G36*
X2865120Y7254748D02*
G01*
X2865120Y7124700D01*
X2937510Y7124700D01*
X2937510Y7137146D01*
X2879852Y7137146D01*
X2879852Y7254748D01*
G37*
G36*
X3017520Y7015734D02*
G01*
X3011678Y7005726D01*
X3006445Y6995414D01*
X3001975Y6984847D01*
X2998266Y6973925D01*
X2996641Y6968286D01*
X2994101Y6956755D01*
X2992374Y6944766D01*
X2991459Y6932269D01*
X2991459Y6919315D01*
X2992374Y6906768D01*
X2994101Y6894728D01*
X2996641Y6883196D01*
X3000044Y6872122D01*
X3001975Y6866737D01*
X3006445Y6856171D01*
X3011678Y6845909D01*
X3017520Y6835902D01*
X3026410Y6840220D01*
X3020974Y6849872D01*
X3016250Y6859930D01*
X3012287Y6870293D01*
X3009036Y6881012D01*
X3006547Y6891985D01*
X3004718Y6903110D01*
X3003651Y6914438D01*
X3003296Y6925818D01*
X3003651Y6937197D01*
X3004718Y6948525D01*
X3006547Y6959650D01*
X3009036Y6970623D01*
X3012287Y6981342D01*
X3016250Y6991705D01*
X3020974Y7001764D01*
X3026410Y7011416D01*
G37*
G36*
X3245104Y7015734D02*
G01*
X3236214Y7011416D01*
X3241548Y7001764D01*
X3246221Y6991705D01*
X3250133Y6981342D01*
X3253384Y6970623D01*
X3255873Y6959650D01*
X3257651Y6948525D01*
X3258718Y6937197D01*
X3259074Y6925818D01*
X3258718Y6914438D01*
X3257651Y6903110D01*
X3255873Y6891985D01*
X3253384Y6881012D01*
X3250133Y6870293D01*
X3246221Y6859930D01*
X3241548Y6849872D01*
X3236214Y6840220D01*
X3245104Y6835902D01*
X3250895Y6845909D01*
X3256026Y6856171D01*
X3260445Y6866737D01*
X3264153Y6877608D01*
X3267100Y6888937D01*
X3269234Y6900672D01*
X3270554Y6912965D01*
X3270910Y6919315D01*
X3270910Y6932269D01*
X3269996Y6944766D01*
X3268268Y6956755D01*
X3265728Y6968286D01*
X3262376Y6979412D01*
X3258312Y6990181D01*
X3253536Y7000595D01*
X3248050Y7010755D01*
G37*
G36*
X2658618Y7003288D02*
G01*
X2652979Y7002983D01*
X2647594Y7002119D01*
X2642616Y7000748D01*
X2637942Y6998868D01*
X2633675Y6996480D01*
X2629865Y6993686D01*
X2626563Y6990486D01*
X2623769Y6986879D01*
X2621483Y6982917D01*
X2619857Y6978650D01*
X2618841Y6974078D01*
X2618486Y6969252D01*
X2619095Y6962597D01*
X2620924Y6956755D01*
X2623616Y6951776D01*
X2627122Y6947509D01*
X2631186Y6943902D01*
X2635605Y6940854D01*
X2640279Y6938314D01*
X2663698Y6927850D01*
X2672435Y6923735D01*
X2676245Y6921500D01*
X2679547Y6919010D01*
X2682240Y6916115D01*
X2684322Y6912711D01*
X2685592Y6908596D01*
X2686050Y6903720D01*
X2685542Y6898944D01*
X2684068Y6894677D01*
X2681681Y6890867D01*
X2678379Y6887565D01*
X2674264Y6884974D01*
X2669336Y6882993D01*
X2663698Y6881774D01*
X2657348Y6881368D01*
X2652166Y6881672D01*
X2647086Y6882536D01*
X2642209Y6883908D01*
X2637485Y6885838D01*
X2632964Y6888175D01*
X2628696Y6891020D01*
X2624734Y6894271D01*
X2621026Y6897878D01*
X2612136Y6887718D01*
X2616504Y6883450D01*
X2621280Y6879640D01*
X2626461Y6876338D01*
X2631948Y6873595D01*
X2637790Y6871360D01*
X2643936Y6869734D01*
X2650388Y6868769D01*
X2657094Y6868414D01*
X2663596Y6868718D01*
X2669692Y6869684D01*
X2675331Y6871208D01*
X2680462Y6873290D01*
X2685084Y6875881D01*
X2689148Y6878929D01*
X2692704Y6882434D01*
X2695651Y6886295D01*
X2697937Y6890512D01*
X2699664Y6894982D01*
X2700680Y6899757D01*
X2701036Y6904736D01*
X2700477Y6911594D01*
X2698902Y6917537D01*
X2696413Y6922668D01*
X2693060Y6927138D01*
X2689047Y6930948D01*
X2684424Y6934250D01*
X2679344Y6937197D01*
X2673858Y6939788D01*
X2655062Y6947662D01*
X2647492Y6951116D01*
X2640533Y6955536D01*
X2635453Y6961682D01*
X2633472Y6970268D01*
X2633929Y6974636D01*
X2635250Y6978497D01*
X2637434Y6981901D01*
X2640330Y6984746D01*
X2643987Y6987031D01*
X2648254Y6988708D01*
X2653182Y6989724D01*
X2658618Y6990080D01*
X2667457Y6989216D01*
X2675331Y6986727D01*
X2682341Y6982815D01*
X2688590Y6977634D01*
X2696464Y6987286D01*
X2692908Y6990689D01*
X2688996Y6993737D01*
X2684729Y6996480D01*
X2680106Y6998817D01*
X2675178Y7000697D01*
X2669946Y7002119D01*
X2664409Y7002983D01*
G37*
G36*
X3078480Y7003288D02*
G01*
X3072688Y7002932D01*
X3067304Y7001865D01*
X3062274Y7000189D01*
X3057550Y6997953D01*
X3053080Y6995159D01*
X3048812Y6991908D01*
X3044647Y6988251D01*
X3040634Y6984238D01*
X3049270Y6975856D01*
X3055162Y6982002D01*
X3061766Y6986930D01*
X3069082Y6990181D01*
X3076956Y6991350D01*
X3082899Y6990842D01*
X3087979Y6989318D01*
X3092246Y6986930D01*
X3095650Y6983730D01*
X3098292Y6979818D01*
X3100120Y6975297D01*
X3101238Y6970217D01*
X3101594Y6964680D01*
X3101390Y6960412D01*
X3100730Y6955993D01*
X3099612Y6951522D01*
X3098088Y6946900D01*
X3096056Y6942175D01*
X3093618Y6937298D01*
X3090672Y6932320D01*
X3087268Y6927138D01*
X3078937Y6916318D01*
X3068574Y6904837D01*
X3056178Y6892493D01*
X3041650Y6879336D01*
X3041650Y6870700D01*
X3122168Y6870700D01*
X3122168Y6883146D01*
X3079699Y6883095D01*
X3068777Y6882587D01*
X3063494Y6882130D01*
X3074873Y6893153D01*
X3085084Y6903923D01*
X3094024Y6914489D01*
X3101543Y6924903D01*
X3104794Y6930034D01*
X3107639Y6935114D01*
X3110077Y6940194D01*
X3112109Y6945223D01*
X3113735Y6950252D01*
X3114852Y6955231D01*
X3115564Y6960209D01*
X3115818Y6965188D01*
X3115513Y6970775D01*
X3114649Y6976059D01*
X3113227Y6980885D01*
X3111296Y6985355D01*
X3108807Y6989368D01*
X3105810Y6992924D01*
X3102356Y6995972D01*
X3098444Y6998563D01*
X3094075Y7000595D01*
X3089249Y7002068D01*
X3084068Y7002983D01*
G37*
G36*
X2726944Y7000748D02*
G01*
X2726944Y6988809D01*
X2757678Y6988809D01*
X2763418Y6988606D01*
X2768803Y6987895D01*
X2773781Y6986828D01*
X2778404Y6985253D01*
X2782620Y6983323D01*
X2786481Y6980936D01*
X2789986Y6978192D01*
X2793085Y6974992D01*
X2795828Y6971436D01*
X2798165Y6967474D01*
X2800146Y6963156D01*
X2801772Y6958482D01*
X2803042Y6953453D01*
X2803956Y6948068D01*
X2804464Y6942328D01*
X2804668Y6936231D01*
X2804464Y6930136D01*
X2803956Y6924395D01*
X2803042Y6918959D01*
X2801772Y6913880D01*
X2800146Y6909104D01*
X2798165Y6904736D01*
X2795828Y6900722D01*
X2793085Y6897065D01*
X2789986Y6893864D01*
X2786481Y6891020D01*
X2782620Y6888581D01*
X2778404Y6886549D01*
X2773781Y6884974D01*
X2768803Y6883806D01*
X2763418Y6883146D01*
X2757678Y6882892D01*
X2741676Y6882892D01*
X2741676Y6988809D01*
X2726944Y6988809D01*
X2726944Y6870700D01*
X2759456Y6870700D01*
X2766618Y6871004D01*
X2773324Y6871817D01*
X2779623Y6873240D01*
X2785465Y6875170D01*
X2790850Y6877659D01*
X2795828Y6880656D01*
X2800299Y6884162D01*
X2804312Y6888124D01*
X2807868Y6892594D01*
X2810967Y6897522D01*
X2813608Y6902907D01*
X2815793Y6908749D01*
X2817469Y6914997D01*
X2818688Y6921652D01*
X2819400Y6928764D01*
X2819654Y6936231D01*
X2819400Y6943699D01*
X2818688Y6950760D01*
X2817469Y6957364D01*
X2815793Y6963562D01*
X2813608Y6969302D01*
X2810967Y6974636D01*
X2807868Y6979462D01*
X2804261Y6983831D01*
X2800197Y6987692D01*
X2795676Y6991096D01*
X2790698Y6994042D01*
X2785262Y6996430D01*
X2779369Y6998309D01*
X2773019Y6999630D01*
X2766212Y7000494D01*
X2758948Y7000748D01*
G37*
G36*
X2873502Y7000748D02*
G01*
X2847022Y6923278D01*
X2861056Y6923278D01*
X2874568Y6966305D01*
X2881122Y6988556D01*
X2881630Y6988556D01*
X2888284Y6966407D01*
X2895346Y6944614D01*
X2901950Y6923278D01*
X2847022Y6923278D01*
X2829052Y6870700D01*
X2843784Y6870700D01*
X2857246Y6911848D01*
X2905760Y6911848D01*
X2918714Y6870700D01*
X2934462Y6870700D01*
X2889758Y7000748D01*
G37*
G36*
X3179572Y7000748D02*
G01*
X3174136Y6997953D01*
X3168091Y6995515D01*
X3161131Y6993534D01*
X3153156Y6991858D01*
X3153156Y6982459D01*
X3176270Y6982459D01*
X3176270Y6882892D01*
X3147060Y6882892D01*
X3147060Y6870700D01*
X3217164Y6870700D01*
X3217164Y6882892D01*
X3190494Y6882892D01*
X3190494Y7000748D01*
G37*
G36*
X2103374Y7828788D02*
G01*
X2097989Y7828483D01*
X2092909Y7827619D01*
X2088134Y7826248D01*
X2083562Y7824368D01*
X2079243Y7822082D01*
X2075180Y7819440D01*
X2071268Y7816494D01*
X2067560Y7813294D01*
X2075434Y7803896D01*
X2081326Y7809128D01*
X2087930Y7813243D01*
X2095093Y7815884D01*
X2102866Y7816850D01*
X2107946Y7816443D01*
X2112416Y7815325D01*
X2116328Y7813446D01*
X2119630Y7810957D01*
X2122220Y7807858D01*
X2124151Y7804200D01*
X2125319Y7800086D01*
X2125726Y7795514D01*
X2125268Y7790180D01*
X2123846Y7785252D01*
X2121306Y7780832D01*
X2117648Y7777022D01*
X2112670Y7773924D01*
X2106320Y7771587D01*
X2098548Y7770114D01*
X2089150Y7769606D01*
X2089150Y7758175D01*
X2099614Y7757668D01*
X2108352Y7756245D01*
X2115464Y7753959D01*
X2121052Y7750860D01*
X2125268Y7747000D01*
X2128113Y7742428D01*
X2129790Y7737246D01*
X2130298Y7731506D01*
X2129790Y7725918D01*
X2128266Y7720888D01*
X2125827Y7716570D01*
X2122627Y7712913D01*
X2118664Y7709966D01*
X2113991Y7707884D01*
X2108809Y7706563D01*
X2103120Y7706106D01*
X2097582Y7706410D01*
X2092553Y7707325D01*
X2087930Y7708747D01*
X2083765Y7710627D01*
X2079904Y7712913D01*
X2076399Y7715453D01*
X2070100Y7721092D01*
X2062734Y7711694D01*
X2066086Y7708290D01*
X2069896Y7705039D01*
X2074164Y7702042D01*
X2078939Y7699400D01*
X2084273Y7697114D01*
X2090166Y7695387D01*
X2096719Y7694320D01*
X2103882Y7693914D01*
X2109470Y7694218D01*
X2114854Y7695031D01*
X2119934Y7696403D01*
X2124659Y7698333D01*
X2128977Y7700721D01*
X2132888Y7703667D01*
X2136343Y7707071D01*
X2139238Y7710931D01*
X2141575Y7715250D01*
X2143353Y7719974D01*
X2144420Y7725156D01*
X2144776Y7730744D01*
X2144217Y7737195D01*
X2142591Y7743037D01*
X2140051Y7748270D01*
X2136648Y7752791D01*
X2132533Y7756702D01*
X2127859Y7759852D01*
X2122678Y7762290D01*
X2117090Y7764018D01*
X2117090Y7764780D01*
X2122119Y7766913D01*
X2126640Y7769606D01*
X2130602Y7772755D01*
X2134006Y7776464D01*
X2136749Y7780680D01*
X2138781Y7785404D01*
X2140051Y7790688D01*
X2140458Y7796530D01*
X2139746Y7803743D01*
X2137664Y7810144D01*
X2134362Y7815681D01*
X2129891Y7820304D01*
X2124506Y7823962D01*
X2118156Y7826603D01*
X2111095Y7828229D01*
G37*
G36*
X2249170Y7828788D02*
G01*
X2243734Y7828483D01*
X2238552Y7827619D01*
X2233726Y7826248D01*
X2229154Y7824368D01*
X2224786Y7822082D01*
X2220722Y7819440D01*
X2216810Y7816494D01*
X2213102Y7813294D01*
X2221230Y7803896D01*
X2227021Y7809128D01*
X2233625Y7813243D01*
X2240889Y7815884D01*
X2248662Y7816850D01*
X2253640Y7816443D01*
X2258110Y7815325D01*
X2261971Y7813446D01*
X2265222Y7810957D01*
X2267813Y7807858D01*
X2269693Y7804200D01*
X2270861Y7800086D01*
X2271268Y7795514D01*
X2270810Y7790180D01*
X2269388Y7785252D01*
X2266848Y7780832D01*
X2263190Y7777022D01*
X2258212Y7773924D01*
X2251862Y7771587D01*
X2244090Y7770114D01*
X2234692Y7769606D01*
X2234692Y7758175D01*
X2245156Y7757668D01*
X2253894Y7756245D01*
X2261006Y7753959D01*
X2266594Y7750860D01*
X2270810Y7747000D01*
X2273655Y7742428D01*
X2275332Y7737246D01*
X2275840Y7731506D01*
X2275332Y7725918D01*
X2273808Y7720888D01*
X2271369Y7716570D01*
X2268169Y7712913D01*
X2264206Y7709966D01*
X2259533Y7707884D01*
X2254351Y7706563D01*
X2248662Y7706106D01*
X2243124Y7706410D01*
X2238095Y7707325D01*
X2233472Y7708747D01*
X2229307Y7710627D01*
X2225548Y7712913D01*
X2222042Y7715453D01*
X2218842Y7718196D01*
X2215896Y7721092D01*
X2208276Y7711694D01*
X2211628Y7708290D01*
X2215438Y7705039D01*
X2219706Y7702042D01*
X2224481Y7699400D01*
X2229866Y7697114D01*
X2235809Y7695387D01*
X2242413Y7694320D01*
X2249678Y7693914D01*
X2255215Y7694218D01*
X2260549Y7695031D01*
X2265629Y7696403D01*
X2270302Y7698333D01*
X2274671Y7700721D01*
X2278583Y7703667D01*
X2282037Y7707071D01*
X2284984Y7710931D01*
X2287371Y7715250D01*
X2289098Y7719974D01*
X2290216Y7725156D01*
X2290572Y7730744D01*
X2290013Y7737195D01*
X2288387Y7743037D01*
X2285847Y7748270D01*
X2282444Y7752791D01*
X2278329Y7756702D01*
X2273655Y7759852D01*
X2268474Y7762290D01*
X2262886Y7764018D01*
X2262886Y7764780D01*
X2267813Y7766913D01*
X2272284Y7769606D01*
X2276246Y7772755D01*
X2279599Y7776464D01*
X2282291Y7780680D01*
X2284323Y7785404D01*
X2285593Y7790688D01*
X2286000Y7796530D01*
X2285288Y7803743D01*
X2283256Y7810144D01*
X2279954Y7815681D01*
X2275586Y7820304D01*
X2270201Y7823962D01*
X2263902Y7826603D01*
X2256891Y7828229D01*
G37*
G36*
X2303018Y7792212D02*
G01*
X2338070Y7696200D01*
X2354834Y7696200D01*
X2389124Y7792212D01*
X2374900Y7792212D01*
X2355850Y7736331D01*
X2346960Y7708138D01*
X2346198Y7708138D01*
X2337054Y7736331D01*
X2318004Y7792212D01*
G37*
G36*
X2178812Y7717028D02*
G01*
X2174646Y7716215D01*
X2171141Y7713878D01*
X2168753Y7710170D01*
X2167890Y7705344D01*
X2168753Y7700670D01*
X2171141Y7697063D01*
X2174646Y7694726D01*
X2178812Y7693914D01*
X2183130Y7694726D01*
X2186686Y7697063D01*
X2189124Y7700670D01*
X2189988Y7705344D01*
X2189124Y7710170D01*
X2186686Y7713878D01*
X2183130Y7716215D01*
G37*
G36*
X2101596Y6888988D02*
G01*
X2095296Y6888683D01*
X2089200Y6887819D01*
X2083409Y6886346D01*
X2077872Y6884314D01*
X2072690Y6881774D01*
X2067814Y6878675D01*
X2063292Y6875068D01*
X2059127Y6870903D01*
X2055418Y6866331D01*
X2052116Y6861200D01*
X2049221Y6855663D01*
X2046833Y6849668D01*
X2044954Y6843217D01*
X2043531Y6836359D01*
X2042718Y6829094D01*
X2042414Y6821424D01*
X2042668Y6813702D01*
X2043531Y6806438D01*
X2044852Y6799580D01*
X2046732Y6793128D01*
X2049018Y6787134D01*
X2051812Y6781596D01*
X2055063Y6776516D01*
X2058720Y6771944D01*
X2062734Y6767880D01*
X2067153Y6764274D01*
X2071928Y6761225D01*
X2077008Y6758686D01*
X2082444Y6756704D01*
X2088134Y6755282D01*
X2094128Y6754418D01*
X2100326Y6754114D01*
X2106726Y6754368D01*
X2112772Y6755180D01*
X2118410Y6756501D01*
X2123694Y6758279D01*
X2128520Y6760464D01*
X2132888Y6763003D01*
X2136800Y6765899D01*
X2140204Y6769100D01*
X2140204Y6822948D01*
X2098294Y6822948D01*
X2098294Y6810756D01*
X2126488Y6810756D01*
X2126488Y6775196D01*
X2121763Y6771792D01*
X2115870Y6769252D01*
X2109114Y6767626D01*
X2101850Y6767068D01*
X2095042Y6767525D01*
X2088794Y6768795D01*
X2083054Y6770878D01*
X2077872Y6773773D01*
X2073249Y6777431D01*
X2069185Y6781850D01*
X2065731Y6786930D01*
X2062835Y6792671D01*
X2060600Y6799122D01*
X2058974Y6806133D01*
X2058009Y6813753D01*
X2057654Y6821931D01*
X2058009Y6829958D01*
X2059076Y6837476D01*
X2060752Y6844385D01*
X2063140Y6850684D01*
X2066086Y6856323D01*
X2069642Y6861352D01*
X2073757Y6865620D01*
X2078431Y6869226D01*
X2083562Y6872020D01*
X2089251Y6874103D01*
X2095347Y6875373D01*
X2101850Y6875780D01*
X2111095Y6874814D01*
X2118766Y6872224D01*
X2125167Y6868261D01*
X2130552Y6863334D01*
X2138680Y6872986D01*
X2135682Y6875881D01*
X2132279Y6878726D01*
X2128418Y6881418D01*
X2124049Y6883857D01*
X2119223Y6885940D01*
X2113838Y6887565D01*
X2107996Y6888632D01*
G37*
G36*
X2171700Y6886448D02*
G01*
X2171700Y6756400D01*
X2185670Y6756400D01*
X2185619Y6832803D01*
X2184806Y6852716D01*
X2183892Y6867398D01*
X2184654Y6867398D01*
X2198878Y6840728D01*
X2247900Y6756400D01*
X2263140Y6756400D01*
X2263140Y6886448D01*
X2249170Y6886448D01*
X2249220Y6811111D01*
X2250033Y6790690D01*
X2250948Y6775703D01*
X2250186Y6775703D01*
X2236216Y6802374D01*
X2186940Y6886448D01*
G37*
G36*
X2299462Y6886448D02*
G01*
X2299462Y6874509D01*
X2330196Y6874509D01*
X2335936Y6874306D01*
X2341270Y6873595D01*
X2346248Y6872528D01*
X2350820Y6870953D01*
X2355037Y6869023D01*
X2358898Y6866636D01*
X2362403Y6863892D01*
X2365502Y6860692D01*
X2368245Y6857136D01*
X2370632Y6853174D01*
X2372614Y6848856D01*
X2374290Y6844182D01*
X2375560Y6839153D01*
X2376474Y6833768D01*
X2376982Y6828028D01*
X2377186Y6821931D01*
X2376982Y6815836D01*
X2376474Y6810095D01*
X2375560Y6804659D01*
X2374290Y6799580D01*
X2372614Y6794804D01*
X2370632Y6790436D01*
X2368245Y6786422D01*
X2365502Y6782765D01*
X2362403Y6779564D01*
X2358898Y6776720D01*
X2355037Y6774281D01*
X2350820Y6772249D01*
X2346248Y6770674D01*
X2341270Y6769506D01*
X2335936Y6768846D01*
X2330196Y6768592D01*
X2314194Y6768592D01*
X2314194Y6874509D01*
X2299462Y6874509D01*
X2299462Y6756400D01*
X2331974Y6756400D01*
X2339136Y6756704D01*
X2345842Y6757517D01*
X2352141Y6758940D01*
X2357983Y6760870D01*
X2363368Y6763359D01*
X2368346Y6766356D01*
X2372817Y6769862D01*
X2376830Y6773824D01*
X2380386Y6778294D01*
X2383485Y6783222D01*
X2386126Y6788607D01*
X2388311Y6794449D01*
X2389987Y6800697D01*
X2391206Y6807352D01*
X2391918Y6814464D01*
X2392172Y6821931D01*
X2391918Y6829399D01*
X2391206Y6836460D01*
X2389987Y6843064D01*
X2388311Y6849262D01*
X2386126Y6855002D01*
X2383485Y6860336D01*
X2380386Y6865162D01*
X2376779Y6869531D01*
X2372715Y6873392D01*
X2368194Y6876796D01*
X2363216Y6879742D01*
X2357780Y6882130D01*
X2351887Y6884009D01*
X2345537Y6885330D01*
X2338730Y6886194D01*
X2331466Y6886448D01*
G37*
G36*
X1996186Y7358888D02*
G01*
X1990242Y7358583D01*
X1984552Y7357719D01*
X1979117Y7356246D01*
X1973986Y7354214D01*
X1969109Y7351674D01*
X1964588Y7348575D01*
X1960372Y7344968D01*
X1956511Y7340904D01*
X1953056Y7336281D01*
X1950008Y7331252D01*
X1947367Y7325715D01*
X1945132Y7319772D01*
X1943404Y7313371D01*
X1942134Y7306614D01*
X1941322Y7299401D01*
X1941068Y7291831D01*
X1956307Y7291831D01*
X1956612Y7299858D01*
X1957578Y7307376D01*
X1959152Y7314285D01*
X1961286Y7320584D01*
X1963978Y7326223D01*
X1967179Y7331252D01*
X1970938Y7335520D01*
X1975104Y7339126D01*
X1979777Y7341920D01*
X1984857Y7344003D01*
X1990343Y7345273D01*
X1996186Y7345680D01*
X2002028Y7345273D01*
X2007514Y7344003D01*
X2012594Y7341920D01*
X2017268Y7339126D01*
X2021433Y7335520D01*
X2025192Y7331252D01*
X2028393Y7326223D01*
X2031085Y7320584D01*
X2033219Y7314285D01*
X2034793Y7307376D01*
X2035759Y7299858D01*
X2036064Y7291831D01*
X2035759Y7283754D01*
X2034793Y7276236D01*
X2033219Y7269225D01*
X2031085Y7262825D01*
X2028393Y7257034D01*
X2025192Y7251903D01*
X2021433Y7247483D01*
X2017268Y7243775D01*
X2012594Y7240879D01*
X2007514Y7238746D01*
X2002028Y7237425D01*
X1996186Y7236968D01*
X1990343Y7237425D01*
X1984857Y7238746D01*
X1979777Y7240879D01*
X1975104Y7243775D01*
X1970938Y7247483D01*
X1967179Y7251903D01*
X1963978Y7257034D01*
X1961286Y7262825D01*
X1959152Y7269225D01*
X1957578Y7276236D01*
X1956612Y7283754D01*
X1956307Y7291831D01*
X1941068Y7291831D01*
X1941322Y7284262D01*
X1942134Y7277049D01*
X1943404Y7270191D01*
X1945132Y7263790D01*
X1947367Y7257745D01*
X1950008Y7252157D01*
X1953056Y7247077D01*
X1956511Y7242403D01*
X1960372Y7238238D01*
X1964588Y7234580D01*
X1969109Y7231380D01*
X1973986Y7228789D01*
X1979117Y7226706D01*
X1984552Y7225233D01*
X1990242Y7224318D01*
X1996186Y7224014D01*
X2002129Y7224318D01*
X2007819Y7225233D01*
X2013254Y7226706D01*
X2018385Y7228789D01*
X2023262Y7231380D01*
X2027783Y7234580D01*
X2032000Y7238238D01*
X2035860Y7242403D01*
X2039315Y7247077D01*
X2042363Y7252157D01*
X2045004Y7257745D01*
X2047239Y7263790D01*
X2048967Y7270191D01*
X2050237Y7277049D01*
X2051050Y7284262D01*
X2051304Y7291831D01*
X2051050Y7299401D01*
X2050237Y7306614D01*
X2048967Y7313371D01*
X2047239Y7319772D01*
X2045004Y7325715D01*
X2042363Y7331252D01*
X2039315Y7336281D01*
X2035860Y7340904D01*
X2032000Y7344968D01*
X2027783Y7348575D01*
X2023262Y7351674D01*
X2018385Y7354214D01*
X2013254Y7356246D01*
X2007819Y7357719D01*
X2002129Y7358583D01*
G37*
G36*
X1897634Y7356348D02*
G01*
X1897634Y7226300D01*
X1912620Y7226300D01*
X1912620Y7356348D01*
G37*
G36*
X2407158Y7358888D02*
G01*
X2401316Y7358532D01*
X2395829Y7357465D01*
X2390800Y7355789D01*
X2386025Y7353553D01*
X2381554Y7350759D01*
X2377338Y7347508D01*
X2373274Y7343851D01*
X2369312Y7339838D01*
X2377948Y7331456D01*
X2383840Y7337602D01*
X2390444Y7342530D01*
X2397760Y7345781D01*
X2405634Y7346950D01*
X2411526Y7346442D01*
X2416556Y7344918D01*
X2420772Y7342530D01*
X2424226Y7339330D01*
X2426919Y7335418D01*
X2428798Y7330897D01*
X2429916Y7325817D01*
X2430272Y7320280D01*
X2430068Y7316012D01*
X2429408Y7311593D01*
X2428290Y7307122D01*
X2426716Y7302500D01*
X2424684Y7297775D01*
X2422194Y7292898D01*
X2419248Y7287920D01*
X2415794Y7282738D01*
X2411882Y7277455D01*
X2407412Y7271918D01*
X2397048Y7260437D01*
X2391105Y7254341D01*
X2377592Y7241641D01*
X2370074Y7234936D01*
X2370074Y7226300D01*
X2450846Y7226300D01*
X2450846Y7238746D01*
X2408377Y7238695D01*
X2397455Y7238187D01*
X2392172Y7237730D01*
X2403551Y7248753D01*
X2413762Y7259523D01*
X2422702Y7270089D01*
X2430221Y7280503D01*
X2433472Y7285634D01*
X2436317Y7290714D01*
X2438755Y7295794D01*
X2440787Y7300823D01*
X2442413Y7305852D01*
X2443530Y7310831D01*
X2444242Y7315809D01*
X2444496Y7320788D01*
X2444191Y7326375D01*
X2443327Y7331659D01*
X2441905Y7336485D01*
X2439974Y7340955D01*
X2437485Y7344968D01*
X2434488Y7348524D01*
X2431034Y7351572D01*
X2427122Y7354163D01*
X2422753Y7356195D01*
X2417927Y7357668D01*
X2412746Y7358583D01*
G37*
G36*
X2508250Y7356348D02*
G01*
X2502814Y7353553D01*
X2496667Y7351115D01*
X2489708Y7349134D01*
X2481834Y7347458D01*
X2481834Y7338059D01*
X2504694Y7338059D01*
X2504694Y7238492D01*
X2475738Y7238492D01*
X2475738Y7226300D01*
X2545588Y7226300D01*
X2545588Y7238492D01*
X2519172Y7238492D01*
X2519172Y7356348D01*
G37*
D10*
X1361186Y6565392D02*
G01*
X1342644Y6583934D01*
X1314957Y6593078D01*
X1278128Y6593078D01*
X1250442Y6583934D01*
X1231900Y6565392D01*
X1231900Y6546850D01*
X1241044Y6528562D01*
X1250442Y6519163D01*
X1268729Y6510020D01*
X1324355Y6491478D01*
X1342644Y6482334D01*
X1352042Y6473189D01*
X1361186Y6454647D01*
X1361186Y6426962D01*
X1342644Y6408420D01*
X1314957Y6399276D01*
X1278128Y6399276D01*
X1250442Y6408420D01*
X1231900Y6426962D01*
X1422145Y6473189D02*
G01*
X1532889Y6473189D01*
X1532889Y6491478D01*
X1523745Y6510020D01*
X1514602Y6519163D01*
X1496060Y6528562D01*
X1468373Y6528562D01*
X1449831Y6519163D01*
X1431289Y6500876D01*
X1422145Y6473189D01*
X1422145Y6454647D01*
X1431289Y6426962D01*
X1449831Y6408420D01*
X1468373Y6399276D01*
X1496060Y6399276D01*
X1514602Y6408420D01*
X1532889Y6426962D01*
X1593850Y6528562D02*
G01*
X1593850Y6399276D01*
X1593850Y6491478D02*
G01*
X1621789Y6519163D01*
X1640078Y6528562D01*
X1667763Y6528562D01*
X1686305Y6519163D01*
X1695450Y6491478D01*
X1695450Y6399276D01*
X1858010Y6500876D02*
G01*
X1848865Y6519163D01*
X1821179Y6528562D01*
X1793494Y6528562D01*
X1765807Y6519163D01*
X1756410Y6500876D01*
X1765807Y6482334D01*
X1784350Y6473189D01*
X1830323Y6463792D01*
X1848865Y6454647D01*
X1858010Y6436105D01*
X1858010Y6426962D01*
X1848865Y6408420D01*
X1821179Y6399276D01*
X1793494Y6399276D01*
X1765807Y6408420D01*
X1756410Y6426962D01*
X1965197Y6528562D02*
G01*
X1946909Y6519163D01*
X1928368Y6500876D01*
X1918970Y6473189D01*
X1918970Y6454647D01*
X1928368Y6426962D01*
X1946909Y6408420D01*
X1965197Y6399276D01*
X1992884Y6399276D01*
X2011425Y6408420D01*
X2029968Y6426962D01*
X2039111Y6454647D01*
X2039111Y6473189D01*
X2029968Y6500876D01*
X2011425Y6519163D01*
X1992884Y6528562D01*
X1965197Y6528562D01*
X2100072Y6528562D02*
G01*
X2100072Y6399276D01*
X2100072Y6473189D02*
G01*
X2109470Y6500876D01*
X2127758Y6519163D01*
X2146300Y6528562D01*
X2173986Y6528562D01*
X2377186Y6593078D02*
G01*
X2377186Y6399276D01*
X2377186Y6593078D02*
G01*
X2460243Y6593078D01*
X2487929Y6583934D01*
X2497327Y6574789D01*
X2506472Y6556247D01*
X2506472Y6537705D01*
X2497327Y6519163D01*
X2487929Y6510020D01*
X2460243Y6500876D01*
X2377186Y6500876D02*
G01*
X2460243Y6500876D01*
X2487929Y6491478D01*
X2497327Y6482334D01*
X2506472Y6463792D01*
X2506472Y6436105D01*
X2497327Y6417563D01*
X2487929Y6408420D01*
X2460243Y6399276D01*
X2377186Y6399276D01*
X2613659Y6528562D02*
G01*
X2595118Y6519163D01*
X2576829Y6500876D01*
X2567431Y6473189D01*
X2567431Y6454647D01*
X2576829Y6426962D01*
X2595118Y6408420D01*
X2613659Y6399276D01*
X2641345Y6399276D01*
X2659888Y6408420D01*
X2678429Y6426962D01*
X2687574Y6454647D01*
X2687574Y6473189D01*
X2678429Y6500876D01*
X2659888Y6519163D01*
X2641345Y6528562D01*
X2613659Y6528562D01*
X2859277Y6528562D02*
G01*
X2859277Y6399276D01*
X2859277Y6500876D02*
G01*
X2840990Y6519163D01*
X2822447Y6528562D01*
X2794761Y6528562D01*
X2776220Y6519163D01*
X2757677Y6500876D01*
X2748534Y6473189D01*
X2748534Y6454647D01*
X2757677Y6426962D01*
X2776220Y6408420D01*
X2794761Y6399276D01*
X2822447Y6399276D01*
X2840990Y6408420D01*
X2859277Y6426962D01*
X2920238Y6528562D02*
G01*
X2920238Y6399276D01*
X2920238Y6473189D02*
G01*
X2929636Y6500876D01*
X2947924Y6519163D01*
X2966465Y6528562D01*
X2994152Y6528562D01*
X3166109Y6593078D02*
G01*
X3166109Y6399276D01*
X3166109Y6500876D02*
G01*
X3147568Y6519163D01*
X3129025Y6528562D01*
X3101340Y6528562D01*
X3082797Y6519163D01*
X3064509Y6500876D01*
X3055111Y6473189D01*
X3055111Y6454647D01*
X3064509Y6426962D01*
X3082797Y6408420D01*
X3101340Y6399276D01*
X3129025Y6399276D01*
X3147568Y6408420D01*
X3166109Y6426962D01*
D11*
X1542097Y5839320D02*
G01*
X1542097Y4860803D01*
X2852094Y6182268D02*
G01*
X2852094Y6268298D01*
X1542097Y6268298D01*
X1542097Y6182271D01*
X2852094Y4860803D02*
G01*
X2852094Y5839322D01*
X2852094Y4860803D02*
G01*
X1542097Y4860803D01*
X2849641Y5695279D02*
G01*
X2396159Y5695988D01*
X2396159Y5481993D01*
X2018156Y5481993D01*
X2018156Y5693981D01*
X1541645Y5694278D01*
X2196058Y4907775D02*
G01*
X2196058Y4860797D01*
X1676648Y5282285D02*
G01*
X1902658Y5282285D01*
X2810642Y5555279D02*
G01*
X2775640Y4980985D01*
X2487325Y4982103D01*
X2437820Y5555609D01*
X2488697Y5555228D01*
X2539725Y5101203D01*
X2547244Y5033385D01*
X2722224Y5034452D01*
X2769621Y5512277D01*
X2772618Y5555279D01*
X2810642Y5555279D01*
X2196058Y5481789D02*
G01*
X2196160Y5282984D01*
X2288057Y5316791D01*
X2288057Y5040769D01*
X2196160Y5070995D01*
X2196058Y4907775D01*
X1645721Y4976456D02*
G01*
X1596217Y5549963D01*
X1647093Y5549582D01*
X1698122Y5095557D01*
X1705640Y5027739D01*
X1928017Y5506631D02*
G01*
X1931014Y5549633D01*
X1969038Y5549633D01*
X1968444Y5549925D02*
G01*
X1933442Y4975631D01*
X1645127Y4976748D01*
X1705046Y5028031D02*
G01*
X1880026Y5029098D01*
X1927423Y5506923D01*
X2518643Y5284261D02*
G01*
X2744652Y5284261D01*
X2532639Y5163256D02*
G01*
X2735635Y5163256D01*
X1690644Y5161279D02*
G01*
X1893641Y5161279D01*
X2336800Y7670800D02*
G01*
X2336800Y6908800D01*
X2082800Y6908800D01*
X2082800Y7670800D02*
G01*
X2082800Y6908800D01*
X2336800Y7670800D02*
G01*
X2082800Y7670800D01*
X2336800Y7411956D02*
G01*
X2082800Y7411956D01*
D10*
X3556000Y6794500D02*
G01*
X3302000Y6794500D01*
X3302000Y7810500D01*
X3556000Y7810500D01*
X3556000Y7620000D01*
D12*
X3556000Y6794500D02*
G01*
X3556000Y7620000D01*
D10*
X1117600Y6794500D02*
G01*
X863600Y6794500D01*
X863600Y7810500D01*
X1117600Y7810500D01*
X1117600Y7620000D01*
D12*
X1117600Y6794500D02*
G01*
X1117600Y7620000D01*
M02*
