G04 Layer: BottomSilkscreenLayer*
G04 EasyEDA v6.5.22, 2023-02-04 00:38:19*
G04 1b58cd9aca174a3e8f89bbe905d80933,4bb84c5f6c124816bf94f4484d05adb3,10*
G04 Gerber Generator version 0.2*
G04 Scale: 100 percent, Rotated: No, Reflected: No *
G04 Dimensions in millimeters *
G04 leading zeros omitted , absolute positions ,4 integer and 5 decimal *
%FSLAX45Y45*%
%MOMM*%

%ADD10C,0.0001*%

%LPD*%
G36*
X2316226Y7828788D02*
G01*
X2308504Y7828229D01*
X2301443Y7826603D01*
X2295093Y7823962D01*
X2289708Y7820304D01*
X2285238Y7815681D01*
X2281936Y7810144D01*
X2279853Y7803743D01*
X2279142Y7796530D01*
X2279548Y7790688D01*
X2280818Y7785404D01*
X2282850Y7780680D01*
X2285593Y7776464D01*
X2288997Y7772755D01*
X2292959Y7769606D01*
X2297480Y7766913D01*
X2302510Y7764780D01*
X2302510Y7764018D01*
X2296922Y7762290D01*
X2291740Y7759852D01*
X2287066Y7756702D01*
X2282952Y7752791D01*
X2279548Y7748270D01*
X2277008Y7743037D01*
X2275382Y7737195D01*
X2274824Y7730744D01*
X2275179Y7725156D01*
X2276246Y7719974D01*
X2278024Y7715250D01*
X2280361Y7710931D01*
X2283256Y7707071D01*
X2286711Y7703667D01*
X2290622Y7700721D01*
X2294940Y7698333D01*
X2299665Y7696403D01*
X2304745Y7695031D01*
X2310130Y7694218D01*
X2315718Y7693914D01*
X2322880Y7694320D01*
X2329434Y7695387D01*
X2335326Y7697114D01*
X2340660Y7699400D01*
X2345436Y7702042D01*
X2349703Y7705039D01*
X2353513Y7708290D01*
X2356866Y7711694D01*
X2349500Y7721092D01*
X2343200Y7715453D01*
X2339695Y7712913D01*
X2335834Y7710627D01*
X2331669Y7708747D01*
X2327046Y7707325D01*
X2322017Y7706410D01*
X2316480Y7706106D01*
X2310790Y7706563D01*
X2305608Y7707884D01*
X2300935Y7709966D01*
X2296972Y7712913D01*
X2293772Y7716570D01*
X2291334Y7720888D01*
X2289810Y7725918D01*
X2289302Y7731506D01*
X2289810Y7737246D01*
X2291486Y7742428D01*
X2294331Y7747000D01*
X2298547Y7750860D01*
X2304135Y7753959D01*
X2311247Y7756245D01*
X2319985Y7757668D01*
X2330450Y7758175D01*
X2330450Y7769606D01*
X2321052Y7770114D01*
X2313279Y7771587D01*
X2306929Y7773924D01*
X2301951Y7777022D01*
X2298293Y7780832D01*
X2295753Y7785252D01*
X2294331Y7790180D01*
X2293874Y7795514D01*
X2294280Y7800086D01*
X2295448Y7804200D01*
X2297379Y7807858D01*
X2299970Y7810957D01*
X2303272Y7813446D01*
X2307183Y7815325D01*
X2311654Y7816443D01*
X2316734Y7816850D01*
X2324506Y7815884D01*
X2331669Y7813243D01*
X2338273Y7809128D01*
X2344166Y7803896D01*
X2352040Y7813294D01*
X2348331Y7816494D01*
X2344420Y7819440D01*
X2340356Y7822082D01*
X2336038Y7824368D01*
X2331466Y7826248D01*
X2326690Y7827619D01*
X2321610Y7828483D01*
G37*
G36*
X2170430Y7828788D02*
G01*
X2162708Y7828229D01*
X2155698Y7826603D01*
X2149398Y7823962D01*
X2144014Y7820304D01*
X2139645Y7815681D01*
X2136343Y7810144D01*
X2134311Y7803743D01*
X2133600Y7796530D01*
X2134006Y7790688D01*
X2135276Y7785404D01*
X2137308Y7780680D01*
X2140000Y7776464D01*
X2143353Y7772755D01*
X2147316Y7769606D01*
X2151786Y7766913D01*
X2156714Y7764780D01*
X2156714Y7764018D01*
X2151126Y7762290D01*
X2145944Y7759852D01*
X2141270Y7756702D01*
X2137156Y7752791D01*
X2133752Y7748270D01*
X2131212Y7743037D01*
X2129586Y7737195D01*
X2129028Y7730744D01*
X2129383Y7725156D01*
X2130501Y7719974D01*
X2132228Y7715250D01*
X2134616Y7710931D01*
X2137562Y7707071D01*
X2141016Y7703667D01*
X2144928Y7700721D01*
X2149297Y7698333D01*
X2153970Y7696403D01*
X2159050Y7695031D01*
X2164384Y7694218D01*
X2169922Y7693914D01*
X2177186Y7694320D01*
X2183790Y7695387D01*
X2189734Y7697114D01*
X2195118Y7699400D01*
X2199894Y7702042D01*
X2204161Y7705039D01*
X2207971Y7708290D01*
X2211324Y7711694D01*
X2203704Y7721092D01*
X2200757Y7718196D01*
X2197557Y7715453D01*
X2194052Y7712913D01*
X2190292Y7710627D01*
X2186127Y7708747D01*
X2181504Y7707325D01*
X2176475Y7706410D01*
X2170938Y7706106D01*
X2165248Y7706563D01*
X2160066Y7707884D01*
X2155393Y7709966D01*
X2151430Y7712913D01*
X2148230Y7716570D01*
X2145792Y7720888D01*
X2144268Y7725918D01*
X2143760Y7731506D01*
X2144268Y7737246D01*
X2145944Y7742428D01*
X2148789Y7747000D01*
X2153005Y7750860D01*
X2158593Y7753959D01*
X2165705Y7756245D01*
X2174443Y7757668D01*
X2184908Y7758175D01*
X2184908Y7769606D01*
X2175510Y7770114D01*
X2167737Y7771587D01*
X2161387Y7773924D01*
X2156409Y7777022D01*
X2152751Y7780832D01*
X2150211Y7785252D01*
X2148789Y7790180D01*
X2148332Y7795514D01*
X2148738Y7800086D01*
X2149906Y7804200D01*
X2151786Y7807858D01*
X2154377Y7810957D01*
X2157628Y7813446D01*
X2161489Y7815325D01*
X2165959Y7816443D01*
X2170938Y7816850D01*
X2178710Y7815884D01*
X2185974Y7813243D01*
X2192578Y7809128D01*
X2198370Y7803896D01*
X2206498Y7813294D01*
X2202789Y7816494D01*
X2198878Y7819440D01*
X2194814Y7822082D01*
X2190445Y7824368D01*
X2185873Y7826248D01*
X2181047Y7827619D01*
X2175865Y7828483D01*
G37*
G36*
X2030475Y7792212D02*
G01*
X2064766Y7696200D01*
X2081530Y7696200D01*
X2116582Y7792212D01*
X2101596Y7792212D01*
X2082546Y7736331D01*
X2073402Y7708138D01*
X2072639Y7708138D01*
X2063750Y7736331D01*
X2044700Y7792212D01*
G37*
G36*
X2240788Y7717028D02*
G01*
X2236470Y7716215D01*
X2232914Y7713878D01*
X2230475Y7710170D01*
X2229612Y7705344D01*
X2230475Y7700670D01*
X2232914Y7697063D01*
X2236470Y7694726D01*
X2240788Y7693914D01*
X2244953Y7694726D01*
X2248458Y7697063D01*
X2250846Y7700670D01*
X2251710Y7705344D01*
X2250846Y7710170D01*
X2248458Y7713878D01*
X2244953Y7716215D01*
G37*
G36*
X2699004Y7358888D02*
G01*
X2692603Y7358532D01*
X2686761Y7357465D01*
X2681376Y7355840D01*
X2676550Y7353757D01*
X2672181Y7351318D01*
X2668320Y7348626D01*
X2664917Y7345781D01*
X2661920Y7342886D01*
X2670048Y7333234D01*
X2675432Y7338161D01*
X2681833Y7342124D01*
X2689504Y7344714D01*
X2698750Y7345680D01*
X2705252Y7345273D01*
X2711348Y7344003D01*
X2717038Y7341920D01*
X2722168Y7339126D01*
X2726842Y7335520D01*
X2730957Y7331252D01*
X2734513Y7326223D01*
X2737459Y7320584D01*
X2739847Y7314285D01*
X2741523Y7307376D01*
X2742590Y7299858D01*
X2742946Y7291831D01*
X2742590Y7283653D01*
X2741625Y7276033D01*
X2739999Y7269022D01*
X2737764Y7262571D01*
X2734868Y7256830D01*
X2731414Y7251750D01*
X2727350Y7247331D01*
X2722727Y7243673D01*
X2717546Y7240778D01*
X2711805Y7238695D01*
X2705557Y7237425D01*
X2698750Y7236968D01*
X2691485Y7237526D01*
X2684729Y7239152D01*
X2678836Y7241692D01*
X2674112Y7245096D01*
X2674112Y7280656D01*
X2702306Y7280656D01*
X2702306Y7292848D01*
X2660396Y7292848D01*
X2660396Y7239000D01*
X2663799Y7235799D01*
X2667711Y7232903D01*
X2672080Y7230364D01*
X2676906Y7228179D01*
X2682189Y7226401D01*
X2687828Y7225080D01*
X2693873Y7224268D01*
X2700274Y7224014D01*
X2706471Y7224318D01*
X2712466Y7225182D01*
X2718155Y7226604D01*
X2723591Y7228586D01*
X2728671Y7231125D01*
X2733446Y7234174D01*
X2737866Y7237780D01*
X2741879Y7241844D01*
X2745536Y7246416D01*
X2748788Y7251496D01*
X2751582Y7257034D01*
X2753868Y7263028D01*
X2755747Y7269480D01*
X2757068Y7276338D01*
X2757932Y7283602D01*
X2758186Y7291324D01*
X2757881Y7298994D01*
X2757068Y7306259D01*
X2755646Y7313117D01*
X2753766Y7319568D01*
X2751378Y7325563D01*
X2748483Y7331100D01*
X2745181Y7336231D01*
X2741472Y7340803D01*
X2737307Y7344968D01*
X2732786Y7348575D01*
X2727909Y7351674D01*
X2722727Y7354214D01*
X2717190Y7356246D01*
X2711399Y7357719D01*
X2705303Y7358583D01*
G37*
G36*
X2419350Y7358888D02*
G01*
X2413355Y7358583D01*
X2407666Y7357719D01*
X2402179Y7356246D01*
X2396998Y7354214D01*
X2392172Y7351674D01*
X2387600Y7348575D01*
X2383434Y7344968D01*
X2379573Y7340904D01*
X2376170Y7336281D01*
X2373122Y7331252D01*
X2370480Y7325715D01*
X2368296Y7319772D01*
X2366518Y7313371D01*
X2365248Y7306614D01*
X2364486Y7299401D01*
X2364232Y7291831D01*
X2379218Y7291831D01*
X2379522Y7299858D01*
X2380488Y7307376D01*
X2382062Y7314285D01*
X2384196Y7320584D01*
X2386888Y7326223D01*
X2390140Y7331252D01*
X2393899Y7335520D01*
X2398115Y7339126D01*
X2402789Y7341920D01*
X2407920Y7344003D01*
X2413457Y7345273D01*
X2419350Y7345680D01*
X2425141Y7345273D01*
X2430576Y7344003D01*
X2435606Y7341920D01*
X2440228Y7339126D01*
X2444394Y7335520D01*
X2448102Y7331252D01*
X2451303Y7326223D01*
X2453995Y7320584D01*
X2456129Y7314285D01*
X2457704Y7307376D01*
X2458669Y7299858D01*
X2458974Y7291831D01*
X2458669Y7283754D01*
X2457704Y7276236D01*
X2456129Y7269225D01*
X2453995Y7262825D01*
X2451303Y7257034D01*
X2448102Y7251903D01*
X2444394Y7247483D01*
X2440228Y7243775D01*
X2435606Y7240879D01*
X2430576Y7238746D01*
X2425141Y7237425D01*
X2419350Y7236968D01*
X2413457Y7237425D01*
X2407920Y7238746D01*
X2402789Y7240879D01*
X2398115Y7243775D01*
X2393899Y7247483D01*
X2390140Y7251903D01*
X2386888Y7257034D01*
X2384196Y7262825D01*
X2382062Y7269225D01*
X2380488Y7276236D01*
X2379522Y7283754D01*
X2379218Y7291831D01*
X2364232Y7291831D01*
X2364486Y7284262D01*
X2365248Y7277049D01*
X2366518Y7270191D01*
X2368296Y7263790D01*
X2370480Y7257745D01*
X2373122Y7252157D01*
X2376170Y7247077D01*
X2379624Y7242403D01*
X2383434Y7238238D01*
X2387600Y7234580D01*
X2392172Y7231380D01*
X2396998Y7228789D01*
X2402179Y7226706D01*
X2407666Y7225233D01*
X2413355Y7224318D01*
X2419350Y7224014D01*
X2425242Y7224318D01*
X2430881Y7225233D01*
X2436317Y7226706D01*
X2441448Y7228789D01*
X2446274Y7231380D01*
X2450795Y7234580D01*
X2454960Y7238238D01*
X2458770Y7242403D01*
X2462225Y7247077D01*
X2465273Y7252157D01*
X2467914Y7257745D01*
X2470150Y7263790D01*
X2471877Y7270191D01*
X2473147Y7277049D01*
X2473960Y7284262D01*
X2474214Y7291831D01*
X2473960Y7299401D01*
X2473147Y7306614D01*
X2471877Y7313371D01*
X2470150Y7319772D01*
X2467914Y7325715D01*
X2465273Y7331252D01*
X2462225Y7336281D01*
X2458770Y7340904D01*
X2454960Y7344968D01*
X2450795Y7348575D01*
X2446274Y7351674D01*
X2441448Y7354214D01*
X2436317Y7356246D01*
X2430881Y7357719D01*
X2425242Y7358583D01*
G37*
G36*
X2592832Y7356348D02*
G01*
X2585669Y7356144D01*
X2579014Y7355484D01*
X2572816Y7354417D01*
X2567178Y7352792D01*
X2562047Y7350709D01*
X2557526Y7348016D01*
X2553614Y7344765D01*
X2550363Y7340904D01*
X2547772Y7336434D01*
X2545842Y7331252D01*
X2544724Y7325359D01*
X2544318Y7318756D01*
X2559050Y7318756D01*
X2559608Y7325461D01*
X2561285Y7331049D01*
X2564079Y7335570D01*
X2567990Y7339025D01*
X2573020Y7341616D01*
X2579217Y7343343D01*
X2586482Y7344359D01*
X2594864Y7344664D01*
X2614168Y7344664D01*
X2614168Y7291070D01*
X2594102Y7291070D01*
X2585821Y7291476D01*
X2578658Y7292695D01*
X2572613Y7294727D01*
X2567736Y7297674D01*
X2563926Y7301534D01*
X2561183Y7306309D01*
X2559608Y7311999D01*
X2559050Y7318756D01*
X2544318Y7318756D01*
X2544724Y7312304D01*
X2545842Y7306462D01*
X2547721Y7301179D01*
X2550312Y7296454D01*
X2553563Y7292289D01*
X2557424Y7288733D01*
X2561894Y7285685D01*
X2566924Y7283246D01*
X2572512Y7281316D01*
X2578557Y7279944D01*
X2585110Y7279131D01*
X2592070Y7278878D01*
X2614168Y7278878D01*
X2614168Y7226300D01*
X2628900Y7226300D01*
X2628900Y7356348D01*
G37*
G36*
X2502916Y7356348D02*
G01*
X2502916Y7226300D01*
X2517648Y7226300D01*
X2517648Y7356348D01*
G37*
G36*
X1794510Y7367016D02*
G01*
X1849628Y7194550D01*
X1860296Y7194550D01*
X1805178Y7367016D01*
G37*
G36*
X2012442Y7358888D02*
G01*
X2006854Y7358583D01*
X2001672Y7357668D01*
X1996846Y7356195D01*
X1992477Y7354163D01*
X1988566Y7351572D01*
X1985111Y7348524D01*
X1982114Y7344968D01*
X1979625Y7340955D01*
X1977694Y7336485D01*
X1976272Y7331659D01*
X1975408Y7326375D01*
X1975104Y7320788D01*
X1975357Y7315809D01*
X1976069Y7310831D01*
X1977186Y7305852D01*
X1978812Y7300823D01*
X1980844Y7295794D01*
X1983282Y7290714D01*
X1986127Y7285634D01*
X1989378Y7280503D01*
X1996897Y7270089D01*
X2005838Y7259523D01*
X2016048Y7248753D01*
X2027428Y7237730D01*
X2016658Y7238542D01*
X2006092Y7238746D01*
X1968754Y7238746D01*
X1968754Y7226300D01*
X2049525Y7226300D01*
X2049525Y7234936D01*
X2034997Y7248093D01*
X2028494Y7254341D01*
X2017115Y7266279D01*
X2012188Y7271918D01*
X2007717Y7277455D01*
X2003806Y7282738D01*
X2000351Y7287920D01*
X1997405Y7292898D01*
X1994916Y7297775D01*
X1992884Y7302500D01*
X1991309Y7307122D01*
X1990191Y7311593D01*
X1989531Y7316012D01*
X1989328Y7320280D01*
X1989683Y7325817D01*
X1990801Y7330897D01*
X1992680Y7335418D01*
X1995373Y7339330D01*
X1998827Y7342530D01*
X2003043Y7344918D01*
X2008073Y7346442D01*
X2013966Y7346950D01*
X2021839Y7345781D01*
X2029155Y7342530D01*
X2035759Y7337602D01*
X2041652Y7331456D01*
X2050288Y7339838D01*
X2046325Y7343851D01*
X2042261Y7347508D01*
X2038045Y7350759D01*
X2033574Y7353553D01*
X2028799Y7355789D01*
X2023770Y7357465D01*
X2018284Y7358532D01*
G37*
G36*
X1650238Y7358888D02*
G01*
X1645615Y7358634D01*
X1641144Y7357922D01*
X1636928Y7356703D01*
X1632864Y7354976D01*
X1629105Y7352792D01*
X1625549Y7350150D01*
X1622247Y7347000D01*
X1619199Y7343394D01*
X1616506Y7339279D01*
X1614068Y7334707D01*
X1611985Y7329678D01*
X1610258Y7324191D01*
X1608886Y7318197D01*
X1607870Y7311745D01*
X1607261Y7304786D01*
X1621028Y7304786D01*
X1621993Y7314438D01*
X1623771Y7322921D01*
X1626311Y7330236D01*
X1629613Y7336332D01*
X1633677Y7341108D01*
X1638503Y7344613D01*
X1643989Y7346746D01*
X1650238Y7347458D01*
X1654962Y7346899D01*
X1659280Y7345222D01*
X1663141Y7342530D01*
X1666544Y7338923D01*
X1669288Y7334503D01*
X1671370Y7329220D01*
X1672640Y7323277D01*
X1673098Y7316724D01*
X1672742Y7310323D01*
X1671624Y7304531D01*
X1669745Y7299452D01*
X1667103Y7295083D01*
X1663750Y7291527D01*
X1659585Y7288936D01*
X1654657Y7287310D01*
X1648968Y7286752D01*
X1641957Y7287768D01*
X1634794Y7291019D01*
X1627733Y7296607D01*
X1621028Y7304786D01*
X1607261Y7304786D01*
X1607058Y7297420D01*
X1607312Y7287818D01*
X1608074Y7278928D01*
X1609293Y7270851D01*
X1610969Y7263434D01*
X1613052Y7256780D01*
X1615490Y7250734D01*
X1618284Y7245400D01*
X1621383Y7240727D01*
X1624787Y7236663D01*
X1628394Y7233158D01*
X1632254Y7230313D01*
X1636318Y7227976D01*
X1640535Y7226198D01*
X1644853Y7224979D01*
X1649272Y7224268D01*
X1653793Y7224014D01*
X1663344Y7224979D01*
X1671523Y7227722D01*
X1678432Y7231837D01*
X1684274Y7236968D01*
X1676146Y7246112D01*
X1671675Y7241895D01*
X1666341Y7238796D01*
X1660398Y7236866D01*
X1654048Y7236206D01*
X1649831Y7236510D01*
X1645767Y7237475D01*
X1641856Y7239101D01*
X1638147Y7241438D01*
X1634693Y7244588D01*
X1631492Y7248550D01*
X1628648Y7253376D01*
X1626158Y7259167D01*
X1624126Y7265873D01*
X1622501Y7273645D01*
X1621383Y7282434D01*
X1620774Y7292340D01*
X1627378Y7285583D01*
X1634794Y7280351D01*
X1642821Y7276998D01*
X1651254Y7275830D01*
X1656537Y7276134D01*
X1661464Y7276998D01*
X1666036Y7278471D01*
X1670202Y7280503D01*
X1673910Y7283094D01*
X1677212Y7286294D01*
X1680057Y7290003D01*
X1682445Y7294270D01*
X1684324Y7299096D01*
X1685696Y7304430D01*
X1686509Y7310323D01*
X1686814Y7316724D01*
X1686458Y7322769D01*
X1685493Y7328509D01*
X1683867Y7333792D01*
X1681734Y7338720D01*
X1679092Y7343190D01*
X1675942Y7347153D01*
X1672437Y7350607D01*
X1668525Y7353503D01*
X1664309Y7355789D01*
X1659839Y7357516D01*
X1655114Y7358532D01*
G37*
G36*
X1900428Y7356348D02*
G01*
X1900428Y7238492D01*
X1874012Y7238492D01*
X1874012Y7226300D01*
X1943862Y7226300D01*
X1943862Y7238492D01*
X1914906Y7238492D01*
X1914906Y7338059D01*
X1937766Y7338059D01*
X1937766Y7347458D01*
X1929892Y7349134D01*
X1922932Y7351115D01*
X1916785Y7353553D01*
X1911350Y7356348D01*
G37*
G36*
X1733042Y7356348D02*
G01*
X1733042Y7238492D01*
X1706625Y7238492D01*
X1706625Y7226300D01*
X1776730Y7226300D01*
X1776730Y7238492D01*
X1747520Y7238492D01*
X1747520Y7338059D01*
X1770380Y7338059D01*
X1770380Y7347458D01*
X1762506Y7349134D01*
X1755597Y7351115D01*
X1749501Y7353553D01*
X1744218Y7356348D01*
G37*
G36*
X2330704Y6888988D02*
G01*
X2324303Y6888632D01*
X2318461Y6887565D01*
X2313076Y6885940D01*
X2308250Y6883857D01*
X2303881Y6881418D01*
X2300020Y6878726D01*
X2296617Y6875881D01*
X2293620Y6872986D01*
X2301748Y6863334D01*
X2307132Y6868261D01*
X2313533Y6872224D01*
X2321204Y6874814D01*
X2330450Y6875780D01*
X2336952Y6875373D01*
X2343048Y6874103D01*
X2348738Y6872020D01*
X2353868Y6869226D01*
X2358542Y6865620D01*
X2362657Y6861352D01*
X2366213Y6856323D01*
X2369159Y6850684D01*
X2371547Y6844385D01*
X2373223Y6837476D01*
X2374290Y6829958D01*
X2374646Y6821931D01*
X2374290Y6813753D01*
X2373325Y6806133D01*
X2371699Y6799122D01*
X2369464Y6792671D01*
X2366568Y6786930D01*
X2363114Y6781850D01*
X2359050Y6777431D01*
X2354427Y6773773D01*
X2349246Y6770878D01*
X2343505Y6768795D01*
X2337257Y6767525D01*
X2330450Y6767068D01*
X2323185Y6767626D01*
X2316429Y6769252D01*
X2310536Y6771792D01*
X2305812Y6775196D01*
X2305812Y6810756D01*
X2334006Y6810756D01*
X2334006Y6822948D01*
X2292096Y6822948D01*
X2292096Y6769100D01*
X2295499Y6765899D01*
X2299411Y6763003D01*
X2303780Y6760464D01*
X2308606Y6758279D01*
X2313889Y6756501D01*
X2319528Y6755180D01*
X2325573Y6754368D01*
X2331974Y6754114D01*
X2338171Y6754418D01*
X2344166Y6755282D01*
X2349855Y6756704D01*
X2355291Y6758686D01*
X2360371Y6761225D01*
X2365146Y6764274D01*
X2369566Y6767880D01*
X2373579Y6771944D01*
X2377236Y6776516D01*
X2380488Y6781596D01*
X2383282Y6787134D01*
X2385568Y6793128D01*
X2387447Y6799580D01*
X2388768Y6806438D01*
X2389632Y6813702D01*
X2389886Y6821424D01*
X2389581Y6829094D01*
X2388768Y6836359D01*
X2387346Y6843217D01*
X2385466Y6849668D01*
X2383078Y6855663D01*
X2380183Y6861200D01*
X2376881Y6866331D01*
X2373172Y6870903D01*
X2369007Y6875068D01*
X2364486Y6878675D01*
X2359609Y6881774D01*
X2354427Y6884314D01*
X2348890Y6886346D01*
X2343099Y6887819D01*
X2337003Y6888683D01*
G37*
G36*
X2169160Y6886448D02*
G01*
X2169160Y6756400D01*
X2184400Y6756400D01*
X2233422Y6840728D01*
X2247646Y6867398D01*
X2248408Y6867398D01*
X2246985Y6842810D01*
X2246680Y6832803D01*
X2246630Y6756400D01*
X2260600Y6756400D01*
X2260600Y6886448D01*
X2245360Y6886448D01*
X2196084Y6802374D01*
X2182114Y6775703D01*
X2181352Y6775703D01*
X2182977Y6806031D01*
X2183130Y6816090D01*
X2183130Y6886448D01*
G37*
G36*
X2100834Y6886448D02*
G01*
X2093569Y6886194D01*
X2086762Y6885330D01*
X2080412Y6884009D01*
X2074519Y6882130D01*
X2069084Y6879742D01*
X2064105Y6876796D01*
X2059584Y6873392D01*
X2055520Y6869531D01*
X2051913Y6865162D01*
X2048814Y6860336D01*
X2046173Y6855002D01*
X2043988Y6849262D01*
X2042312Y6843064D01*
X2041093Y6836460D01*
X2040382Y6829399D01*
X2040128Y6821931D01*
X2055114Y6821931D01*
X2055317Y6828028D01*
X2055825Y6833768D01*
X2056739Y6839153D01*
X2058009Y6844182D01*
X2059686Y6848856D01*
X2061667Y6853174D01*
X2064054Y6857136D01*
X2066798Y6860692D01*
X2069896Y6863892D01*
X2073402Y6866636D01*
X2077262Y6869023D01*
X2081479Y6870953D01*
X2086051Y6872528D01*
X2091029Y6873595D01*
X2096363Y6874306D01*
X2102104Y6874509D01*
X2118106Y6874509D01*
X2118106Y6768592D01*
X2102104Y6768592D01*
X2096363Y6768846D01*
X2091029Y6769506D01*
X2086051Y6770674D01*
X2081479Y6772249D01*
X2077262Y6774281D01*
X2073402Y6776720D01*
X2069896Y6779564D01*
X2066798Y6782765D01*
X2064054Y6786422D01*
X2061667Y6790436D01*
X2059686Y6794804D01*
X2058009Y6799580D01*
X2056739Y6804659D01*
X2055825Y6810095D01*
X2055317Y6815836D01*
X2055114Y6821931D01*
X2040128Y6821931D01*
X2040382Y6814464D01*
X2041093Y6807352D01*
X2042312Y6800697D01*
X2043988Y6794449D01*
X2046173Y6788607D01*
X2048814Y6783222D01*
X2051913Y6778294D01*
X2055469Y6773824D01*
X2059482Y6769862D01*
X2063953Y6766356D01*
X2068931Y6763359D01*
X2074316Y6760870D01*
X2080158Y6758940D01*
X2086457Y6757517D01*
X2093163Y6756704D01*
X2100326Y6756400D01*
X2132838Y6756400D01*
X2132838Y6886448D01*
G37*
M02*
