G04 Layer: TopLayer*
G04 EasyEDA v6.5.22, 2023-02-04 00:38:19*
G04 1b58cd9aca174a3e8f89bbe905d80933,4bb84c5f6c124816bf94f4484d05adb3,10*
G04 Gerber Generator version 0.2*
G04 Scale: 100 percent, Rotated: No, Reflected: No *
G04 Dimensions in millimeters *
G04 leading zeros omitted , absolute positions ,4 integer and 5 decimal *
%FSLAX45Y45*%
%MOMM*%

%ADD10C,0.2540*%
%ADD11O,1.9999959999999999X2.999994*%
%ADD12C,1.7000*%
%ADD13C,1.5748*%
%ADD14R,1.5748X1.5748*%
%ADD15C,1.7780*%
%ADD16C,4.0000*%

%LPD*%
D10*
X990600Y7683500D02*
G01*
X1790700Y7683500D01*
X1790700Y7543800D01*
X2209800Y7543800D01*
X2209800Y7543800D02*
G01*
X2628900Y7543800D01*
X2628900Y7696200D01*
X3416300Y7696200D01*
X3429000Y7683500D01*
X990600Y7429500D02*
G01*
X1790700Y7429500D01*
X1790700Y7035800D01*
X2209800Y7035800D01*
X3429000Y7429500D02*
G01*
X2628900Y7429500D01*
X2628900Y7035800D01*
X2209800Y7035800D01*
X990600Y7683500D02*
G01*
X774700Y7683500D01*
X774700Y6362700D01*
X1841500Y6362700D01*
X1841500Y6158903D01*
X1844598Y6155804D01*
X3429000Y7175500D02*
G01*
X2692400Y7175500D01*
X2692400Y5969000D01*
X2095500Y5969000D01*
X2094484Y6155689D01*
D11*
G01*
X2872104Y6010782D03*
G01*
X1522095Y6010782D03*
D12*
G01*
X1844598Y6155791D03*
G01*
X2094611Y6155791D03*
G01*
X2294610Y6155791D03*
G01*
X2544622Y6155791D03*
D13*
G01*
X2209800Y7035800D03*
G01*
X2209800Y7289800D03*
D14*
G01*
X2209800Y7543800D03*
D15*
G01*
X3429000Y7683500D03*
G01*
X3429000Y7429500D03*
G01*
X3429000Y7175500D03*
G01*
X3429000Y6921500D03*
G01*
X990600Y7683500D03*
G01*
X990600Y7429500D03*
G01*
X990600Y7175500D03*
G01*
X990600Y6921500D03*
D16*
G01*
X965200Y6070600D03*
G01*
X3429000Y6070600D03*
G01*
X965200Y8534400D03*
G01*
X3429000Y8534400D03*
M02*
