M48
METRIC,LZ,000.000
;FILE_FORMAT=3:3
;TYPE=PLATED
;Layer: PTH_Through
;EasyEDA v6.5.22, 2023-02-03 23:32:18
;deee44f2b4474ee3b8db254c25de0345,4bb84c5f6c124816bf94f4484d05adb3,10
;Gerber Generator version 0.2
;Holesize 1 = 0.915 mm
T01C0.915
;Holesize 2 = 1.000 mm
T02C1.000
;Holesize 3 = 1.101 mm
T03C1.101
;Holesize 4 = 4.000 mm
T04C4.000
%
G05
G90
T01
X116332Y047244
X116332Y077724
X113792Y077724
X111252Y077724
X108712Y077724
X103632Y077724
X101092Y077724
X098552Y077724
X096012Y077724
X093472Y077724
X090932Y077724
X088392Y077724
X113792Y047244
X111252Y047244
X108712Y047244
X106172Y047244
X103632Y047244
X101092Y047244
X098552Y047244
X096012Y047244
X093472Y047244
X090932Y047244
X088392Y047244
X085852Y077724
X083312Y077724
X085852Y047244
X083312Y047244
X080772Y077724
X080772Y047244
X106172Y077724
T02
X078709Y084492
X076209Y084492
X074209Y084492
X071709Y084492
X111221Y084492
X108721Y084492
X106721Y084492
X104221Y084492
X094965Y084492
X092465Y084492
X090465Y084492
X087965Y084492
T03
X068434Y086442G85X068434Y085442
X081934Y086442G85X081934Y085442
X100946Y086442G85X100946Y085442
X114446Y086442G85X114446Y085442
X084690Y086442G85X084690Y085442
X098190Y086442G85X098190Y085442
T04
X010160Y084836
X123825Y084836
X123825Y041148
X010160Y041148
M30
