G04 Layer: TopSilkscreenLayer*
G04 EasyEDA v6.5.22, 2023-02-03 23:32:18*
G04 deee44f2b4474ee3b8db254c25de0345,4bb84c5f6c124816bf94f4484d05adb3,10*
G04 Gerber Generator version 0.2*
G04 Scale: 100 percent, Rotated: No, Reflected: No *
G04 Dimensions in millimeters *
G04 leading zeros omitted , absolute positions ,4 integer and 5 decimal *
%FSLAX45Y45*%
%MOMM*%

%ADD10C,0.2032*%
%ADD11C,0.1524*%
%ADD12C,0.2540*%

%LPD*%
G36*
X1645615Y8753602D02*
G01*
X1638960Y8753398D01*
X1625752Y8752281D01*
X1619300Y8751417D01*
X1612900Y8750300D01*
X1607820Y8749131D01*
X1596593Y8745728D01*
X1584350Y8741054D01*
X1571752Y8735415D01*
X1559306Y8729116D01*
X1547723Y8722512D01*
X1537512Y8715806D01*
X1533144Y8712555D01*
X1529334Y8709406D01*
X1526184Y8706408D01*
X1514602Y8694318D01*
X1536090Y8674100D01*
X1559814Y8691168D01*
X1569923Y8697417D01*
X1575104Y8700312D01*
X1585671Y8705392D01*
X1596542Y8709710D01*
X1607566Y8713266D01*
X1618792Y8716010D01*
X1630172Y8717940D01*
X1641602Y8719159D01*
X1653082Y8719515D01*
X1664563Y8719159D01*
X1675993Y8717940D01*
X1687372Y8716010D01*
X1698548Y8713266D01*
X1709623Y8709710D01*
X1720443Y8705392D01*
X1731060Y8700312D01*
X1741322Y8694420D01*
X1751279Y8687714D01*
X1770075Y8674100D01*
X1791563Y8694318D01*
X1776120Y8710218D01*
X1772005Y8713927D01*
X1762912Y8720836D01*
X1758035Y8724087D01*
X1747570Y8730132D01*
X1736343Y8735568D01*
X1730502Y8738057D01*
X1718310Y8742476D01*
X1705660Y8746236D01*
X1692605Y8749233D01*
X1679295Y8751468D01*
X1672589Y8752332D01*
X1659077Y8753398D01*
G37*
G36*
X1648612Y8686850D02*
G01*
X1642211Y8686647D01*
X1629664Y8685428D01*
X1623618Y8684412D01*
X1617776Y8683142D01*
X1612138Y8681567D01*
X1606804Y8679688D01*
X1601724Y8677503D01*
X1585163Y8669375D01*
X1578914Y8666022D01*
X1573987Y8663025D01*
X1570228Y8660333D01*
X1567586Y8657844D01*
X1566062Y8655456D01*
X1565503Y8653119D01*
X1565859Y8650732D01*
X1567027Y8648192D01*
X1569008Y8645448D01*
X1581810Y8631631D01*
X1606905Y8644331D01*
X1613204Y8647328D01*
X1619300Y8649919D01*
X1625244Y8652103D01*
X1631035Y8653830D01*
X1636674Y8655202D01*
X1642262Y8656218D01*
X1647698Y8656777D01*
X1653082Y8656980D01*
X1658467Y8656777D01*
X1663903Y8656218D01*
X1669491Y8655202D01*
X1675130Y8653830D01*
X1680921Y8652103D01*
X1686864Y8649919D01*
X1692960Y8647328D01*
X1699260Y8644331D01*
X1724355Y8631631D01*
X1734464Y8642451D01*
X1736801Y8645347D01*
X1738325Y8648192D01*
X1739138Y8651036D01*
X1739239Y8653881D01*
X1738680Y8656624D01*
X1737512Y8659317D01*
X1735683Y8661908D01*
X1733346Y8664498D01*
X1730451Y8666937D01*
X1727098Y8669324D01*
X1723288Y8671560D01*
X1714398Y8675725D01*
X1704136Y8679332D01*
X1692808Y8682329D01*
X1680616Y8684615D01*
X1667967Y8686190D01*
X1655064Y8686850D01*
G37*
G36*
X1652473Y8628634D02*
G01*
X1647189Y8628075D01*
X1641856Y8626856D01*
X1636471Y8625027D01*
X1631086Y8622538D01*
X1625955Y8619642D01*
X1621332Y8616594D01*
X1617116Y8613241D01*
X1613357Y8609685D01*
X1609953Y8605824D01*
X1607007Y8601659D01*
X1604416Y8597138D01*
X1602181Y8592312D01*
X1600301Y8587079D01*
X1598777Y8581390D01*
X1597507Y8575294D01*
X1596542Y8568740D01*
X1593799Y8545372D01*
X1510182Y8545322D01*
X1501800Y8544864D01*
X1494434Y8543899D01*
X1487881Y8542324D01*
X1482090Y8539937D01*
X1476857Y8536584D01*
X1474419Y8534501D01*
X1472082Y8532164D01*
X1469796Y8529472D01*
X1465427Y8523071D01*
X1461109Y8515146D01*
X1456690Y8505596D01*
X1452118Y8494217D01*
X1447139Y8480907D01*
X1412952Y8381136D01*
X1461109Y8381136D01*
X1461770Y8384590D01*
X1466646Y8401710D01*
X1474978Y8428278D01*
X1498803Y8500719D01*
X1807362Y8500719D01*
X1833524Y8421014D01*
X1841093Y8396376D01*
X1845056Y8381136D01*
X1844497Y8380374D01*
X1842820Y8379714D01*
X1839925Y8379104D01*
X1830171Y8378037D01*
X1814525Y8377224D01*
X1792274Y8376564D01*
X1725472Y8375853D01*
X1614322Y8375751D01*
X1535277Y8376208D01*
X1507642Y8376716D01*
X1487170Y8377377D01*
X1473047Y8378291D01*
X1468170Y8378799D01*
X1464614Y8379409D01*
X1462328Y8380018D01*
X1461262Y8380730D01*
X1461109Y8381136D01*
X1412952Y8381136D01*
X1403096Y8352231D01*
X1403096Y8279282D01*
X1459026Y8279282D01*
X1459230Y8283956D01*
X1459992Y8288832D01*
X1461363Y8293811D01*
X1463294Y8298637D01*
X1465884Y8303006D01*
X1468983Y8306917D01*
X1472590Y8310422D01*
X1476552Y8313420D01*
X1480870Y8315909D01*
X1485493Y8317941D01*
X1490268Y8319414D01*
X1495247Y8320379D01*
X1500276Y8320735D01*
X1505305Y8320582D01*
X1510334Y8319820D01*
X1515211Y8318449D01*
X1519936Y8316468D01*
X1524406Y8313826D01*
X1528521Y8310575D01*
X1532585Y8306003D01*
X1535836Y8300466D01*
X1538122Y8294268D01*
X1539544Y8287613D01*
X1539802Y8283752D01*
X1765452Y8283752D01*
X1765807Y8288121D01*
X1766671Y8292338D01*
X1767890Y8296402D01*
X1769567Y8300212D01*
X1771599Y8303768D01*
X1774037Y8307070D01*
X1776780Y8310118D01*
X1779828Y8312861D01*
X1783130Y8315198D01*
X1786737Y8317230D01*
X1790598Y8318906D01*
X1794611Y8320125D01*
X1798878Y8320938D01*
X1803298Y8321294D01*
X1807819Y8321192D01*
X1812543Y8320582D01*
X1817268Y8319465D01*
X1822145Y8317788D01*
X1827022Y8315553D01*
X1832508Y8311845D01*
X1837283Y8306968D01*
X1841296Y8301177D01*
X1844395Y8294776D01*
X1846478Y8287969D01*
X1847494Y8281060D01*
X1847240Y8274354D01*
X1845665Y8268106D01*
X1843481Y8263178D01*
X1840839Y8258708D01*
X1837842Y8254695D01*
X1834438Y8251139D01*
X1830781Y8248040D01*
X1826869Y8245398D01*
X1822704Y8243214D01*
X1818436Y8241538D01*
X1814017Y8240318D01*
X1809546Y8239607D01*
X1805025Y8239353D01*
X1800555Y8239607D01*
X1796186Y8240369D01*
X1791868Y8241639D01*
X1787753Y8243366D01*
X1783842Y8245652D01*
X1780184Y8248497D01*
X1776831Y8251799D01*
X1773783Y8255660D01*
X1771192Y8260080D01*
X1768906Y8264956D01*
X1767281Y8269782D01*
X1766112Y8274507D01*
X1765554Y8279180D01*
X1765452Y8283752D01*
X1539802Y8283752D01*
X1540002Y8280755D01*
X1539494Y8273796D01*
X1537970Y8267090D01*
X1535379Y8260842D01*
X1532788Y8256371D01*
X1529842Y8252459D01*
X1526692Y8249107D01*
X1523288Y8246262D01*
X1519682Y8243925D01*
X1515872Y8242046D01*
X1511960Y8240674D01*
X1507998Y8239759D01*
X1503934Y8239302D01*
X1499819Y8239252D01*
X1495755Y8239607D01*
X1491742Y8240369D01*
X1487779Y8241487D01*
X1483918Y8243011D01*
X1480261Y8244840D01*
X1476705Y8247024D01*
X1473454Y8249564D01*
X1470406Y8252358D01*
X1467612Y8255457D01*
X1465173Y8258860D01*
X1463090Y8262467D01*
X1461414Y8266328D01*
X1460144Y8270443D01*
X1459331Y8274761D01*
X1459026Y8279282D01*
X1403096Y8279282D01*
X1403146Y8181695D01*
X1403350Y8161985D01*
X1403858Y8145729D01*
X1404670Y8132470D01*
X1406042Y8122005D01*
X1406906Y8117738D01*
X1407922Y8113979D01*
X1409141Y8110778D01*
X1410512Y8108086D01*
X1412087Y8105800D01*
X1413916Y8103971D01*
X1415897Y8102447D01*
X1418183Y8101279D01*
X1420672Y8100415D01*
X1423416Y8099755D01*
X1429766Y8099094D01*
X1446174Y8098942D01*
X1452727Y8099196D01*
X1458772Y8100009D01*
X1464259Y8101380D01*
X1469186Y8103311D01*
X1473555Y8105749D01*
X1477314Y8108696D01*
X1480566Y8112201D01*
X1483207Y8116214D01*
X1485239Y8120735D01*
X1486712Y8125815D01*
X1487627Y8131403D01*
X1487881Y8137499D01*
X1487881Y8152485D01*
X1818233Y8152485D01*
X1818233Y8137499D01*
X1818538Y8131403D01*
X1819452Y8125815D01*
X1820925Y8120735D01*
X1822957Y8116214D01*
X1825599Y8112201D01*
X1828800Y8108696D01*
X1832610Y8105749D01*
X1836978Y8103311D01*
X1841906Y8101380D01*
X1847342Y8100009D01*
X1853387Y8099196D01*
X1859991Y8098942D01*
X1876399Y8099094D01*
X1882749Y8099755D01*
X1885492Y8100415D01*
X1887982Y8101279D01*
X1890268Y8102447D01*
X1892249Y8103971D01*
X1894027Y8105800D01*
X1895652Y8108086D01*
X1897024Y8110778D01*
X1898243Y8113979D01*
X1899259Y8117738D01*
X1900885Y8126933D01*
X1901952Y8138718D01*
X1902612Y8153450D01*
X1902968Y8171383D01*
X1903069Y8352231D01*
X1870506Y8447684D01*
X1858975Y8480907D01*
X1854047Y8494217D01*
X1849475Y8505596D01*
X1845056Y8515146D01*
X1840738Y8523071D01*
X1836318Y8529472D01*
X1834083Y8532164D01*
X1829257Y8536584D01*
X1824075Y8539937D01*
X1818233Y8542324D01*
X1811731Y8543899D01*
X1804365Y8544864D01*
X1795932Y8545322D01*
X1712366Y8545372D01*
X1709623Y8568232D01*
X1708556Y8575192D01*
X1707032Y8581796D01*
X1705102Y8588044D01*
X1702765Y8593886D01*
X1700022Y8599322D01*
X1696974Y8604402D01*
X1693570Y8609025D01*
X1689912Y8613190D01*
X1685899Y8616950D01*
X1681683Y8620201D01*
X1677263Y8622944D01*
X1672589Y8625179D01*
X1667764Y8626856D01*
X1662785Y8628024D01*
X1657705Y8628634D01*
G37*
G36*
X4197604Y8528304D02*
G01*
X4197604Y8305800D01*
X4220210Y8305800D01*
X4220210Y8416036D01*
X4225950Y8421776D01*
X4231335Y8426754D01*
X4236567Y8430971D01*
X4241647Y8434476D01*
X4246778Y8437168D01*
X4252010Y8439099D01*
X4257395Y8440267D01*
X4263136Y8440674D01*
X4268165Y8440420D01*
X4272686Y8439607D01*
X4276699Y8438235D01*
X4280255Y8436305D01*
X4283354Y8433765D01*
X4286046Y8430666D01*
X4288231Y8426958D01*
X4290009Y8422589D01*
X4291380Y8417610D01*
X4292346Y8412022D01*
X4292904Y8405723D01*
X4293108Y8398764D01*
X4293108Y8305800D01*
X4315968Y8305800D01*
X4315968Y8401558D01*
X4315815Y8408568D01*
X4315307Y8415172D01*
X4314444Y8421319D01*
X4313224Y8427059D01*
X4311650Y8432342D01*
X4309719Y8437168D01*
X4307433Y8441537D01*
X4304792Y8445500D01*
X4301794Y8449005D01*
X4298391Y8452002D01*
X4294632Y8454593D01*
X4290466Y8456726D01*
X4285945Y8458352D01*
X4281017Y8459520D01*
X4275683Y8460232D01*
X4269994Y8460486D01*
X4262424Y8459978D01*
X4255363Y8458454D01*
X4248658Y8456066D01*
X4242358Y8452916D01*
X4236313Y8449106D01*
X4230522Y8444738D01*
X4224934Y8439962D01*
X4219448Y8434832D01*
X4220210Y8466328D01*
X4220210Y8528304D01*
G37*
G36*
X5290820Y8528304D02*
G01*
X5290820Y8305800D01*
X5313426Y8305800D01*
X5313426Y8416036D01*
X5319166Y8421776D01*
X5324551Y8426754D01*
X5329783Y8430971D01*
X5334914Y8434476D01*
X5340045Y8437168D01*
X5345328Y8439099D01*
X5350814Y8440267D01*
X5356606Y8440674D01*
X5361584Y8440420D01*
X5366054Y8439607D01*
X5370017Y8438235D01*
X5373573Y8436305D01*
X5376621Y8433765D01*
X5379262Y8430666D01*
X5381498Y8426958D01*
X5383225Y8422589D01*
X5384596Y8417610D01*
X5385562Y8412022D01*
X5386120Y8405723D01*
X5386324Y8398764D01*
X5386324Y8305800D01*
X5409438Y8305800D01*
X5409438Y8401558D01*
X5409285Y8408568D01*
X5408726Y8415172D01*
X5407863Y8421319D01*
X5406644Y8427059D01*
X5405069Y8432342D01*
X5403138Y8437168D01*
X5400802Y8441537D01*
X5398160Y8445500D01*
X5395112Y8449005D01*
X5391658Y8452002D01*
X5387898Y8454593D01*
X5383733Y8456726D01*
X5379161Y8458352D01*
X5374233Y8459520D01*
X5368899Y8460232D01*
X5363210Y8460486D01*
X5355742Y8459978D01*
X5348681Y8458454D01*
X5341975Y8456066D01*
X5335625Y8452916D01*
X5329580Y8449106D01*
X5323789Y8444738D01*
X5318150Y8439962D01*
X5312664Y8434832D01*
X5313426Y8466328D01*
X5313426Y8528304D01*
G37*
G36*
X6267704Y8528304D02*
G01*
X6267704Y8468868D01*
X6268720Y8442706D01*
X6263640Y8446668D01*
X6258661Y8450173D01*
X6253734Y8453221D01*
X6248654Y8455812D01*
X6243421Y8457793D01*
X6237884Y8459266D01*
X6231940Y8460181D01*
X6225540Y8460486D01*
X6220358Y8460232D01*
X6215227Y8459571D01*
X6210249Y8458454D01*
X6205321Y8456879D01*
X6200597Y8454948D01*
X6195974Y8452561D01*
X6191554Y8449767D01*
X6187338Y8446566D01*
X6183376Y8443010D01*
X6179616Y8439048D01*
X6176111Y8434730D01*
X6172911Y8430107D01*
X6169964Y8425078D01*
X6167374Y8419744D01*
X6165138Y8414105D01*
X6163259Y8408111D01*
X6161735Y8401812D01*
X6160668Y8395258D01*
X6160008Y8388400D01*
X6159754Y8381238D01*
X6183630Y8381238D01*
X6183884Y8387740D01*
X6184544Y8393938D01*
X6185611Y8399881D01*
X6187135Y8405520D01*
X6189014Y8410854D01*
X6191250Y8415782D01*
X6193840Y8420404D01*
X6196736Y8424570D01*
X6199936Y8428329D01*
X6203442Y8431682D01*
X6207201Y8434578D01*
X6211163Y8437016D01*
X6215380Y8438896D01*
X6219799Y8440318D01*
X6224371Y8441131D01*
X6229096Y8441436D01*
X6233972Y8441182D01*
X6238748Y8440470D01*
X6243523Y8439302D01*
X6248196Y8437524D01*
X6252921Y8435238D01*
X6257747Y8432342D01*
X6262624Y8428837D01*
X6267704Y8424672D01*
X6267704Y8342884D01*
X6262674Y8337905D01*
X6257645Y8333536D01*
X6252667Y8329879D01*
X6247638Y8326881D01*
X6242558Y8324545D01*
X6237427Y8322868D01*
X6232194Y8321903D01*
X6226810Y8321548D01*
X6221780Y8321802D01*
X6217005Y8322614D01*
X6212535Y8323884D01*
X6208369Y8325662D01*
X6204508Y8327898D01*
X6201003Y8330641D01*
X6197752Y8333841D01*
X6194856Y8337499D01*
X6192266Y8341563D01*
X6189980Y8346033D01*
X6188049Y8350961D01*
X6186474Y8356244D01*
X6185255Y8361934D01*
X6184341Y8368030D01*
X6183833Y8374481D01*
X6183630Y8381238D01*
X6159754Y8381238D01*
X6159957Y8373821D01*
X6160465Y8366759D01*
X6161379Y8360003D01*
X6162598Y8353602D01*
X6164173Y8347557D01*
X6166053Y8341868D01*
X6168237Y8336534D01*
X6170777Y8331606D01*
X6173571Y8326983D01*
X6176670Y8322767D01*
X6180074Y8318957D01*
X6183731Y8315502D01*
X6187643Y8312403D01*
X6191859Y8309762D01*
X6196279Y8307476D01*
X6201003Y8305596D01*
X6205880Y8304123D01*
X6211062Y8303107D01*
X6216396Y8302447D01*
X6221984Y8302244D01*
X6228842Y8302701D01*
X6235446Y8303920D01*
X6241796Y8305952D01*
X6247841Y8308594D01*
X6253581Y8311794D01*
X6258966Y8315553D01*
X6264046Y8319668D01*
X6268720Y8324088D01*
X6269482Y8324088D01*
X6271514Y8305800D01*
X6290310Y8305800D01*
X6290310Y8528304D01*
G37*
G36*
X5005324Y8527034D02*
G01*
X4918964Y8256016D01*
X4935728Y8256016D01*
X5022088Y8527034D01*
G37*
G36*
X5114798Y8527034D02*
G01*
X5028438Y8256016D01*
X5045202Y8256016D01*
X5131562Y8527034D01*
G37*
G36*
X3082036Y8520430D02*
G01*
X3075482Y8519312D01*
X3070402Y8516213D01*
X3067202Y8511336D01*
X3066034Y8504936D01*
X3067202Y8498382D01*
X3070402Y8493455D01*
X3075482Y8490305D01*
X3082036Y8489188D01*
X3088182Y8490305D01*
X3093110Y8493455D01*
X3096361Y8498382D01*
X3097530Y8504936D01*
X3096361Y8511336D01*
X3093110Y8516213D01*
X3088182Y8519312D01*
G37*
G36*
X2214372Y8514080D02*
G01*
X2208885Y8513927D01*
X2203500Y8513470D01*
X2198217Y8512708D01*
X2193086Y8511641D01*
X2188108Y8510320D01*
X2178507Y8506764D01*
X2169515Y8502091D01*
X2161235Y8496300D01*
X2157323Y8493048D01*
X2153615Y8489492D01*
X2150110Y8485682D01*
X2146808Y8481669D01*
X2140762Y8472830D01*
X2135632Y8463076D01*
X2133396Y8457793D01*
X2131415Y8452358D01*
X2129688Y8446668D01*
X2126945Y8434679D01*
X2125980Y8428329D01*
X2125268Y8421827D01*
X2124862Y8415070D01*
X2124710Y8408162D01*
X2124862Y8401151D01*
X2125268Y8394344D01*
X2125980Y8387791D01*
X2126945Y8381441D01*
X2128164Y8375294D01*
X2129637Y8369350D01*
X2131314Y8363661D01*
X2133295Y8358174D01*
X2135479Y8352942D01*
X2137918Y8347913D01*
X2140559Y8343188D01*
X2143404Y8338667D01*
X2146452Y8334349D01*
X2149703Y8330336D01*
X2153158Y8326577D01*
X2156764Y8323072D01*
X2160625Y8319820D01*
X2164588Y8316823D01*
X2168753Y8314080D01*
X2173071Y8311642D01*
X2177542Y8309457D01*
X2182164Y8307578D01*
X2186940Y8305952D01*
X2191816Y8304631D01*
X2196846Y8303615D01*
X2201976Y8302853D01*
X2207209Y8302396D01*
X2212594Y8302244D01*
X2219096Y8302447D01*
X2225395Y8303107D01*
X2231339Y8304225D01*
X2237079Y8305698D01*
X2242566Y8307578D01*
X2247849Y8309914D01*
X2252878Y8312556D01*
X2257704Y8315655D01*
X2262327Y8319058D01*
X2266746Y8322868D01*
X2271014Y8326983D01*
X2275078Y8331453D01*
X2262124Y8345931D01*
X2256993Y8340648D01*
X2251710Y8335975D01*
X2246172Y8331962D01*
X2240381Y8328609D01*
X2234285Y8326018D01*
X2227884Y8324088D01*
X2221077Y8322970D01*
X2213864Y8322564D01*
X2207920Y8322818D01*
X2202230Y8323529D01*
X2196744Y8324748D01*
X2191562Y8326424D01*
X2186584Y8328609D01*
X2181910Y8331200D01*
X2177491Y8334197D01*
X2173325Y8337651D01*
X2169515Y8341512D01*
X2165959Y8345779D01*
X2162708Y8350453D01*
X2159762Y8355533D01*
X2157171Y8360968D01*
X2154834Y8366759D01*
X2152904Y8372906D01*
X2151278Y8379409D01*
X2150008Y8386267D01*
X2149094Y8393430D01*
X2148535Y8400897D01*
X2148332Y8408670D01*
X2148535Y8416391D01*
X2149094Y8423808D01*
X2150059Y8430920D01*
X2151380Y8437676D01*
X2153107Y8444128D01*
X2155139Y8450173D01*
X2157476Y8455914D01*
X2160168Y8461248D01*
X2163216Y8466226D01*
X2166518Y8470798D01*
X2170125Y8475014D01*
X2174087Y8478774D01*
X2178253Y8482177D01*
X2182723Y8485124D01*
X2187448Y8487664D01*
X2192426Y8489746D01*
X2197608Y8491372D01*
X2203094Y8492540D01*
X2208733Y8493252D01*
X2214626Y8493506D01*
X2221128Y8493150D01*
X2227275Y8492083D01*
X2233117Y8490407D01*
X2238603Y8488121D01*
X2243734Y8485276D01*
X2248509Y8481923D01*
X2252980Y8478164D01*
X2257044Y8473948D01*
X2269998Y8489188D01*
X2263546Y8495436D01*
X2259888Y8498433D01*
X2255926Y8501278D01*
X2251659Y8503970D01*
X2247138Y8506409D01*
X2242312Y8508593D01*
X2237282Y8510473D01*
X2231898Y8511997D01*
X2226310Y8513114D01*
X2220468Y8513826D01*
G37*
G36*
X2680970Y8510270D02*
G01*
X2639407Y8388603D01*
X2661158Y8388603D01*
X2679039Y8444687D01*
X2685948Y8467445D01*
X2692654Y8490966D01*
X2693924Y8490966D01*
X2704084Y8456117D01*
X2725674Y8388603D01*
X2639407Y8388603D01*
X2611120Y8305800D01*
X2634234Y8305800D01*
X2655316Y8370316D01*
X2731516Y8370316D01*
X2751836Y8305800D01*
X2776474Y8305800D01*
X2706370Y8510270D01*
G37*
G36*
X3276600Y8499348D02*
G01*
X3273806Y8456676D01*
X3250184Y8455406D01*
X3250184Y8437880D01*
X3273044Y8437880D01*
X3273044Y8351266D01*
X3273247Y8344153D01*
X3273907Y8337499D01*
X3275076Y8331301D01*
X3276803Y8325561D01*
X3279089Y8320379D01*
X3281984Y8315807D01*
X3285540Y8311794D01*
X3289808Y8308441D01*
X3294786Y8305800D01*
X3300577Y8303869D01*
X3307232Y8302650D01*
X3314700Y8302244D01*
X3321202Y8302701D01*
X3328009Y8303971D01*
X3334867Y8305800D01*
X3341370Y8307831D01*
X3337051Y8325103D01*
X3332937Y8323478D01*
X3328365Y8322106D01*
X3323691Y8321141D01*
X3319272Y8320786D01*
X3313074Y8321294D01*
X3307994Y8322818D01*
X3303879Y8325307D01*
X3300679Y8328710D01*
X3298393Y8332978D01*
X3296818Y8338058D01*
X3295904Y8343900D01*
X3295650Y8350503D01*
X3295650Y8437880D01*
X3337306Y8437880D01*
X3337306Y8456676D01*
X3295650Y8456676D01*
X3295650Y8499348D01*
G37*
G36*
X3698240Y8499348D02*
G01*
X3695446Y8456676D01*
X3671824Y8455406D01*
X3671824Y8437880D01*
X3694684Y8437880D01*
X3694684Y8351266D01*
X3694887Y8344153D01*
X3695547Y8337499D01*
X3696715Y8331301D01*
X3698443Y8325561D01*
X3700729Y8320379D01*
X3703624Y8315807D01*
X3707180Y8311794D01*
X3711448Y8308441D01*
X3716426Y8305800D01*
X3722217Y8303869D01*
X3728872Y8302650D01*
X3736340Y8302244D01*
X3742842Y8302701D01*
X3749700Y8303971D01*
X3756507Y8305800D01*
X3763010Y8307831D01*
X3758692Y8325103D01*
X3754577Y8323478D01*
X3750005Y8322106D01*
X3745331Y8321141D01*
X3740912Y8320786D01*
X3734714Y8321294D01*
X3729634Y8322818D01*
X3725519Y8325307D01*
X3722319Y8328710D01*
X3720033Y8332978D01*
X3718458Y8338058D01*
X3717544Y8343900D01*
X3717290Y8350503D01*
X3717290Y8437880D01*
X3758946Y8437880D01*
X3758946Y8456676D01*
X3717290Y8456676D01*
X3717290Y8499348D01*
G37*
G36*
X4373626Y8499348D02*
G01*
X4370832Y8456676D01*
X4346956Y8455406D01*
X4346956Y8437880D01*
X4370070Y8437880D01*
X4370070Y8351266D01*
X4370273Y8344153D01*
X4370933Y8337499D01*
X4372102Y8331301D01*
X4373829Y8325561D01*
X4376064Y8320379D01*
X4378960Y8315807D01*
X4382516Y8311794D01*
X4386732Y8308441D01*
X4391710Y8305800D01*
X4397451Y8303869D01*
X4404055Y8302650D01*
X4411472Y8302244D01*
X4418025Y8302701D01*
X4424934Y8303971D01*
X4431842Y8305800D01*
X4438396Y8307831D01*
X4433824Y8325103D01*
X4429810Y8323478D01*
X4425340Y8322106D01*
X4420717Y8321141D01*
X4416298Y8320786D01*
X4410100Y8321294D01*
X4405020Y8322818D01*
X4400905Y8325307D01*
X4397705Y8328710D01*
X4395419Y8332978D01*
X4393844Y8338058D01*
X4392930Y8343900D01*
X4392676Y8350503D01*
X4392676Y8437880D01*
X4434332Y8437880D01*
X4434332Y8456676D01*
X4392676Y8456676D01*
X4392676Y8499348D01*
G37*
G36*
X4470654Y8499348D02*
G01*
X4467860Y8456676D01*
X4443984Y8455406D01*
X4443984Y8437880D01*
X4466844Y8437880D01*
X4466844Y8351266D01*
X4467047Y8344153D01*
X4467758Y8337499D01*
X4468926Y8331301D01*
X4470654Y8325561D01*
X4472940Y8320379D01*
X4475886Y8315807D01*
X4479442Y8311794D01*
X4483709Y8308441D01*
X4488688Y8305800D01*
X4494479Y8303869D01*
X4501083Y8302650D01*
X4508500Y8302244D01*
X4515053Y8302701D01*
X4521962Y8303971D01*
X4528870Y8305800D01*
X4535424Y8307831D01*
X4530852Y8325103D01*
X4526737Y8323478D01*
X4522266Y8322106D01*
X4517694Y8321141D01*
X4513326Y8320786D01*
X4507026Y8321294D01*
X4501896Y8322818D01*
X4497730Y8325307D01*
X4494530Y8328710D01*
X4492193Y8332978D01*
X4490618Y8338058D01*
X4489704Y8343900D01*
X4489450Y8350503D01*
X4489450Y8437880D01*
X4531106Y8437880D01*
X4531106Y8456676D01*
X4489450Y8456676D01*
X4489450Y8499348D01*
G37*
G36*
X2367280Y8460486D02*
G01*
X2361234Y8460282D01*
X2355342Y8459622D01*
X2349652Y8458606D01*
X2344115Y8457285D01*
X2338781Y8455660D01*
X2333650Y8453831D01*
X2324150Y8449665D01*
X2315768Y8445144D01*
X2308606Y8440674D01*
X2317750Y8424926D01*
X2322271Y8427974D01*
X2327198Y8430971D01*
X2332482Y8433816D01*
X2338120Y8436356D01*
X2344115Y8438540D01*
X2350312Y8440216D01*
X2356815Y8441283D01*
X2363470Y8441690D01*
X2369616Y8441283D01*
X2374950Y8440115D01*
X2379573Y8438184D01*
X2383536Y8435644D01*
X2386787Y8432596D01*
X2389479Y8428990D01*
X2391664Y8424976D01*
X2393289Y8420608D01*
X2394458Y8415985D01*
X2395220Y8411108D01*
X2395626Y8406130D01*
X2395728Y8401050D01*
X2386279Y8399932D01*
X2368956Y8397189D01*
X2353767Y8393887D01*
X2346909Y8391956D01*
X2340610Y8389874D01*
X2334768Y8387638D01*
X2329434Y8385200D01*
X2324557Y8382558D01*
X2320239Y8379764D01*
X2316327Y8376716D01*
X2312924Y8373516D01*
X2310028Y8370062D01*
X2307539Y8366404D01*
X2305507Y8362543D01*
X2303983Y8358428D01*
X2302865Y8354059D01*
X2302205Y8349488D01*
X2302055Y8345931D01*
X2324100Y8345931D01*
X2324303Y8349742D01*
X2325014Y8353348D01*
X2326132Y8356803D01*
X2327808Y8360054D01*
X2329992Y8363153D01*
X2332685Y8366048D01*
X2335987Y8368741D01*
X2339898Y8371281D01*
X2344420Y8373668D01*
X2349601Y8375903D01*
X2355494Y8377936D01*
X2362047Y8379815D01*
X2369312Y8381542D01*
X2377338Y8383117D01*
X2386126Y8384540D01*
X2395728Y8385809D01*
X2395728Y8341614D01*
X2390038Y8336788D01*
X2384552Y8332520D01*
X2379167Y8328914D01*
X2373884Y8325916D01*
X2368600Y8323580D01*
X2363216Y8321903D01*
X2357729Y8320887D01*
X2352040Y8320531D01*
X2346452Y8320887D01*
X2341270Y8321954D01*
X2336495Y8323834D01*
X2332329Y8326475D01*
X2328926Y8329980D01*
X2326335Y8334349D01*
X2324658Y8339683D01*
X2324100Y8345931D01*
X2302055Y8345931D01*
X2302408Y8338058D01*
X2303526Y8332012D01*
X2305354Y8326475D01*
X2307844Y8321497D01*
X2310993Y8317026D01*
X2314651Y8313166D01*
X2318816Y8309864D01*
X2323490Y8307120D01*
X2328570Y8305038D01*
X2334056Y8303463D01*
X2339848Y8302548D01*
X2345944Y8302244D01*
X2353005Y8302701D01*
X2359863Y8303971D01*
X2366568Y8305952D01*
X2373071Y8308644D01*
X2379319Y8311896D01*
X2385364Y8315655D01*
X2391206Y8319820D01*
X2396744Y8324342D01*
X2397760Y8324342D01*
X2399538Y8305800D01*
X2418334Y8305800D01*
X2418334Y8399272D01*
X2418181Y8405926D01*
X2417622Y8412327D01*
X2416759Y8418423D01*
X2415489Y8424164D01*
X2413863Y8429548D01*
X2411831Y8434578D01*
X2409393Y8439251D01*
X2406497Y8443518D01*
X2403246Y8447328D01*
X2399487Y8450681D01*
X2395321Y8453628D01*
X2390698Y8456015D01*
X2385568Y8457946D01*
X2379980Y8459368D01*
X2373884Y8460181D01*
G37*
G36*
X2532380Y8460486D02*
G01*
X2526080Y8459927D01*
X2519984Y8458250D01*
X2514092Y8455558D01*
X2508453Y8451900D01*
X2503170Y8447328D01*
X2498293Y8441944D01*
X2493772Y8435797D01*
X2489708Y8428990D01*
X2488692Y8428990D01*
X2486406Y8456676D01*
X2468118Y8456676D01*
X2468118Y8305800D01*
X2490724Y8305800D01*
X2490724Y8404098D01*
X2494838Y8413242D01*
X2499360Y8420862D01*
X2504186Y8427059D01*
X2509215Y8431885D01*
X2514346Y8435543D01*
X2519527Y8438032D01*
X2524607Y8439454D01*
X2529586Y8439912D01*
X2533548Y8439759D01*
X2537002Y8439302D01*
X2540254Y8438540D01*
X2543810Y8437372D01*
X2548128Y8457184D01*
X2544521Y8458758D01*
X2540812Y8459774D01*
X2536850Y8460333D01*
G37*
G36*
X2853944Y8460486D02*
G01*
X2846070Y8460130D01*
X2838754Y8459012D01*
X2832100Y8457234D01*
X2826054Y8454796D01*
X2820720Y8451799D01*
X2815996Y8448243D01*
X2811983Y8444230D01*
X2808681Y8439759D01*
X2806039Y8434882D01*
X2804160Y8429650D01*
X2803042Y8424113D01*
X2802636Y8418322D01*
X2803093Y8412226D01*
X2804464Y8406739D01*
X2806598Y8401812D01*
X2809443Y8397392D01*
X2812897Y8393480D01*
X2816910Y8389924D01*
X2821330Y8386775D01*
X2826156Y8383930D01*
X2831236Y8381390D01*
X2841904Y8376920D01*
X2853740Y8372449D01*
X2859989Y8369858D01*
X2865932Y8366963D01*
X2871266Y8363762D01*
X2875788Y8360054D01*
X2879293Y8355787D01*
X2881579Y8350859D01*
X2882392Y8345170D01*
X2881884Y8340090D01*
X2880461Y8335365D01*
X2878023Y8331098D01*
X2874568Y8327339D01*
X2870200Y8324291D01*
X2864815Y8322005D01*
X2858465Y8320531D01*
X2851150Y8320024D01*
X2844241Y8320379D01*
X2837840Y8321395D01*
X2831795Y8323021D01*
X2826156Y8325154D01*
X2820720Y8327847D01*
X2815590Y8330946D01*
X2810560Y8334451D01*
X2805684Y8338312D01*
X2794254Y8322818D01*
X2799842Y8318601D01*
X2805988Y8314690D01*
X2812592Y8311184D01*
X2819552Y8308136D01*
X2826867Y8305647D01*
X2834487Y8303818D01*
X2842361Y8302650D01*
X2850388Y8302244D01*
X2858770Y8302650D01*
X2866440Y8303818D01*
X2873502Y8305749D01*
X2879801Y8308340D01*
X2885440Y8311540D01*
X2890367Y8315248D01*
X2894533Y8319516D01*
X2897987Y8324189D01*
X2900730Y8329269D01*
X2902661Y8334654D01*
X2903829Y8340293D01*
X2904236Y8346186D01*
X2903728Y8352993D01*
X2902305Y8359089D01*
X2900019Y8364423D01*
X2897022Y8369096D01*
X2893364Y8373262D01*
X2889148Y8376920D01*
X2884474Y8380171D01*
X2879445Y8383016D01*
X2868625Y8387994D01*
X2845054Y8397087D01*
X2839466Y8399678D01*
X2834487Y8402574D01*
X2830372Y8405926D01*
X2827223Y8409787D01*
X2825191Y8414308D01*
X2824480Y8419592D01*
X2824937Y8424062D01*
X2826258Y8428329D01*
X2828493Y8432190D01*
X2831693Y8435594D01*
X2835808Y8438438D01*
X2840888Y8440572D01*
X2846933Y8441994D01*
X2853944Y8442452D01*
X2858973Y8442198D01*
X2863697Y8441436D01*
X2868218Y8440216D01*
X2872536Y8438591D01*
X2876702Y8436610D01*
X2880715Y8434324D01*
X2888488Y8428990D01*
X2899664Y8443722D01*
X2895142Y8447125D01*
X2890215Y8450326D01*
X2884932Y8453170D01*
X2879293Y8455609D01*
X2873298Y8457641D01*
X2867101Y8459165D01*
X2860598Y8460130D01*
G37*
G36*
X2983230Y8460486D02*
G01*
X2975356Y8460130D01*
X2968040Y8459012D01*
X2961386Y8457234D01*
X2955340Y8454796D01*
X2950006Y8451799D01*
X2945282Y8448243D01*
X2941269Y8444230D01*
X2937967Y8439759D01*
X2935325Y8434882D01*
X2933446Y8429650D01*
X2932328Y8424113D01*
X2931922Y8418322D01*
X2932379Y8412226D01*
X2933750Y8406739D01*
X2935884Y8401812D01*
X2938729Y8397392D01*
X2942183Y8393480D01*
X2946196Y8389924D01*
X2950616Y8386775D01*
X2955442Y8383930D01*
X2960522Y8381390D01*
X2971190Y8376920D01*
X2983026Y8372449D01*
X2989275Y8369858D01*
X2995218Y8366963D01*
X3000552Y8363762D01*
X3005074Y8360054D01*
X3008579Y8355787D01*
X3010865Y8350859D01*
X3011678Y8345170D01*
X3011220Y8340090D01*
X3009747Y8335365D01*
X3007360Y8331098D01*
X3003956Y8327339D01*
X2999587Y8324291D01*
X2994202Y8322005D01*
X2987852Y8320531D01*
X2980436Y8320024D01*
X2973578Y8320379D01*
X2967177Y8321395D01*
X2961182Y8323021D01*
X2955493Y8325154D01*
X2950159Y8327847D01*
X2944977Y8330946D01*
X2939948Y8334451D01*
X2934970Y8338312D01*
X2923540Y8322818D01*
X2929128Y8318601D01*
X2935274Y8314690D01*
X2941878Y8311184D01*
X2948838Y8308136D01*
X2956153Y8305647D01*
X2963773Y8303818D01*
X2971647Y8302650D01*
X2979674Y8302244D01*
X2988056Y8302650D01*
X2995726Y8303818D01*
X3002788Y8305749D01*
X3009087Y8308340D01*
X3014726Y8311540D01*
X3019653Y8315248D01*
X3023819Y8319516D01*
X3027273Y8324189D01*
X3030016Y8329269D01*
X3031947Y8334654D01*
X3033115Y8340293D01*
X3033522Y8346186D01*
X3033014Y8352993D01*
X3031591Y8359089D01*
X3029356Y8364423D01*
X3026308Y8369096D01*
X3022650Y8373262D01*
X3018485Y8376920D01*
X3013811Y8380171D01*
X3008782Y8383016D01*
X2998063Y8387994D01*
X2987040Y8392414D01*
X2974492Y8397087D01*
X2968904Y8399678D01*
X2963976Y8402574D01*
X2959862Y8405926D01*
X2956712Y8409787D01*
X2954731Y8414308D01*
X2954020Y8419592D01*
X2954477Y8424062D01*
X2955747Y8428329D01*
X2957982Y8432190D01*
X2961081Y8435594D01*
X2965145Y8438438D01*
X2970225Y8440572D01*
X2976219Y8441994D01*
X2983230Y8442452D01*
X2988259Y8442198D01*
X2992983Y8441436D01*
X2997504Y8440216D01*
X3001873Y8438591D01*
X3006039Y8436610D01*
X3010103Y8434324D01*
X3018028Y8428990D01*
X3029204Y8443722D01*
X3024682Y8447125D01*
X3019755Y8450326D01*
X3014472Y8453170D01*
X3008782Y8455609D01*
X3002788Y8457641D01*
X2996539Y8459165D01*
X2989986Y8460130D01*
G37*
G36*
X3187700Y8460486D02*
G01*
X3179876Y8460130D01*
X3172612Y8459012D01*
X3165957Y8457234D01*
X3159963Y8454796D01*
X3154578Y8451799D01*
X3149854Y8448243D01*
X3145790Y8444230D01*
X3142488Y8439759D01*
X3139846Y8434882D01*
X3137916Y8429650D01*
X3136798Y8424113D01*
X3136392Y8418322D01*
X3136849Y8412226D01*
X3138220Y8406739D01*
X3140354Y8401812D01*
X3143199Y8397392D01*
X3146653Y8393480D01*
X3150666Y8389924D01*
X3155086Y8386775D01*
X3159912Y8383930D01*
X3164992Y8381390D01*
X3175660Y8376920D01*
X3187496Y8372449D01*
X3193796Y8369858D01*
X3199739Y8366963D01*
X3205124Y8363762D01*
X3209696Y8360054D01*
X3213303Y8355787D01*
X3215589Y8350859D01*
X3216402Y8345170D01*
X3215894Y8340090D01*
X3214420Y8335365D01*
X3211982Y8331098D01*
X3208578Y8327339D01*
X3204159Y8324291D01*
X3198723Y8322005D01*
X3192322Y8320531D01*
X3184906Y8320024D01*
X3178098Y8320379D01*
X3171748Y8321395D01*
X3165754Y8323021D01*
X3160064Y8325154D01*
X3154680Y8327847D01*
X3149447Y8330946D01*
X3144418Y8334451D01*
X3139440Y8338312D01*
X3128010Y8322818D01*
X3133598Y8318601D01*
X3139744Y8314690D01*
X3146348Y8311184D01*
X3153308Y8308136D01*
X3160623Y8305647D01*
X3168243Y8303818D01*
X3176117Y8302650D01*
X3184144Y8302244D01*
X3192576Y8302650D01*
X3200298Y8303818D01*
X3207359Y8305749D01*
X3213658Y8308340D01*
X3219297Y8311540D01*
X3224225Y8315248D01*
X3228390Y8319516D01*
X3231845Y8324189D01*
X3234486Y8329269D01*
X3236417Y8334654D01*
X3237585Y8340293D01*
X3237992Y8346186D01*
X3237484Y8352993D01*
X3236061Y8359089D01*
X3233826Y8364423D01*
X3230829Y8369096D01*
X3227222Y8373262D01*
X3223056Y8376920D01*
X3218383Y8380171D01*
X3213404Y8383016D01*
X3202635Y8387994D01*
X3179064Y8397087D01*
X3173476Y8399678D01*
X3168497Y8402574D01*
X3164382Y8405926D01*
X3161233Y8409787D01*
X3159201Y8414308D01*
X3158490Y8419592D01*
X3158947Y8424062D01*
X3160217Y8428329D01*
X3162452Y8432190D01*
X3165551Y8435594D01*
X3169615Y8438438D01*
X3174695Y8440572D01*
X3180689Y8441994D01*
X3187700Y8442452D01*
X3192729Y8442198D01*
X3197453Y8441436D01*
X3201974Y8440216D01*
X3206343Y8438591D01*
X3210509Y8436610D01*
X3214573Y8434324D01*
X3222498Y8428990D01*
X3233674Y8443722D01*
X3229152Y8447125D01*
X3224225Y8450326D01*
X3218942Y8453170D01*
X3213252Y8455609D01*
X3207258Y8457641D01*
X3201009Y8459165D01*
X3194456Y8460130D01*
G37*
G36*
X3420618Y8460486D02*
G01*
X3414572Y8460282D01*
X3408679Y8459622D01*
X3402990Y8458606D01*
X3397453Y8457285D01*
X3392119Y8455660D01*
X3386988Y8453831D01*
X3377488Y8449665D01*
X3369106Y8445144D01*
X3361944Y8440674D01*
X3371087Y8424926D01*
X3375609Y8427974D01*
X3380536Y8430971D01*
X3385820Y8433816D01*
X3391458Y8436356D01*
X3397453Y8438540D01*
X3403650Y8440216D01*
X3410153Y8441283D01*
X3416808Y8441690D01*
X3422954Y8441283D01*
X3428288Y8440115D01*
X3432911Y8438184D01*
X3436874Y8435644D01*
X3440125Y8432596D01*
X3442868Y8428990D01*
X3445001Y8424976D01*
X3446627Y8420608D01*
X3447796Y8415985D01*
X3448558Y8411108D01*
X3448964Y8406130D01*
X3449065Y8401050D01*
X3439617Y8399932D01*
X3422294Y8397189D01*
X3407105Y8393887D01*
X3400247Y8391956D01*
X3393948Y8389874D01*
X3388106Y8387638D01*
X3382772Y8385200D01*
X3377895Y8382558D01*
X3373577Y8379764D01*
X3369665Y8376716D01*
X3366262Y8373516D01*
X3363366Y8370062D01*
X3360877Y8366404D01*
X3358845Y8362543D01*
X3357321Y8358428D01*
X3356203Y8354059D01*
X3355543Y8349488D01*
X3355393Y8345931D01*
X3377437Y8345931D01*
X3377641Y8349742D01*
X3378352Y8353348D01*
X3379470Y8356803D01*
X3381146Y8360054D01*
X3383330Y8363153D01*
X3386023Y8366048D01*
X3389325Y8368741D01*
X3393236Y8371281D01*
X3397758Y8373668D01*
X3402939Y8375903D01*
X3408832Y8377936D01*
X3415385Y8379815D01*
X3422650Y8381542D01*
X3430676Y8383117D01*
X3439464Y8384540D01*
X3449065Y8385809D01*
X3449065Y8341614D01*
X3443376Y8336788D01*
X3437890Y8332520D01*
X3432505Y8328914D01*
X3427222Y8325916D01*
X3421938Y8323580D01*
X3416554Y8321903D01*
X3411067Y8320887D01*
X3405378Y8320531D01*
X3399790Y8320887D01*
X3394557Y8321954D01*
X3389833Y8323834D01*
X3385718Y8326475D01*
X3382264Y8329980D01*
X3379673Y8334349D01*
X3377996Y8339683D01*
X3377437Y8345931D01*
X3355393Y8345931D01*
X3355746Y8338058D01*
X3356864Y8332012D01*
X3358692Y8326475D01*
X3361182Y8321497D01*
X3364331Y8317026D01*
X3367989Y8313166D01*
X3372154Y8309864D01*
X3376828Y8307120D01*
X3381908Y8305038D01*
X3387394Y8303463D01*
X3393186Y8302548D01*
X3399282Y8302244D01*
X3406343Y8302701D01*
X3413201Y8303971D01*
X3419906Y8305952D01*
X3426409Y8308644D01*
X3432657Y8311896D01*
X3438702Y8315655D01*
X3444544Y8319820D01*
X3450082Y8324342D01*
X3451098Y8324342D01*
X3452876Y8305800D01*
X3471672Y8305800D01*
X3471672Y8399272D01*
X3471519Y8405926D01*
X3470960Y8412327D01*
X3470097Y8418423D01*
X3468827Y8424164D01*
X3467201Y8429548D01*
X3465169Y8434578D01*
X3462731Y8439251D01*
X3459886Y8443518D01*
X3456584Y8447328D01*
X3452825Y8450681D01*
X3448659Y8453628D01*
X3444036Y8456015D01*
X3438906Y8457946D01*
X3433318Y8459368D01*
X3427222Y8460181D01*
G37*
G36*
X3593846Y8460486D02*
G01*
X3586276Y8459978D01*
X3579164Y8458454D01*
X3572408Y8456015D01*
X3566058Y8452866D01*
X3559911Y8449005D01*
X3554069Y8444636D01*
X3548379Y8439759D01*
X3542792Y8434578D01*
X3542029Y8434578D01*
X3539744Y8456676D01*
X3521456Y8456676D01*
X3521456Y8305800D01*
X3544062Y8305800D01*
X3544062Y8416036D01*
X3549700Y8421776D01*
X3555085Y8426754D01*
X3560318Y8430971D01*
X3565448Y8434476D01*
X3570579Y8437168D01*
X3575812Y8439099D01*
X3581247Y8440267D01*
X3586987Y8440674D01*
X3592017Y8440420D01*
X3596538Y8439607D01*
X3600551Y8438235D01*
X3604107Y8436305D01*
X3607206Y8433765D01*
X3609898Y8430666D01*
X3612083Y8426958D01*
X3613861Y8422589D01*
X3615232Y8417610D01*
X3616198Y8412022D01*
X3616756Y8405723D01*
X3616960Y8398764D01*
X3616960Y8305800D01*
X3639820Y8305800D01*
X3639820Y8401558D01*
X3639667Y8408568D01*
X3639159Y8415172D01*
X3638296Y8421319D01*
X3637076Y8427059D01*
X3635501Y8432342D01*
X3633571Y8437168D01*
X3631285Y8441537D01*
X3628644Y8445500D01*
X3625646Y8449005D01*
X3622243Y8452002D01*
X3618484Y8454593D01*
X3614318Y8456726D01*
X3609797Y8458352D01*
X3604869Y8459520D01*
X3599535Y8460232D01*
G37*
G36*
X4636008Y8460486D02*
G01*
X4629404Y8460028D01*
X4622850Y8458708D01*
X4616450Y8456676D01*
X4610201Y8454034D01*
X4604105Y8450834D01*
X4598263Y8447176D01*
X4592624Y8443264D01*
X4587240Y8439150D01*
X4586478Y8439150D01*
X4584192Y8456676D01*
X4565904Y8456676D01*
X4565904Y8337803D01*
X4588510Y8337803D01*
X4588510Y8419592D01*
X4594148Y8424621D01*
X4599686Y8428990D01*
X4605070Y8432749D01*
X4610354Y8435848D01*
X4615535Y8438286D01*
X4620666Y8440013D01*
X4625695Y8441080D01*
X4630674Y8441436D01*
X4636109Y8441182D01*
X4641138Y8440318D01*
X4645761Y8438997D01*
X4649978Y8437168D01*
X4653788Y8434882D01*
X4657242Y8432088D01*
X4660290Y8428888D01*
X4662982Y8425230D01*
X4665319Y8421217D01*
X4667300Y8416798D01*
X4668926Y8412022D01*
X4670298Y8406942D01*
X4671314Y8401507D01*
X4672025Y8395766D01*
X4672431Y8389772D01*
X4672584Y8383524D01*
X4672380Y8376513D01*
X4671720Y8369858D01*
X4670653Y8363559D01*
X4669180Y8357666D01*
X4667300Y8352129D01*
X4665116Y8347049D01*
X4662525Y8342375D01*
X4659680Y8338159D01*
X4656480Y8334349D01*
X4653026Y8331047D01*
X4649266Y8328202D01*
X4645253Y8325815D01*
X4641037Y8323986D01*
X4636566Y8322614D01*
X4631944Y8321802D01*
X4627118Y8321548D01*
X4623054Y8321751D01*
X4618685Y8322360D01*
X4614062Y8323478D01*
X4609236Y8325103D01*
X4604207Y8327288D01*
X4599076Y8330133D01*
X4593844Y8333587D01*
X4588510Y8337803D01*
X4565904Y8337803D01*
X4565904Y8241030D01*
X4588510Y8241030D01*
X4588510Y8293353D01*
X4588002Y8319770D01*
X4593336Y8315807D01*
X4598670Y8312302D01*
X4604004Y8309305D01*
X4609287Y8306816D01*
X4614621Y8304834D01*
X4619904Y8303412D01*
X4625187Y8302548D01*
X4630420Y8302244D01*
X4635601Y8302447D01*
X4640732Y8303107D01*
X4645710Y8304225D01*
X4650638Y8305749D01*
X4655362Y8307679D01*
X4659985Y8310067D01*
X4664405Y8312861D01*
X4668621Y8316010D01*
X4672584Y8319617D01*
X4676343Y8323580D01*
X4679848Y8327948D01*
X4683048Y8332673D01*
X4685995Y8337803D01*
X4688586Y8343341D01*
X4690821Y8349183D01*
X4692700Y8355380D01*
X4694224Y8361984D01*
X4695291Y8368893D01*
X4695952Y8376158D01*
X4696206Y8383778D01*
X4696053Y8390585D01*
X4695596Y8397138D01*
X4694783Y8403488D01*
X4693716Y8409482D01*
X4692345Y8415274D01*
X4690668Y8420709D01*
X4688636Y8425891D01*
X4686350Y8430768D01*
X4683760Y8435289D01*
X4680864Y8439454D01*
X4677664Y8443315D01*
X4674209Y8446820D01*
X4670450Y8449919D01*
X4666386Y8452662D01*
X4662017Y8454999D01*
X4657394Y8456930D01*
X4652467Y8458454D01*
X4647285Y8459571D01*
X4641799Y8460282D01*
G37*
G36*
X4779772Y8460486D02*
G01*
X4771948Y8460130D01*
X4764684Y8459012D01*
X4758029Y8457234D01*
X4752035Y8454796D01*
X4746650Y8451799D01*
X4741926Y8448243D01*
X4737862Y8444230D01*
X4734560Y8439759D01*
X4731918Y8434882D01*
X4729988Y8429650D01*
X4728870Y8424113D01*
X4728464Y8418322D01*
X4728921Y8412226D01*
X4730292Y8406739D01*
X4732426Y8401812D01*
X4735271Y8397392D01*
X4738725Y8393480D01*
X4742738Y8389924D01*
X4747158Y8386775D01*
X4751984Y8383930D01*
X4757064Y8381390D01*
X4767732Y8376920D01*
X4779568Y8372449D01*
X4785817Y8369858D01*
X4791760Y8366963D01*
X4797094Y8363762D01*
X4801616Y8360054D01*
X4805121Y8355787D01*
X4807407Y8350859D01*
X4808220Y8345170D01*
X4807762Y8340090D01*
X4806289Y8335365D01*
X4803902Y8331098D01*
X4800498Y8327339D01*
X4796129Y8324291D01*
X4790744Y8322005D01*
X4784394Y8320531D01*
X4776978Y8320024D01*
X4770120Y8320379D01*
X4763719Y8321395D01*
X4757724Y8323021D01*
X4752035Y8325154D01*
X4746701Y8327847D01*
X4741519Y8330946D01*
X4736490Y8334451D01*
X4731512Y8338312D01*
X4720082Y8322818D01*
X4725670Y8318601D01*
X4731816Y8314690D01*
X4738420Y8311184D01*
X4745380Y8308136D01*
X4752695Y8305647D01*
X4760315Y8303818D01*
X4768189Y8302650D01*
X4776216Y8302244D01*
X4784598Y8302650D01*
X4792268Y8303818D01*
X4799330Y8305749D01*
X4805629Y8308340D01*
X4811268Y8311540D01*
X4816195Y8315248D01*
X4820361Y8319516D01*
X4823815Y8324189D01*
X4826558Y8329269D01*
X4828489Y8334654D01*
X4829657Y8340293D01*
X4830064Y8346186D01*
X4829556Y8352993D01*
X4828133Y8359089D01*
X4825847Y8364423D01*
X4822850Y8369096D01*
X4819192Y8373262D01*
X4815027Y8376920D01*
X4810353Y8380171D01*
X4805324Y8383016D01*
X4794605Y8387994D01*
X4783582Y8392414D01*
X4771034Y8397087D01*
X4765446Y8399678D01*
X4760518Y8402574D01*
X4756404Y8405926D01*
X4753254Y8409787D01*
X4751273Y8414308D01*
X4750562Y8419592D01*
X4751019Y8424062D01*
X4752289Y8428329D01*
X4754524Y8432190D01*
X4757623Y8435594D01*
X4761687Y8438438D01*
X4766767Y8440572D01*
X4772761Y8441994D01*
X4779772Y8442452D01*
X4784801Y8442198D01*
X4789525Y8441436D01*
X4794046Y8440216D01*
X4798415Y8438591D01*
X4802581Y8436610D01*
X4806645Y8434324D01*
X4814570Y8428990D01*
X4825746Y8443722D01*
X4821224Y8447125D01*
X4816297Y8450326D01*
X4811014Y8453170D01*
X4805324Y8455609D01*
X4799330Y8457641D01*
X4793081Y8459165D01*
X4786528Y8460130D01*
G37*
G36*
X5203698Y8460486D02*
G01*
X5195824Y8460130D01*
X5188508Y8459012D01*
X5181854Y8457234D01*
X5175808Y8454796D01*
X5170474Y8451799D01*
X5165750Y8448243D01*
X5161737Y8444230D01*
X5158435Y8439759D01*
X5155793Y8434882D01*
X5153914Y8429650D01*
X5152796Y8424113D01*
X5152390Y8418322D01*
X5152847Y8412226D01*
X5154218Y8406739D01*
X5156352Y8401812D01*
X5159197Y8397392D01*
X5162651Y8393480D01*
X5166664Y8389924D01*
X5171084Y8386775D01*
X5175910Y8383930D01*
X5180990Y8381390D01*
X5191658Y8376920D01*
X5203494Y8372449D01*
X5209743Y8369858D01*
X5215686Y8366963D01*
X5221020Y8363762D01*
X5225542Y8360054D01*
X5229047Y8355787D01*
X5231333Y8350859D01*
X5232146Y8345170D01*
X5231638Y8340090D01*
X5230215Y8335365D01*
X5227777Y8331098D01*
X5224322Y8327339D01*
X5219954Y8324291D01*
X5214569Y8322005D01*
X5208219Y8320531D01*
X5200904Y8320024D01*
X5193995Y8320379D01*
X5187594Y8321395D01*
X5181549Y8323021D01*
X5175859Y8325154D01*
X5170474Y8327847D01*
X5165344Y8330946D01*
X5160314Y8334451D01*
X5155438Y8338312D01*
X5144008Y8322818D01*
X5149596Y8318601D01*
X5155742Y8314690D01*
X5162346Y8311184D01*
X5169306Y8308136D01*
X5176621Y8305647D01*
X5184241Y8303818D01*
X5192115Y8302650D01*
X5200142Y8302244D01*
X5208524Y8302650D01*
X5216194Y8303818D01*
X5223256Y8305749D01*
X5229555Y8308340D01*
X5235194Y8311540D01*
X5240121Y8315248D01*
X5244287Y8319516D01*
X5247741Y8324189D01*
X5250484Y8329269D01*
X5252415Y8334654D01*
X5253583Y8340293D01*
X5253990Y8346186D01*
X5253482Y8352993D01*
X5252059Y8359089D01*
X5249773Y8364423D01*
X5246776Y8369096D01*
X5243118Y8373262D01*
X5238902Y8376920D01*
X5234228Y8380171D01*
X5229199Y8383016D01*
X5218379Y8387994D01*
X5194808Y8397087D01*
X5189220Y8399678D01*
X5184292Y8402574D01*
X5180126Y8405926D01*
X5176977Y8409787D01*
X5174945Y8414308D01*
X5174234Y8419592D01*
X5174691Y8424062D01*
X5176012Y8428329D01*
X5178247Y8432190D01*
X5181447Y8435594D01*
X5185562Y8438438D01*
X5190642Y8440572D01*
X5196687Y8441994D01*
X5203698Y8442452D01*
X5208727Y8442198D01*
X5213451Y8441436D01*
X5217972Y8440216D01*
X5222290Y8438591D01*
X5226456Y8436610D01*
X5230469Y8434324D01*
X5238242Y8428990D01*
X5249418Y8443722D01*
X5244896Y8447125D01*
X5239969Y8450326D01*
X5234686Y8453170D01*
X5229047Y8455609D01*
X5223052Y8457641D01*
X5216855Y8459165D01*
X5210352Y8460130D01*
G37*
G36*
X5516626Y8460486D02*
G01*
X5511139Y8460282D01*
X5505754Y8459622D01*
X5500420Y8458555D01*
X5495290Y8457082D01*
X5490260Y8455152D01*
X5485384Y8452866D01*
X5480761Y8450173D01*
X5476290Y8447074D01*
X5472074Y8443569D01*
X5468162Y8439708D01*
X5464454Y8435492D01*
X5461101Y8430869D01*
X5458002Y8425891D01*
X5455310Y8420557D01*
X5452922Y8414816D01*
X5450941Y8408771D01*
X5449366Y8402421D01*
X5448249Y8395665D01*
X5447538Y8388603D01*
X5447284Y8381238D01*
X5470906Y8381238D01*
X5471109Y8387791D01*
X5471769Y8394090D01*
X5472785Y8400084D01*
X5474208Y8405774D01*
X5476036Y8411057D01*
X5478221Y8416036D01*
X5480710Y8420608D01*
X5483555Y8424773D01*
X5486755Y8428532D01*
X5490210Y8431834D01*
X5493969Y8434679D01*
X5498033Y8437067D01*
X5502300Y8438946D01*
X5506872Y8440318D01*
X5511647Y8441131D01*
X5516626Y8441436D01*
X5521604Y8441131D01*
X5526379Y8440318D01*
X5530951Y8438946D01*
X5535269Y8437067D01*
X5539333Y8434679D01*
X5543092Y8431834D01*
X5546598Y8428532D01*
X5549798Y8424773D01*
X5552694Y8420608D01*
X5555234Y8416036D01*
X5557418Y8411057D01*
X5559247Y8405774D01*
X5560669Y8400084D01*
X5561736Y8394090D01*
X5562396Y8387791D01*
X5562600Y8381238D01*
X5562396Y8374634D01*
X5561736Y8368284D01*
X5560669Y8362289D01*
X5559247Y8356650D01*
X5557418Y8351367D01*
X5555234Y8346440D01*
X5552694Y8341868D01*
X5549798Y8337753D01*
X5546598Y8334044D01*
X5543092Y8330742D01*
X5539333Y8327948D01*
X5535269Y8325612D01*
X5530951Y8323732D01*
X5526379Y8322411D01*
X5521604Y8321548D01*
X5516626Y8321294D01*
X5511647Y8321548D01*
X5506872Y8322411D01*
X5502300Y8323732D01*
X5498033Y8325612D01*
X5493969Y8327948D01*
X5490210Y8330742D01*
X5486755Y8334044D01*
X5483555Y8337753D01*
X5480710Y8341868D01*
X5478221Y8346440D01*
X5476036Y8351367D01*
X5474208Y8356650D01*
X5472785Y8362289D01*
X5471769Y8368284D01*
X5471109Y8374634D01*
X5470906Y8381238D01*
X5447284Y8381238D01*
X5447538Y8373872D01*
X5448249Y8366861D01*
X5449366Y8360156D01*
X5450941Y8353806D01*
X5452922Y8347760D01*
X5455310Y8342122D01*
X5458002Y8336788D01*
X5461101Y8331809D01*
X5464454Y8327186D01*
X5468162Y8322970D01*
X5472074Y8319109D01*
X5476290Y8315655D01*
X5480761Y8312556D01*
X5485384Y8309864D01*
X5490260Y8307527D01*
X5495290Y8305647D01*
X5500420Y8304174D01*
X5505754Y8303107D01*
X5511139Y8302447D01*
X5516626Y8302244D01*
X5522112Y8302447D01*
X5527548Y8303107D01*
X5532831Y8304174D01*
X5538012Y8305647D01*
X5543042Y8307527D01*
X5547918Y8309864D01*
X5552592Y8312556D01*
X5557012Y8315655D01*
X5561279Y8319109D01*
X5565241Y8322970D01*
X5568950Y8327186D01*
X5572353Y8331809D01*
X5575401Y8336788D01*
X5578144Y8342122D01*
X5580532Y8347760D01*
X5582513Y8353806D01*
X5584088Y8360156D01*
X5585256Y8366861D01*
X5585968Y8373872D01*
X5586222Y8381238D01*
X5585968Y8388603D01*
X5585256Y8395665D01*
X5584088Y8402421D01*
X5582513Y8408771D01*
X5580532Y8414816D01*
X5578144Y8420557D01*
X5575401Y8425891D01*
X5572353Y8430869D01*
X5568950Y8435492D01*
X5565241Y8439708D01*
X5561279Y8443569D01*
X5557012Y8447074D01*
X5552592Y8450173D01*
X5547918Y8452866D01*
X5543042Y8455152D01*
X5538012Y8457082D01*
X5532831Y8458555D01*
X5527548Y8459622D01*
X5522112Y8460282D01*
G37*
G36*
X5699506Y8460486D02*
G01*
X5691987Y8459978D01*
X5684926Y8458454D01*
X5678220Y8456015D01*
X5671820Y8452866D01*
X5665724Y8449005D01*
X5659882Y8444636D01*
X5654192Y8439759D01*
X5648706Y8434578D01*
X5647944Y8434578D01*
X5645658Y8456676D01*
X5627370Y8456676D01*
X5627370Y8305800D01*
X5649976Y8305800D01*
X5649976Y8416036D01*
X5655614Y8421776D01*
X5660948Y8426754D01*
X5666130Y8430971D01*
X5671261Y8434476D01*
X5676392Y8437168D01*
X5681624Y8439099D01*
X5687110Y8440267D01*
X5692902Y8440674D01*
X5697931Y8440420D01*
X5702452Y8439607D01*
X5706465Y8438235D01*
X5710021Y8436305D01*
X5713120Y8433765D01*
X5715812Y8430666D01*
X5717997Y8426958D01*
X5719775Y8422589D01*
X5721146Y8417610D01*
X5722112Y8412022D01*
X5722670Y8405723D01*
X5722874Y8398764D01*
X5722874Y8305800D01*
X5745734Y8305800D01*
X5745734Y8401558D01*
X5745581Y8408568D01*
X5745073Y8415172D01*
X5744210Y8421319D01*
X5742990Y8427059D01*
X5741416Y8432342D01*
X5739485Y8437168D01*
X5737199Y8441537D01*
X5734507Y8445500D01*
X5731510Y8449005D01*
X5728106Y8452002D01*
X5724296Y8454593D01*
X5720130Y8456726D01*
X5715558Y8458352D01*
X5710631Y8459520D01*
X5705246Y8460232D01*
G37*
G36*
X5928106Y8460486D02*
G01*
X5922416Y8460282D01*
X5916828Y8459622D01*
X5911342Y8458555D01*
X5906008Y8457082D01*
X5900826Y8455152D01*
X5895848Y8452866D01*
X5891022Y8450173D01*
X5886450Y8447074D01*
X5882081Y8443569D01*
X5878017Y8439708D01*
X5874207Y8435492D01*
X5870702Y8430869D01*
X5867552Y8425891D01*
X5864758Y8420557D01*
X5862320Y8414816D01*
X5860288Y8408771D01*
X5858662Y8402421D01*
X5857443Y8395665D01*
X5856732Y8388603D01*
X5856478Y8381238D01*
X5856681Y8373872D01*
X5857341Y8366861D01*
X5858459Y8360156D01*
X5859932Y8353806D01*
X5861812Y8347760D01*
X5864098Y8342122D01*
X5866688Y8336788D01*
X5869686Y8331809D01*
X5872988Y8327186D01*
X5876594Y8322970D01*
X5880506Y8319109D01*
X5884672Y8315655D01*
X5889142Y8312556D01*
X5893866Y8309864D01*
X5898794Y8307527D01*
X5903976Y8305647D01*
X5909360Y8304174D01*
X5914948Y8303107D01*
X5920689Y8302447D01*
X5926582Y8302244D01*
X5933389Y8302548D01*
X5939993Y8303564D01*
X5946394Y8305139D01*
X5952642Y8307324D01*
X5958636Y8310067D01*
X5964428Y8313369D01*
X5969914Y8317230D01*
X5975096Y8321548D01*
X5964936Y8336534D01*
X5961227Y8333486D01*
X5957265Y8330641D01*
X5952998Y8328050D01*
X5948476Y8325764D01*
X5943701Y8323884D01*
X5938774Y8322513D01*
X5933643Y8321598D01*
X5928360Y8321294D01*
X5923026Y8321548D01*
X5917946Y8322411D01*
X5913120Y8323732D01*
X5908548Y8325612D01*
X5904280Y8327948D01*
X5900267Y8330742D01*
X5896610Y8334044D01*
X5893257Y8337753D01*
X5890209Y8341868D01*
X5887567Y8346440D01*
X5885281Y8351367D01*
X5883351Y8356650D01*
X5881827Y8362289D01*
X5880760Y8368284D01*
X5880049Y8374634D01*
X5879846Y8381238D01*
X5880100Y8387791D01*
X5880811Y8394090D01*
X5881979Y8400084D01*
X5883554Y8405774D01*
X5885535Y8411057D01*
X5887923Y8416036D01*
X5890717Y8420608D01*
X5893816Y8424773D01*
X5897270Y8428532D01*
X5901029Y8431834D01*
X5905093Y8434679D01*
X5909411Y8437067D01*
X5914034Y8438946D01*
X5918860Y8440318D01*
X5923889Y8441131D01*
X5929122Y8441436D01*
X5938012Y8440420D01*
X5946089Y8437524D01*
X5953506Y8433206D01*
X5960364Y8427720D01*
X5972302Y8442452D01*
X5968136Y8446008D01*
X5963666Y8449360D01*
X5958840Y8452408D01*
X5953658Y8455101D01*
X5947968Y8457336D01*
X5941872Y8459012D01*
X5935268Y8460130D01*
G37*
G36*
X6060694Y8460486D02*
G01*
X6055156Y8460282D01*
X6049721Y8459622D01*
X6044438Y8458555D01*
X6039256Y8457082D01*
X6034227Y8455152D01*
X6029350Y8452866D01*
X6024727Y8450173D01*
X6020257Y8447074D01*
X6016040Y8443569D01*
X6012129Y8439708D01*
X6008471Y8435492D01*
X6005068Y8430869D01*
X6002020Y8425891D01*
X5999327Y8420557D01*
X5996990Y8414816D01*
X5995009Y8408771D01*
X5993434Y8402421D01*
X5992317Y8395665D01*
X5991606Y8388603D01*
X5991352Y8381238D01*
X6014720Y8381238D01*
X6014923Y8387791D01*
X6015583Y8394090D01*
X6016650Y8400084D01*
X6018072Y8405774D01*
X6019901Y8411057D01*
X6022086Y8416036D01*
X6024626Y8420608D01*
X6027521Y8424773D01*
X6030722Y8428532D01*
X6034227Y8431834D01*
X6037986Y8434679D01*
X6042050Y8437067D01*
X6046368Y8438946D01*
X6050940Y8440318D01*
X6055715Y8441131D01*
X6060694Y8441436D01*
X6065672Y8441131D01*
X6070396Y8440318D01*
X6074918Y8438946D01*
X6079236Y8437067D01*
X6083300Y8434679D01*
X6087059Y8431834D01*
X6090564Y8428532D01*
X6093764Y8424773D01*
X6096660Y8420608D01*
X6099200Y8416036D01*
X6101435Y8411057D01*
X6103264Y8405774D01*
X6104737Y8400084D01*
X6105804Y8394090D01*
X6106464Y8387791D01*
X6106668Y8381238D01*
X6106464Y8374634D01*
X6105804Y8368284D01*
X6104737Y8362289D01*
X6103264Y8356650D01*
X6101435Y8351367D01*
X6099200Y8346440D01*
X6096660Y8341868D01*
X6093764Y8337753D01*
X6090564Y8334044D01*
X6087059Y8330742D01*
X6083300Y8327948D01*
X6079236Y8325612D01*
X6074918Y8323732D01*
X6070396Y8322411D01*
X6065672Y8321548D01*
X6060694Y8321294D01*
X6055715Y8321548D01*
X6050940Y8322411D01*
X6046368Y8323732D01*
X6042050Y8325612D01*
X6037986Y8327948D01*
X6034227Y8330742D01*
X6030722Y8334044D01*
X6027521Y8337753D01*
X6024626Y8341868D01*
X6022086Y8346440D01*
X6019901Y8351367D01*
X6018072Y8356650D01*
X6016650Y8362289D01*
X6015583Y8368284D01*
X6014923Y8374634D01*
X6014720Y8381238D01*
X5991352Y8381238D01*
X5991606Y8373872D01*
X5992317Y8366861D01*
X5993434Y8360156D01*
X5995009Y8353806D01*
X5996990Y8347760D01*
X5999327Y8342122D01*
X6002020Y8336788D01*
X6005068Y8331809D01*
X6008471Y8327186D01*
X6012129Y8322970D01*
X6016040Y8319109D01*
X6020257Y8315655D01*
X6024727Y8312556D01*
X6029350Y8309864D01*
X6034227Y8307527D01*
X6039256Y8305647D01*
X6044438Y8304174D01*
X6049721Y8303107D01*
X6055156Y8302447D01*
X6060694Y8302244D01*
X6066180Y8302447D01*
X6071616Y8303107D01*
X6076899Y8304174D01*
X6082080Y8305647D01*
X6087110Y8307527D01*
X6091986Y8309864D01*
X6096660Y8312556D01*
X6101080Y8315655D01*
X6105347Y8319109D01*
X6109309Y8322970D01*
X6113018Y8327186D01*
X6116421Y8331809D01*
X6119469Y8336788D01*
X6122212Y8342122D01*
X6124600Y8347760D01*
X6126581Y8353806D01*
X6128156Y8360156D01*
X6129324Y8366861D01*
X6130036Y8373872D01*
X6130290Y8381238D01*
X6130036Y8388603D01*
X6129324Y8395665D01*
X6128156Y8402421D01*
X6126581Y8408771D01*
X6124600Y8414816D01*
X6122212Y8420557D01*
X6119469Y8425891D01*
X6116421Y8430869D01*
X6113018Y8435492D01*
X6109309Y8439708D01*
X6105347Y8443569D01*
X6101080Y8447074D01*
X6096660Y8450173D01*
X6091986Y8452866D01*
X6087110Y8455152D01*
X6082080Y8457082D01*
X6076899Y8458555D01*
X6071616Y8459622D01*
X6066180Y8460282D01*
G37*
G36*
X6398768Y8460486D02*
G01*
X6393586Y8460282D01*
X6388404Y8459571D01*
X6383375Y8458454D01*
X6378397Y8456930D01*
X6373571Y8454948D01*
X6368897Y8452561D01*
X6364376Y8449818D01*
X6360058Y8446617D01*
X6355943Y8443061D01*
X6352082Y8439150D01*
X6348476Y8434832D01*
X6345123Y8430209D01*
X6342126Y8425180D01*
X6339433Y8419846D01*
X6337096Y8414207D01*
X6335115Y8408212D01*
X6333540Y8401913D01*
X6332177Y8392922D01*
X6353810Y8392922D01*
X6354927Y8400389D01*
X6356654Y8407349D01*
X6358991Y8413699D01*
X6361938Y8419490D01*
X6365341Y8424621D01*
X6369202Y8429193D01*
X6373418Y8433054D01*
X6378041Y8436305D01*
X6382969Y8438845D01*
X6388100Y8440724D01*
X6393484Y8441842D01*
X6399022Y8442198D01*
X6404965Y8441842D01*
X6410452Y8440775D01*
X6415532Y8439048D01*
X6420104Y8436610D01*
X6424218Y8433460D01*
X6427825Y8429650D01*
X6430924Y8425180D01*
X6433464Y8420049D01*
X6435496Y8414207D01*
X6436969Y8407755D01*
X6437833Y8400643D01*
X6438138Y8392922D01*
X6332177Y8392922D01*
X6331712Y8388400D01*
X6331458Y8381238D01*
X6331712Y8373922D01*
X6332372Y8366912D01*
X6333540Y8360257D01*
X6335064Y8353907D01*
X6337046Y8347913D01*
X6339382Y8342223D01*
X6342126Y8336889D01*
X6345174Y8331911D01*
X6348577Y8327339D01*
X6352286Y8323072D01*
X6356299Y8319211D01*
X6360566Y8315706D01*
X6365138Y8312607D01*
X6369964Y8309914D01*
X6374942Y8307578D01*
X6380175Y8305698D01*
X6385610Y8304174D01*
X6391198Y8303107D01*
X6396939Y8302447D01*
X6402832Y8302244D01*
X6410452Y8302548D01*
X6417614Y8303463D01*
X6424269Y8304834D01*
X6430568Y8306714D01*
X6436461Y8309000D01*
X6441998Y8311591D01*
X6447282Y8314436D01*
X6452362Y8317484D01*
X6443980Y8332724D01*
X6439712Y8329980D01*
X6435344Y8327542D01*
X6430822Y8325459D01*
X6426149Y8323630D01*
X6421272Y8322208D01*
X6416243Y8321141D01*
X6411061Y8320481D01*
X6405626Y8320278D01*
X6400088Y8320531D01*
X6394805Y8321294D01*
X6389776Y8322564D01*
X6385001Y8324291D01*
X6380530Y8326475D01*
X6376365Y8329117D01*
X6372504Y8332165D01*
X6368999Y8335619D01*
X6365798Y8339531D01*
X6362954Y8343747D01*
X6360515Y8348319D01*
X6358382Y8353298D01*
X6356705Y8358530D01*
X6355384Y8364118D01*
X6354521Y8370011D01*
X6354064Y8376158D01*
X6457188Y8376158D01*
X6458000Y8382457D01*
X6458204Y8389874D01*
X6458051Y8396325D01*
X6457543Y8402472D01*
X6456730Y8408365D01*
X6455613Y8414004D01*
X6454190Y8419338D01*
X6452463Y8424418D01*
X6450431Y8429142D01*
X6448094Y8433612D01*
X6445504Y8437727D01*
X6442557Y8441537D01*
X6439408Y8445042D01*
X6435953Y8448192D01*
X6432194Y8451037D01*
X6428181Y8453475D01*
X6423914Y8455609D01*
X6419392Y8457336D01*
X6414617Y8458708D01*
X6409588Y8459673D01*
X6404305Y8460282D01*
G37*
G36*
X6538722Y8460486D02*
G01*
X6530848Y8460130D01*
X6523532Y8459012D01*
X6516827Y8457234D01*
X6510781Y8454796D01*
X6505397Y8451799D01*
X6500672Y8448243D01*
X6496608Y8444230D01*
X6493256Y8439759D01*
X6490614Y8434882D01*
X6488684Y8429650D01*
X6487566Y8424113D01*
X6487160Y8418322D01*
X6487617Y8412226D01*
X6488988Y8406739D01*
X6491122Y8401812D01*
X6494018Y8397392D01*
X6497472Y8393480D01*
X6501536Y8389924D01*
X6505956Y8386775D01*
X6510781Y8383930D01*
X6515862Y8381390D01*
X6526479Y8376920D01*
X6544564Y8369858D01*
X6550507Y8366963D01*
X6555892Y8363762D01*
X6560464Y8360054D01*
X6564071Y8355787D01*
X6566357Y8350859D01*
X6567170Y8345170D01*
X6566662Y8340090D01*
X6565239Y8335365D01*
X6562801Y8331098D01*
X6559346Y8327339D01*
X6554978Y8324291D01*
X6549593Y8322005D01*
X6543243Y8320531D01*
X6535928Y8320024D01*
X6529019Y8320379D01*
X6522618Y8321395D01*
X6516573Y8323021D01*
X6510883Y8325154D01*
X6505448Y8327847D01*
X6500266Y8330946D01*
X6495186Y8334451D01*
X6490208Y8338312D01*
X6478778Y8322818D01*
X6484416Y8318601D01*
X6490563Y8314690D01*
X6497167Y8311184D01*
X6504178Y8308136D01*
X6511544Y8305647D01*
X6519164Y8303818D01*
X6526936Y8302650D01*
X6534912Y8302244D01*
X6543344Y8302650D01*
X6551066Y8303818D01*
X6558127Y8305749D01*
X6564528Y8308340D01*
X6570167Y8311540D01*
X6575094Y8315248D01*
X6579311Y8319516D01*
X6582765Y8324189D01*
X6585508Y8329269D01*
X6587439Y8334654D01*
X6588607Y8340293D01*
X6589014Y8346186D01*
X6588506Y8352993D01*
X6587083Y8359089D01*
X6584797Y8364423D01*
X6581800Y8369096D01*
X6578142Y8373262D01*
X6573926Y8376920D01*
X6569252Y8380171D01*
X6564223Y8383016D01*
X6553403Y8387994D01*
X6529831Y8397087D01*
X6524244Y8399678D01*
X6519316Y8402574D01*
X6515150Y8405926D01*
X6512001Y8409787D01*
X6509969Y8414308D01*
X6509257Y8419592D01*
X6509715Y8424062D01*
X6511035Y8428329D01*
X6513271Y8432190D01*
X6516471Y8435594D01*
X6520586Y8438438D01*
X6525666Y8440572D01*
X6531711Y8441994D01*
X6538722Y8442452D01*
X6543700Y8442198D01*
X6548424Y8441436D01*
X6552946Y8440216D01*
X6557213Y8438591D01*
X6561378Y8436610D01*
X6565392Y8434324D01*
X6573266Y8428990D01*
X6584442Y8443722D01*
X6579920Y8447125D01*
X6574993Y8450326D01*
X6569709Y8453170D01*
X6564071Y8455609D01*
X6558076Y8457641D01*
X6551879Y8459165D01*
X6545376Y8460130D01*
G37*
G36*
X3070352Y8456676D02*
G01*
X3070352Y8305800D01*
X3092958Y8305800D01*
X3092958Y8456676D01*
G37*
G36*
X4877816Y8452612D02*
G01*
X4871313Y8451291D01*
X4865878Y8447532D01*
X4862169Y8441690D01*
X4860798Y8434070D01*
X4862169Y8426754D01*
X4865878Y8421065D01*
X4871313Y8417356D01*
X4877816Y8416036D01*
X4884623Y8417356D01*
X4890211Y8421065D01*
X4893970Y8426754D01*
X4895342Y8434070D01*
X4893970Y8441690D01*
X4890211Y8447532D01*
X4884623Y8451291D01*
G37*
G36*
X3969004Y8440674D02*
G01*
X3963162Y8440115D01*
X3957777Y8438438D01*
X3952900Y8435797D01*
X3948633Y8432342D01*
X3945178Y8428075D01*
X3942537Y8423198D01*
X3940860Y8417814D01*
X3940301Y8411972D01*
X3940860Y8406130D01*
X3942537Y8400745D01*
X3945178Y8395868D01*
X3948633Y8391601D01*
X3952900Y8388146D01*
X3957777Y8385505D01*
X3963162Y8383828D01*
X3969004Y8383270D01*
X3974846Y8383828D01*
X3980230Y8385505D01*
X3985107Y8388146D01*
X3989374Y8391601D01*
X3992829Y8395868D01*
X3995470Y8400745D01*
X3997147Y8406130D01*
X3997706Y8411972D01*
X3997147Y8417814D01*
X3995470Y8423198D01*
X3992829Y8428075D01*
X3989374Y8432342D01*
X3985107Y8435797D01*
X3980230Y8438438D01*
X3974846Y8440115D01*
G37*
G36*
X4877816Y8338566D02*
G01*
X4871313Y8337245D01*
X4865878Y8333486D01*
X4862169Y8327644D01*
X4860798Y8320024D01*
X4862169Y8312759D01*
X4865878Y8307120D01*
X4871313Y8303514D01*
X4877816Y8302244D01*
X4884623Y8303514D01*
X4890211Y8307120D01*
X4893970Y8312759D01*
X4895342Y8320024D01*
X4893970Y8327644D01*
X4890211Y8333486D01*
X4884623Y8337245D01*
G37*
G36*
X5807202Y8338566D02*
G01*
X5800699Y8337245D01*
X5795264Y8333486D01*
X5791555Y8327644D01*
X5790184Y8320024D01*
X5791555Y8312759D01*
X5795264Y8307120D01*
X5800699Y8303514D01*
X5807202Y8302244D01*
X5813856Y8303514D01*
X5819343Y8307120D01*
X5823102Y8312759D01*
X5824474Y8320024D01*
X5823102Y8327644D01*
X5819343Y8333486D01*
X5813856Y8337245D01*
G37*
G36*
X6302248Y6046470D02*
G01*
X6302248Y6027928D01*
X6362395Y6027826D01*
X6374739Y6026810D01*
X6380276Y6025896D01*
X6385306Y6024676D01*
X6389928Y6023152D01*
X6394145Y6021324D01*
X6397904Y6019139D01*
X6401206Y6016599D01*
X6404051Y6013653D01*
X6406489Y6010351D01*
X6408470Y6006592D01*
X6409994Y6002426D01*
X6411112Y5997854D01*
X6411772Y5992825D01*
X6411976Y5987288D01*
X6411772Y5981750D01*
X6411163Y5976670D01*
X6410096Y5971946D01*
X6408623Y5967577D01*
X6406692Y5963666D01*
X6404356Y5960059D01*
X6401612Y5956858D01*
X6398412Y5954014D01*
X6394805Y5951524D01*
X6390690Y5949391D01*
X6386169Y5947613D01*
X6381242Y5946140D01*
X6375806Y5945022D01*
X6369964Y5944209D01*
X6363614Y5943752D01*
X6325362Y5943600D01*
X6325362Y6027928D01*
X6302248Y6027928D01*
X6302248Y5842000D01*
X6325362Y5842000D01*
X6325362Y5924804D01*
X6360160Y5924804D01*
X6366814Y5924956D01*
X6373266Y5925413D01*
X6379413Y5926175D01*
X6385306Y5927242D01*
X6390944Y5928614D01*
X6396278Y5930290D01*
X6401308Y5932271D01*
X6406083Y5934557D01*
X6410502Y5937199D01*
X6414566Y5940145D01*
X6418326Y5943396D01*
X6421729Y5946952D01*
X6424777Y5950864D01*
X6427470Y5955080D01*
X6429756Y5959652D01*
X6431635Y5964478D01*
X6433108Y5969711D01*
X6434226Y5975248D01*
X6434886Y5981090D01*
X6435090Y5987288D01*
X6434886Y5993688D01*
X6434226Y5999632D01*
X6433108Y6005169D01*
X6431584Y6010300D01*
X6429705Y6015075D01*
X6427368Y6019444D01*
X6424676Y6023457D01*
X6421577Y6027115D01*
X6418122Y6030417D01*
X6414312Y6033363D01*
X6410147Y6036005D01*
X6405676Y6038291D01*
X6400850Y6040272D01*
X6395720Y6041999D01*
X6390284Y6043422D01*
X6384544Y6044539D01*
X6378549Y6045403D01*
X6372250Y6046012D01*
X6365697Y6046368D01*
G37*
G36*
X6525259Y5996686D02*
G01*
X6519773Y5996482D01*
X6514388Y5995822D01*
X6509054Y5994755D01*
X6503924Y5993282D01*
X6498894Y5991352D01*
X6494018Y5989066D01*
X6489395Y5986373D01*
X6484924Y5983274D01*
X6480708Y5979769D01*
X6476796Y5975908D01*
X6473088Y5971692D01*
X6469735Y5967069D01*
X6466636Y5962091D01*
X6463944Y5956757D01*
X6461556Y5951016D01*
X6459575Y5944971D01*
X6458000Y5938621D01*
X6456883Y5931865D01*
X6456172Y5924804D01*
X6455918Y5917438D01*
X6479540Y5917438D01*
X6479743Y5923991D01*
X6480403Y5930290D01*
X6481419Y5936284D01*
X6482842Y5941974D01*
X6484670Y5947257D01*
X6486855Y5952236D01*
X6489344Y5956808D01*
X6492189Y5960973D01*
X6495389Y5964732D01*
X6498844Y5968034D01*
X6502603Y5970879D01*
X6506667Y5973267D01*
X6510934Y5975146D01*
X6515506Y5976518D01*
X6520281Y5977331D01*
X6525259Y5977636D01*
X6530238Y5977331D01*
X6535064Y5976518D01*
X6539636Y5975146D01*
X6543954Y5973267D01*
X6548018Y5970879D01*
X6551828Y5968034D01*
X6555333Y5964732D01*
X6558584Y5960973D01*
X6561480Y5956808D01*
X6564020Y5952236D01*
X6566255Y5947257D01*
X6568084Y5941974D01*
X6569557Y5936284D01*
X6570624Y5930290D01*
X6571284Y5923991D01*
X6571488Y5917438D01*
X6571284Y5910834D01*
X6570624Y5904484D01*
X6569557Y5898489D01*
X6568084Y5892850D01*
X6566255Y5887567D01*
X6564020Y5882640D01*
X6561480Y5878068D01*
X6558584Y5873953D01*
X6555333Y5870244D01*
X6551828Y5866942D01*
X6548018Y5864148D01*
X6543954Y5861812D01*
X6539636Y5859932D01*
X6535064Y5858611D01*
X6530238Y5857748D01*
X6525259Y5857494D01*
X6520281Y5857748D01*
X6515506Y5858611D01*
X6510934Y5859932D01*
X6506667Y5861812D01*
X6502603Y5864148D01*
X6498844Y5866942D01*
X6495389Y5870244D01*
X6492189Y5873953D01*
X6489344Y5878068D01*
X6486855Y5882640D01*
X6484670Y5887567D01*
X6482842Y5892850D01*
X6481419Y5898489D01*
X6480403Y5904484D01*
X6479743Y5910834D01*
X6479540Y5917438D01*
X6455918Y5917438D01*
X6456172Y5910072D01*
X6456883Y5903061D01*
X6458000Y5896356D01*
X6459575Y5890006D01*
X6461556Y5883960D01*
X6463944Y5878322D01*
X6466636Y5872988D01*
X6469735Y5868009D01*
X6473088Y5863386D01*
X6476796Y5859170D01*
X6480708Y5855309D01*
X6484924Y5851855D01*
X6489395Y5848756D01*
X6494018Y5846064D01*
X6498894Y5843727D01*
X6503924Y5841847D01*
X6509054Y5840374D01*
X6514388Y5839307D01*
X6519773Y5838647D01*
X6525259Y5838444D01*
X6530746Y5838647D01*
X6536181Y5839307D01*
X6541465Y5840374D01*
X6546646Y5841847D01*
X6551676Y5843727D01*
X6556552Y5846064D01*
X6561226Y5848756D01*
X6565646Y5851855D01*
X6569913Y5855309D01*
X6573875Y5859170D01*
X6577584Y5863386D01*
X6580987Y5868009D01*
X6584035Y5872988D01*
X6586778Y5878322D01*
X6589166Y5883960D01*
X6591147Y5890006D01*
X6592722Y5896356D01*
X6593890Y5903061D01*
X6594602Y5910072D01*
X6594856Y5917438D01*
X6594602Y5924804D01*
X6593890Y5931865D01*
X6592722Y5938621D01*
X6591147Y5944971D01*
X6589166Y5951016D01*
X6586778Y5956757D01*
X6584035Y5962091D01*
X6580987Y5967069D01*
X6577584Y5971692D01*
X6573875Y5975908D01*
X6569913Y5979769D01*
X6565646Y5983274D01*
X6561226Y5986373D01*
X6556552Y5989066D01*
X6551676Y5991352D01*
X6546646Y5993282D01*
X6541465Y5994755D01*
X6536181Y5995822D01*
X6530746Y5996482D01*
G37*
G36*
X6910324Y5996686D02*
G01*
X6905142Y5996482D01*
X6899960Y5995771D01*
X6894931Y5994654D01*
X6889953Y5993130D01*
X6885127Y5991148D01*
X6880453Y5988761D01*
X6875932Y5986018D01*
X6871614Y5982817D01*
X6867499Y5979261D01*
X6863638Y5975350D01*
X6860031Y5971032D01*
X6856679Y5966409D01*
X6853681Y5961380D01*
X6850989Y5956046D01*
X6848652Y5950407D01*
X6846671Y5944412D01*
X6845096Y5938113D01*
X6843733Y5929122D01*
X6865366Y5929122D01*
X6866483Y5936589D01*
X6868210Y5943549D01*
X6870547Y5949899D01*
X6873494Y5955690D01*
X6876897Y5960821D01*
X6880758Y5965393D01*
X6884974Y5969254D01*
X6889597Y5972505D01*
X6894525Y5975045D01*
X6899656Y5976924D01*
X6905040Y5978042D01*
X6910578Y5978398D01*
X6916521Y5978042D01*
X6922008Y5976975D01*
X6927088Y5975248D01*
X6931659Y5972810D01*
X6935774Y5969660D01*
X6939381Y5965850D01*
X6942480Y5961380D01*
X6945020Y5956249D01*
X6947052Y5950407D01*
X6948525Y5943955D01*
X6949389Y5936843D01*
X6949694Y5929122D01*
X6843733Y5929122D01*
X6843268Y5924600D01*
X6843014Y5917438D01*
X6843268Y5910122D01*
X6843928Y5903112D01*
X6845096Y5896457D01*
X6846620Y5890107D01*
X6848602Y5884113D01*
X6850938Y5878423D01*
X6853681Y5873089D01*
X6856730Y5868111D01*
X6860133Y5863539D01*
X6863842Y5859272D01*
X6867855Y5855411D01*
X6872122Y5851906D01*
X6876694Y5848807D01*
X6881520Y5846114D01*
X6886498Y5843778D01*
X6891731Y5841898D01*
X6897166Y5840374D01*
X6902754Y5839307D01*
X6908495Y5838647D01*
X6914388Y5838444D01*
X6922008Y5838748D01*
X6929170Y5839663D01*
X6935825Y5841034D01*
X6942124Y5842914D01*
X6948017Y5845200D01*
X6953554Y5847791D01*
X6958838Y5850636D01*
X6963918Y5853684D01*
X6955536Y5868924D01*
X6951268Y5866180D01*
X6946950Y5863742D01*
X6942429Y5861659D01*
X6937806Y5859830D01*
X6932980Y5858408D01*
X6927900Y5857341D01*
X6922668Y5856681D01*
X6917181Y5856478D01*
X6911695Y5856732D01*
X6906412Y5857494D01*
X6901383Y5858764D01*
X6896658Y5860491D01*
X6892188Y5862675D01*
X6888022Y5865317D01*
X6884162Y5868365D01*
X6880656Y5871819D01*
X6877456Y5875731D01*
X6874611Y5879947D01*
X6872122Y5884519D01*
X6869988Y5889498D01*
X6868261Y5894730D01*
X6866991Y5900318D01*
X6866077Y5906211D01*
X6865620Y5912358D01*
X6968744Y5912358D01*
X6969556Y5918657D01*
X6969759Y5926074D01*
X6969607Y5932525D01*
X6969099Y5938672D01*
X6968286Y5944565D01*
X6967169Y5950204D01*
X6965746Y5955538D01*
X6964019Y5960618D01*
X6961987Y5965342D01*
X6959650Y5969812D01*
X6957059Y5973927D01*
X6954113Y5977737D01*
X6950964Y5981242D01*
X6947509Y5984392D01*
X6943750Y5987237D01*
X6939737Y5989675D01*
X6935470Y5991809D01*
X6930948Y5993536D01*
X6926173Y5994908D01*
X6921144Y5995873D01*
X6915861Y5996482D01*
G37*
G36*
X7072375Y5996686D02*
G01*
X7066076Y5996127D01*
X7059980Y5994450D01*
X7054088Y5991758D01*
X7048449Y5988100D01*
X7043166Y5983528D01*
X7038289Y5978144D01*
X7033768Y5971997D01*
X7029703Y5965190D01*
X7028688Y5965190D01*
X7026402Y5992876D01*
X7008114Y5992876D01*
X7008114Y5842000D01*
X7030720Y5842000D01*
X7030720Y5940298D01*
X7034834Y5949442D01*
X7039356Y5957062D01*
X7044181Y5963259D01*
X7049211Y5968085D01*
X7054342Y5971743D01*
X7059523Y5974232D01*
X7064603Y5975654D01*
X7069581Y5976112D01*
X7073544Y5975959D01*
X7076998Y5975502D01*
X7080250Y5974740D01*
X7083806Y5973572D01*
X7088378Y5993384D01*
X7084618Y5994958D01*
X7080859Y5995974D01*
X7076846Y5996533D01*
G37*
G36*
X6615684Y5992876D02*
G01*
X6658356Y5842000D01*
X6685025Y5842000D01*
X6707124Y5925820D01*
X6710273Y5936488D01*
X6713067Y5947308D01*
X6718046Y5969762D01*
X6719570Y5969762D01*
X6725818Y5942177D01*
X6728510Y5931458D01*
X6753098Y5842000D01*
X6780530Y5842000D01*
X6821931Y5992876D01*
X6800088Y5992876D01*
X6776974Y5903214D01*
X6767322Y5861558D01*
X6766052Y5861558D01*
X6758178Y5892647D01*
X6731000Y5992876D01*
X6707886Y5992876D01*
X6682282Y5897930D01*
X6673088Y5861558D01*
X6672072Y5861558D01*
X6662674Y5903214D01*
X6639052Y5992876D01*
G37*
G36*
X9330182Y6469380D02*
G01*
X9323476Y6469126D01*
X9317024Y6468364D01*
X9310878Y6467094D01*
X9305036Y6465417D01*
X9299498Y6463233D01*
X9294266Y6460642D01*
X9289491Y6457696D01*
X9285071Y6454292D01*
X9281058Y6450584D01*
X9277553Y6446469D01*
X9274505Y6442049D01*
X9271914Y6437325D01*
X9269882Y6432346D01*
X9268409Y6427063D01*
X9267494Y6421526D01*
X9267190Y6415786D01*
X9267647Y6408674D01*
X9268968Y6402171D01*
X9271000Y6396278D01*
X9273743Y6390944D01*
X9277096Y6386118D01*
X9280855Y6381800D01*
X9285071Y6377889D01*
X9289592Y6374434D01*
X9294317Y6371336D01*
X9299143Y6368542D01*
X9308846Y6363970D01*
X9345422Y6347561D01*
X9352026Y6344310D01*
X9358020Y6340856D01*
X9363151Y6336944D01*
X9367418Y6332372D01*
X9370618Y6327038D01*
X9372650Y6320688D01*
X9373362Y6313170D01*
X9373006Y6308039D01*
X9371990Y6303213D01*
X9370263Y6298742D01*
X9367926Y6294628D01*
X9364929Y6290919D01*
X9361373Y6287617D01*
X9357207Y6284722D01*
X9352483Y6282334D01*
X9347200Y6280404D01*
X9341459Y6279032D01*
X9335160Y6278168D01*
X9328404Y6277864D01*
X9322968Y6278067D01*
X9317583Y6278676D01*
X9312351Y6279692D01*
X9307118Y6281064D01*
X9302089Y6282842D01*
X9297111Y6284925D01*
X9292336Y6287312D01*
X9287713Y6290056D01*
X9283242Y6293104D01*
X9278924Y6296406D01*
X9274860Y6299962D01*
X9271000Y6303772D01*
X9257030Y6288024D01*
X9261551Y6283452D01*
X9266377Y6279235D01*
X9271406Y6275324D01*
X9276791Y6271768D01*
X9282379Y6268567D01*
X9288221Y6265722D01*
X9294317Y6263284D01*
X9300616Y6261252D01*
X9307169Y6259677D01*
X9313976Y6258509D01*
X9320936Y6257798D01*
X9328150Y6257544D01*
X9335871Y6257848D01*
X9343186Y6258712D01*
X9350146Y6260084D01*
X9356648Y6261963D01*
X9362744Y6264351D01*
X9368383Y6267196D01*
X9373565Y6270447D01*
X9378238Y6274104D01*
X9382455Y6278168D01*
X9386163Y6282537D01*
X9389313Y6287262D01*
X9391954Y6292240D01*
X9394037Y6297523D01*
X9395510Y6303060D01*
X9396425Y6308801D01*
X9396730Y6314694D01*
X9396323Y6321958D01*
X9395206Y6328613D01*
X9393377Y6334658D01*
X9390938Y6340144D01*
X9387890Y6345123D01*
X9384284Y6349644D01*
X9380220Y6353759D01*
X9375698Y6357467D01*
X9370822Y6360871D01*
X9365589Y6363970D01*
X9360052Y6366865D01*
X9354312Y6369558D01*
X9324594Y6382004D01*
X9312757Y6387541D01*
X9307017Y6390792D01*
X9301784Y6394551D01*
X9297263Y6398971D01*
X9293707Y6404203D01*
X9291370Y6410350D01*
X9290558Y6417564D01*
X9291269Y6424472D01*
X9293402Y6430568D01*
X9296857Y6435953D01*
X9301530Y6440424D01*
X9307271Y6444030D01*
X9314027Y6446621D01*
X9321698Y6448247D01*
X9330182Y6448806D01*
X9337294Y6448450D01*
X9344050Y6447434D01*
X9350451Y6445758D01*
X9356445Y6443522D01*
X9362186Y6440678D01*
X9367520Y6437325D01*
X9372600Y6433515D01*
X9377426Y6429248D01*
X9389872Y6443980D01*
X9386214Y6447637D01*
X9382302Y6451041D01*
X9378137Y6454292D01*
X9373666Y6457238D01*
X9368942Y6459931D01*
X9364014Y6462318D01*
X9358884Y6464401D01*
X9353499Y6466128D01*
X9347962Y6467500D01*
X9342170Y6468516D01*
X9336278Y6469176D01*
G37*
G36*
X9656318Y6469380D02*
G01*
X9650577Y6469176D01*
X9645091Y6468567D01*
X9639757Y6467551D01*
X9634626Y6466179D01*
X9629698Y6464452D01*
X9624974Y6462471D01*
X9620402Y6460185D01*
X9611766Y6454800D01*
X9603740Y6448602D01*
X9599930Y6445250D01*
X9612376Y6430518D01*
X9616897Y6434734D01*
X9621672Y6438595D01*
X9626752Y6441998D01*
X9632086Y6444945D01*
X9637623Y6447383D01*
X9643364Y6449212D01*
X9649358Y6450380D01*
X9655556Y6450838D01*
X9663430Y6450126D01*
X9670491Y6448298D01*
X9676587Y6445351D01*
X9681768Y6441389D01*
X9685883Y6436512D01*
X9688880Y6430772D01*
X9690760Y6424269D01*
X9691370Y6417056D01*
X9691065Y6411468D01*
X9690049Y6406083D01*
X9688372Y6401054D01*
X9685883Y6396380D01*
X9682632Y6392062D01*
X9678568Y6388150D01*
X9673539Y6384747D01*
X9667646Y6381851D01*
X9660737Y6379565D01*
X9652812Y6377838D01*
X9643821Y6376771D01*
X9633712Y6376416D01*
X9633712Y6358636D01*
X9642246Y6358432D01*
X9650120Y6357874D01*
X9657334Y6356908D01*
X9663887Y6355588D01*
X9669780Y6353911D01*
X9675063Y6351930D01*
X9679787Y6349593D01*
X9683902Y6347002D01*
X9687458Y6344056D01*
X9690506Y6340856D01*
X9693046Y6337401D01*
X9695027Y6333693D01*
X9696551Y6329680D01*
X9697669Y6325514D01*
X9698278Y6321094D01*
X9698482Y6316472D01*
X9698126Y6310528D01*
X9697059Y6304940D01*
X9695332Y6299860D01*
X9692944Y6295186D01*
X9689998Y6290970D01*
X9686493Y6287312D01*
X9682429Y6284112D01*
X9677958Y6281470D01*
X9672980Y6279337D01*
X9667595Y6277813D01*
X9661855Y6276898D01*
X9655810Y6276594D01*
X9647072Y6277102D01*
X9639147Y6278575D01*
X9631934Y6280861D01*
X9625330Y6283858D01*
X9619335Y6287363D01*
X9613798Y6291376D01*
X9608718Y6295694D01*
X9603994Y6300216D01*
X9592310Y6285484D01*
X9599472Y6278473D01*
X9603536Y6275120D01*
X9607905Y6271920D01*
X9612630Y6268923D01*
X9617760Y6266180D01*
X9623247Y6263741D01*
X9629089Y6261608D01*
X9635439Y6259931D01*
X9642195Y6258610D01*
X9649409Y6257798D01*
X9657080Y6257544D01*
X9663684Y6257798D01*
X9670135Y6258560D01*
X9676333Y6259779D01*
X9682226Y6261506D01*
X9687864Y6263690D01*
X9693148Y6266332D01*
X9698075Y6269431D01*
X9702647Y6272987D01*
X9706762Y6276898D01*
X9710470Y6281267D01*
X9713671Y6286042D01*
X9716312Y6291173D01*
X9718497Y6296710D01*
X9720072Y6302603D01*
X9721037Y6308852D01*
X9721342Y6315456D01*
X9720935Y6322364D01*
X9719767Y6328816D01*
X9717938Y6334861D01*
X9715398Y6340398D01*
X9712248Y6345529D01*
X9708591Y6350203D01*
X9704425Y6354368D01*
X9699802Y6358077D01*
X9694773Y6361226D01*
X9689439Y6363919D01*
X9683800Y6366103D01*
X9677908Y6367780D01*
X9677908Y6369050D01*
X9683191Y6371132D01*
X9688220Y6373622D01*
X9692843Y6376416D01*
X9697110Y6379616D01*
X9700971Y6383223D01*
X9704374Y6387134D01*
X9707372Y6391452D01*
X9709861Y6396126D01*
X9711842Y6401206D01*
X9713315Y6406642D01*
X9714179Y6412433D01*
X9714484Y6418580D01*
X9714179Y6424472D01*
X9713366Y6430010D01*
X9711994Y6435242D01*
X9710115Y6440119D01*
X9707727Y6444640D01*
X9704933Y6448806D01*
X9701631Y6452616D01*
X9697974Y6456070D01*
X9693910Y6459118D01*
X9689439Y6461810D01*
X9684664Y6464096D01*
X9679533Y6465976D01*
X9674148Y6467449D01*
X9668459Y6468516D01*
X9662515Y6469176D01*
G37*
G36*
X9807956Y6469380D02*
G01*
X9801758Y6469126D01*
X9795865Y6468414D01*
X9790277Y6467195D01*
X9784943Y6465570D01*
X9779812Y6463487D01*
X9774885Y6461048D01*
X9770160Y6458254D01*
X9765639Y6455105D01*
X9761220Y6451600D01*
X9756902Y6447790D01*
X9748520Y6439408D01*
X9761982Y6426454D01*
X9766503Y6431432D01*
X9771329Y6436055D01*
X9776409Y6440220D01*
X9781743Y6443776D01*
X9787331Y6446723D01*
X9793224Y6448958D01*
X9799320Y6450330D01*
X9805670Y6450838D01*
X9811969Y6450482D01*
X9817709Y6449364D01*
X9822840Y6447586D01*
X9827412Y6445199D01*
X9831425Y6442252D01*
X9834880Y6438696D01*
X9837775Y6434683D01*
X9840163Y6430213D01*
X9841941Y6425336D01*
X9843262Y6420104D01*
X9844024Y6414516D01*
X9844278Y6408674D01*
X9843820Y6400952D01*
X9842500Y6393027D01*
X9840214Y6384899D01*
X9837013Y6376517D01*
X9832848Y6367881D01*
X9827768Y6358991D01*
X9821621Y6349746D01*
X9814560Y6340195D01*
X9806432Y6330289D01*
X9797288Y6320028D01*
X9787077Y6309360D01*
X9775799Y6298285D01*
X9763455Y6286754D01*
X9750044Y6274816D01*
X9750044Y6261100D01*
X9876536Y6261100D01*
X9876536Y6280658D01*
X9809784Y6280556D01*
X9792716Y6279692D01*
X9784334Y6278880D01*
X9796475Y6290513D01*
X9807803Y6301994D01*
X9818319Y6313271D01*
X9827920Y6324396D01*
X9836556Y6335420D01*
X9844227Y6346240D01*
X9850882Y6357010D01*
X9856419Y6367627D01*
X9858756Y6372910D01*
X9862566Y6383426D01*
X9865156Y6393891D01*
X9865969Y6399072D01*
X9866477Y6404254D01*
X9866630Y6409436D01*
X9866376Y6416090D01*
X9865614Y6422440D01*
X9864344Y6428435D01*
X9862566Y6434124D01*
X9860330Y6439458D01*
X9857638Y6444386D01*
X9854488Y6448907D01*
X9850932Y6453022D01*
X9846919Y6456730D01*
X9842500Y6459982D01*
X9837674Y6462776D01*
X9832441Y6465112D01*
X9826853Y6466941D01*
X9820910Y6468313D01*
X9814610Y6469126D01*
G37*
G36*
X10615168Y6469380D02*
G01*
X10608462Y6469126D01*
X10602010Y6468364D01*
X10595864Y6467094D01*
X10590022Y6465417D01*
X10584484Y6463233D01*
X10579252Y6460642D01*
X10574477Y6457696D01*
X10570057Y6454292D01*
X10566044Y6450584D01*
X10562539Y6446469D01*
X10559491Y6442049D01*
X10556900Y6437325D01*
X10554868Y6432346D01*
X10553395Y6427063D01*
X10552480Y6421526D01*
X10552176Y6415786D01*
X10552633Y6408674D01*
X10553954Y6402171D01*
X10555986Y6396278D01*
X10558729Y6390944D01*
X10562082Y6386118D01*
X10565841Y6381800D01*
X10570057Y6377889D01*
X10574578Y6374434D01*
X10579303Y6371336D01*
X10584129Y6368542D01*
X10593832Y6363970D01*
X10630408Y6347561D01*
X10637012Y6344310D01*
X10643006Y6340856D01*
X10648137Y6336944D01*
X10652404Y6332372D01*
X10655604Y6327038D01*
X10657636Y6320688D01*
X10658348Y6313170D01*
X10657992Y6308039D01*
X10656976Y6303213D01*
X10655249Y6298742D01*
X10652912Y6294628D01*
X10649915Y6290919D01*
X10646359Y6287617D01*
X10642193Y6284722D01*
X10637469Y6282334D01*
X10632186Y6280404D01*
X10626445Y6279032D01*
X10620146Y6278168D01*
X10613390Y6277864D01*
X10607954Y6278067D01*
X10602569Y6278676D01*
X10597286Y6279692D01*
X10592054Y6281064D01*
X10586974Y6282842D01*
X10581995Y6284925D01*
X10577220Y6287312D01*
X10572546Y6290056D01*
X10568076Y6293104D01*
X10563860Y6296406D01*
X10559796Y6299962D01*
X10555986Y6303772D01*
X10542016Y6288024D01*
X10546537Y6283452D01*
X10551363Y6279235D01*
X10556392Y6275324D01*
X10561777Y6271768D01*
X10567365Y6268567D01*
X10573207Y6265722D01*
X10579303Y6263284D01*
X10585602Y6261252D01*
X10592155Y6259677D01*
X10598962Y6258509D01*
X10605922Y6257798D01*
X10613136Y6257544D01*
X10620857Y6257848D01*
X10628172Y6258712D01*
X10635132Y6260084D01*
X10641634Y6261963D01*
X10647730Y6264351D01*
X10653369Y6267196D01*
X10658551Y6270447D01*
X10663224Y6274104D01*
X10667441Y6278168D01*
X10671149Y6282537D01*
X10674299Y6287262D01*
X10676940Y6292240D01*
X10679023Y6297523D01*
X10680496Y6303060D01*
X10681411Y6308801D01*
X10681716Y6314694D01*
X10681309Y6321958D01*
X10680192Y6328613D01*
X10678363Y6334658D01*
X10675924Y6340144D01*
X10672876Y6345123D01*
X10669270Y6349644D01*
X10665206Y6353759D01*
X10660684Y6357467D01*
X10655808Y6360871D01*
X10650575Y6363970D01*
X10645038Y6366865D01*
X10639298Y6369558D01*
X10609580Y6382004D01*
X10597743Y6387541D01*
X10592003Y6390792D01*
X10586770Y6394551D01*
X10582249Y6398971D01*
X10578693Y6404203D01*
X10576356Y6410350D01*
X10575544Y6417564D01*
X10576255Y6424472D01*
X10578388Y6430568D01*
X10581843Y6435953D01*
X10586516Y6440424D01*
X10592257Y6444030D01*
X10599013Y6446621D01*
X10606684Y6448247D01*
X10615168Y6448806D01*
X10622280Y6448450D01*
X10629036Y6447434D01*
X10635437Y6445758D01*
X10641431Y6443522D01*
X10647172Y6440678D01*
X10652506Y6437325D01*
X10657586Y6433515D01*
X10662412Y6429248D01*
X10674858Y6443980D01*
X10671200Y6447637D01*
X10667288Y6451041D01*
X10663123Y6454292D01*
X10658652Y6457238D01*
X10653928Y6459931D01*
X10649000Y6462318D01*
X10643870Y6464401D01*
X10638485Y6466128D01*
X10632948Y6467500D01*
X10627156Y6468516D01*
X10621264Y6469176D01*
G37*
G36*
X9108948Y6465570D02*
G01*
X9108948Y6261100D01*
X9228582Y6261100D01*
X9228582Y6280658D01*
X9132062Y6280658D01*
X9132062Y6359144D01*
X9210802Y6359144D01*
X9210802Y6378702D01*
X9132062Y6378702D01*
X9132062Y6446012D01*
X9225534Y6446012D01*
X9225534Y6465570D01*
G37*
G36*
X9437624Y6465570D02*
G01*
X9437624Y6447028D01*
X9497771Y6446926D01*
X9510014Y6445910D01*
X9515551Y6444996D01*
X9520580Y6443776D01*
X9525203Y6442252D01*
X9529419Y6440424D01*
X9533178Y6438239D01*
X9536480Y6435699D01*
X9539376Y6432753D01*
X9541814Y6429451D01*
X9543796Y6425692D01*
X9545370Y6421526D01*
X9546437Y6416954D01*
X9547148Y6411925D01*
X9547352Y6406388D01*
X9547148Y6400850D01*
X9546539Y6395770D01*
X9545472Y6391046D01*
X9543999Y6386677D01*
X9542068Y6382766D01*
X9539732Y6379159D01*
X9536988Y6375958D01*
X9533788Y6373114D01*
X9530130Y6370624D01*
X9526016Y6368491D01*
X9521494Y6366713D01*
X9516465Y6365240D01*
X9511030Y6364122D01*
X9505137Y6363309D01*
X9498787Y6362852D01*
X9460738Y6362700D01*
X9460738Y6447028D01*
X9437624Y6447028D01*
X9437624Y6261100D01*
X9460738Y6261100D01*
X9460738Y6343904D01*
X9495536Y6343904D01*
X9502190Y6344056D01*
X9508591Y6344513D01*
X9514789Y6345275D01*
X9520682Y6346342D01*
X9526270Y6347714D01*
X9531604Y6349390D01*
X9536633Y6351371D01*
X9541357Y6353657D01*
X9545777Y6356299D01*
X9549841Y6359245D01*
X9553549Y6362496D01*
X9556953Y6366052D01*
X9559950Y6369964D01*
X9562642Y6374180D01*
X9564878Y6378752D01*
X9566808Y6383578D01*
X9568281Y6388811D01*
X9569348Y6394348D01*
X9570008Y6400190D01*
X9570212Y6406388D01*
X9570008Y6412788D01*
X9569348Y6418732D01*
X9568230Y6424269D01*
X9566757Y6429400D01*
X9564827Y6434175D01*
X9562541Y6438544D01*
X9559848Y6442557D01*
X9556800Y6446215D01*
X9553346Y6449517D01*
X9549587Y6452463D01*
X9545421Y6455105D01*
X9540951Y6457391D01*
X9536176Y6459372D01*
X9531045Y6461099D01*
X9525609Y6462522D01*
X9519920Y6463639D01*
X9513925Y6464503D01*
X9507626Y6465112D01*
X9501073Y6465468D01*
G37*
G36*
X10303764Y6465570D02*
G01*
X10303764Y6446012D01*
X10365994Y6446012D01*
X10365994Y6261100D01*
X10389616Y6261100D01*
X10389616Y6446012D01*
X10452100Y6446012D01*
X10452100Y6465570D01*
G37*
G36*
X10722610Y6465570D02*
G01*
X10722610Y6261100D01*
X10745724Y6261100D01*
X10745724Y6465570D01*
G37*
G36*
X10802620Y6465570D02*
G01*
X10802620Y6261100D01*
X10823702Y6261100D01*
X10823600Y6386068D01*
X10823092Y6400952D01*
X10820908Y6438646D01*
X10821924Y6438646D01*
X10838180Y6392164D01*
X10878312Y6281928D01*
X10894314Y6281928D01*
X10934192Y6392164D01*
X10950448Y6438646D01*
X10951718Y6438646D01*
X10949838Y6408724D01*
X10949178Y6393332D01*
X10948924Y6379210D01*
X10948924Y6261100D01*
X10970260Y6261100D01*
X10970260Y6465570D01*
X10941812Y6465570D01*
X10901934Y6353810D01*
X10891418Y6321247D01*
X10887710Y6310376D01*
X10886186Y6310376D01*
X10873333Y6348374D01*
X10831322Y6465570D01*
G37*
G36*
X10092690Y6395974D02*
G01*
X10086949Y6395415D01*
X10081564Y6393738D01*
X10076688Y6391097D01*
X10072420Y6387642D01*
X10068915Y6383375D01*
X10066274Y6378498D01*
X10064597Y6373114D01*
X10063988Y6367272D01*
X10064597Y6361430D01*
X10066274Y6356045D01*
X10068915Y6351168D01*
X10072420Y6346901D01*
X10076688Y6343446D01*
X10081564Y6340805D01*
X10086949Y6339128D01*
X10092690Y6338570D01*
X10098532Y6339128D01*
X10103967Y6340805D01*
X10108895Y6343446D01*
X10113162Y6346901D01*
X10116718Y6351168D01*
X10119360Y6356045D01*
X10121036Y6361430D01*
X10121646Y6367272D01*
X10121036Y6373114D01*
X10119360Y6378498D01*
X10116718Y6383375D01*
X10113162Y6387642D01*
X10108895Y6391097D01*
X10103967Y6393738D01*
X10098532Y6395415D01*
G37*
G36*
X10450576Y6347968D02*
G01*
X10450576Y6330188D01*
X10521442Y6330188D01*
X10521442Y6347968D01*
G37*
G36*
X3049524Y6483604D02*
G01*
X3049524Y6288786D01*
X3049879Y6281674D01*
X3050895Y6275425D01*
X3052673Y6270091D01*
X3055264Y6265621D01*
X3058668Y6262116D01*
X3062935Y6259626D01*
X3068066Y6258052D01*
X3074162Y6257544D01*
X3081934Y6258052D01*
X3087624Y6259322D01*
X3084322Y6277102D01*
X3081172Y6276644D01*
X3078988Y6276594D01*
X3076295Y6277203D01*
X3074111Y6279032D01*
X3072688Y6282283D01*
X3072130Y6287008D01*
X3072130Y6483604D01*
G37*
G36*
X3127502Y6483604D02*
G01*
X3127502Y6288786D01*
X3127857Y6281674D01*
X3128873Y6275425D01*
X3130651Y6270091D01*
X3133242Y6265621D01*
X3136646Y6262116D01*
X3140913Y6259626D01*
X3146044Y6258052D01*
X3152140Y6257544D01*
X3159912Y6258052D01*
X3165602Y6259322D01*
X3162300Y6277102D01*
X3159150Y6276644D01*
X3156966Y6276594D01*
X3154273Y6277203D01*
X3152089Y6279032D01*
X3150666Y6282283D01*
X3150108Y6287008D01*
X3150108Y6483604D01*
G37*
G36*
X3373628Y6483604D02*
G01*
X3373628Y6288786D01*
X3373983Y6281674D01*
X3374999Y6275425D01*
X3376777Y6270091D01*
X3379368Y6265621D01*
X3382772Y6262116D01*
X3387039Y6259626D01*
X3392170Y6258052D01*
X3398265Y6257544D01*
X3406089Y6258052D01*
X3411982Y6259322D01*
X3408426Y6277102D01*
X3405276Y6276644D01*
X3403092Y6276594D01*
X3400399Y6277203D01*
X3398215Y6279032D01*
X3396792Y6282283D01*
X3396234Y6287008D01*
X3396234Y6483604D01*
G37*
G36*
X2798572Y6469380D02*
G01*
X2793085Y6469227D01*
X2787751Y6468770D01*
X2782468Y6468008D01*
X2777388Y6466941D01*
X2772359Y6465620D01*
X2762808Y6462064D01*
X2753817Y6457391D01*
X2745536Y6451600D01*
X2741625Y6448348D01*
X2737916Y6444792D01*
X2731058Y6436969D01*
X2727960Y6432651D01*
X2725064Y6428130D01*
X2722372Y6423355D01*
X2719882Y6418376D01*
X2717647Y6413093D01*
X2715666Y6407658D01*
X2712415Y6396075D01*
X2710180Y6383629D01*
X2709468Y6377127D01*
X2709062Y6370370D01*
X2708910Y6363462D01*
X2709062Y6356451D01*
X2709468Y6349644D01*
X2710180Y6343091D01*
X2711145Y6336741D01*
X2712364Y6330594D01*
X2713837Y6324650D01*
X2715514Y6318961D01*
X2717495Y6313474D01*
X2719679Y6308242D01*
X2722118Y6303213D01*
X2724759Y6298488D01*
X2727604Y6293967D01*
X2730652Y6289649D01*
X2733903Y6285636D01*
X2737358Y6281877D01*
X2740964Y6278372D01*
X2744825Y6275120D01*
X2748788Y6272123D01*
X2752953Y6269380D01*
X2757271Y6266942D01*
X2761742Y6264757D01*
X2766364Y6262878D01*
X2771140Y6261252D01*
X2776016Y6259931D01*
X2781046Y6258915D01*
X2786176Y6258153D01*
X2791409Y6257696D01*
X2796794Y6257544D01*
X2803296Y6257747D01*
X2809595Y6258407D01*
X2815539Y6259525D01*
X2821279Y6260998D01*
X2826766Y6262878D01*
X2832049Y6265214D01*
X2837078Y6267856D01*
X2841904Y6270955D01*
X2846527Y6274358D01*
X2850946Y6278168D01*
X2855214Y6282283D01*
X2859278Y6286754D01*
X2846324Y6301232D01*
X2841193Y6295948D01*
X2835910Y6291275D01*
X2830372Y6287262D01*
X2824581Y6283909D01*
X2818485Y6281318D01*
X2812084Y6279388D01*
X2805277Y6278270D01*
X2798064Y6277864D01*
X2792120Y6278118D01*
X2786430Y6278829D01*
X2780944Y6280048D01*
X2775762Y6281724D01*
X2770784Y6283909D01*
X2766110Y6286500D01*
X2761691Y6289497D01*
X2757525Y6292951D01*
X2753715Y6296812D01*
X2750159Y6301079D01*
X2746908Y6305753D01*
X2743962Y6310833D01*
X2741371Y6316268D01*
X2739034Y6322060D01*
X2737104Y6328206D01*
X2735478Y6334709D01*
X2734208Y6341567D01*
X2733294Y6348730D01*
X2732735Y6356197D01*
X2732532Y6363970D01*
X2732735Y6371691D01*
X2733294Y6379108D01*
X2734259Y6386220D01*
X2735580Y6392976D01*
X2737307Y6399428D01*
X2739339Y6405473D01*
X2741676Y6411214D01*
X2744368Y6416548D01*
X2747416Y6421526D01*
X2750718Y6426098D01*
X2754325Y6430314D01*
X2758287Y6434074D01*
X2762453Y6437477D01*
X2766923Y6440424D01*
X2771648Y6442964D01*
X2776626Y6445046D01*
X2781808Y6446672D01*
X2787294Y6447840D01*
X2792933Y6448552D01*
X2798826Y6448806D01*
X2805379Y6448450D01*
X2811576Y6447383D01*
X2817368Y6445707D01*
X2822803Y6443421D01*
X2827883Y6440576D01*
X2832658Y6437223D01*
X2837078Y6433464D01*
X2841244Y6429248D01*
X2854198Y6444488D01*
X2847746Y6450736D01*
X2844088Y6453733D01*
X2840126Y6456578D01*
X2835859Y6459270D01*
X2831338Y6461709D01*
X2826512Y6463893D01*
X2821482Y6465773D01*
X2816098Y6467297D01*
X2810510Y6468414D01*
X2804668Y6469126D01*
G37*
G36*
X2951734Y6415786D02*
G01*
X2946552Y6415582D01*
X2941370Y6414871D01*
X2936341Y6413754D01*
X2931363Y6412230D01*
X2926537Y6410248D01*
X2921863Y6407861D01*
X2917342Y6405118D01*
X2913024Y6401917D01*
X2908909Y6398361D01*
X2905048Y6394450D01*
X2901442Y6390132D01*
X2898089Y6385509D01*
X2895092Y6380480D01*
X2892399Y6375146D01*
X2890062Y6369507D01*
X2888081Y6363512D01*
X2886506Y6357213D01*
X2885143Y6348222D01*
X2906776Y6348222D01*
X2907893Y6355689D01*
X2909620Y6362649D01*
X2911957Y6368999D01*
X2914904Y6374790D01*
X2918307Y6379921D01*
X2922168Y6384493D01*
X2926384Y6388354D01*
X2931007Y6391605D01*
X2935935Y6394145D01*
X2941066Y6396024D01*
X2946450Y6397142D01*
X2951988Y6397498D01*
X2957931Y6397142D01*
X2963418Y6396075D01*
X2968498Y6394348D01*
X2973070Y6391910D01*
X2977184Y6388760D01*
X2980791Y6384950D01*
X2983890Y6380480D01*
X2986430Y6375349D01*
X2988462Y6369507D01*
X2989935Y6363055D01*
X2990799Y6355943D01*
X2991104Y6348222D01*
X2885143Y6348222D01*
X2884678Y6343700D01*
X2884424Y6336538D01*
X2884678Y6329222D01*
X2885338Y6322212D01*
X2886506Y6315557D01*
X2888030Y6309207D01*
X2890012Y6303213D01*
X2892348Y6297523D01*
X2895092Y6292189D01*
X2898140Y6287211D01*
X2901543Y6282639D01*
X2905252Y6278372D01*
X2909265Y6274511D01*
X2913532Y6271006D01*
X2918104Y6267907D01*
X2922930Y6265214D01*
X2927908Y6262878D01*
X2933141Y6260998D01*
X2938576Y6259474D01*
X2944164Y6258407D01*
X2949905Y6257747D01*
X2955798Y6257544D01*
X2963418Y6257848D01*
X2970580Y6258763D01*
X2977235Y6260134D01*
X2983534Y6262014D01*
X2989427Y6264300D01*
X2994964Y6266891D01*
X3000248Y6269736D01*
X3005328Y6272784D01*
X2996946Y6288024D01*
X2992678Y6285280D01*
X2988360Y6282842D01*
X2983839Y6280759D01*
X2979216Y6278930D01*
X2974390Y6277508D01*
X2969310Y6276441D01*
X2964078Y6275781D01*
X2958592Y6275578D01*
X2953105Y6275832D01*
X2947822Y6276594D01*
X2942793Y6277864D01*
X2938068Y6279591D01*
X2933598Y6281775D01*
X2929432Y6284417D01*
X2925572Y6287465D01*
X2922066Y6290919D01*
X2918866Y6294831D01*
X2916021Y6299047D01*
X2913532Y6303619D01*
X2911398Y6308598D01*
X2909671Y6313830D01*
X2908401Y6319418D01*
X2907487Y6325311D01*
X2907030Y6331458D01*
X3010154Y6331458D01*
X3010966Y6337757D01*
X3011170Y6345174D01*
X3011017Y6351625D01*
X3010509Y6357772D01*
X3009696Y6363665D01*
X3008579Y6369304D01*
X3007156Y6374638D01*
X3005429Y6379718D01*
X3003397Y6384442D01*
X3001060Y6388912D01*
X2998470Y6393027D01*
X2995574Y6396837D01*
X2992374Y6400342D01*
X2988919Y6403492D01*
X2985160Y6406337D01*
X2981147Y6408775D01*
X2976880Y6410909D01*
X2972358Y6412636D01*
X2967583Y6414008D01*
X2962554Y6414973D01*
X2957271Y6415582D01*
G37*
G36*
X3506978Y6415786D02*
G01*
X3500932Y6415582D01*
X3495040Y6414922D01*
X3489350Y6413906D01*
X3483813Y6412585D01*
X3478479Y6410960D01*
X3473348Y6409131D01*
X3463848Y6404965D01*
X3455466Y6400444D01*
X3448304Y6395974D01*
X3457448Y6380226D01*
X3461969Y6383274D01*
X3466896Y6386271D01*
X3472179Y6389116D01*
X3477818Y6391656D01*
X3483813Y6393840D01*
X3490010Y6395516D01*
X3496513Y6396583D01*
X3503168Y6396990D01*
X3509314Y6396583D01*
X3514648Y6395415D01*
X3519271Y6393484D01*
X3523234Y6390944D01*
X3526485Y6387896D01*
X3529177Y6384290D01*
X3531362Y6380276D01*
X3532987Y6375908D01*
X3534156Y6371285D01*
X3534918Y6366408D01*
X3535324Y6361430D01*
X3535426Y6356350D01*
X3525977Y6355232D01*
X3508654Y6352489D01*
X3493465Y6349187D01*
X3486607Y6347256D01*
X3480308Y6345174D01*
X3474465Y6342938D01*
X3469132Y6340500D01*
X3464255Y6337858D01*
X3459937Y6335064D01*
X3456025Y6332016D01*
X3452622Y6328816D01*
X3449726Y6325362D01*
X3447237Y6321704D01*
X3445205Y6317843D01*
X3443681Y6313728D01*
X3442563Y6309360D01*
X3441903Y6304788D01*
X3441753Y6301232D01*
X3463798Y6301232D01*
X3464001Y6305042D01*
X3464712Y6308648D01*
X3465829Y6312103D01*
X3467506Y6315354D01*
X3469690Y6318453D01*
X3472383Y6321348D01*
X3475685Y6324041D01*
X3479596Y6326581D01*
X3484118Y6328968D01*
X3489299Y6331204D01*
X3495192Y6333236D01*
X3501745Y6335115D01*
X3509010Y6336842D01*
X3517036Y6338417D01*
X3525824Y6339840D01*
X3535426Y6341110D01*
X3535426Y6296914D01*
X3529736Y6292088D01*
X3524250Y6287820D01*
X3518865Y6284214D01*
X3513582Y6281216D01*
X3508298Y6278880D01*
X3502914Y6277203D01*
X3497427Y6276187D01*
X3491737Y6275832D01*
X3486150Y6276187D01*
X3480968Y6277254D01*
X3476193Y6279134D01*
X3472078Y6281775D01*
X3468624Y6285280D01*
X3466033Y6289649D01*
X3464356Y6294983D01*
X3463798Y6301232D01*
X3441753Y6301232D01*
X3442106Y6293358D01*
X3443224Y6287312D01*
X3445052Y6281775D01*
X3447542Y6276797D01*
X3450691Y6272326D01*
X3454349Y6268466D01*
X3458514Y6265164D01*
X3463188Y6262420D01*
X3468268Y6260338D01*
X3473754Y6258763D01*
X3479546Y6257848D01*
X3485642Y6257544D01*
X3492703Y6258001D01*
X3499561Y6259271D01*
X3506266Y6261252D01*
X3512769Y6263944D01*
X3519017Y6267196D01*
X3525062Y6270955D01*
X3530904Y6275120D01*
X3536442Y6279642D01*
X3537204Y6279642D01*
X3539236Y6261100D01*
X3558032Y6261100D01*
X3558032Y6354572D01*
X3557879Y6361226D01*
X3557320Y6367627D01*
X3556457Y6373723D01*
X3555187Y6379464D01*
X3553561Y6384848D01*
X3551529Y6389878D01*
X3549091Y6394551D01*
X3546195Y6398818D01*
X3542944Y6402628D01*
X3539185Y6405981D01*
X3535019Y6408928D01*
X3530396Y6411315D01*
X3525265Y6413246D01*
X3519678Y6414668D01*
X3513582Y6415481D01*
G37*
G36*
X3672078Y6415786D02*
G01*
X3665778Y6415227D01*
X3659632Y6413550D01*
X3653739Y6410858D01*
X3648151Y6407200D01*
X3642817Y6402628D01*
X3637838Y6397244D01*
X3633266Y6391097D01*
X3629151Y6384290D01*
X3628390Y6384290D01*
X3626104Y6411976D01*
X3607815Y6411976D01*
X3607815Y6261100D01*
X3630422Y6261100D01*
X3630422Y6359398D01*
X3634486Y6368542D01*
X3638956Y6376162D01*
X3643782Y6382359D01*
X3648811Y6387185D01*
X3653993Y6390843D01*
X3659174Y6393332D01*
X3664305Y6394754D01*
X3669284Y6395212D01*
X3673246Y6395059D01*
X3676700Y6394602D01*
X3679951Y6393840D01*
X3683508Y6392672D01*
X3687826Y6412484D01*
X3684219Y6414058D01*
X3680510Y6415074D01*
X3676548Y6415633D01*
G37*
G36*
X3203194Y6411976D02*
G01*
X3203194Y6316218D01*
X3203346Y6309207D01*
X3203854Y6302603D01*
X3204718Y6296456D01*
X3205886Y6290767D01*
X3207461Y6285484D01*
X3209340Y6280708D01*
X3211626Y6276340D01*
X3214268Y6272428D01*
X3217214Y6268923D01*
X3220618Y6265926D01*
X3224377Y6263386D01*
X3228492Y6261303D01*
X3233013Y6259626D01*
X3237890Y6258458D01*
X3243224Y6257798D01*
X3248914Y6257544D01*
X3256534Y6258052D01*
X3263646Y6259525D01*
X3270351Y6261963D01*
X3276650Y6265214D01*
X3282594Y6269228D01*
X3288334Y6273952D01*
X3293821Y6279286D01*
X3299206Y6285230D01*
X3300222Y6285230D01*
X3302000Y6261100D01*
X3320796Y6261100D01*
X3320796Y6411976D01*
X3298190Y6411976D01*
X3298190Y6303772D01*
X3292652Y6297371D01*
X3287369Y6291935D01*
X3282238Y6287363D01*
X3277158Y6283706D01*
X3272078Y6280912D01*
X3266897Y6278930D01*
X3261512Y6277762D01*
X3255772Y6277356D01*
X3250692Y6277610D01*
X3246120Y6278422D01*
X3242106Y6279794D01*
X3238500Y6281724D01*
X3235401Y6284214D01*
X3232759Y6287312D01*
X3230575Y6291021D01*
X3228848Y6295339D01*
X3227476Y6300266D01*
X3226562Y6305854D01*
X3226003Y6312103D01*
X3225800Y6319012D01*
X3225800Y6411976D01*
G37*
G36*
X7221220Y7078980D02*
G01*
X7215530Y7078827D01*
X7209942Y7078370D01*
X7204456Y7077608D01*
X7199122Y7076541D01*
X7193940Y7075220D01*
X7184034Y7071664D01*
X7174738Y7066991D01*
X7166152Y7061200D01*
X7162139Y7057948D01*
X7158278Y7054392D01*
X7154672Y7050582D01*
X7151268Y7046569D01*
X7148068Y7042251D01*
X7145070Y7037730D01*
X7142276Y7032955D01*
X7139787Y7027976D01*
X7137450Y7022693D01*
X7135418Y7017258D01*
X7133640Y7011568D01*
X7130796Y6999579D01*
X7129830Y6993229D01*
X7129119Y6986727D01*
X7128662Y6979970D01*
X7128509Y6973062D01*
X7128662Y6966051D01*
X7129068Y6959244D01*
X7129780Y6952691D01*
X7130745Y6946341D01*
X7131964Y6940194D01*
X7133488Y6934250D01*
X7135215Y6928561D01*
X7137196Y6923074D01*
X7139431Y6917842D01*
X7141921Y6912813D01*
X7144613Y6908088D01*
X7147509Y6903567D01*
X7150658Y6899249D01*
X7153960Y6895236D01*
X7157516Y6891477D01*
X7161275Y6887972D01*
X7165187Y6884720D01*
X7169302Y6881723D01*
X7173620Y6878980D01*
X7178090Y6876542D01*
X7182713Y6874357D01*
X7187539Y6872478D01*
X7192518Y6870852D01*
X7197598Y6869531D01*
X7202881Y6868515D01*
X7208266Y6867753D01*
X7213803Y6867296D01*
X7219442Y6867144D01*
X7226198Y6867347D01*
X7232700Y6867906D01*
X7238949Y6868871D01*
X7244943Y6870141D01*
X7250684Y6871766D01*
X7256170Y6873697D01*
X7261301Y6875881D01*
X7266127Y6878370D01*
X7270648Y6881063D01*
X7274864Y6884009D01*
X7278674Y6887159D01*
X7282180Y6890512D01*
X7282180Y6975348D01*
X7216140Y6975348D01*
X7216140Y6956298D01*
X7260590Y6956298D01*
X7260590Y6900418D01*
X7257135Y6897522D01*
X7253173Y6894982D01*
X7248702Y6892747D01*
X7243825Y6890867D01*
X7238644Y6889394D01*
X7233158Y6888327D01*
X7227519Y6887667D01*
X7221728Y6887464D01*
X7215225Y6887718D01*
X7208977Y6888429D01*
X7203033Y6889648D01*
X7197445Y6891324D01*
X7192111Y6893509D01*
X7187082Y6896100D01*
X7182408Y6899097D01*
X7178040Y6902551D01*
X7173975Y6906412D01*
X7170267Y6910679D01*
X7166864Y6915353D01*
X7163816Y6920433D01*
X7161123Y6925868D01*
X7158786Y6931659D01*
X7156754Y6937806D01*
X7155078Y6944309D01*
X7153808Y6951167D01*
X7152894Y6958330D01*
X7152335Y6965797D01*
X7152131Y6973570D01*
X7152335Y6981291D01*
X7152944Y6988708D01*
X7153909Y6995820D01*
X7155281Y7002576D01*
X7157059Y7009028D01*
X7159142Y7015073D01*
X7161631Y7020814D01*
X7164425Y7026148D01*
X7167575Y7031126D01*
X7171029Y7035698D01*
X7174788Y7039914D01*
X7178903Y7043674D01*
X7183323Y7047077D01*
X7187996Y7050024D01*
X7192975Y7052564D01*
X7198207Y7054646D01*
X7203694Y7056272D01*
X7209485Y7057440D01*
X7215479Y7058152D01*
X7221728Y7058406D01*
X7229348Y7057999D01*
X7236307Y7056881D01*
X7242657Y7055103D01*
X7248398Y7052716D01*
X7253630Y7049820D01*
X7258354Y7046518D01*
X7262723Y7042810D01*
X7266686Y7038848D01*
X7279640Y7054088D01*
X7273188Y7060082D01*
X7269530Y7063028D01*
X7265568Y7065822D01*
X7261250Y7068515D01*
X7256627Y7071004D01*
X7251649Y7073239D01*
X7246315Y7075170D01*
X7240574Y7076744D01*
X7234529Y7077964D01*
X7228078Y7078725D01*
G37*
G36*
X7561580Y7078980D02*
G01*
X7554874Y7078725D01*
X7548422Y7077964D01*
X7542275Y7076694D01*
X7536383Y7075017D01*
X7530795Y7072833D01*
X7525613Y7070242D01*
X7520787Y7067296D01*
X7516317Y7063892D01*
X7512303Y7060184D01*
X7508748Y7056069D01*
X7505700Y7051649D01*
X7503109Y7046925D01*
X7501077Y7041946D01*
X7499553Y7036663D01*
X7498638Y7031126D01*
X7498334Y7025386D01*
X7498791Y7018274D01*
X7500112Y7011771D01*
X7502144Y7005878D01*
X7504887Y7000544D01*
X7508240Y6995718D01*
X7511999Y6991400D01*
X7516215Y6987489D01*
X7520736Y6984034D01*
X7525461Y6980936D01*
X7530287Y6978142D01*
X7539990Y6973570D01*
X7576820Y6957161D01*
X7583373Y6953910D01*
X7589316Y6950456D01*
X7594447Y6946544D01*
X7598664Y6941972D01*
X7601813Y6936638D01*
X7603794Y6930288D01*
X7604506Y6922770D01*
X7604150Y6917639D01*
X7603134Y6912813D01*
X7601407Y6908342D01*
X7599070Y6904228D01*
X7596073Y6900519D01*
X7592517Y6897217D01*
X7588351Y6894322D01*
X7583627Y6891934D01*
X7578344Y6890003D01*
X7572603Y6888632D01*
X7566304Y6887768D01*
X7559548Y6887464D01*
X7554112Y6887667D01*
X7548778Y6888276D01*
X7543495Y6889292D01*
X7538313Y6890664D01*
X7533233Y6892442D01*
X7528306Y6894525D01*
X7523530Y6896912D01*
X7518908Y6899656D01*
X7514488Y6902703D01*
X7510221Y6906006D01*
X7506208Y6909562D01*
X7502398Y6913372D01*
X7488428Y6897624D01*
X7492949Y6893052D01*
X7497775Y6888835D01*
X7502804Y6884924D01*
X7508138Y6881368D01*
X7513726Y6878167D01*
X7519568Y6875322D01*
X7525664Y6872884D01*
X7531963Y6870852D01*
X7538466Y6869277D01*
X7545222Y6868109D01*
X7552131Y6867398D01*
X7559294Y6867144D01*
X7567015Y6867448D01*
X7574381Y6868312D01*
X7581290Y6869684D01*
X7587843Y6871563D01*
X7593939Y6873951D01*
X7599578Y6876796D01*
X7604810Y6880047D01*
X7609535Y6883704D01*
X7613751Y6887768D01*
X7617459Y6892137D01*
X7620660Y6896862D01*
X7623302Y6901840D01*
X7625384Y6907123D01*
X7626908Y6912660D01*
X7627823Y6918401D01*
X7628128Y6924294D01*
X7627721Y6931558D01*
X7626603Y6938213D01*
X7624775Y6944258D01*
X7622336Y6949744D01*
X7619288Y6954723D01*
X7615681Y6959244D01*
X7611618Y6963359D01*
X7607096Y6967067D01*
X7602220Y6970471D01*
X7596987Y6973570D01*
X7591450Y6976465D01*
X7585709Y6979158D01*
X7549997Y6994245D01*
X7544053Y6997141D01*
X7538313Y7000392D01*
X7533081Y7004151D01*
X7528559Y7008571D01*
X7525054Y7013803D01*
X7522768Y7019950D01*
X7521956Y7027164D01*
X7522667Y7034072D01*
X7524800Y7040168D01*
X7528204Y7045553D01*
X7532827Y7050024D01*
X7538567Y7053630D01*
X7545324Y7056221D01*
X7553045Y7057847D01*
X7561580Y7058406D01*
X7568692Y7058050D01*
X7575448Y7057034D01*
X7581798Y7055358D01*
X7587792Y7053122D01*
X7593431Y7050278D01*
X7598816Y7046925D01*
X7603947Y7043115D01*
X7608824Y7038848D01*
X7621016Y7053580D01*
X7617358Y7057237D01*
X7613497Y7060641D01*
X7609281Y7063892D01*
X7604861Y7066838D01*
X7600188Y7069531D01*
X7595311Y7071918D01*
X7590180Y7074001D01*
X7584846Y7075728D01*
X7579309Y7077100D01*
X7573568Y7078116D01*
X7567675Y7078776D01*
G37*
G36*
X7331709Y7075170D02*
G01*
X7331709Y7056628D01*
X7391857Y7056526D01*
X7404100Y7055510D01*
X7409637Y7054596D01*
X7414666Y7053376D01*
X7419289Y7051852D01*
X7423505Y7050024D01*
X7427264Y7047839D01*
X7430566Y7045299D01*
X7433462Y7042353D01*
X7435900Y7039051D01*
X7437881Y7035292D01*
X7439456Y7031126D01*
X7440523Y7026554D01*
X7441234Y7021525D01*
X7441438Y7015988D01*
X7441234Y7010450D01*
X7440625Y7005370D01*
X7439558Y7000646D01*
X7438085Y6996277D01*
X7436154Y6992366D01*
X7433818Y6988759D01*
X7431074Y6985558D01*
X7427874Y6982714D01*
X7424216Y6980224D01*
X7420102Y6978091D01*
X7415580Y6976313D01*
X7410602Y6974840D01*
X7405116Y6973722D01*
X7399223Y6972909D01*
X7392873Y6972452D01*
X7354824Y6972300D01*
X7354824Y7056628D01*
X7331709Y7056628D01*
X7331709Y6870700D01*
X7354824Y6870700D01*
X7354824Y6953503D01*
X7389368Y6953503D01*
X7396022Y6953656D01*
X7402474Y6954113D01*
X7408621Y6954875D01*
X7414514Y6955942D01*
X7420152Y6957314D01*
X7425486Y6958990D01*
X7430516Y6960971D01*
X7435291Y6963257D01*
X7439710Y6965899D01*
X7443774Y6968845D01*
X7447534Y6972096D01*
X7450937Y6975652D01*
X7453985Y6979564D01*
X7456678Y6983780D01*
X7458964Y6988352D01*
X7460843Y6993178D01*
X7462316Y6998411D01*
X7463434Y7003948D01*
X7464094Y7009790D01*
X7464298Y7015988D01*
X7464094Y7022388D01*
X7463434Y7028332D01*
X7462316Y7033869D01*
X7460792Y7039000D01*
X7458913Y7043775D01*
X7456576Y7048144D01*
X7453884Y7052157D01*
X7450785Y7055815D01*
X7447381Y7059117D01*
X7443571Y7062063D01*
X7439406Y7064705D01*
X7434935Y7066991D01*
X7430160Y7068972D01*
X7425029Y7070699D01*
X7419594Y7072122D01*
X7413904Y7073239D01*
X7407909Y7074103D01*
X7401661Y7074712D01*
X7395108Y7075068D01*
G37*
D10*
X5918200Y4218178D02*
G01*
X5918200Y4024376D01*
X5918200Y4218178D02*
G01*
X5992113Y4024376D01*
X6066027Y4218178D02*
G01*
X5992113Y4024376D01*
X6066027Y4218178D02*
G01*
X6066027Y4024376D01*
X6237731Y4153662D02*
G01*
X6237731Y4024376D01*
X6237731Y4125976D02*
G01*
X6219190Y4144263D01*
X6200902Y4153662D01*
X6173215Y4153662D01*
X6154674Y4144263D01*
X6136131Y4125976D01*
X6126988Y4098289D01*
X6126988Y4079747D01*
X6136131Y4052062D01*
X6154674Y4033520D01*
X6173215Y4024376D01*
X6200902Y4024376D01*
X6219190Y4033520D01*
X6237731Y4052062D01*
X6298691Y4218178D02*
G01*
X6308090Y4209034D01*
X6317234Y4218178D01*
X6308090Y4227576D01*
X6298691Y4218178D01*
X6308090Y4153662D02*
G01*
X6308090Y4024376D01*
X6378193Y4153662D02*
G01*
X6378193Y4024376D01*
X6378193Y4116578D02*
G01*
X6405879Y4144263D01*
X6424422Y4153662D01*
X6452108Y4153662D01*
X6470650Y4144263D01*
X6479793Y4116578D01*
X6479793Y4024376D01*
X6682993Y4218178D02*
G01*
X6682993Y4024376D01*
X6682993Y4218178D02*
G01*
X6766052Y4218178D01*
X6793738Y4209034D01*
X6803136Y4199889D01*
X6812279Y4181347D01*
X6812279Y4162805D01*
X6803136Y4144263D01*
X6793738Y4135120D01*
X6766052Y4125976D01*
X6682993Y4125976D02*
G01*
X6766052Y4125976D01*
X6793738Y4116578D01*
X6803136Y4107434D01*
X6812279Y4088892D01*
X6812279Y4061205D01*
X6803136Y4042663D01*
X6793738Y4033520D01*
X6766052Y4024376D01*
X6682993Y4024376D01*
X6919468Y4153662D02*
G01*
X6900925Y4144263D01*
X6882384Y4125976D01*
X6873240Y4098289D01*
X6873240Y4079747D01*
X6882384Y4052062D01*
X6900925Y4033520D01*
X6919468Y4024376D01*
X6947154Y4024376D01*
X6965695Y4033520D01*
X6983984Y4052062D01*
X6993381Y4079747D01*
X6993381Y4098289D01*
X6983984Y4125976D01*
X6965695Y4144263D01*
X6947154Y4153662D01*
X6919468Y4153662D01*
X7165086Y4153662D02*
G01*
X7165086Y4024376D01*
X7165086Y4125976D02*
G01*
X7146543Y4144263D01*
X7128256Y4153662D01*
X7100570Y4153662D01*
X7082027Y4144263D01*
X7063486Y4125976D01*
X7054341Y4098289D01*
X7054341Y4079747D01*
X7063486Y4052062D01*
X7082027Y4033520D01*
X7100570Y4024376D01*
X7128256Y4024376D01*
X7146543Y4033520D01*
X7165086Y4052062D01*
X7226045Y4153662D02*
G01*
X7226045Y4024376D01*
X7226045Y4098289D02*
G01*
X7235190Y4125976D01*
X7253731Y4144263D01*
X7272274Y4153662D01*
X7299959Y4153662D01*
X7471663Y4218178D02*
G01*
X7471663Y4024376D01*
X7471663Y4125976D02*
G01*
X7453375Y4144263D01*
X7434834Y4153662D01*
X7407147Y4153662D01*
X7388606Y4144263D01*
X7370063Y4125976D01*
X7360920Y4098289D01*
X7360920Y4079747D01*
X7370063Y4052062D01*
X7388606Y4033520D01*
X7407147Y4024376D01*
X7434834Y4024376D01*
X7453375Y4033520D01*
X7471663Y4052062D01*
D11*
X7618222Y8178292D02*
G01*
X7623556Y8167878D01*
X7633970Y8157463D01*
X7644129Y8152384D01*
X7664958Y8152384D01*
X7675372Y8157463D01*
X7685786Y8167878D01*
X7691120Y8178292D01*
X7696200Y8194039D01*
X7696200Y8219947D01*
X7691120Y8235442D01*
X7685786Y8245855D01*
X7675372Y8256270D01*
X7664958Y8261350D01*
X7644129Y8261350D01*
X7633970Y8256270D01*
X7623556Y8245855D01*
X7618222Y8235442D01*
X7618222Y8219947D01*
X7644129Y8219947D02*
G01*
X7618222Y8219947D01*
X7583931Y8152384D02*
G01*
X7583931Y8261350D01*
X7583931Y8152384D02*
G01*
X7537195Y8152384D01*
X7521702Y8157463D01*
X7516368Y8162797D01*
X7511288Y8173212D01*
X7511288Y8188705D01*
X7516368Y8199120D01*
X7521702Y8204200D01*
X7537195Y8209534D01*
X7583931Y8209534D01*
X7476997Y8152384D02*
G01*
X7476997Y8261350D01*
X7411465Y8152384D02*
G01*
X7421879Y8157463D01*
X7432293Y8167878D01*
X7437374Y8178292D01*
X7442708Y8194039D01*
X7442708Y8219947D01*
X7437374Y8235442D01*
X7432293Y8245855D01*
X7421879Y8256270D01*
X7411465Y8261350D01*
X7390638Y8261350D01*
X7380224Y8256270D01*
X7369809Y8245855D01*
X7364729Y8235442D01*
X7359650Y8219947D01*
X7359650Y8194039D01*
X7364729Y8178292D01*
X7369809Y8167878D01*
X7380224Y8157463D01*
X7390638Y8152384D01*
X7411465Y8152384D01*
X10934700Y8152384D02*
G01*
X10934700Y8261350D01*
X10895329Y8178292D02*
G01*
X10895329Y8173212D01*
X10889995Y8162797D01*
X10884915Y8157463D01*
X10874502Y8152384D01*
X10853674Y8152384D01*
X10843259Y8157463D01*
X10838179Y8162797D01*
X10832845Y8173212D01*
X10832845Y8183626D01*
X10838179Y8194039D01*
X10848340Y8209534D01*
X10900409Y8261350D01*
X10827765Y8261350D01*
X10715497Y8178292D02*
G01*
X10720577Y8167878D01*
X10730991Y8157463D01*
X10741406Y8152384D01*
X10762234Y8152384D01*
X10772647Y8157463D01*
X10783061Y8167878D01*
X10788141Y8178292D01*
X10793475Y8194039D01*
X10793475Y8219947D01*
X10788141Y8235442D01*
X10783061Y8245855D01*
X10772647Y8256270D01*
X10762234Y8261350D01*
X10741406Y8261350D01*
X10730991Y8256270D01*
X10720577Y8245855D01*
X10715497Y8235442D01*
X10681208Y8173212D02*
G01*
X10670793Y8167878D01*
X10655300Y8152384D01*
X10655300Y8261350D01*
X9309100Y8152384D02*
G01*
X9309100Y8261350D01*
X9269729Y8178292D02*
G01*
X9269729Y8173212D01*
X9264395Y8162797D01*
X9259315Y8157463D01*
X9248902Y8152384D01*
X9228074Y8152384D01*
X9217659Y8157463D01*
X9212579Y8162797D01*
X9207245Y8173212D01*
X9207245Y8183626D01*
X9212579Y8194039D01*
X9222740Y8209534D01*
X9274809Y8261350D01*
X9202165Y8261350D01*
X9089897Y8178292D02*
G01*
X9094977Y8167878D01*
X9105391Y8157463D01*
X9115806Y8152384D01*
X9136634Y8152384D01*
X9147047Y8157463D01*
X9157461Y8167878D01*
X9162541Y8178292D01*
X9167875Y8194039D01*
X9167875Y8219947D01*
X9162541Y8235442D01*
X9157461Y8245855D01*
X9147047Y8256270D01*
X9136634Y8261350D01*
X9115806Y8261350D01*
X9105391Y8256270D01*
X9094977Y8245855D01*
X9089897Y8235442D01*
X9050274Y8178292D02*
G01*
X9050274Y8173212D01*
X9045193Y8162797D01*
X9039859Y8157463D01*
X9029700Y8152384D01*
X9008872Y8152384D01*
X8998458Y8157463D01*
X8993124Y8162797D01*
X8988043Y8173212D01*
X8988043Y8183626D01*
X8993124Y8194039D01*
X9003538Y8209534D01*
X9055608Y8261350D01*
X8982709Y8261350D01*
D12*
X12334189Y7994650D02*
G01*
X1134186Y7994650D01*
X1134186Y4451350D01*
X12334189Y4451350D01*
X12334189Y7994650D01*
X8173402Y8765679D02*
G01*
X8173402Y9744196D01*
X6863405Y8422731D02*
G01*
X6863405Y8336701D01*
X8173402Y8336701D01*
X8173402Y8422728D01*
X6863405Y9744196D02*
G01*
X6863405Y8765677D01*
X6863405Y9744196D02*
G01*
X8173402Y9744196D01*
X6865858Y8909720D02*
G01*
X7319340Y8909011D01*
X7319340Y9123006D01*
X7697343Y9123006D01*
X7697343Y8911018D01*
X8173854Y8910721D01*
X7519441Y9697224D02*
G01*
X7519441Y9744202D01*
X8038851Y9322714D02*
G01*
X7812841Y9322714D01*
X6904857Y9049720D02*
G01*
X6939859Y9624014D01*
X7228174Y9622896D01*
X7277679Y9049390D01*
X7226802Y9049771D01*
X7175774Y9503796D01*
X7168255Y9571614D01*
X6993275Y9570547D01*
X6945878Y9092722D01*
X6942881Y9049720D01*
X6904857Y9049720D01*
X7519441Y9123210D02*
G01*
X7519339Y9322015D01*
X7427442Y9288208D01*
X7427442Y9564230D01*
X7519339Y9534004D01*
X7519441Y9697224D01*
X8069778Y9628543D02*
G01*
X8119282Y9055036D01*
X8068406Y9055417D01*
X8017377Y9509442D01*
X8009859Y9577260D01*
X7787482Y9098368D02*
G01*
X7784485Y9055366D01*
X7746461Y9055366D01*
X7747055Y9055074D02*
G01*
X7782057Y9629368D01*
X8070372Y9628251D01*
X8010453Y9576968D02*
G01*
X7835473Y9575901D01*
X7788076Y9098076D01*
X7196856Y9320738D02*
G01*
X6970847Y9320738D01*
X7182860Y9441743D02*
G01*
X6979864Y9441743D01*
X8024855Y9443720D02*
G01*
X7821858Y9443720D01*
X11424602Y8765679D02*
G01*
X11424602Y9744196D01*
X10114605Y8422731D02*
G01*
X10114605Y8336701D01*
X11424602Y8336701D01*
X11424602Y8422728D01*
X10114605Y9744196D02*
G01*
X10114605Y8765677D01*
X10114605Y9744196D02*
G01*
X11424602Y9744196D01*
X10117058Y8909720D02*
G01*
X10570540Y8909011D01*
X10570540Y9123006D01*
X10948543Y9123006D01*
X10948543Y8911018D01*
X11425054Y8910721D01*
X10770641Y9697224D02*
G01*
X10770641Y9744202D01*
X11290051Y9322714D02*
G01*
X11064041Y9322714D01*
X10156057Y9049720D02*
G01*
X10191059Y9624014D01*
X10479374Y9622896D01*
X10528879Y9049390D01*
X10478002Y9049771D01*
X10426974Y9503796D01*
X10419455Y9571614D01*
X10244475Y9570547D01*
X10197078Y9092722D01*
X10194081Y9049720D01*
X10156057Y9049720D01*
X10770641Y9123210D02*
G01*
X10770539Y9322015D01*
X10678642Y9288208D01*
X10678642Y9564230D01*
X10770539Y9534004D01*
X10770641Y9697224D01*
X11320978Y9628543D02*
G01*
X11370482Y9055036D01*
X11319606Y9055417D01*
X11268577Y9509442D01*
X11261059Y9577260D01*
X11038682Y9098368D02*
G01*
X11035685Y9055366D01*
X10997661Y9055366D01*
X10998255Y9055074D02*
G01*
X11033257Y9629368D01*
X11321572Y9628251D01*
X11261653Y9576968D02*
G01*
X11086673Y9575901D01*
X11039276Y9098076D01*
X10448056Y9320738D02*
G01*
X10222047Y9320738D01*
X10434060Y9441743D02*
G01*
X10231064Y9441743D01*
X11276055Y9443720D02*
G01*
X11073058Y9443720D01*
X9799002Y8765679D02*
G01*
X9799002Y9744196D01*
X8489005Y8422731D02*
G01*
X8489005Y8336701D01*
X9799002Y8336701D01*
X9799002Y8422728D01*
X8489005Y9744196D02*
G01*
X8489005Y8765677D01*
X8489005Y9744196D02*
G01*
X9799002Y9744196D01*
X8491458Y8909720D02*
G01*
X8944940Y8909011D01*
X8944940Y9123006D01*
X9322943Y9123006D01*
X9322943Y8911018D01*
X9799454Y8910721D01*
X9145041Y9697224D02*
G01*
X9145041Y9744202D01*
X9664451Y9322714D02*
G01*
X9438441Y9322714D01*
X8530457Y9049720D02*
G01*
X8565459Y9624014D01*
X8853774Y9622896D01*
X8903279Y9049390D01*
X8852402Y9049771D01*
X8801374Y9503796D01*
X8793855Y9571614D01*
X8618875Y9570547D01*
X8571478Y9092722D01*
X8568481Y9049720D01*
X8530457Y9049720D01*
X9145041Y9123210D02*
G01*
X9144939Y9322015D01*
X9053042Y9288208D01*
X9053042Y9564230D01*
X9144939Y9534004D01*
X9145041Y9697224D01*
X9695378Y9628543D02*
G01*
X9744882Y9055036D01*
X9694006Y9055417D01*
X9642977Y9509442D01*
X9635459Y9577260D01*
X9413082Y9098368D02*
G01*
X9410085Y9055366D01*
X9372061Y9055366D01*
X9372655Y9055074D02*
G01*
X9407657Y9629368D01*
X9695972Y9628251D01*
X9636053Y9576968D02*
G01*
X9461073Y9575901D01*
X9413676Y9098076D01*
X8822456Y9320738D02*
G01*
X8596447Y9320738D01*
X8808460Y9441743D02*
G01*
X8605464Y9441743D01*
X9650455Y9443720D02*
G01*
X9447458Y9443720D01*
G75*
G01*
X5702300Y5626100D02*
G03*
X5895772Y5762229I142673J2777D01*
G75*
G01*
X6654800Y6197600D02*
G03*
X5842000Y5638800I-406087J-279855D01*
G75*
G01*
X10384480Y6596281D02*
G03*
X10284719Y7473833I-263003J414548D01*
G75*
G01*
X10350500Y7569200D02*
G03*
X10210800Y7378700I-69501J-95506D01*
G75*
G01*
X9410700Y6083300D02*
G03*
X9502016Y4995733I390047J-514868D01*
G75*
G01*
X9398000Y4902200D02*
G03*
X9575800Y5105400I88576J101884D01*
G75*
G01*
X3441700Y6604000D02*
G03*
X2311131Y6962041I-638436J-51966D01*
G75*
G01*
X2057400Y7162800D02*
G03*
X2606703Y6826415I257209J-196676D01*
G75*
G01*
X7366000Y7251700D02*
G03*
X6565651Y7705999I-442129J153237D01*
G75*
G01*
X6346502Y7846527D02*
G03*
X6781800Y7581900I206698J-150328D01*
M02*
