G04 Layer: TopSilkscreenLayer*
G04 EasyEDA v6.5.22, 2023-02-04 20:07:11*
G04 918ed048709340b69971ac0d1e5c2f20,4bb84c5f6c124816bf94f4484d05adb3,10*
G04 Gerber Generator version 0.2*
G04 Scale: 100 percent, Rotated: No, Reflected: No *
G04 Dimensions in millimeters *
G04 leading zeros omitted , absolute positions ,4 integer and 5 decimal *
%FSLAX45Y45*%
%MOMM*%

%ADD10C,0.2032*%
%ADD11C,0.1524*%
%ADD12C,0.2540*%

%LPD*%
G36*
X1594815Y8753602D02*
G01*
X1588160Y8753398D01*
X1574952Y8752281D01*
X1568500Y8751417D01*
X1562100Y8750300D01*
X1557020Y8749131D01*
X1545793Y8745728D01*
X1533550Y8741054D01*
X1520952Y8735415D01*
X1508506Y8729116D01*
X1496923Y8722512D01*
X1486712Y8715806D01*
X1482344Y8712555D01*
X1478534Y8709406D01*
X1475384Y8706408D01*
X1463802Y8694318D01*
X1485290Y8674100D01*
X1509014Y8691168D01*
X1519123Y8697417D01*
X1524304Y8700312D01*
X1534871Y8705392D01*
X1545742Y8709710D01*
X1556766Y8713266D01*
X1567992Y8716010D01*
X1579372Y8717940D01*
X1590802Y8719159D01*
X1602282Y8719515D01*
X1613763Y8719159D01*
X1625193Y8717940D01*
X1636572Y8716010D01*
X1647748Y8713266D01*
X1658823Y8709710D01*
X1669643Y8705392D01*
X1680260Y8700312D01*
X1690522Y8694420D01*
X1700479Y8687714D01*
X1719275Y8674100D01*
X1740763Y8694318D01*
X1725320Y8710218D01*
X1721205Y8713927D01*
X1712112Y8720836D01*
X1707235Y8724087D01*
X1696770Y8730132D01*
X1685543Y8735568D01*
X1679702Y8738057D01*
X1667510Y8742476D01*
X1654860Y8746236D01*
X1641805Y8749233D01*
X1628495Y8751468D01*
X1621790Y8752332D01*
X1608277Y8753398D01*
G37*
G36*
X1597812Y8686850D02*
G01*
X1591411Y8686647D01*
X1578864Y8685428D01*
X1572818Y8684412D01*
X1566976Y8683142D01*
X1561338Y8681567D01*
X1556004Y8679688D01*
X1550924Y8677503D01*
X1534363Y8669375D01*
X1528114Y8666022D01*
X1523187Y8663025D01*
X1519428Y8660333D01*
X1516786Y8657844D01*
X1515262Y8655456D01*
X1514703Y8653119D01*
X1515059Y8650732D01*
X1516227Y8648192D01*
X1518208Y8645448D01*
X1531010Y8631631D01*
X1556105Y8644331D01*
X1562404Y8647328D01*
X1568500Y8649919D01*
X1574444Y8652103D01*
X1580235Y8653830D01*
X1585874Y8655202D01*
X1591462Y8656218D01*
X1596898Y8656777D01*
X1602282Y8656980D01*
X1607667Y8656777D01*
X1613103Y8656218D01*
X1618691Y8655202D01*
X1624330Y8653830D01*
X1630121Y8652103D01*
X1636064Y8649919D01*
X1642160Y8647328D01*
X1648460Y8644331D01*
X1673555Y8631631D01*
X1683664Y8642451D01*
X1686001Y8645347D01*
X1687525Y8648192D01*
X1688338Y8651036D01*
X1688439Y8653881D01*
X1687880Y8656624D01*
X1686712Y8659317D01*
X1684883Y8661908D01*
X1682546Y8664498D01*
X1679651Y8666937D01*
X1676298Y8669324D01*
X1672488Y8671560D01*
X1663598Y8675725D01*
X1653336Y8679332D01*
X1642008Y8682329D01*
X1629816Y8684615D01*
X1617167Y8686190D01*
X1604264Y8686850D01*
G37*
G36*
X1601673Y8628634D02*
G01*
X1596390Y8628075D01*
X1591056Y8626856D01*
X1585671Y8625027D01*
X1580286Y8622538D01*
X1575155Y8619642D01*
X1570532Y8616594D01*
X1566316Y8613241D01*
X1562557Y8609685D01*
X1559153Y8605824D01*
X1556207Y8601659D01*
X1553616Y8597138D01*
X1551381Y8592312D01*
X1549501Y8587079D01*
X1547977Y8581390D01*
X1546707Y8575294D01*
X1545742Y8568740D01*
X1542999Y8545372D01*
X1459382Y8545322D01*
X1451000Y8544864D01*
X1443634Y8543899D01*
X1437081Y8542324D01*
X1431290Y8539937D01*
X1426057Y8536584D01*
X1423619Y8534501D01*
X1421282Y8532164D01*
X1418996Y8529472D01*
X1414627Y8523071D01*
X1410309Y8515146D01*
X1405890Y8505596D01*
X1401318Y8494217D01*
X1396339Y8480907D01*
X1362152Y8381136D01*
X1410309Y8381136D01*
X1410970Y8384590D01*
X1415846Y8401710D01*
X1424178Y8428278D01*
X1448003Y8500719D01*
X1756562Y8500719D01*
X1782724Y8421014D01*
X1790293Y8396376D01*
X1794256Y8381136D01*
X1793697Y8380374D01*
X1792020Y8379714D01*
X1789125Y8379104D01*
X1779371Y8378037D01*
X1763725Y8377224D01*
X1741474Y8376564D01*
X1674672Y8375853D01*
X1563522Y8375751D01*
X1484477Y8376208D01*
X1456842Y8376716D01*
X1436370Y8377377D01*
X1422247Y8378291D01*
X1417370Y8378799D01*
X1413814Y8379409D01*
X1411528Y8380018D01*
X1410462Y8380730D01*
X1410309Y8381136D01*
X1362152Y8381136D01*
X1352296Y8352231D01*
X1352296Y8279282D01*
X1408226Y8279282D01*
X1408430Y8283956D01*
X1409192Y8288832D01*
X1410563Y8293811D01*
X1412494Y8298637D01*
X1415084Y8303006D01*
X1418183Y8306917D01*
X1421790Y8310422D01*
X1425752Y8313420D01*
X1430070Y8315909D01*
X1434693Y8317941D01*
X1439468Y8319414D01*
X1444447Y8320379D01*
X1449476Y8320735D01*
X1454505Y8320582D01*
X1459534Y8319820D01*
X1464411Y8318449D01*
X1469136Y8316468D01*
X1473606Y8313826D01*
X1477721Y8310575D01*
X1481785Y8306003D01*
X1485036Y8300466D01*
X1487322Y8294268D01*
X1488744Y8287613D01*
X1489002Y8283752D01*
X1714652Y8283752D01*
X1715007Y8288121D01*
X1715871Y8292338D01*
X1717090Y8296402D01*
X1718767Y8300212D01*
X1720799Y8303768D01*
X1723237Y8307070D01*
X1725980Y8310118D01*
X1729028Y8312861D01*
X1732330Y8315198D01*
X1735937Y8317230D01*
X1739798Y8318906D01*
X1743811Y8320125D01*
X1748078Y8320938D01*
X1752498Y8321294D01*
X1757019Y8321192D01*
X1761743Y8320582D01*
X1766468Y8319465D01*
X1771345Y8317788D01*
X1776222Y8315553D01*
X1781708Y8311845D01*
X1786483Y8306968D01*
X1790496Y8301177D01*
X1793595Y8294776D01*
X1795678Y8287969D01*
X1796694Y8281060D01*
X1796440Y8274354D01*
X1794865Y8268106D01*
X1792681Y8263178D01*
X1790039Y8258708D01*
X1787042Y8254695D01*
X1783638Y8251139D01*
X1779981Y8248040D01*
X1776069Y8245398D01*
X1771904Y8243214D01*
X1767636Y8241538D01*
X1763217Y8240318D01*
X1758746Y8239607D01*
X1754225Y8239353D01*
X1749755Y8239607D01*
X1745386Y8240369D01*
X1741068Y8241639D01*
X1736953Y8243366D01*
X1733042Y8245652D01*
X1729384Y8248497D01*
X1726031Y8251799D01*
X1722983Y8255660D01*
X1720392Y8260080D01*
X1718106Y8264956D01*
X1716481Y8269782D01*
X1715312Y8274507D01*
X1714754Y8279180D01*
X1714652Y8283752D01*
X1489002Y8283752D01*
X1489202Y8280755D01*
X1488694Y8273796D01*
X1487170Y8267090D01*
X1484579Y8260842D01*
X1481988Y8256371D01*
X1479042Y8252459D01*
X1475892Y8249107D01*
X1472488Y8246262D01*
X1468882Y8243925D01*
X1465072Y8242046D01*
X1461160Y8240674D01*
X1457198Y8239759D01*
X1453134Y8239302D01*
X1449019Y8239252D01*
X1444955Y8239607D01*
X1440942Y8240369D01*
X1436979Y8241487D01*
X1433118Y8243011D01*
X1429461Y8244840D01*
X1425905Y8247024D01*
X1422654Y8249564D01*
X1419606Y8252358D01*
X1416812Y8255457D01*
X1414373Y8258860D01*
X1412290Y8262467D01*
X1410614Y8266328D01*
X1409344Y8270443D01*
X1408531Y8274761D01*
X1408226Y8279282D01*
X1352296Y8279282D01*
X1352346Y8181695D01*
X1352550Y8161985D01*
X1353058Y8145729D01*
X1353870Y8132470D01*
X1355242Y8122005D01*
X1356106Y8117738D01*
X1357122Y8113979D01*
X1358341Y8110778D01*
X1359712Y8108086D01*
X1361287Y8105800D01*
X1363116Y8103971D01*
X1365097Y8102447D01*
X1367383Y8101279D01*
X1369872Y8100415D01*
X1372616Y8099755D01*
X1378966Y8099094D01*
X1395374Y8098942D01*
X1401927Y8099196D01*
X1407972Y8100009D01*
X1413459Y8101380D01*
X1418386Y8103311D01*
X1422755Y8105749D01*
X1426514Y8108696D01*
X1429766Y8112201D01*
X1432407Y8116214D01*
X1434439Y8120735D01*
X1435912Y8125815D01*
X1436827Y8131403D01*
X1437081Y8137499D01*
X1437081Y8152485D01*
X1767433Y8152485D01*
X1767433Y8137499D01*
X1767738Y8131403D01*
X1768652Y8125815D01*
X1770125Y8120735D01*
X1772157Y8116214D01*
X1774799Y8112201D01*
X1778000Y8108696D01*
X1781810Y8105749D01*
X1786178Y8103311D01*
X1791106Y8101380D01*
X1796542Y8100009D01*
X1802587Y8099196D01*
X1809191Y8098942D01*
X1825599Y8099094D01*
X1831949Y8099755D01*
X1834692Y8100415D01*
X1837182Y8101279D01*
X1839468Y8102447D01*
X1841449Y8103971D01*
X1843227Y8105800D01*
X1844852Y8108086D01*
X1846224Y8110778D01*
X1847443Y8113979D01*
X1848459Y8117738D01*
X1850085Y8126933D01*
X1851152Y8138718D01*
X1851812Y8153450D01*
X1852168Y8171383D01*
X1852269Y8352231D01*
X1819706Y8447684D01*
X1808175Y8480907D01*
X1803247Y8494217D01*
X1798675Y8505596D01*
X1794256Y8515146D01*
X1789938Y8523071D01*
X1785518Y8529472D01*
X1783283Y8532164D01*
X1778457Y8536584D01*
X1773275Y8539937D01*
X1767433Y8542324D01*
X1760931Y8543899D01*
X1753565Y8544864D01*
X1745132Y8545322D01*
X1661566Y8545372D01*
X1658823Y8568232D01*
X1657756Y8575192D01*
X1656232Y8581796D01*
X1654302Y8588044D01*
X1651965Y8593886D01*
X1649222Y8599322D01*
X1646174Y8604402D01*
X1642770Y8609025D01*
X1639112Y8613190D01*
X1635099Y8616950D01*
X1630883Y8620201D01*
X1626463Y8622944D01*
X1621790Y8625179D01*
X1616964Y8626856D01*
X1611985Y8628024D01*
X1606905Y8628634D01*
G37*
G36*
X4146804Y8528304D02*
G01*
X4146804Y8305800D01*
X4169410Y8305800D01*
X4169410Y8416036D01*
X4175150Y8421776D01*
X4180535Y8426754D01*
X4185767Y8430971D01*
X4190847Y8434476D01*
X4195978Y8437168D01*
X4201210Y8439099D01*
X4206595Y8440267D01*
X4212336Y8440674D01*
X4217365Y8440420D01*
X4221886Y8439607D01*
X4225899Y8438235D01*
X4229455Y8436305D01*
X4232554Y8433765D01*
X4235246Y8430666D01*
X4237431Y8426958D01*
X4239209Y8422589D01*
X4240580Y8417610D01*
X4241546Y8412022D01*
X4242104Y8405723D01*
X4242308Y8398764D01*
X4242308Y8305800D01*
X4265168Y8305800D01*
X4265168Y8401558D01*
X4265015Y8408568D01*
X4264507Y8415172D01*
X4263644Y8421319D01*
X4262424Y8427059D01*
X4260850Y8432342D01*
X4258919Y8437168D01*
X4256633Y8441537D01*
X4253992Y8445500D01*
X4250994Y8449005D01*
X4247591Y8452002D01*
X4243832Y8454593D01*
X4239666Y8456726D01*
X4235145Y8458352D01*
X4230217Y8459520D01*
X4224883Y8460232D01*
X4219194Y8460486D01*
X4211624Y8459978D01*
X4204563Y8458454D01*
X4197858Y8456066D01*
X4191558Y8452916D01*
X4185513Y8449106D01*
X4179722Y8444738D01*
X4174134Y8439962D01*
X4168648Y8434832D01*
X4169410Y8466328D01*
X4169410Y8528304D01*
G37*
G36*
X5240020Y8528304D02*
G01*
X5240020Y8305800D01*
X5262626Y8305800D01*
X5262626Y8416036D01*
X5268366Y8421776D01*
X5273751Y8426754D01*
X5278983Y8430971D01*
X5284114Y8434476D01*
X5289245Y8437168D01*
X5294528Y8439099D01*
X5300014Y8440267D01*
X5305806Y8440674D01*
X5310784Y8440420D01*
X5315254Y8439607D01*
X5319217Y8438235D01*
X5322773Y8436305D01*
X5325821Y8433765D01*
X5328462Y8430666D01*
X5330698Y8426958D01*
X5332425Y8422589D01*
X5333796Y8417610D01*
X5334762Y8412022D01*
X5335320Y8405723D01*
X5335524Y8398764D01*
X5335524Y8305800D01*
X5358638Y8305800D01*
X5358638Y8401558D01*
X5358485Y8408568D01*
X5357926Y8415172D01*
X5357063Y8421319D01*
X5355844Y8427059D01*
X5354269Y8432342D01*
X5352338Y8437168D01*
X5350002Y8441537D01*
X5347360Y8445500D01*
X5344312Y8449005D01*
X5340858Y8452002D01*
X5337098Y8454593D01*
X5332933Y8456726D01*
X5328361Y8458352D01*
X5323433Y8459520D01*
X5318099Y8460232D01*
X5312410Y8460486D01*
X5304942Y8459978D01*
X5297881Y8458454D01*
X5291175Y8456066D01*
X5284825Y8452916D01*
X5278780Y8449106D01*
X5272989Y8444738D01*
X5267350Y8439962D01*
X5261864Y8434832D01*
X5262626Y8466328D01*
X5262626Y8528304D01*
G37*
G36*
X6216904Y8528304D02*
G01*
X6216904Y8468868D01*
X6217920Y8442706D01*
X6212840Y8446668D01*
X6207861Y8450173D01*
X6202934Y8453221D01*
X6197854Y8455812D01*
X6192621Y8457793D01*
X6187084Y8459266D01*
X6181140Y8460181D01*
X6174740Y8460486D01*
X6169558Y8460232D01*
X6164427Y8459571D01*
X6159449Y8458454D01*
X6154521Y8456879D01*
X6149797Y8454948D01*
X6145174Y8452561D01*
X6140754Y8449767D01*
X6136538Y8446566D01*
X6132576Y8443010D01*
X6128816Y8439048D01*
X6125311Y8434730D01*
X6122111Y8430107D01*
X6119164Y8425078D01*
X6116574Y8419744D01*
X6114338Y8414105D01*
X6112459Y8408111D01*
X6110935Y8401812D01*
X6109868Y8395258D01*
X6109208Y8388400D01*
X6108954Y8381238D01*
X6132830Y8381238D01*
X6133084Y8387740D01*
X6133744Y8393938D01*
X6134811Y8399881D01*
X6136335Y8405520D01*
X6138214Y8410854D01*
X6140450Y8415782D01*
X6143040Y8420404D01*
X6145936Y8424570D01*
X6149136Y8428329D01*
X6152642Y8431682D01*
X6156401Y8434578D01*
X6160363Y8437016D01*
X6164580Y8438896D01*
X6168999Y8440318D01*
X6173571Y8441131D01*
X6178296Y8441436D01*
X6183172Y8441182D01*
X6187948Y8440470D01*
X6192723Y8439302D01*
X6197396Y8437524D01*
X6202121Y8435238D01*
X6206947Y8432342D01*
X6211824Y8428837D01*
X6216904Y8424672D01*
X6216904Y8342884D01*
X6211874Y8337905D01*
X6206845Y8333536D01*
X6201867Y8329879D01*
X6196838Y8326881D01*
X6191758Y8324545D01*
X6186627Y8322868D01*
X6181394Y8321903D01*
X6176010Y8321548D01*
X6170980Y8321802D01*
X6166205Y8322614D01*
X6161735Y8323884D01*
X6157569Y8325662D01*
X6153708Y8327898D01*
X6150203Y8330641D01*
X6146952Y8333841D01*
X6144056Y8337499D01*
X6141466Y8341563D01*
X6139180Y8346033D01*
X6137249Y8350961D01*
X6135674Y8356244D01*
X6134455Y8361934D01*
X6133541Y8368030D01*
X6133033Y8374481D01*
X6132830Y8381238D01*
X6108954Y8381238D01*
X6109157Y8373821D01*
X6109665Y8366759D01*
X6110579Y8360003D01*
X6111798Y8353602D01*
X6113373Y8347557D01*
X6115253Y8341868D01*
X6117437Y8336534D01*
X6119977Y8331606D01*
X6122771Y8326983D01*
X6125870Y8322767D01*
X6129274Y8318957D01*
X6132931Y8315502D01*
X6136843Y8312403D01*
X6141059Y8309762D01*
X6145479Y8307476D01*
X6150203Y8305596D01*
X6155080Y8304123D01*
X6160262Y8303107D01*
X6165596Y8302447D01*
X6171184Y8302244D01*
X6178042Y8302701D01*
X6184646Y8303920D01*
X6190996Y8305952D01*
X6197041Y8308594D01*
X6202781Y8311794D01*
X6208166Y8315553D01*
X6213246Y8319668D01*
X6217920Y8324088D01*
X6218682Y8324088D01*
X6220714Y8305800D01*
X6239510Y8305800D01*
X6239510Y8528304D01*
G37*
G36*
X4954524Y8527034D02*
G01*
X4868164Y8256016D01*
X4884928Y8256016D01*
X4971288Y8527034D01*
G37*
G36*
X5063998Y8527034D02*
G01*
X4977638Y8256016D01*
X4994402Y8256016D01*
X5080762Y8527034D01*
G37*
G36*
X3031236Y8520430D02*
G01*
X3024682Y8519312D01*
X3019602Y8516213D01*
X3016402Y8511336D01*
X3015234Y8504936D01*
X3016402Y8498382D01*
X3019602Y8493455D01*
X3024682Y8490305D01*
X3031236Y8489188D01*
X3037382Y8490305D01*
X3042310Y8493455D01*
X3045561Y8498382D01*
X3046730Y8504936D01*
X3045561Y8511336D01*
X3042310Y8516213D01*
X3037382Y8519312D01*
G37*
G36*
X2163572Y8514080D02*
G01*
X2158085Y8513927D01*
X2152700Y8513470D01*
X2147417Y8512708D01*
X2142286Y8511641D01*
X2137308Y8510320D01*
X2127707Y8506764D01*
X2118715Y8502091D01*
X2110435Y8496300D01*
X2106523Y8493048D01*
X2102815Y8489492D01*
X2099310Y8485682D01*
X2096007Y8481669D01*
X2089962Y8472830D01*
X2084832Y8463076D01*
X2082596Y8457793D01*
X2080615Y8452358D01*
X2078888Y8446668D01*
X2076145Y8434679D01*
X2075180Y8428329D01*
X2074468Y8421827D01*
X2074062Y8415070D01*
X2073910Y8408162D01*
X2074062Y8401151D01*
X2074468Y8394344D01*
X2075180Y8387791D01*
X2076145Y8381441D01*
X2077364Y8375294D01*
X2078837Y8369350D01*
X2080514Y8363661D01*
X2082495Y8358174D01*
X2084679Y8352942D01*
X2087118Y8347913D01*
X2089759Y8343188D01*
X2092604Y8338667D01*
X2095652Y8334349D01*
X2098903Y8330336D01*
X2102358Y8326577D01*
X2105964Y8323072D01*
X2109825Y8319820D01*
X2113788Y8316823D01*
X2117953Y8314080D01*
X2122271Y8311642D01*
X2126742Y8309457D01*
X2131364Y8307578D01*
X2136140Y8305952D01*
X2141016Y8304631D01*
X2146046Y8303615D01*
X2151176Y8302853D01*
X2156409Y8302396D01*
X2161794Y8302244D01*
X2168296Y8302447D01*
X2174595Y8303107D01*
X2180539Y8304225D01*
X2186279Y8305698D01*
X2191766Y8307578D01*
X2197049Y8309914D01*
X2202078Y8312556D01*
X2206904Y8315655D01*
X2211527Y8319058D01*
X2215946Y8322868D01*
X2220214Y8326983D01*
X2224278Y8331453D01*
X2211324Y8345931D01*
X2206193Y8340648D01*
X2200910Y8335975D01*
X2195372Y8331962D01*
X2189581Y8328609D01*
X2183485Y8326018D01*
X2177084Y8324088D01*
X2170277Y8322970D01*
X2163064Y8322564D01*
X2157120Y8322818D01*
X2151430Y8323529D01*
X2145944Y8324748D01*
X2140762Y8326424D01*
X2135784Y8328609D01*
X2131110Y8331200D01*
X2126691Y8334197D01*
X2122525Y8337651D01*
X2118715Y8341512D01*
X2115159Y8345779D01*
X2111908Y8350453D01*
X2108962Y8355533D01*
X2106371Y8360968D01*
X2104034Y8366759D01*
X2102104Y8372906D01*
X2100478Y8379409D01*
X2099208Y8386267D01*
X2098294Y8393430D01*
X2097735Y8400897D01*
X2097532Y8408670D01*
X2097735Y8416391D01*
X2098294Y8423808D01*
X2099259Y8430920D01*
X2100580Y8437676D01*
X2102307Y8444128D01*
X2104339Y8450173D01*
X2106676Y8455914D01*
X2109368Y8461248D01*
X2112416Y8466226D01*
X2115718Y8470798D01*
X2119325Y8475014D01*
X2123287Y8478774D01*
X2127453Y8482177D01*
X2131923Y8485124D01*
X2136648Y8487664D01*
X2141626Y8489746D01*
X2146808Y8491372D01*
X2152294Y8492540D01*
X2157933Y8493252D01*
X2163826Y8493506D01*
X2170328Y8493150D01*
X2176475Y8492083D01*
X2182317Y8490407D01*
X2187803Y8488121D01*
X2192934Y8485276D01*
X2197709Y8481923D01*
X2202180Y8478164D01*
X2206244Y8473948D01*
X2219198Y8489188D01*
X2212746Y8495436D01*
X2209088Y8498433D01*
X2205126Y8501278D01*
X2200859Y8503970D01*
X2196338Y8506409D01*
X2191512Y8508593D01*
X2186482Y8510473D01*
X2181098Y8511997D01*
X2175510Y8513114D01*
X2169668Y8513826D01*
G37*
G36*
X2630170Y8510270D02*
G01*
X2588607Y8388603D01*
X2610358Y8388603D01*
X2628239Y8444687D01*
X2635148Y8467445D01*
X2641854Y8490966D01*
X2643124Y8490966D01*
X2653284Y8456117D01*
X2674874Y8388603D01*
X2588607Y8388603D01*
X2560320Y8305800D01*
X2583434Y8305800D01*
X2604516Y8370316D01*
X2680716Y8370316D01*
X2701036Y8305800D01*
X2725674Y8305800D01*
X2655570Y8510270D01*
G37*
G36*
X3225800Y8499348D02*
G01*
X3223006Y8456676D01*
X3199384Y8455406D01*
X3199384Y8437880D01*
X3222244Y8437880D01*
X3222244Y8351266D01*
X3222447Y8344153D01*
X3223107Y8337499D01*
X3224276Y8331301D01*
X3226003Y8325561D01*
X3228289Y8320379D01*
X3231184Y8315807D01*
X3234740Y8311794D01*
X3239008Y8308441D01*
X3243986Y8305800D01*
X3249777Y8303869D01*
X3256432Y8302650D01*
X3263900Y8302244D01*
X3270402Y8302701D01*
X3277209Y8303971D01*
X3284067Y8305800D01*
X3290570Y8307831D01*
X3286251Y8325103D01*
X3282137Y8323478D01*
X3277565Y8322106D01*
X3272891Y8321141D01*
X3268472Y8320786D01*
X3262274Y8321294D01*
X3257194Y8322818D01*
X3253079Y8325307D01*
X3249879Y8328710D01*
X3247593Y8332978D01*
X3246018Y8338058D01*
X3245104Y8343900D01*
X3244850Y8350503D01*
X3244850Y8437880D01*
X3286506Y8437880D01*
X3286506Y8456676D01*
X3244850Y8456676D01*
X3244850Y8499348D01*
G37*
G36*
X3647440Y8499348D02*
G01*
X3644646Y8456676D01*
X3621024Y8455406D01*
X3621024Y8437880D01*
X3643884Y8437880D01*
X3643884Y8351266D01*
X3644087Y8344153D01*
X3644747Y8337499D01*
X3645915Y8331301D01*
X3647643Y8325561D01*
X3649929Y8320379D01*
X3652824Y8315807D01*
X3656380Y8311794D01*
X3660648Y8308441D01*
X3665626Y8305800D01*
X3671417Y8303869D01*
X3678072Y8302650D01*
X3685540Y8302244D01*
X3692042Y8302701D01*
X3698900Y8303971D01*
X3705707Y8305800D01*
X3712210Y8307831D01*
X3707892Y8325103D01*
X3703777Y8323478D01*
X3699205Y8322106D01*
X3694531Y8321141D01*
X3690112Y8320786D01*
X3683914Y8321294D01*
X3678834Y8322818D01*
X3674719Y8325307D01*
X3671519Y8328710D01*
X3669233Y8332978D01*
X3667658Y8338058D01*
X3666744Y8343900D01*
X3666490Y8350503D01*
X3666490Y8437880D01*
X3708146Y8437880D01*
X3708146Y8456676D01*
X3666490Y8456676D01*
X3666490Y8499348D01*
G37*
G36*
X4322826Y8499348D02*
G01*
X4320032Y8456676D01*
X4296156Y8455406D01*
X4296156Y8437880D01*
X4319270Y8437880D01*
X4319270Y8351266D01*
X4319473Y8344153D01*
X4320133Y8337499D01*
X4321302Y8331301D01*
X4323029Y8325561D01*
X4325264Y8320379D01*
X4328160Y8315807D01*
X4331716Y8311794D01*
X4335932Y8308441D01*
X4340910Y8305800D01*
X4346651Y8303869D01*
X4353255Y8302650D01*
X4360672Y8302244D01*
X4367225Y8302701D01*
X4374134Y8303971D01*
X4381042Y8305800D01*
X4387596Y8307831D01*
X4383024Y8325103D01*
X4379010Y8323478D01*
X4374540Y8322106D01*
X4369917Y8321141D01*
X4365498Y8320786D01*
X4359300Y8321294D01*
X4354220Y8322818D01*
X4350105Y8325307D01*
X4346905Y8328710D01*
X4344619Y8332978D01*
X4343044Y8338058D01*
X4342130Y8343900D01*
X4341876Y8350503D01*
X4341876Y8437880D01*
X4383532Y8437880D01*
X4383532Y8456676D01*
X4341876Y8456676D01*
X4341876Y8499348D01*
G37*
G36*
X4419854Y8499348D02*
G01*
X4417060Y8456676D01*
X4393184Y8455406D01*
X4393184Y8437880D01*
X4416044Y8437880D01*
X4416044Y8351266D01*
X4416247Y8344153D01*
X4416958Y8337499D01*
X4418126Y8331301D01*
X4419854Y8325561D01*
X4422140Y8320379D01*
X4425086Y8315807D01*
X4428642Y8311794D01*
X4432909Y8308441D01*
X4437888Y8305800D01*
X4443679Y8303869D01*
X4450283Y8302650D01*
X4457700Y8302244D01*
X4464253Y8302701D01*
X4471162Y8303971D01*
X4478070Y8305800D01*
X4484624Y8307831D01*
X4480052Y8325103D01*
X4475937Y8323478D01*
X4471466Y8322106D01*
X4466894Y8321141D01*
X4462526Y8320786D01*
X4456226Y8321294D01*
X4451096Y8322818D01*
X4446930Y8325307D01*
X4443730Y8328710D01*
X4441393Y8332978D01*
X4439818Y8338058D01*
X4438904Y8343900D01*
X4438650Y8350503D01*
X4438650Y8437880D01*
X4480306Y8437880D01*
X4480306Y8456676D01*
X4438650Y8456676D01*
X4438650Y8499348D01*
G37*
G36*
X2316480Y8460486D02*
G01*
X2310434Y8460282D01*
X2304542Y8459622D01*
X2298852Y8458606D01*
X2293315Y8457285D01*
X2287981Y8455660D01*
X2282850Y8453831D01*
X2273350Y8449665D01*
X2264968Y8445144D01*
X2257806Y8440674D01*
X2266950Y8424926D01*
X2271471Y8427974D01*
X2276398Y8430971D01*
X2281682Y8433816D01*
X2287320Y8436356D01*
X2293315Y8438540D01*
X2299512Y8440216D01*
X2306015Y8441283D01*
X2312670Y8441690D01*
X2318816Y8441283D01*
X2324150Y8440115D01*
X2328773Y8438184D01*
X2332736Y8435644D01*
X2335987Y8432596D01*
X2338679Y8428990D01*
X2340864Y8424976D01*
X2342489Y8420608D01*
X2343658Y8415985D01*
X2344420Y8411108D01*
X2344826Y8406130D01*
X2344928Y8401050D01*
X2335479Y8399932D01*
X2318156Y8397189D01*
X2302967Y8393887D01*
X2296109Y8391956D01*
X2289810Y8389874D01*
X2283968Y8387638D01*
X2278634Y8385200D01*
X2273757Y8382558D01*
X2269439Y8379764D01*
X2265527Y8376716D01*
X2262124Y8373516D01*
X2259228Y8370062D01*
X2256739Y8366404D01*
X2254707Y8362543D01*
X2253183Y8358428D01*
X2252065Y8354059D01*
X2251405Y8349488D01*
X2251255Y8345931D01*
X2273300Y8345931D01*
X2273503Y8349742D01*
X2274214Y8353348D01*
X2275332Y8356803D01*
X2277008Y8360054D01*
X2279192Y8363153D01*
X2281885Y8366048D01*
X2285187Y8368741D01*
X2289098Y8371281D01*
X2293620Y8373668D01*
X2298801Y8375903D01*
X2304694Y8377936D01*
X2311247Y8379815D01*
X2318512Y8381542D01*
X2326538Y8383117D01*
X2335326Y8384540D01*
X2344928Y8385809D01*
X2344928Y8341614D01*
X2339238Y8336788D01*
X2333752Y8332520D01*
X2328367Y8328914D01*
X2323084Y8325916D01*
X2317800Y8323580D01*
X2312416Y8321903D01*
X2306929Y8320887D01*
X2301240Y8320531D01*
X2295652Y8320887D01*
X2290470Y8321954D01*
X2285695Y8323834D01*
X2281529Y8326475D01*
X2278126Y8329980D01*
X2275535Y8334349D01*
X2273858Y8339683D01*
X2273300Y8345931D01*
X2251255Y8345931D01*
X2251608Y8338058D01*
X2252726Y8332012D01*
X2254554Y8326475D01*
X2257044Y8321497D01*
X2260193Y8317026D01*
X2263851Y8313166D01*
X2268016Y8309864D01*
X2272690Y8307120D01*
X2277770Y8305038D01*
X2283256Y8303463D01*
X2289048Y8302548D01*
X2295144Y8302244D01*
X2302205Y8302701D01*
X2309063Y8303971D01*
X2315768Y8305952D01*
X2322271Y8308644D01*
X2328519Y8311896D01*
X2334564Y8315655D01*
X2340406Y8319820D01*
X2345944Y8324342D01*
X2346960Y8324342D01*
X2348738Y8305800D01*
X2367534Y8305800D01*
X2367534Y8399272D01*
X2367381Y8405926D01*
X2366822Y8412327D01*
X2365959Y8418423D01*
X2364689Y8424164D01*
X2363063Y8429548D01*
X2361031Y8434578D01*
X2358593Y8439251D01*
X2355697Y8443518D01*
X2352446Y8447328D01*
X2348687Y8450681D01*
X2344521Y8453628D01*
X2339898Y8456015D01*
X2334768Y8457946D01*
X2329180Y8459368D01*
X2323084Y8460181D01*
G37*
G36*
X2481580Y8460486D02*
G01*
X2475280Y8459927D01*
X2469184Y8458250D01*
X2463292Y8455558D01*
X2457653Y8451900D01*
X2452370Y8447328D01*
X2447493Y8441944D01*
X2442972Y8435797D01*
X2438908Y8428990D01*
X2437892Y8428990D01*
X2435606Y8456676D01*
X2417318Y8456676D01*
X2417318Y8305800D01*
X2439924Y8305800D01*
X2439924Y8404098D01*
X2444038Y8413242D01*
X2448560Y8420862D01*
X2453386Y8427059D01*
X2458415Y8431885D01*
X2463546Y8435543D01*
X2468727Y8438032D01*
X2473807Y8439454D01*
X2478786Y8439912D01*
X2482748Y8439759D01*
X2486202Y8439302D01*
X2489454Y8438540D01*
X2493010Y8437372D01*
X2497328Y8457184D01*
X2493721Y8458758D01*
X2490012Y8459774D01*
X2486050Y8460333D01*
G37*
G36*
X2803144Y8460486D02*
G01*
X2795270Y8460130D01*
X2787954Y8459012D01*
X2781300Y8457234D01*
X2775254Y8454796D01*
X2769920Y8451799D01*
X2765196Y8448243D01*
X2761183Y8444230D01*
X2757881Y8439759D01*
X2755239Y8434882D01*
X2753360Y8429650D01*
X2752242Y8424113D01*
X2751836Y8418322D01*
X2752293Y8412226D01*
X2753664Y8406739D01*
X2755798Y8401812D01*
X2758643Y8397392D01*
X2762097Y8393480D01*
X2766110Y8389924D01*
X2770530Y8386775D01*
X2775356Y8383930D01*
X2780436Y8381390D01*
X2791104Y8376920D01*
X2802940Y8372449D01*
X2809189Y8369858D01*
X2815132Y8366963D01*
X2820466Y8363762D01*
X2824988Y8360054D01*
X2828493Y8355787D01*
X2830779Y8350859D01*
X2831592Y8345170D01*
X2831084Y8340090D01*
X2829661Y8335365D01*
X2827223Y8331098D01*
X2823768Y8327339D01*
X2819400Y8324291D01*
X2814015Y8322005D01*
X2807665Y8320531D01*
X2800350Y8320024D01*
X2793441Y8320379D01*
X2787040Y8321395D01*
X2780995Y8323021D01*
X2775356Y8325154D01*
X2769920Y8327847D01*
X2764790Y8330946D01*
X2759760Y8334451D01*
X2754884Y8338312D01*
X2743454Y8322818D01*
X2749042Y8318601D01*
X2755188Y8314690D01*
X2761792Y8311184D01*
X2768752Y8308136D01*
X2776067Y8305647D01*
X2783687Y8303818D01*
X2791561Y8302650D01*
X2799588Y8302244D01*
X2807970Y8302650D01*
X2815640Y8303818D01*
X2822702Y8305749D01*
X2829001Y8308340D01*
X2834640Y8311540D01*
X2839567Y8315248D01*
X2843733Y8319516D01*
X2847187Y8324189D01*
X2849930Y8329269D01*
X2851861Y8334654D01*
X2853029Y8340293D01*
X2853436Y8346186D01*
X2852928Y8352993D01*
X2851505Y8359089D01*
X2849219Y8364423D01*
X2846222Y8369096D01*
X2842564Y8373262D01*
X2838348Y8376920D01*
X2833674Y8380171D01*
X2828645Y8383016D01*
X2817825Y8387994D01*
X2794254Y8397087D01*
X2788666Y8399678D01*
X2783687Y8402574D01*
X2779572Y8405926D01*
X2776423Y8409787D01*
X2774391Y8414308D01*
X2773680Y8419592D01*
X2774137Y8424062D01*
X2775458Y8428329D01*
X2777693Y8432190D01*
X2780893Y8435594D01*
X2785008Y8438438D01*
X2790088Y8440572D01*
X2796133Y8441994D01*
X2803144Y8442452D01*
X2808173Y8442198D01*
X2812897Y8441436D01*
X2817418Y8440216D01*
X2821736Y8438591D01*
X2825902Y8436610D01*
X2829915Y8434324D01*
X2837688Y8428990D01*
X2848864Y8443722D01*
X2844342Y8447125D01*
X2839415Y8450326D01*
X2834132Y8453170D01*
X2828493Y8455609D01*
X2822498Y8457641D01*
X2816301Y8459165D01*
X2809798Y8460130D01*
G37*
G36*
X2932430Y8460486D02*
G01*
X2924556Y8460130D01*
X2917240Y8459012D01*
X2910586Y8457234D01*
X2904540Y8454796D01*
X2899206Y8451799D01*
X2894482Y8448243D01*
X2890469Y8444230D01*
X2887167Y8439759D01*
X2884525Y8434882D01*
X2882646Y8429650D01*
X2881528Y8424113D01*
X2881122Y8418322D01*
X2881579Y8412226D01*
X2882950Y8406739D01*
X2885084Y8401812D01*
X2887929Y8397392D01*
X2891383Y8393480D01*
X2895396Y8389924D01*
X2899816Y8386775D01*
X2904642Y8383930D01*
X2909722Y8381390D01*
X2920390Y8376920D01*
X2932226Y8372449D01*
X2938475Y8369858D01*
X2944418Y8366963D01*
X2949752Y8363762D01*
X2954274Y8360054D01*
X2957779Y8355787D01*
X2960065Y8350859D01*
X2960878Y8345170D01*
X2960420Y8340090D01*
X2958947Y8335365D01*
X2956560Y8331098D01*
X2953156Y8327339D01*
X2948787Y8324291D01*
X2943402Y8322005D01*
X2937052Y8320531D01*
X2929636Y8320024D01*
X2922778Y8320379D01*
X2916377Y8321395D01*
X2910382Y8323021D01*
X2904693Y8325154D01*
X2899359Y8327847D01*
X2894177Y8330946D01*
X2889148Y8334451D01*
X2884170Y8338312D01*
X2872740Y8322818D01*
X2878328Y8318601D01*
X2884474Y8314690D01*
X2891078Y8311184D01*
X2898038Y8308136D01*
X2905353Y8305647D01*
X2912973Y8303818D01*
X2920847Y8302650D01*
X2928874Y8302244D01*
X2937256Y8302650D01*
X2944926Y8303818D01*
X2951988Y8305749D01*
X2958287Y8308340D01*
X2963926Y8311540D01*
X2968853Y8315248D01*
X2973019Y8319516D01*
X2976473Y8324189D01*
X2979216Y8329269D01*
X2981147Y8334654D01*
X2982315Y8340293D01*
X2982722Y8346186D01*
X2982214Y8352993D01*
X2980791Y8359089D01*
X2978556Y8364423D01*
X2975508Y8369096D01*
X2971850Y8373262D01*
X2967685Y8376920D01*
X2963011Y8380171D01*
X2957982Y8383016D01*
X2947263Y8387994D01*
X2936240Y8392414D01*
X2923692Y8397087D01*
X2918104Y8399678D01*
X2913176Y8402574D01*
X2909062Y8405926D01*
X2905912Y8409787D01*
X2903931Y8414308D01*
X2903220Y8419592D01*
X2903677Y8424062D01*
X2904947Y8428329D01*
X2907182Y8432190D01*
X2910281Y8435594D01*
X2914345Y8438438D01*
X2919425Y8440572D01*
X2925419Y8441994D01*
X2932430Y8442452D01*
X2937459Y8442198D01*
X2942183Y8441436D01*
X2946704Y8440216D01*
X2951073Y8438591D01*
X2955239Y8436610D01*
X2959303Y8434324D01*
X2967228Y8428990D01*
X2978404Y8443722D01*
X2973882Y8447125D01*
X2968955Y8450326D01*
X2963672Y8453170D01*
X2957982Y8455609D01*
X2951988Y8457641D01*
X2945739Y8459165D01*
X2939186Y8460130D01*
G37*
G36*
X3136900Y8460486D02*
G01*
X3129076Y8460130D01*
X3121812Y8459012D01*
X3115157Y8457234D01*
X3109163Y8454796D01*
X3103778Y8451799D01*
X3099054Y8448243D01*
X3094990Y8444230D01*
X3091688Y8439759D01*
X3089046Y8434882D01*
X3087116Y8429650D01*
X3085998Y8424113D01*
X3085592Y8418322D01*
X3086049Y8412226D01*
X3087420Y8406739D01*
X3089554Y8401812D01*
X3092399Y8397392D01*
X3095853Y8393480D01*
X3099866Y8389924D01*
X3104286Y8386775D01*
X3109112Y8383930D01*
X3114192Y8381390D01*
X3124860Y8376920D01*
X3136696Y8372449D01*
X3142996Y8369858D01*
X3148939Y8366963D01*
X3154324Y8363762D01*
X3158896Y8360054D01*
X3162503Y8355787D01*
X3164789Y8350859D01*
X3165602Y8345170D01*
X3165094Y8340090D01*
X3163620Y8335365D01*
X3161182Y8331098D01*
X3157778Y8327339D01*
X3153359Y8324291D01*
X3147923Y8322005D01*
X3141522Y8320531D01*
X3134106Y8320024D01*
X3127298Y8320379D01*
X3120948Y8321395D01*
X3114954Y8323021D01*
X3109264Y8325154D01*
X3103880Y8327847D01*
X3098647Y8330946D01*
X3093618Y8334451D01*
X3088640Y8338312D01*
X3077210Y8322818D01*
X3082798Y8318601D01*
X3088944Y8314690D01*
X3095548Y8311184D01*
X3102508Y8308136D01*
X3109823Y8305647D01*
X3117443Y8303818D01*
X3125317Y8302650D01*
X3133344Y8302244D01*
X3141776Y8302650D01*
X3149498Y8303818D01*
X3156559Y8305749D01*
X3162858Y8308340D01*
X3168497Y8311540D01*
X3173425Y8315248D01*
X3177590Y8319516D01*
X3181045Y8324189D01*
X3183686Y8329269D01*
X3185617Y8334654D01*
X3186785Y8340293D01*
X3187192Y8346186D01*
X3186684Y8352993D01*
X3185261Y8359089D01*
X3183026Y8364423D01*
X3180029Y8369096D01*
X3176422Y8373262D01*
X3172256Y8376920D01*
X3167583Y8380171D01*
X3162604Y8383016D01*
X3151835Y8387994D01*
X3128264Y8397087D01*
X3122676Y8399678D01*
X3117697Y8402574D01*
X3113582Y8405926D01*
X3110433Y8409787D01*
X3108401Y8414308D01*
X3107690Y8419592D01*
X3108147Y8424062D01*
X3109417Y8428329D01*
X3111652Y8432190D01*
X3114751Y8435594D01*
X3118815Y8438438D01*
X3123895Y8440572D01*
X3129889Y8441994D01*
X3136900Y8442452D01*
X3141929Y8442198D01*
X3146653Y8441436D01*
X3151174Y8440216D01*
X3155543Y8438591D01*
X3159709Y8436610D01*
X3163773Y8434324D01*
X3171698Y8428990D01*
X3182874Y8443722D01*
X3178352Y8447125D01*
X3173425Y8450326D01*
X3168142Y8453170D01*
X3162452Y8455609D01*
X3156458Y8457641D01*
X3150209Y8459165D01*
X3143656Y8460130D01*
G37*
G36*
X3369818Y8460486D02*
G01*
X3363772Y8460282D01*
X3357879Y8459622D01*
X3352190Y8458606D01*
X3346653Y8457285D01*
X3341319Y8455660D01*
X3336188Y8453831D01*
X3326688Y8449665D01*
X3318306Y8445144D01*
X3311144Y8440674D01*
X3320287Y8424926D01*
X3324809Y8427974D01*
X3329736Y8430971D01*
X3335020Y8433816D01*
X3340658Y8436356D01*
X3346653Y8438540D01*
X3352850Y8440216D01*
X3359353Y8441283D01*
X3366008Y8441690D01*
X3372154Y8441283D01*
X3377488Y8440115D01*
X3382111Y8438184D01*
X3386074Y8435644D01*
X3389325Y8432596D01*
X3392068Y8428990D01*
X3394201Y8424976D01*
X3395827Y8420608D01*
X3396996Y8415985D01*
X3397758Y8411108D01*
X3398164Y8406130D01*
X3398265Y8401050D01*
X3388817Y8399932D01*
X3371494Y8397189D01*
X3356305Y8393887D01*
X3349447Y8391956D01*
X3343148Y8389874D01*
X3337306Y8387638D01*
X3331972Y8385200D01*
X3327095Y8382558D01*
X3322777Y8379764D01*
X3318865Y8376716D01*
X3315462Y8373516D01*
X3312566Y8370062D01*
X3310077Y8366404D01*
X3308045Y8362543D01*
X3306521Y8358428D01*
X3305403Y8354059D01*
X3304743Y8349488D01*
X3304593Y8345931D01*
X3326637Y8345931D01*
X3326841Y8349742D01*
X3327552Y8353348D01*
X3328670Y8356803D01*
X3330346Y8360054D01*
X3332530Y8363153D01*
X3335223Y8366048D01*
X3338525Y8368741D01*
X3342436Y8371281D01*
X3346958Y8373668D01*
X3352139Y8375903D01*
X3358032Y8377936D01*
X3364585Y8379815D01*
X3371850Y8381542D01*
X3379876Y8383117D01*
X3388664Y8384540D01*
X3398265Y8385809D01*
X3398265Y8341614D01*
X3392576Y8336788D01*
X3387090Y8332520D01*
X3381705Y8328914D01*
X3376422Y8325916D01*
X3371138Y8323580D01*
X3365754Y8321903D01*
X3360267Y8320887D01*
X3354578Y8320531D01*
X3348990Y8320887D01*
X3343757Y8321954D01*
X3339033Y8323834D01*
X3334918Y8326475D01*
X3331464Y8329980D01*
X3328873Y8334349D01*
X3327196Y8339683D01*
X3326637Y8345931D01*
X3304593Y8345931D01*
X3304946Y8338058D01*
X3306064Y8332012D01*
X3307892Y8326475D01*
X3310382Y8321497D01*
X3313531Y8317026D01*
X3317189Y8313166D01*
X3321354Y8309864D01*
X3326028Y8307120D01*
X3331108Y8305038D01*
X3336594Y8303463D01*
X3342386Y8302548D01*
X3348482Y8302244D01*
X3355543Y8302701D01*
X3362401Y8303971D01*
X3369106Y8305952D01*
X3375609Y8308644D01*
X3381857Y8311896D01*
X3387902Y8315655D01*
X3393744Y8319820D01*
X3399282Y8324342D01*
X3400298Y8324342D01*
X3402076Y8305800D01*
X3420872Y8305800D01*
X3420872Y8399272D01*
X3420719Y8405926D01*
X3420160Y8412327D01*
X3419297Y8418423D01*
X3418027Y8424164D01*
X3416401Y8429548D01*
X3414369Y8434578D01*
X3411931Y8439251D01*
X3409086Y8443518D01*
X3405784Y8447328D01*
X3402025Y8450681D01*
X3397859Y8453628D01*
X3393236Y8456015D01*
X3388106Y8457946D01*
X3382518Y8459368D01*
X3376422Y8460181D01*
G37*
G36*
X3543046Y8460486D02*
G01*
X3535476Y8459978D01*
X3528364Y8458454D01*
X3521608Y8456015D01*
X3515258Y8452866D01*
X3509111Y8449005D01*
X3503269Y8444636D01*
X3497579Y8439759D01*
X3491992Y8434578D01*
X3491229Y8434578D01*
X3488944Y8456676D01*
X3470656Y8456676D01*
X3470656Y8305800D01*
X3493262Y8305800D01*
X3493262Y8416036D01*
X3498900Y8421776D01*
X3504285Y8426754D01*
X3509518Y8430971D01*
X3514648Y8434476D01*
X3519779Y8437168D01*
X3525012Y8439099D01*
X3530447Y8440267D01*
X3536187Y8440674D01*
X3541217Y8440420D01*
X3545738Y8439607D01*
X3549751Y8438235D01*
X3553307Y8436305D01*
X3556406Y8433765D01*
X3559098Y8430666D01*
X3561283Y8426958D01*
X3563061Y8422589D01*
X3564432Y8417610D01*
X3565398Y8412022D01*
X3565956Y8405723D01*
X3566160Y8398764D01*
X3566160Y8305800D01*
X3589020Y8305800D01*
X3589020Y8401558D01*
X3588867Y8408568D01*
X3588359Y8415172D01*
X3587496Y8421319D01*
X3586276Y8427059D01*
X3584701Y8432342D01*
X3582771Y8437168D01*
X3580485Y8441537D01*
X3577844Y8445500D01*
X3574846Y8449005D01*
X3571443Y8452002D01*
X3567684Y8454593D01*
X3563518Y8456726D01*
X3558997Y8458352D01*
X3554069Y8459520D01*
X3548735Y8460232D01*
G37*
G36*
X4585208Y8460486D02*
G01*
X4578604Y8460028D01*
X4572050Y8458708D01*
X4565650Y8456676D01*
X4559401Y8454034D01*
X4553305Y8450834D01*
X4547463Y8447176D01*
X4541824Y8443264D01*
X4536440Y8439150D01*
X4535678Y8439150D01*
X4533392Y8456676D01*
X4515104Y8456676D01*
X4515104Y8337803D01*
X4537710Y8337803D01*
X4537710Y8419592D01*
X4543348Y8424621D01*
X4548886Y8428990D01*
X4554270Y8432749D01*
X4559554Y8435848D01*
X4564735Y8438286D01*
X4569866Y8440013D01*
X4574895Y8441080D01*
X4579874Y8441436D01*
X4585309Y8441182D01*
X4590338Y8440318D01*
X4594961Y8438997D01*
X4599178Y8437168D01*
X4602988Y8434882D01*
X4606442Y8432088D01*
X4609490Y8428888D01*
X4612182Y8425230D01*
X4614519Y8421217D01*
X4616500Y8416798D01*
X4618126Y8412022D01*
X4619498Y8406942D01*
X4620514Y8401507D01*
X4621225Y8395766D01*
X4621631Y8389772D01*
X4621784Y8383524D01*
X4621580Y8376513D01*
X4620920Y8369858D01*
X4619853Y8363559D01*
X4618380Y8357666D01*
X4616500Y8352129D01*
X4614316Y8347049D01*
X4611725Y8342375D01*
X4608880Y8338159D01*
X4605680Y8334349D01*
X4602226Y8331047D01*
X4598466Y8328202D01*
X4594453Y8325815D01*
X4590237Y8323986D01*
X4585766Y8322614D01*
X4581144Y8321802D01*
X4576318Y8321548D01*
X4572254Y8321751D01*
X4567885Y8322360D01*
X4563262Y8323478D01*
X4558436Y8325103D01*
X4553407Y8327288D01*
X4548276Y8330133D01*
X4543044Y8333587D01*
X4537710Y8337803D01*
X4515104Y8337803D01*
X4515104Y8241030D01*
X4537710Y8241030D01*
X4537710Y8293353D01*
X4537202Y8319770D01*
X4542536Y8315807D01*
X4547870Y8312302D01*
X4553204Y8309305D01*
X4558487Y8306816D01*
X4563821Y8304834D01*
X4569104Y8303412D01*
X4574387Y8302548D01*
X4579620Y8302244D01*
X4584801Y8302447D01*
X4589932Y8303107D01*
X4594910Y8304225D01*
X4599838Y8305749D01*
X4604562Y8307679D01*
X4609185Y8310067D01*
X4613605Y8312861D01*
X4617821Y8316010D01*
X4621784Y8319617D01*
X4625543Y8323580D01*
X4629048Y8327948D01*
X4632248Y8332673D01*
X4635195Y8337803D01*
X4637786Y8343341D01*
X4640021Y8349183D01*
X4641900Y8355380D01*
X4643424Y8361984D01*
X4644491Y8368893D01*
X4645152Y8376158D01*
X4645406Y8383778D01*
X4645253Y8390585D01*
X4644796Y8397138D01*
X4643983Y8403488D01*
X4642916Y8409482D01*
X4641545Y8415274D01*
X4639868Y8420709D01*
X4637836Y8425891D01*
X4635550Y8430768D01*
X4632960Y8435289D01*
X4630064Y8439454D01*
X4626864Y8443315D01*
X4623409Y8446820D01*
X4619650Y8449919D01*
X4615586Y8452662D01*
X4611217Y8454999D01*
X4606594Y8456930D01*
X4601667Y8458454D01*
X4596485Y8459571D01*
X4590999Y8460282D01*
G37*
G36*
X4728972Y8460486D02*
G01*
X4721148Y8460130D01*
X4713884Y8459012D01*
X4707229Y8457234D01*
X4701235Y8454796D01*
X4695850Y8451799D01*
X4691126Y8448243D01*
X4687062Y8444230D01*
X4683760Y8439759D01*
X4681118Y8434882D01*
X4679188Y8429650D01*
X4678070Y8424113D01*
X4677664Y8418322D01*
X4678121Y8412226D01*
X4679492Y8406739D01*
X4681626Y8401812D01*
X4684471Y8397392D01*
X4687925Y8393480D01*
X4691938Y8389924D01*
X4696358Y8386775D01*
X4701184Y8383930D01*
X4706264Y8381390D01*
X4716932Y8376920D01*
X4728768Y8372449D01*
X4735017Y8369858D01*
X4740960Y8366963D01*
X4746294Y8363762D01*
X4750816Y8360054D01*
X4754321Y8355787D01*
X4756607Y8350859D01*
X4757420Y8345170D01*
X4756962Y8340090D01*
X4755489Y8335365D01*
X4753102Y8331098D01*
X4749698Y8327339D01*
X4745329Y8324291D01*
X4739944Y8322005D01*
X4733594Y8320531D01*
X4726178Y8320024D01*
X4719320Y8320379D01*
X4712919Y8321395D01*
X4706924Y8323021D01*
X4701235Y8325154D01*
X4695901Y8327847D01*
X4690719Y8330946D01*
X4685690Y8334451D01*
X4680712Y8338312D01*
X4669282Y8322818D01*
X4674870Y8318601D01*
X4681016Y8314690D01*
X4687620Y8311184D01*
X4694580Y8308136D01*
X4701895Y8305647D01*
X4709515Y8303818D01*
X4717389Y8302650D01*
X4725416Y8302244D01*
X4733798Y8302650D01*
X4741468Y8303818D01*
X4748530Y8305749D01*
X4754829Y8308340D01*
X4760468Y8311540D01*
X4765395Y8315248D01*
X4769561Y8319516D01*
X4773015Y8324189D01*
X4775758Y8329269D01*
X4777689Y8334654D01*
X4778857Y8340293D01*
X4779264Y8346186D01*
X4778756Y8352993D01*
X4777333Y8359089D01*
X4775047Y8364423D01*
X4772050Y8369096D01*
X4768392Y8373262D01*
X4764227Y8376920D01*
X4759553Y8380171D01*
X4754524Y8383016D01*
X4743805Y8387994D01*
X4732782Y8392414D01*
X4720234Y8397087D01*
X4714646Y8399678D01*
X4709718Y8402574D01*
X4705604Y8405926D01*
X4702454Y8409787D01*
X4700473Y8414308D01*
X4699762Y8419592D01*
X4700219Y8424062D01*
X4701489Y8428329D01*
X4703724Y8432190D01*
X4706823Y8435594D01*
X4710887Y8438438D01*
X4715967Y8440572D01*
X4721961Y8441994D01*
X4728972Y8442452D01*
X4734001Y8442198D01*
X4738725Y8441436D01*
X4743246Y8440216D01*
X4747615Y8438591D01*
X4751781Y8436610D01*
X4755845Y8434324D01*
X4763770Y8428990D01*
X4774946Y8443722D01*
X4770424Y8447125D01*
X4765497Y8450326D01*
X4760214Y8453170D01*
X4754524Y8455609D01*
X4748530Y8457641D01*
X4742281Y8459165D01*
X4735728Y8460130D01*
G37*
G36*
X5152898Y8460486D02*
G01*
X5145024Y8460130D01*
X5137708Y8459012D01*
X5131054Y8457234D01*
X5125008Y8454796D01*
X5119674Y8451799D01*
X5114950Y8448243D01*
X5110937Y8444230D01*
X5107635Y8439759D01*
X5104993Y8434882D01*
X5103114Y8429650D01*
X5101996Y8424113D01*
X5101590Y8418322D01*
X5102047Y8412226D01*
X5103418Y8406739D01*
X5105552Y8401812D01*
X5108397Y8397392D01*
X5111851Y8393480D01*
X5115864Y8389924D01*
X5120284Y8386775D01*
X5125110Y8383930D01*
X5130190Y8381390D01*
X5140858Y8376920D01*
X5152694Y8372449D01*
X5158943Y8369858D01*
X5164886Y8366963D01*
X5170220Y8363762D01*
X5174742Y8360054D01*
X5178247Y8355787D01*
X5180533Y8350859D01*
X5181346Y8345170D01*
X5180838Y8340090D01*
X5179415Y8335365D01*
X5176977Y8331098D01*
X5173522Y8327339D01*
X5169154Y8324291D01*
X5163769Y8322005D01*
X5157419Y8320531D01*
X5150104Y8320024D01*
X5143195Y8320379D01*
X5136794Y8321395D01*
X5130749Y8323021D01*
X5125059Y8325154D01*
X5119674Y8327847D01*
X5114544Y8330946D01*
X5109514Y8334451D01*
X5104638Y8338312D01*
X5093208Y8322818D01*
X5098796Y8318601D01*
X5104942Y8314690D01*
X5111546Y8311184D01*
X5118506Y8308136D01*
X5125821Y8305647D01*
X5133441Y8303818D01*
X5141315Y8302650D01*
X5149342Y8302244D01*
X5157724Y8302650D01*
X5165394Y8303818D01*
X5172456Y8305749D01*
X5178755Y8308340D01*
X5184394Y8311540D01*
X5189321Y8315248D01*
X5193487Y8319516D01*
X5196941Y8324189D01*
X5199684Y8329269D01*
X5201615Y8334654D01*
X5202783Y8340293D01*
X5203190Y8346186D01*
X5202682Y8352993D01*
X5201259Y8359089D01*
X5198973Y8364423D01*
X5195976Y8369096D01*
X5192318Y8373262D01*
X5188102Y8376920D01*
X5183428Y8380171D01*
X5178399Y8383016D01*
X5167579Y8387994D01*
X5144008Y8397087D01*
X5138420Y8399678D01*
X5133492Y8402574D01*
X5129326Y8405926D01*
X5126177Y8409787D01*
X5124145Y8414308D01*
X5123434Y8419592D01*
X5123891Y8424062D01*
X5125212Y8428329D01*
X5127447Y8432190D01*
X5130647Y8435594D01*
X5134762Y8438438D01*
X5139842Y8440572D01*
X5145887Y8441994D01*
X5152898Y8442452D01*
X5157927Y8442198D01*
X5162651Y8441436D01*
X5167172Y8440216D01*
X5171490Y8438591D01*
X5175656Y8436610D01*
X5179669Y8434324D01*
X5187442Y8428990D01*
X5198618Y8443722D01*
X5194096Y8447125D01*
X5189169Y8450326D01*
X5183886Y8453170D01*
X5178247Y8455609D01*
X5172252Y8457641D01*
X5166055Y8459165D01*
X5159552Y8460130D01*
G37*
G36*
X5465826Y8460486D02*
G01*
X5460339Y8460282D01*
X5454954Y8459622D01*
X5449620Y8458555D01*
X5444490Y8457082D01*
X5439460Y8455152D01*
X5434584Y8452866D01*
X5429961Y8450173D01*
X5425490Y8447074D01*
X5421274Y8443569D01*
X5417362Y8439708D01*
X5413654Y8435492D01*
X5410301Y8430869D01*
X5407202Y8425891D01*
X5404510Y8420557D01*
X5402122Y8414816D01*
X5400141Y8408771D01*
X5398566Y8402421D01*
X5397449Y8395665D01*
X5396738Y8388603D01*
X5396484Y8381238D01*
X5420106Y8381238D01*
X5420309Y8387791D01*
X5420969Y8394090D01*
X5421985Y8400084D01*
X5423408Y8405774D01*
X5425236Y8411057D01*
X5427421Y8416036D01*
X5429910Y8420608D01*
X5432755Y8424773D01*
X5435955Y8428532D01*
X5439410Y8431834D01*
X5443169Y8434679D01*
X5447233Y8437067D01*
X5451500Y8438946D01*
X5456072Y8440318D01*
X5460847Y8441131D01*
X5465826Y8441436D01*
X5470804Y8441131D01*
X5475579Y8440318D01*
X5480151Y8438946D01*
X5484469Y8437067D01*
X5488533Y8434679D01*
X5492292Y8431834D01*
X5495798Y8428532D01*
X5498998Y8424773D01*
X5501894Y8420608D01*
X5504434Y8416036D01*
X5506618Y8411057D01*
X5508447Y8405774D01*
X5509869Y8400084D01*
X5510936Y8394090D01*
X5511596Y8387791D01*
X5511800Y8381238D01*
X5511596Y8374634D01*
X5510936Y8368284D01*
X5509869Y8362289D01*
X5508447Y8356650D01*
X5506618Y8351367D01*
X5504434Y8346440D01*
X5501894Y8341868D01*
X5498998Y8337753D01*
X5495798Y8334044D01*
X5492292Y8330742D01*
X5488533Y8327948D01*
X5484469Y8325612D01*
X5480151Y8323732D01*
X5475579Y8322411D01*
X5470804Y8321548D01*
X5465826Y8321294D01*
X5460847Y8321548D01*
X5456072Y8322411D01*
X5451500Y8323732D01*
X5447233Y8325612D01*
X5443169Y8327948D01*
X5439410Y8330742D01*
X5435955Y8334044D01*
X5432755Y8337753D01*
X5429910Y8341868D01*
X5427421Y8346440D01*
X5425236Y8351367D01*
X5423408Y8356650D01*
X5421985Y8362289D01*
X5420969Y8368284D01*
X5420309Y8374634D01*
X5420106Y8381238D01*
X5396484Y8381238D01*
X5396738Y8373872D01*
X5397449Y8366861D01*
X5398566Y8360156D01*
X5400141Y8353806D01*
X5402122Y8347760D01*
X5404510Y8342122D01*
X5407202Y8336788D01*
X5410301Y8331809D01*
X5413654Y8327186D01*
X5417362Y8322970D01*
X5421274Y8319109D01*
X5425490Y8315655D01*
X5429961Y8312556D01*
X5434584Y8309864D01*
X5439460Y8307527D01*
X5444490Y8305647D01*
X5449620Y8304174D01*
X5454954Y8303107D01*
X5460339Y8302447D01*
X5465826Y8302244D01*
X5471312Y8302447D01*
X5476748Y8303107D01*
X5482031Y8304174D01*
X5487212Y8305647D01*
X5492242Y8307527D01*
X5497118Y8309864D01*
X5501792Y8312556D01*
X5506212Y8315655D01*
X5510479Y8319109D01*
X5514441Y8322970D01*
X5518150Y8327186D01*
X5521553Y8331809D01*
X5524601Y8336788D01*
X5527344Y8342122D01*
X5529732Y8347760D01*
X5531713Y8353806D01*
X5533288Y8360156D01*
X5534456Y8366861D01*
X5535168Y8373872D01*
X5535422Y8381238D01*
X5535168Y8388603D01*
X5534456Y8395665D01*
X5533288Y8402421D01*
X5531713Y8408771D01*
X5529732Y8414816D01*
X5527344Y8420557D01*
X5524601Y8425891D01*
X5521553Y8430869D01*
X5518150Y8435492D01*
X5514441Y8439708D01*
X5510479Y8443569D01*
X5506212Y8447074D01*
X5501792Y8450173D01*
X5497118Y8452866D01*
X5492242Y8455152D01*
X5487212Y8457082D01*
X5482031Y8458555D01*
X5476748Y8459622D01*
X5471312Y8460282D01*
G37*
G36*
X5648706Y8460486D02*
G01*
X5641187Y8459978D01*
X5634126Y8458454D01*
X5627420Y8456015D01*
X5621020Y8452866D01*
X5614924Y8449005D01*
X5609082Y8444636D01*
X5603392Y8439759D01*
X5597906Y8434578D01*
X5597144Y8434578D01*
X5594858Y8456676D01*
X5576570Y8456676D01*
X5576570Y8305800D01*
X5599176Y8305800D01*
X5599176Y8416036D01*
X5604814Y8421776D01*
X5610148Y8426754D01*
X5615330Y8430971D01*
X5620461Y8434476D01*
X5625592Y8437168D01*
X5630824Y8439099D01*
X5636310Y8440267D01*
X5642102Y8440674D01*
X5647131Y8440420D01*
X5651652Y8439607D01*
X5655665Y8438235D01*
X5659221Y8436305D01*
X5662320Y8433765D01*
X5665012Y8430666D01*
X5667197Y8426958D01*
X5668975Y8422589D01*
X5670346Y8417610D01*
X5671312Y8412022D01*
X5671870Y8405723D01*
X5672074Y8398764D01*
X5672074Y8305800D01*
X5694934Y8305800D01*
X5694934Y8401558D01*
X5694781Y8408568D01*
X5694273Y8415172D01*
X5693410Y8421319D01*
X5692190Y8427059D01*
X5690616Y8432342D01*
X5688685Y8437168D01*
X5686399Y8441537D01*
X5683707Y8445500D01*
X5680710Y8449005D01*
X5677306Y8452002D01*
X5673496Y8454593D01*
X5669330Y8456726D01*
X5664758Y8458352D01*
X5659831Y8459520D01*
X5654446Y8460232D01*
G37*
G36*
X5877306Y8460486D02*
G01*
X5871616Y8460282D01*
X5866028Y8459622D01*
X5860542Y8458555D01*
X5855208Y8457082D01*
X5850026Y8455152D01*
X5845048Y8452866D01*
X5840222Y8450173D01*
X5835650Y8447074D01*
X5831281Y8443569D01*
X5827217Y8439708D01*
X5823407Y8435492D01*
X5819902Y8430869D01*
X5816752Y8425891D01*
X5813958Y8420557D01*
X5811520Y8414816D01*
X5809488Y8408771D01*
X5807862Y8402421D01*
X5806643Y8395665D01*
X5805932Y8388603D01*
X5805678Y8381238D01*
X5805881Y8373872D01*
X5806541Y8366861D01*
X5807659Y8360156D01*
X5809132Y8353806D01*
X5811012Y8347760D01*
X5813298Y8342122D01*
X5815888Y8336788D01*
X5818886Y8331809D01*
X5822188Y8327186D01*
X5825794Y8322970D01*
X5829706Y8319109D01*
X5833872Y8315655D01*
X5838342Y8312556D01*
X5843066Y8309864D01*
X5847994Y8307527D01*
X5853176Y8305647D01*
X5858560Y8304174D01*
X5864148Y8303107D01*
X5869889Y8302447D01*
X5875782Y8302244D01*
X5882589Y8302548D01*
X5889193Y8303564D01*
X5895594Y8305139D01*
X5901842Y8307324D01*
X5907836Y8310067D01*
X5913628Y8313369D01*
X5919114Y8317230D01*
X5924296Y8321548D01*
X5914136Y8336534D01*
X5910427Y8333486D01*
X5906465Y8330641D01*
X5902198Y8328050D01*
X5897676Y8325764D01*
X5892901Y8323884D01*
X5887974Y8322513D01*
X5882843Y8321598D01*
X5877560Y8321294D01*
X5872226Y8321548D01*
X5867146Y8322411D01*
X5862320Y8323732D01*
X5857748Y8325612D01*
X5853480Y8327948D01*
X5849467Y8330742D01*
X5845810Y8334044D01*
X5842457Y8337753D01*
X5839409Y8341868D01*
X5836767Y8346440D01*
X5834481Y8351367D01*
X5832551Y8356650D01*
X5831027Y8362289D01*
X5829960Y8368284D01*
X5829249Y8374634D01*
X5829046Y8381238D01*
X5829300Y8387791D01*
X5830011Y8394090D01*
X5831179Y8400084D01*
X5832754Y8405774D01*
X5834735Y8411057D01*
X5837123Y8416036D01*
X5839917Y8420608D01*
X5843016Y8424773D01*
X5846470Y8428532D01*
X5850229Y8431834D01*
X5854293Y8434679D01*
X5858611Y8437067D01*
X5863234Y8438946D01*
X5868060Y8440318D01*
X5873089Y8441131D01*
X5878322Y8441436D01*
X5887212Y8440420D01*
X5895289Y8437524D01*
X5902706Y8433206D01*
X5909564Y8427720D01*
X5921502Y8442452D01*
X5917336Y8446008D01*
X5912866Y8449360D01*
X5908040Y8452408D01*
X5902858Y8455101D01*
X5897168Y8457336D01*
X5891072Y8459012D01*
X5884468Y8460130D01*
G37*
G36*
X6009894Y8460486D02*
G01*
X6004356Y8460282D01*
X5998921Y8459622D01*
X5993638Y8458555D01*
X5988456Y8457082D01*
X5983427Y8455152D01*
X5978550Y8452866D01*
X5973927Y8450173D01*
X5969457Y8447074D01*
X5965240Y8443569D01*
X5961329Y8439708D01*
X5957671Y8435492D01*
X5954268Y8430869D01*
X5951220Y8425891D01*
X5948527Y8420557D01*
X5946190Y8414816D01*
X5944209Y8408771D01*
X5942634Y8402421D01*
X5941517Y8395665D01*
X5940806Y8388603D01*
X5940552Y8381238D01*
X5963920Y8381238D01*
X5964123Y8387791D01*
X5964783Y8394090D01*
X5965850Y8400084D01*
X5967272Y8405774D01*
X5969101Y8411057D01*
X5971286Y8416036D01*
X5973826Y8420608D01*
X5976721Y8424773D01*
X5979922Y8428532D01*
X5983427Y8431834D01*
X5987186Y8434679D01*
X5991250Y8437067D01*
X5995568Y8438946D01*
X6000140Y8440318D01*
X6004915Y8441131D01*
X6009894Y8441436D01*
X6014872Y8441131D01*
X6019596Y8440318D01*
X6024118Y8438946D01*
X6028436Y8437067D01*
X6032500Y8434679D01*
X6036259Y8431834D01*
X6039764Y8428532D01*
X6042964Y8424773D01*
X6045860Y8420608D01*
X6048400Y8416036D01*
X6050635Y8411057D01*
X6052464Y8405774D01*
X6053937Y8400084D01*
X6055004Y8394090D01*
X6055664Y8387791D01*
X6055868Y8381238D01*
X6055664Y8374634D01*
X6055004Y8368284D01*
X6053937Y8362289D01*
X6052464Y8356650D01*
X6050635Y8351367D01*
X6048400Y8346440D01*
X6045860Y8341868D01*
X6042964Y8337753D01*
X6039764Y8334044D01*
X6036259Y8330742D01*
X6032500Y8327948D01*
X6028436Y8325612D01*
X6024118Y8323732D01*
X6019596Y8322411D01*
X6014872Y8321548D01*
X6009894Y8321294D01*
X6004915Y8321548D01*
X6000140Y8322411D01*
X5995568Y8323732D01*
X5991250Y8325612D01*
X5987186Y8327948D01*
X5983427Y8330742D01*
X5979922Y8334044D01*
X5976721Y8337753D01*
X5973826Y8341868D01*
X5971286Y8346440D01*
X5969101Y8351367D01*
X5967272Y8356650D01*
X5965850Y8362289D01*
X5964783Y8368284D01*
X5964123Y8374634D01*
X5963920Y8381238D01*
X5940552Y8381238D01*
X5940806Y8373872D01*
X5941517Y8366861D01*
X5942634Y8360156D01*
X5944209Y8353806D01*
X5946190Y8347760D01*
X5948527Y8342122D01*
X5951220Y8336788D01*
X5954268Y8331809D01*
X5957671Y8327186D01*
X5961329Y8322970D01*
X5965240Y8319109D01*
X5969457Y8315655D01*
X5973927Y8312556D01*
X5978550Y8309864D01*
X5983427Y8307527D01*
X5988456Y8305647D01*
X5993638Y8304174D01*
X5998921Y8303107D01*
X6004356Y8302447D01*
X6009894Y8302244D01*
X6015380Y8302447D01*
X6020816Y8303107D01*
X6026099Y8304174D01*
X6031280Y8305647D01*
X6036310Y8307527D01*
X6041186Y8309864D01*
X6045860Y8312556D01*
X6050280Y8315655D01*
X6054547Y8319109D01*
X6058509Y8322970D01*
X6062218Y8327186D01*
X6065621Y8331809D01*
X6068669Y8336788D01*
X6071412Y8342122D01*
X6073800Y8347760D01*
X6075781Y8353806D01*
X6077356Y8360156D01*
X6078524Y8366861D01*
X6079236Y8373872D01*
X6079490Y8381238D01*
X6079236Y8388603D01*
X6078524Y8395665D01*
X6077356Y8402421D01*
X6075781Y8408771D01*
X6073800Y8414816D01*
X6071412Y8420557D01*
X6068669Y8425891D01*
X6065621Y8430869D01*
X6062218Y8435492D01*
X6058509Y8439708D01*
X6054547Y8443569D01*
X6050280Y8447074D01*
X6045860Y8450173D01*
X6041186Y8452866D01*
X6036310Y8455152D01*
X6031280Y8457082D01*
X6026099Y8458555D01*
X6020816Y8459622D01*
X6015380Y8460282D01*
G37*
G36*
X6347968Y8460486D02*
G01*
X6342786Y8460282D01*
X6337604Y8459571D01*
X6332575Y8458454D01*
X6327597Y8456930D01*
X6322771Y8454948D01*
X6318097Y8452561D01*
X6313576Y8449818D01*
X6309258Y8446617D01*
X6305143Y8443061D01*
X6301282Y8439150D01*
X6297676Y8434832D01*
X6294323Y8430209D01*
X6291326Y8425180D01*
X6288633Y8419846D01*
X6286296Y8414207D01*
X6284315Y8408212D01*
X6282740Y8401913D01*
X6281377Y8392922D01*
X6303010Y8392922D01*
X6304127Y8400389D01*
X6305854Y8407349D01*
X6308191Y8413699D01*
X6311138Y8419490D01*
X6314541Y8424621D01*
X6318402Y8429193D01*
X6322618Y8433054D01*
X6327241Y8436305D01*
X6332169Y8438845D01*
X6337300Y8440724D01*
X6342684Y8441842D01*
X6348222Y8442198D01*
X6354165Y8441842D01*
X6359652Y8440775D01*
X6364732Y8439048D01*
X6369304Y8436610D01*
X6373418Y8433460D01*
X6377025Y8429650D01*
X6380124Y8425180D01*
X6382664Y8420049D01*
X6384696Y8414207D01*
X6386169Y8407755D01*
X6387033Y8400643D01*
X6387338Y8392922D01*
X6281377Y8392922D01*
X6280912Y8388400D01*
X6280658Y8381238D01*
X6280912Y8373922D01*
X6281572Y8366912D01*
X6282740Y8360257D01*
X6284264Y8353907D01*
X6286246Y8347913D01*
X6288582Y8342223D01*
X6291326Y8336889D01*
X6294374Y8331911D01*
X6297777Y8327339D01*
X6301486Y8323072D01*
X6305499Y8319211D01*
X6309766Y8315706D01*
X6314338Y8312607D01*
X6319164Y8309914D01*
X6324142Y8307578D01*
X6329375Y8305698D01*
X6334810Y8304174D01*
X6340398Y8303107D01*
X6346139Y8302447D01*
X6352032Y8302244D01*
X6359652Y8302548D01*
X6366814Y8303463D01*
X6373469Y8304834D01*
X6379768Y8306714D01*
X6385661Y8309000D01*
X6391198Y8311591D01*
X6396482Y8314436D01*
X6401562Y8317484D01*
X6393180Y8332724D01*
X6388912Y8329980D01*
X6384544Y8327542D01*
X6380022Y8325459D01*
X6375349Y8323630D01*
X6370472Y8322208D01*
X6365443Y8321141D01*
X6360261Y8320481D01*
X6354826Y8320278D01*
X6349288Y8320531D01*
X6344005Y8321294D01*
X6338976Y8322564D01*
X6334201Y8324291D01*
X6329730Y8326475D01*
X6325565Y8329117D01*
X6321704Y8332165D01*
X6318199Y8335619D01*
X6314998Y8339531D01*
X6312154Y8343747D01*
X6309715Y8348319D01*
X6307582Y8353298D01*
X6305905Y8358530D01*
X6304584Y8364118D01*
X6303721Y8370011D01*
X6303264Y8376158D01*
X6406388Y8376158D01*
X6407200Y8382457D01*
X6407404Y8389874D01*
X6407251Y8396325D01*
X6406743Y8402472D01*
X6405930Y8408365D01*
X6404813Y8414004D01*
X6403390Y8419338D01*
X6401663Y8424418D01*
X6399631Y8429142D01*
X6397294Y8433612D01*
X6394704Y8437727D01*
X6391757Y8441537D01*
X6388608Y8445042D01*
X6385153Y8448192D01*
X6381394Y8451037D01*
X6377381Y8453475D01*
X6373114Y8455609D01*
X6368592Y8457336D01*
X6363817Y8458708D01*
X6358788Y8459673D01*
X6353505Y8460282D01*
G37*
G36*
X6487922Y8460486D02*
G01*
X6480048Y8460130D01*
X6472732Y8459012D01*
X6466027Y8457234D01*
X6459982Y8454796D01*
X6454597Y8451799D01*
X6449872Y8448243D01*
X6445808Y8444230D01*
X6442456Y8439759D01*
X6439814Y8434882D01*
X6437884Y8429650D01*
X6436766Y8424113D01*
X6436360Y8418322D01*
X6436817Y8412226D01*
X6438188Y8406739D01*
X6440322Y8401812D01*
X6443218Y8397392D01*
X6446672Y8393480D01*
X6450736Y8389924D01*
X6455156Y8386775D01*
X6459982Y8383930D01*
X6465062Y8381390D01*
X6475679Y8376920D01*
X6493764Y8369858D01*
X6499707Y8366963D01*
X6505092Y8363762D01*
X6509664Y8360054D01*
X6513271Y8355787D01*
X6515557Y8350859D01*
X6516370Y8345170D01*
X6515862Y8340090D01*
X6514439Y8335365D01*
X6512001Y8331098D01*
X6508546Y8327339D01*
X6504178Y8324291D01*
X6498793Y8322005D01*
X6492443Y8320531D01*
X6485128Y8320024D01*
X6478219Y8320379D01*
X6471818Y8321395D01*
X6465773Y8323021D01*
X6460083Y8325154D01*
X6454648Y8327847D01*
X6449466Y8330946D01*
X6444386Y8334451D01*
X6439408Y8338312D01*
X6427978Y8322818D01*
X6433616Y8318601D01*
X6439763Y8314690D01*
X6446367Y8311184D01*
X6453378Y8308136D01*
X6460744Y8305647D01*
X6468364Y8303818D01*
X6476136Y8302650D01*
X6484112Y8302244D01*
X6492544Y8302650D01*
X6500266Y8303818D01*
X6507327Y8305749D01*
X6513728Y8308340D01*
X6519367Y8311540D01*
X6524294Y8315248D01*
X6528511Y8319516D01*
X6531965Y8324189D01*
X6534708Y8329269D01*
X6536639Y8334654D01*
X6537807Y8340293D01*
X6538214Y8346186D01*
X6537706Y8352993D01*
X6536283Y8359089D01*
X6533997Y8364423D01*
X6531000Y8369096D01*
X6527342Y8373262D01*
X6523126Y8376920D01*
X6518452Y8380171D01*
X6513423Y8383016D01*
X6502603Y8387994D01*
X6479032Y8397087D01*
X6473444Y8399678D01*
X6468516Y8402574D01*
X6464350Y8405926D01*
X6461201Y8409787D01*
X6459169Y8414308D01*
X6458458Y8419592D01*
X6458915Y8424062D01*
X6460236Y8428329D01*
X6462471Y8432190D01*
X6465671Y8435594D01*
X6469786Y8438438D01*
X6474866Y8440572D01*
X6480911Y8441994D01*
X6487922Y8442452D01*
X6492900Y8442198D01*
X6497624Y8441436D01*
X6502146Y8440216D01*
X6506413Y8438591D01*
X6510578Y8436610D01*
X6514592Y8434324D01*
X6522466Y8428990D01*
X6533642Y8443722D01*
X6529120Y8447125D01*
X6524193Y8450326D01*
X6518909Y8453170D01*
X6513271Y8455609D01*
X6507276Y8457641D01*
X6501079Y8459165D01*
X6494576Y8460130D01*
G37*
G36*
X3019552Y8456676D02*
G01*
X3019552Y8305800D01*
X3042158Y8305800D01*
X3042158Y8456676D01*
G37*
G36*
X4827016Y8452612D02*
G01*
X4820513Y8451291D01*
X4815078Y8447532D01*
X4811369Y8441690D01*
X4809998Y8434070D01*
X4811369Y8426754D01*
X4815078Y8421065D01*
X4820513Y8417356D01*
X4827016Y8416036D01*
X4833823Y8417356D01*
X4839411Y8421065D01*
X4843170Y8426754D01*
X4844542Y8434070D01*
X4843170Y8441690D01*
X4839411Y8447532D01*
X4833823Y8451291D01*
G37*
G36*
X3918204Y8440674D02*
G01*
X3912362Y8440115D01*
X3906977Y8438438D01*
X3902100Y8435797D01*
X3897833Y8432342D01*
X3894378Y8428075D01*
X3891737Y8423198D01*
X3890060Y8417814D01*
X3889501Y8411972D01*
X3890060Y8406130D01*
X3891737Y8400745D01*
X3894378Y8395868D01*
X3897833Y8391601D01*
X3902100Y8388146D01*
X3906977Y8385505D01*
X3912362Y8383828D01*
X3918204Y8383270D01*
X3924046Y8383828D01*
X3929430Y8385505D01*
X3934307Y8388146D01*
X3938574Y8391601D01*
X3942029Y8395868D01*
X3944670Y8400745D01*
X3946347Y8406130D01*
X3946906Y8411972D01*
X3946347Y8417814D01*
X3944670Y8423198D01*
X3942029Y8428075D01*
X3938574Y8432342D01*
X3934307Y8435797D01*
X3929430Y8438438D01*
X3924046Y8440115D01*
G37*
G36*
X4827016Y8338566D02*
G01*
X4820513Y8337245D01*
X4815078Y8333486D01*
X4811369Y8327644D01*
X4809998Y8320024D01*
X4811369Y8312759D01*
X4815078Y8307120D01*
X4820513Y8303514D01*
X4827016Y8302244D01*
X4833823Y8303514D01*
X4839411Y8307120D01*
X4843170Y8312759D01*
X4844542Y8320024D01*
X4843170Y8327644D01*
X4839411Y8333486D01*
X4833823Y8337245D01*
G37*
G36*
X5756402Y8338566D02*
G01*
X5749899Y8337245D01*
X5744464Y8333486D01*
X5740755Y8327644D01*
X5739384Y8320024D01*
X5740755Y8312759D01*
X5744464Y8307120D01*
X5749899Y8303514D01*
X5756402Y8302244D01*
X5763056Y8303514D01*
X5768543Y8307120D01*
X5772302Y8312759D01*
X5773674Y8320024D01*
X5772302Y8327644D01*
X5768543Y8333486D01*
X5763056Y8337245D01*
G37*
G36*
X6302248Y6046470D02*
G01*
X6302248Y6027928D01*
X6362395Y6027826D01*
X6374739Y6026810D01*
X6380276Y6025896D01*
X6385306Y6024676D01*
X6389928Y6023152D01*
X6394145Y6021324D01*
X6397904Y6019139D01*
X6401206Y6016599D01*
X6404051Y6013653D01*
X6406489Y6010351D01*
X6408470Y6006592D01*
X6409994Y6002426D01*
X6411112Y5997854D01*
X6411772Y5992825D01*
X6411976Y5987288D01*
X6411772Y5981750D01*
X6411163Y5976670D01*
X6410096Y5971946D01*
X6408623Y5967577D01*
X6406692Y5963666D01*
X6404356Y5960059D01*
X6401612Y5956858D01*
X6398412Y5954014D01*
X6394805Y5951524D01*
X6390690Y5949391D01*
X6386169Y5947613D01*
X6381242Y5946140D01*
X6375806Y5945022D01*
X6369964Y5944209D01*
X6363614Y5943752D01*
X6325362Y5943600D01*
X6325362Y6027928D01*
X6302248Y6027928D01*
X6302248Y5842000D01*
X6325362Y5842000D01*
X6325362Y5924804D01*
X6360160Y5924804D01*
X6366814Y5924956D01*
X6373266Y5925413D01*
X6379413Y5926175D01*
X6385306Y5927242D01*
X6390944Y5928614D01*
X6396278Y5930290D01*
X6401308Y5932271D01*
X6406083Y5934557D01*
X6410502Y5937199D01*
X6414566Y5940145D01*
X6418326Y5943396D01*
X6421729Y5946952D01*
X6424777Y5950864D01*
X6427470Y5955080D01*
X6429756Y5959652D01*
X6431635Y5964478D01*
X6433108Y5969711D01*
X6434226Y5975248D01*
X6434886Y5981090D01*
X6435090Y5987288D01*
X6434886Y5993688D01*
X6434226Y5999632D01*
X6433108Y6005169D01*
X6431584Y6010300D01*
X6429705Y6015075D01*
X6427368Y6019444D01*
X6424676Y6023457D01*
X6421577Y6027115D01*
X6418122Y6030417D01*
X6414312Y6033363D01*
X6410147Y6036005D01*
X6405676Y6038291D01*
X6400850Y6040272D01*
X6395720Y6041999D01*
X6390284Y6043422D01*
X6384544Y6044539D01*
X6378549Y6045403D01*
X6372250Y6046012D01*
X6365697Y6046368D01*
G37*
G36*
X6525259Y5996686D02*
G01*
X6519773Y5996482D01*
X6514388Y5995822D01*
X6509054Y5994755D01*
X6503924Y5993282D01*
X6498894Y5991352D01*
X6494018Y5989066D01*
X6489395Y5986373D01*
X6484924Y5983274D01*
X6480708Y5979769D01*
X6476796Y5975908D01*
X6473088Y5971692D01*
X6469735Y5967069D01*
X6466636Y5962091D01*
X6463944Y5956757D01*
X6461556Y5951016D01*
X6459575Y5944971D01*
X6458000Y5938621D01*
X6456883Y5931865D01*
X6456172Y5924804D01*
X6455918Y5917438D01*
X6479540Y5917438D01*
X6479743Y5923991D01*
X6480403Y5930290D01*
X6481419Y5936284D01*
X6482842Y5941974D01*
X6484670Y5947257D01*
X6486855Y5952236D01*
X6489344Y5956808D01*
X6492189Y5960973D01*
X6495389Y5964732D01*
X6498844Y5968034D01*
X6502603Y5970879D01*
X6506667Y5973267D01*
X6510934Y5975146D01*
X6515506Y5976518D01*
X6520281Y5977331D01*
X6525259Y5977636D01*
X6530238Y5977331D01*
X6535064Y5976518D01*
X6539636Y5975146D01*
X6543954Y5973267D01*
X6548018Y5970879D01*
X6551828Y5968034D01*
X6555333Y5964732D01*
X6558584Y5960973D01*
X6561480Y5956808D01*
X6564020Y5952236D01*
X6566255Y5947257D01*
X6568084Y5941974D01*
X6569557Y5936284D01*
X6570624Y5930290D01*
X6571284Y5923991D01*
X6571488Y5917438D01*
X6571284Y5910834D01*
X6570624Y5904484D01*
X6569557Y5898489D01*
X6568084Y5892850D01*
X6566255Y5887567D01*
X6564020Y5882640D01*
X6561480Y5878068D01*
X6558584Y5873953D01*
X6555333Y5870244D01*
X6551828Y5866942D01*
X6548018Y5864148D01*
X6543954Y5861812D01*
X6539636Y5859932D01*
X6535064Y5858611D01*
X6530238Y5857748D01*
X6525259Y5857494D01*
X6520281Y5857748D01*
X6515506Y5858611D01*
X6510934Y5859932D01*
X6506667Y5861812D01*
X6502603Y5864148D01*
X6498844Y5866942D01*
X6495389Y5870244D01*
X6492189Y5873953D01*
X6489344Y5878068D01*
X6486855Y5882640D01*
X6484670Y5887567D01*
X6482842Y5892850D01*
X6481419Y5898489D01*
X6480403Y5904484D01*
X6479743Y5910834D01*
X6479540Y5917438D01*
X6455918Y5917438D01*
X6456172Y5910072D01*
X6456883Y5903061D01*
X6458000Y5896356D01*
X6459575Y5890006D01*
X6461556Y5883960D01*
X6463944Y5878322D01*
X6466636Y5872988D01*
X6469735Y5868009D01*
X6473088Y5863386D01*
X6476796Y5859170D01*
X6480708Y5855309D01*
X6484924Y5851855D01*
X6489395Y5848756D01*
X6494018Y5846064D01*
X6498894Y5843727D01*
X6503924Y5841847D01*
X6509054Y5840374D01*
X6514388Y5839307D01*
X6519773Y5838647D01*
X6525259Y5838444D01*
X6530746Y5838647D01*
X6536181Y5839307D01*
X6541465Y5840374D01*
X6546646Y5841847D01*
X6551676Y5843727D01*
X6556552Y5846064D01*
X6561226Y5848756D01*
X6565646Y5851855D01*
X6569913Y5855309D01*
X6573875Y5859170D01*
X6577584Y5863386D01*
X6580987Y5868009D01*
X6584035Y5872988D01*
X6586778Y5878322D01*
X6589166Y5883960D01*
X6591147Y5890006D01*
X6592722Y5896356D01*
X6593890Y5903061D01*
X6594602Y5910072D01*
X6594856Y5917438D01*
X6594602Y5924804D01*
X6593890Y5931865D01*
X6592722Y5938621D01*
X6591147Y5944971D01*
X6589166Y5951016D01*
X6586778Y5956757D01*
X6584035Y5962091D01*
X6580987Y5967069D01*
X6577584Y5971692D01*
X6573875Y5975908D01*
X6569913Y5979769D01*
X6565646Y5983274D01*
X6561226Y5986373D01*
X6556552Y5989066D01*
X6551676Y5991352D01*
X6546646Y5993282D01*
X6541465Y5994755D01*
X6536181Y5995822D01*
X6530746Y5996482D01*
G37*
G36*
X6910324Y5996686D02*
G01*
X6905142Y5996482D01*
X6899960Y5995771D01*
X6894931Y5994654D01*
X6889953Y5993130D01*
X6885127Y5991148D01*
X6880453Y5988761D01*
X6875932Y5986018D01*
X6871614Y5982817D01*
X6867499Y5979261D01*
X6863638Y5975350D01*
X6860031Y5971032D01*
X6856679Y5966409D01*
X6853681Y5961380D01*
X6850989Y5956046D01*
X6848652Y5950407D01*
X6846671Y5944412D01*
X6845096Y5938113D01*
X6843733Y5929122D01*
X6865366Y5929122D01*
X6866483Y5936589D01*
X6868210Y5943549D01*
X6870547Y5949899D01*
X6873494Y5955690D01*
X6876897Y5960821D01*
X6880758Y5965393D01*
X6884974Y5969254D01*
X6889597Y5972505D01*
X6894525Y5975045D01*
X6899656Y5976924D01*
X6905040Y5978042D01*
X6910578Y5978398D01*
X6916521Y5978042D01*
X6922008Y5976975D01*
X6927088Y5975248D01*
X6931659Y5972810D01*
X6935774Y5969660D01*
X6939381Y5965850D01*
X6942480Y5961380D01*
X6945020Y5956249D01*
X6947052Y5950407D01*
X6948525Y5943955D01*
X6949389Y5936843D01*
X6949694Y5929122D01*
X6843733Y5929122D01*
X6843268Y5924600D01*
X6843014Y5917438D01*
X6843268Y5910122D01*
X6843928Y5903112D01*
X6845096Y5896457D01*
X6846620Y5890107D01*
X6848602Y5884113D01*
X6850938Y5878423D01*
X6853681Y5873089D01*
X6856730Y5868111D01*
X6860133Y5863539D01*
X6863842Y5859272D01*
X6867855Y5855411D01*
X6872122Y5851906D01*
X6876694Y5848807D01*
X6881520Y5846114D01*
X6886498Y5843778D01*
X6891731Y5841898D01*
X6897166Y5840374D01*
X6902754Y5839307D01*
X6908495Y5838647D01*
X6914388Y5838444D01*
X6922008Y5838748D01*
X6929170Y5839663D01*
X6935825Y5841034D01*
X6942124Y5842914D01*
X6948017Y5845200D01*
X6953554Y5847791D01*
X6958838Y5850636D01*
X6963918Y5853684D01*
X6955536Y5868924D01*
X6951268Y5866180D01*
X6946950Y5863742D01*
X6942429Y5861659D01*
X6937806Y5859830D01*
X6932980Y5858408D01*
X6927900Y5857341D01*
X6922668Y5856681D01*
X6917181Y5856478D01*
X6911695Y5856732D01*
X6906412Y5857494D01*
X6901383Y5858764D01*
X6896658Y5860491D01*
X6892188Y5862675D01*
X6888022Y5865317D01*
X6884162Y5868365D01*
X6880656Y5871819D01*
X6877456Y5875731D01*
X6874611Y5879947D01*
X6872122Y5884519D01*
X6869988Y5889498D01*
X6868261Y5894730D01*
X6866991Y5900318D01*
X6866077Y5906211D01*
X6865620Y5912358D01*
X6968744Y5912358D01*
X6969556Y5918657D01*
X6969759Y5926074D01*
X6969607Y5932525D01*
X6969099Y5938672D01*
X6968286Y5944565D01*
X6967169Y5950204D01*
X6965746Y5955538D01*
X6964019Y5960618D01*
X6961987Y5965342D01*
X6959650Y5969812D01*
X6957059Y5973927D01*
X6954113Y5977737D01*
X6950964Y5981242D01*
X6947509Y5984392D01*
X6943750Y5987237D01*
X6939737Y5989675D01*
X6935470Y5991809D01*
X6930948Y5993536D01*
X6926173Y5994908D01*
X6921144Y5995873D01*
X6915861Y5996482D01*
G37*
G36*
X7072375Y5996686D02*
G01*
X7066076Y5996127D01*
X7059980Y5994450D01*
X7054088Y5991758D01*
X7048449Y5988100D01*
X7043166Y5983528D01*
X7038289Y5978144D01*
X7033768Y5971997D01*
X7029703Y5965190D01*
X7028688Y5965190D01*
X7026402Y5992876D01*
X7008114Y5992876D01*
X7008114Y5842000D01*
X7030720Y5842000D01*
X7030720Y5940298D01*
X7034834Y5949442D01*
X7039356Y5957062D01*
X7044181Y5963259D01*
X7049211Y5968085D01*
X7054342Y5971743D01*
X7059523Y5974232D01*
X7064603Y5975654D01*
X7069581Y5976112D01*
X7073544Y5975959D01*
X7076998Y5975502D01*
X7080250Y5974740D01*
X7083806Y5973572D01*
X7088378Y5993384D01*
X7084618Y5994958D01*
X7080859Y5995974D01*
X7076846Y5996533D01*
G37*
G36*
X6615684Y5992876D02*
G01*
X6658356Y5842000D01*
X6685025Y5842000D01*
X6707124Y5925820D01*
X6710273Y5936488D01*
X6713067Y5947308D01*
X6718046Y5969762D01*
X6719570Y5969762D01*
X6725818Y5942177D01*
X6728510Y5931458D01*
X6753098Y5842000D01*
X6780530Y5842000D01*
X6821931Y5992876D01*
X6800088Y5992876D01*
X6776974Y5903214D01*
X6767322Y5861558D01*
X6766052Y5861558D01*
X6758178Y5892647D01*
X6731000Y5992876D01*
X6707886Y5992876D01*
X6682282Y5897930D01*
X6673088Y5861558D01*
X6672072Y5861558D01*
X6662674Y5903214D01*
X6639052Y5992876D01*
G37*
G36*
X9330182Y6469380D02*
G01*
X9323476Y6469126D01*
X9317024Y6468364D01*
X9310878Y6467094D01*
X9305036Y6465417D01*
X9299498Y6463233D01*
X9294266Y6460642D01*
X9289491Y6457696D01*
X9285071Y6454292D01*
X9281058Y6450584D01*
X9277553Y6446469D01*
X9274505Y6442049D01*
X9271914Y6437325D01*
X9269882Y6432346D01*
X9268409Y6427063D01*
X9267494Y6421526D01*
X9267190Y6415786D01*
X9267647Y6408674D01*
X9268968Y6402171D01*
X9271000Y6396278D01*
X9273743Y6390944D01*
X9277096Y6386118D01*
X9280855Y6381800D01*
X9285071Y6377889D01*
X9289592Y6374434D01*
X9294317Y6371336D01*
X9299143Y6368542D01*
X9308846Y6363970D01*
X9345422Y6347561D01*
X9352026Y6344310D01*
X9358020Y6340856D01*
X9363151Y6336944D01*
X9367418Y6332372D01*
X9370618Y6327038D01*
X9372650Y6320688D01*
X9373362Y6313170D01*
X9373006Y6308039D01*
X9371990Y6303213D01*
X9370263Y6298742D01*
X9367926Y6294628D01*
X9364929Y6290919D01*
X9361373Y6287617D01*
X9357207Y6284722D01*
X9352483Y6282334D01*
X9347200Y6280404D01*
X9341459Y6279032D01*
X9335160Y6278168D01*
X9328404Y6277864D01*
X9322968Y6278067D01*
X9317583Y6278676D01*
X9312351Y6279692D01*
X9307118Y6281064D01*
X9302089Y6282842D01*
X9297111Y6284925D01*
X9292336Y6287312D01*
X9287713Y6290056D01*
X9283242Y6293104D01*
X9278924Y6296406D01*
X9274860Y6299962D01*
X9271000Y6303772D01*
X9257030Y6288024D01*
X9261551Y6283452D01*
X9266377Y6279235D01*
X9271406Y6275324D01*
X9276791Y6271768D01*
X9282379Y6268567D01*
X9288221Y6265722D01*
X9294317Y6263284D01*
X9300616Y6261252D01*
X9307169Y6259677D01*
X9313976Y6258509D01*
X9320936Y6257798D01*
X9328150Y6257544D01*
X9335871Y6257848D01*
X9343186Y6258712D01*
X9350146Y6260084D01*
X9356648Y6261963D01*
X9362744Y6264351D01*
X9368383Y6267196D01*
X9373565Y6270447D01*
X9378238Y6274104D01*
X9382455Y6278168D01*
X9386163Y6282537D01*
X9389313Y6287262D01*
X9391954Y6292240D01*
X9394037Y6297523D01*
X9395510Y6303060D01*
X9396425Y6308801D01*
X9396730Y6314694D01*
X9396323Y6321958D01*
X9395206Y6328613D01*
X9393377Y6334658D01*
X9390938Y6340144D01*
X9387890Y6345123D01*
X9384284Y6349644D01*
X9380220Y6353759D01*
X9375698Y6357467D01*
X9370822Y6360871D01*
X9365589Y6363970D01*
X9360052Y6366865D01*
X9354312Y6369558D01*
X9324594Y6382004D01*
X9312757Y6387541D01*
X9307017Y6390792D01*
X9301784Y6394551D01*
X9297263Y6398971D01*
X9293707Y6404203D01*
X9291370Y6410350D01*
X9290558Y6417564D01*
X9291269Y6424472D01*
X9293402Y6430568D01*
X9296857Y6435953D01*
X9301530Y6440424D01*
X9307271Y6444030D01*
X9314027Y6446621D01*
X9321698Y6448247D01*
X9330182Y6448806D01*
X9337294Y6448450D01*
X9344050Y6447434D01*
X9350451Y6445758D01*
X9356445Y6443522D01*
X9362186Y6440678D01*
X9367520Y6437325D01*
X9372600Y6433515D01*
X9377426Y6429248D01*
X9389872Y6443980D01*
X9386214Y6447637D01*
X9382302Y6451041D01*
X9378137Y6454292D01*
X9373666Y6457238D01*
X9368942Y6459931D01*
X9364014Y6462318D01*
X9358884Y6464401D01*
X9353499Y6466128D01*
X9347962Y6467500D01*
X9342170Y6468516D01*
X9336278Y6469176D01*
G37*
G36*
X9656318Y6469380D02*
G01*
X9650577Y6469176D01*
X9645091Y6468567D01*
X9639757Y6467551D01*
X9634626Y6466179D01*
X9629698Y6464452D01*
X9624974Y6462471D01*
X9620402Y6460185D01*
X9611766Y6454800D01*
X9603740Y6448602D01*
X9599930Y6445250D01*
X9612376Y6430518D01*
X9616897Y6434734D01*
X9621672Y6438595D01*
X9626752Y6441998D01*
X9632086Y6444945D01*
X9637623Y6447383D01*
X9643364Y6449212D01*
X9649358Y6450380D01*
X9655556Y6450838D01*
X9663430Y6450126D01*
X9670491Y6448298D01*
X9676587Y6445351D01*
X9681768Y6441389D01*
X9685883Y6436512D01*
X9688880Y6430772D01*
X9690760Y6424269D01*
X9691370Y6417056D01*
X9691065Y6411468D01*
X9690049Y6406083D01*
X9688372Y6401054D01*
X9685883Y6396380D01*
X9682632Y6392062D01*
X9678568Y6388150D01*
X9673539Y6384747D01*
X9667646Y6381851D01*
X9660737Y6379565D01*
X9652812Y6377838D01*
X9643821Y6376771D01*
X9633712Y6376416D01*
X9633712Y6358636D01*
X9642246Y6358432D01*
X9650120Y6357874D01*
X9657334Y6356908D01*
X9663887Y6355588D01*
X9669780Y6353911D01*
X9675063Y6351930D01*
X9679787Y6349593D01*
X9683902Y6347002D01*
X9687458Y6344056D01*
X9690506Y6340856D01*
X9693046Y6337401D01*
X9695027Y6333693D01*
X9696551Y6329680D01*
X9697669Y6325514D01*
X9698278Y6321094D01*
X9698482Y6316472D01*
X9698126Y6310528D01*
X9697059Y6304940D01*
X9695332Y6299860D01*
X9692944Y6295186D01*
X9689998Y6290970D01*
X9686493Y6287312D01*
X9682429Y6284112D01*
X9677958Y6281470D01*
X9672980Y6279337D01*
X9667595Y6277813D01*
X9661855Y6276898D01*
X9655810Y6276594D01*
X9647072Y6277102D01*
X9639147Y6278575D01*
X9631934Y6280861D01*
X9625330Y6283858D01*
X9619335Y6287363D01*
X9613798Y6291376D01*
X9608718Y6295694D01*
X9603994Y6300216D01*
X9592310Y6285484D01*
X9599472Y6278473D01*
X9603536Y6275120D01*
X9607905Y6271920D01*
X9612630Y6268923D01*
X9617760Y6266180D01*
X9623247Y6263741D01*
X9629089Y6261608D01*
X9635439Y6259931D01*
X9642195Y6258610D01*
X9649409Y6257798D01*
X9657080Y6257544D01*
X9663684Y6257798D01*
X9670135Y6258560D01*
X9676333Y6259779D01*
X9682226Y6261506D01*
X9687864Y6263690D01*
X9693148Y6266332D01*
X9698075Y6269431D01*
X9702647Y6272987D01*
X9706762Y6276898D01*
X9710470Y6281267D01*
X9713671Y6286042D01*
X9716312Y6291173D01*
X9718497Y6296710D01*
X9720072Y6302603D01*
X9721037Y6308852D01*
X9721342Y6315456D01*
X9720935Y6322364D01*
X9719767Y6328816D01*
X9717938Y6334861D01*
X9715398Y6340398D01*
X9712248Y6345529D01*
X9708591Y6350203D01*
X9704425Y6354368D01*
X9699802Y6358077D01*
X9694773Y6361226D01*
X9689439Y6363919D01*
X9683800Y6366103D01*
X9677908Y6367780D01*
X9677908Y6369050D01*
X9683191Y6371132D01*
X9688220Y6373622D01*
X9692843Y6376416D01*
X9697110Y6379616D01*
X9700971Y6383223D01*
X9704374Y6387134D01*
X9707372Y6391452D01*
X9709861Y6396126D01*
X9711842Y6401206D01*
X9713315Y6406642D01*
X9714179Y6412433D01*
X9714484Y6418580D01*
X9714179Y6424472D01*
X9713366Y6430010D01*
X9711994Y6435242D01*
X9710115Y6440119D01*
X9707727Y6444640D01*
X9704933Y6448806D01*
X9701631Y6452616D01*
X9697974Y6456070D01*
X9693910Y6459118D01*
X9689439Y6461810D01*
X9684664Y6464096D01*
X9679533Y6465976D01*
X9674148Y6467449D01*
X9668459Y6468516D01*
X9662515Y6469176D01*
G37*
G36*
X9807956Y6469380D02*
G01*
X9801758Y6469126D01*
X9795865Y6468414D01*
X9790277Y6467195D01*
X9784943Y6465570D01*
X9779812Y6463487D01*
X9774885Y6461048D01*
X9770160Y6458254D01*
X9765639Y6455105D01*
X9761220Y6451600D01*
X9756902Y6447790D01*
X9748520Y6439408D01*
X9761982Y6426454D01*
X9766503Y6431432D01*
X9771329Y6436055D01*
X9776409Y6440220D01*
X9781743Y6443776D01*
X9787331Y6446723D01*
X9793224Y6448958D01*
X9799320Y6450330D01*
X9805670Y6450838D01*
X9811969Y6450482D01*
X9817709Y6449364D01*
X9822840Y6447586D01*
X9827412Y6445199D01*
X9831425Y6442252D01*
X9834880Y6438696D01*
X9837775Y6434683D01*
X9840163Y6430213D01*
X9841941Y6425336D01*
X9843262Y6420104D01*
X9844024Y6414516D01*
X9844278Y6408674D01*
X9843820Y6400952D01*
X9842500Y6393027D01*
X9840214Y6384899D01*
X9837013Y6376517D01*
X9832848Y6367881D01*
X9827768Y6358991D01*
X9821621Y6349746D01*
X9814560Y6340195D01*
X9806432Y6330289D01*
X9797288Y6320028D01*
X9787077Y6309360D01*
X9775799Y6298285D01*
X9763455Y6286754D01*
X9750044Y6274816D01*
X9750044Y6261100D01*
X9876536Y6261100D01*
X9876536Y6280658D01*
X9809784Y6280556D01*
X9792716Y6279692D01*
X9784334Y6278880D01*
X9796475Y6290513D01*
X9807803Y6301994D01*
X9818319Y6313271D01*
X9827920Y6324396D01*
X9836556Y6335420D01*
X9844227Y6346240D01*
X9850882Y6357010D01*
X9856419Y6367627D01*
X9858756Y6372910D01*
X9862566Y6383426D01*
X9865156Y6393891D01*
X9865969Y6399072D01*
X9866477Y6404254D01*
X9866630Y6409436D01*
X9866376Y6416090D01*
X9865614Y6422440D01*
X9864344Y6428435D01*
X9862566Y6434124D01*
X9860330Y6439458D01*
X9857638Y6444386D01*
X9854488Y6448907D01*
X9850932Y6453022D01*
X9846919Y6456730D01*
X9842500Y6459982D01*
X9837674Y6462776D01*
X9832441Y6465112D01*
X9826853Y6466941D01*
X9820910Y6468313D01*
X9814610Y6469126D01*
G37*
G36*
X10615168Y6469380D02*
G01*
X10608462Y6469126D01*
X10602010Y6468364D01*
X10595864Y6467094D01*
X10590022Y6465417D01*
X10584484Y6463233D01*
X10579252Y6460642D01*
X10574477Y6457696D01*
X10570057Y6454292D01*
X10566044Y6450584D01*
X10562539Y6446469D01*
X10559491Y6442049D01*
X10556900Y6437325D01*
X10554868Y6432346D01*
X10553395Y6427063D01*
X10552480Y6421526D01*
X10552176Y6415786D01*
X10552633Y6408674D01*
X10553954Y6402171D01*
X10555986Y6396278D01*
X10558729Y6390944D01*
X10562082Y6386118D01*
X10565841Y6381800D01*
X10570057Y6377889D01*
X10574578Y6374434D01*
X10579303Y6371336D01*
X10584129Y6368542D01*
X10593832Y6363970D01*
X10630408Y6347561D01*
X10637012Y6344310D01*
X10643006Y6340856D01*
X10648137Y6336944D01*
X10652404Y6332372D01*
X10655604Y6327038D01*
X10657636Y6320688D01*
X10658348Y6313170D01*
X10657992Y6308039D01*
X10656976Y6303213D01*
X10655249Y6298742D01*
X10652912Y6294628D01*
X10649915Y6290919D01*
X10646359Y6287617D01*
X10642193Y6284722D01*
X10637469Y6282334D01*
X10632186Y6280404D01*
X10626445Y6279032D01*
X10620146Y6278168D01*
X10613390Y6277864D01*
X10607954Y6278067D01*
X10602569Y6278676D01*
X10597286Y6279692D01*
X10592054Y6281064D01*
X10586974Y6282842D01*
X10581995Y6284925D01*
X10577220Y6287312D01*
X10572546Y6290056D01*
X10568076Y6293104D01*
X10563860Y6296406D01*
X10559796Y6299962D01*
X10555986Y6303772D01*
X10542016Y6288024D01*
X10546537Y6283452D01*
X10551363Y6279235D01*
X10556392Y6275324D01*
X10561777Y6271768D01*
X10567365Y6268567D01*
X10573207Y6265722D01*
X10579303Y6263284D01*
X10585602Y6261252D01*
X10592155Y6259677D01*
X10598962Y6258509D01*
X10605922Y6257798D01*
X10613136Y6257544D01*
X10620857Y6257848D01*
X10628172Y6258712D01*
X10635132Y6260084D01*
X10641634Y6261963D01*
X10647730Y6264351D01*
X10653369Y6267196D01*
X10658551Y6270447D01*
X10663224Y6274104D01*
X10667441Y6278168D01*
X10671149Y6282537D01*
X10674299Y6287262D01*
X10676940Y6292240D01*
X10679023Y6297523D01*
X10680496Y6303060D01*
X10681411Y6308801D01*
X10681716Y6314694D01*
X10681309Y6321958D01*
X10680192Y6328613D01*
X10678363Y6334658D01*
X10675924Y6340144D01*
X10672876Y6345123D01*
X10669270Y6349644D01*
X10665206Y6353759D01*
X10660684Y6357467D01*
X10655808Y6360871D01*
X10650575Y6363970D01*
X10645038Y6366865D01*
X10639298Y6369558D01*
X10609580Y6382004D01*
X10597743Y6387541D01*
X10592003Y6390792D01*
X10586770Y6394551D01*
X10582249Y6398971D01*
X10578693Y6404203D01*
X10576356Y6410350D01*
X10575544Y6417564D01*
X10576255Y6424472D01*
X10578388Y6430568D01*
X10581843Y6435953D01*
X10586516Y6440424D01*
X10592257Y6444030D01*
X10599013Y6446621D01*
X10606684Y6448247D01*
X10615168Y6448806D01*
X10622280Y6448450D01*
X10629036Y6447434D01*
X10635437Y6445758D01*
X10641431Y6443522D01*
X10647172Y6440678D01*
X10652506Y6437325D01*
X10657586Y6433515D01*
X10662412Y6429248D01*
X10674858Y6443980D01*
X10671200Y6447637D01*
X10667288Y6451041D01*
X10663123Y6454292D01*
X10658652Y6457238D01*
X10653928Y6459931D01*
X10649000Y6462318D01*
X10643870Y6464401D01*
X10638485Y6466128D01*
X10632948Y6467500D01*
X10627156Y6468516D01*
X10621264Y6469176D01*
G37*
G36*
X9108948Y6465570D02*
G01*
X9108948Y6261100D01*
X9228582Y6261100D01*
X9228582Y6280658D01*
X9132062Y6280658D01*
X9132062Y6359144D01*
X9210802Y6359144D01*
X9210802Y6378702D01*
X9132062Y6378702D01*
X9132062Y6446012D01*
X9225534Y6446012D01*
X9225534Y6465570D01*
G37*
G36*
X9437624Y6465570D02*
G01*
X9437624Y6447028D01*
X9497771Y6446926D01*
X9510014Y6445910D01*
X9515551Y6444996D01*
X9520580Y6443776D01*
X9525203Y6442252D01*
X9529419Y6440424D01*
X9533178Y6438239D01*
X9536480Y6435699D01*
X9539376Y6432753D01*
X9541814Y6429451D01*
X9543796Y6425692D01*
X9545370Y6421526D01*
X9546437Y6416954D01*
X9547148Y6411925D01*
X9547352Y6406388D01*
X9547148Y6400850D01*
X9546539Y6395770D01*
X9545472Y6391046D01*
X9543999Y6386677D01*
X9542068Y6382766D01*
X9539732Y6379159D01*
X9536988Y6375958D01*
X9533788Y6373114D01*
X9530130Y6370624D01*
X9526016Y6368491D01*
X9521494Y6366713D01*
X9516465Y6365240D01*
X9511030Y6364122D01*
X9505137Y6363309D01*
X9498787Y6362852D01*
X9460738Y6362700D01*
X9460738Y6447028D01*
X9437624Y6447028D01*
X9437624Y6261100D01*
X9460738Y6261100D01*
X9460738Y6343904D01*
X9495536Y6343904D01*
X9502190Y6344056D01*
X9508591Y6344513D01*
X9514789Y6345275D01*
X9520682Y6346342D01*
X9526270Y6347714D01*
X9531604Y6349390D01*
X9536633Y6351371D01*
X9541357Y6353657D01*
X9545777Y6356299D01*
X9549841Y6359245D01*
X9553549Y6362496D01*
X9556953Y6366052D01*
X9559950Y6369964D01*
X9562642Y6374180D01*
X9564878Y6378752D01*
X9566808Y6383578D01*
X9568281Y6388811D01*
X9569348Y6394348D01*
X9570008Y6400190D01*
X9570212Y6406388D01*
X9570008Y6412788D01*
X9569348Y6418732D01*
X9568230Y6424269D01*
X9566757Y6429400D01*
X9564827Y6434175D01*
X9562541Y6438544D01*
X9559848Y6442557D01*
X9556800Y6446215D01*
X9553346Y6449517D01*
X9549587Y6452463D01*
X9545421Y6455105D01*
X9540951Y6457391D01*
X9536176Y6459372D01*
X9531045Y6461099D01*
X9525609Y6462522D01*
X9519920Y6463639D01*
X9513925Y6464503D01*
X9507626Y6465112D01*
X9501073Y6465468D01*
G37*
G36*
X10303764Y6465570D02*
G01*
X10303764Y6446012D01*
X10365994Y6446012D01*
X10365994Y6261100D01*
X10389616Y6261100D01*
X10389616Y6446012D01*
X10452100Y6446012D01*
X10452100Y6465570D01*
G37*
G36*
X10722610Y6465570D02*
G01*
X10722610Y6261100D01*
X10745724Y6261100D01*
X10745724Y6465570D01*
G37*
G36*
X10802620Y6465570D02*
G01*
X10802620Y6261100D01*
X10823702Y6261100D01*
X10823600Y6386068D01*
X10823092Y6400952D01*
X10820908Y6438646D01*
X10821924Y6438646D01*
X10838180Y6392164D01*
X10878312Y6281928D01*
X10894314Y6281928D01*
X10934192Y6392164D01*
X10950448Y6438646D01*
X10951718Y6438646D01*
X10949838Y6408724D01*
X10949178Y6393332D01*
X10948924Y6379210D01*
X10948924Y6261100D01*
X10970260Y6261100D01*
X10970260Y6465570D01*
X10941812Y6465570D01*
X10901934Y6353810D01*
X10891418Y6321247D01*
X10887710Y6310376D01*
X10886186Y6310376D01*
X10873333Y6348374D01*
X10831322Y6465570D01*
G37*
G36*
X10092690Y6395974D02*
G01*
X10086949Y6395415D01*
X10081564Y6393738D01*
X10076688Y6391097D01*
X10072420Y6387642D01*
X10068915Y6383375D01*
X10066274Y6378498D01*
X10064597Y6373114D01*
X10063988Y6367272D01*
X10064597Y6361430D01*
X10066274Y6356045D01*
X10068915Y6351168D01*
X10072420Y6346901D01*
X10076688Y6343446D01*
X10081564Y6340805D01*
X10086949Y6339128D01*
X10092690Y6338570D01*
X10098532Y6339128D01*
X10103967Y6340805D01*
X10108895Y6343446D01*
X10113162Y6346901D01*
X10116718Y6351168D01*
X10119360Y6356045D01*
X10121036Y6361430D01*
X10121646Y6367272D01*
X10121036Y6373114D01*
X10119360Y6378498D01*
X10116718Y6383375D01*
X10113162Y6387642D01*
X10108895Y6391097D01*
X10103967Y6393738D01*
X10098532Y6395415D01*
G37*
G36*
X10450576Y6347968D02*
G01*
X10450576Y6330188D01*
X10521442Y6330188D01*
X10521442Y6347968D01*
G37*
G36*
X3049524Y6483604D02*
G01*
X3049524Y6288786D01*
X3049879Y6281674D01*
X3050895Y6275425D01*
X3052673Y6270091D01*
X3055264Y6265621D01*
X3058668Y6262116D01*
X3062935Y6259626D01*
X3068066Y6258052D01*
X3074162Y6257544D01*
X3081934Y6258052D01*
X3087624Y6259322D01*
X3084322Y6277102D01*
X3081172Y6276644D01*
X3078988Y6276594D01*
X3076295Y6277203D01*
X3074111Y6279032D01*
X3072688Y6282283D01*
X3072130Y6287008D01*
X3072130Y6483604D01*
G37*
G36*
X3127502Y6483604D02*
G01*
X3127502Y6288786D01*
X3127857Y6281674D01*
X3128873Y6275425D01*
X3130651Y6270091D01*
X3133242Y6265621D01*
X3136646Y6262116D01*
X3140913Y6259626D01*
X3146044Y6258052D01*
X3152140Y6257544D01*
X3159912Y6258052D01*
X3165602Y6259322D01*
X3162300Y6277102D01*
X3159150Y6276644D01*
X3156966Y6276594D01*
X3154273Y6277203D01*
X3152089Y6279032D01*
X3150666Y6282283D01*
X3150108Y6287008D01*
X3150108Y6483604D01*
G37*
G36*
X3373628Y6483604D02*
G01*
X3373628Y6288786D01*
X3373983Y6281674D01*
X3374999Y6275425D01*
X3376777Y6270091D01*
X3379368Y6265621D01*
X3382772Y6262116D01*
X3387039Y6259626D01*
X3392170Y6258052D01*
X3398265Y6257544D01*
X3406089Y6258052D01*
X3411982Y6259322D01*
X3408426Y6277102D01*
X3405276Y6276644D01*
X3403092Y6276594D01*
X3400399Y6277203D01*
X3398215Y6279032D01*
X3396792Y6282283D01*
X3396234Y6287008D01*
X3396234Y6483604D01*
G37*
G36*
X2798572Y6469380D02*
G01*
X2793085Y6469227D01*
X2787751Y6468770D01*
X2782468Y6468008D01*
X2777388Y6466941D01*
X2772359Y6465620D01*
X2762808Y6462064D01*
X2753817Y6457391D01*
X2745536Y6451600D01*
X2741625Y6448348D01*
X2737916Y6444792D01*
X2731058Y6436969D01*
X2727960Y6432651D01*
X2725064Y6428130D01*
X2722372Y6423355D01*
X2719882Y6418376D01*
X2717647Y6413093D01*
X2715666Y6407658D01*
X2712415Y6396075D01*
X2710180Y6383629D01*
X2709468Y6377127D01*
X2709062Y6370370D01*
X2708910Y6363462D01*
X2709062Y6356451D01*
X2709468Y6349644D01*
X2710180Y6343091D01*
X2711145Y6336741D01*
X2712364Y6330594D01*
X2713837Y6324650D01*
X2715514Y6318961D01*
X2717495Y6313474D01*
X2719679Y6308242D01*
X2722118Y6303213D01*
X2724759Y6298488D01*
X2727604Y6293967D01*
X2730652Y6289649D01*
X2733903Y6285636D01*
X2737358Y6281877D01*
X2740964Y6278372D01*
X2744825Y6275120D01*
X2748788Y6272123D01*
X2752953Y6269380D01*
X2757271Y6266942D01*
X2761742Y6264757D01*
X2766364Y6262878D01*
X2771140Y6261252D01*
X2776016Y6259931D01*
X2781046Y6258915D01*
X2786176Y6258153D01*
X2791409Y6257696D01*
X2796794Y6257544D01*
X2803296Y6257747D01*
X2809595Y6258407D01*
X2815539Y6259525D01*
X2821279Y6260998D01*
X2826766Y6262878D01*
X2832049Y6265214D01*
X2837078Y6267856D01*
X2841904Y6270955D01*
X2846527Y6274358D01*
X2850946Y6278168D01*
X2855214Y6282283D01*
X2859278Y6286754D01*
X2846324Y6301232D01*
X2841193Y6295948D01*
X2835910Y6291275D01*
X2830372Y6287262D01*
X2824581Y6283909D01*
X2818485Y6281318D01*
X2812084Y6279388D01*
X2805277Y6278270D01*
X2798064Y6277864D01*
X2792120Y6278118D01*
X2786430Y6278829D01*
X2780944Y6280048D01*
X2775762Y6281724D01*
X2770784Y6283909D01*
X2766110Y6286500D01*
X2761691Y6289497D01*
X2757525Y6292951D01*
X2753715Y6296812D01*
X2750159Y6301079D01*
X2746908Y6305753D01*
X2743962Y6310833D01*
X2741371Y6316268D01*
X2739034Y6322060D01*
X2737104Y6328206D01*
X2735478Y6334709D01*
X2734208Y6341567D01*
X2733294Y6348730D01*
X2732735Y6356197D01*
X2732532Y6363970D01*
X2732735Y6371691D01*
X2733294Y6379108D01*
X2734259Y6386220D01*
X2735580Y6392976D01*
X2737307Y6399428D01*
X2739339Y6405473D01*
X2741676Y6411214D01*
X2744368Y6416548D01*
X2747416Y6421526D01*
X2750718Y6426098D01*
X2754325Y6430314D01*
X2758287Y6434074D01*
X2762453Y6437477D01*
X2766923Y6440424D01*
X2771648Y6442964D01*
X2776626Y6445046D01*
X2781808Y6446672D01*
X2787294Y6447840D01*
X2792933Y6448552D01*
X2798826Y6448806D01*
X2805379Y6448450D01*
X2811576Y6447383D01*
X2817368Y6445707D01*
X2822803Y6443421D01*
X2827883Y6440576D01*
X2832658Y6437223D01*
X2837078Y6433464D01*
X2841244Y6429248D01*
X2854198Y6444488D01*
X2847746Y6450736D01*
X2844088Y6453733D01*
X2840126Y6456578D01*
X2835859Y6459270D01*
X2831338Y6461709D01*
X2826512Y6463893D01*
X2821482Y6465773D01*
X2816098Y6467297D01*
X2810510Y6468414D01*
X2804668Y6469126D01*
G37*
G36*
X2951734Y6415786D02*
G01*
X2946552Y6415582D01*
X2941370Y6414871D01*
X2936341Y6413754D01*
X2931363Y6412230D01*
X2926537Y6410248D01*
X2921863Y6407861D01*
X2917342Y6405118D01*
X2913024Y6401917D01*
X2908909Y6398361D01*
X2905048Y6394450D01*
X2901442Y6390132D01*
X2898089Y6385509D01*
X2895092Y6380480D01*
X2892399Y6375146D01*
X2890062Y6369507D01*
X2888081Y6363512D01*
X2886506Y6357213D01*
X2885143Y6348222D01*
X2906776Y6348222D01*
X2907893Y6355689D01*
X2909620Y6362649D01*
X2911957Y6368999D01*
X2914904Y6374790D01*
X2918307Y6379921D01*
X2922168Y6384493D01*
X2926384Y6388354D01*
X2931007Y6391605D01*
X2935935Y6394145D01*
X2941066Y6396024D01*
X2946450Y6397142D01*
X2951988Y6397498D01*
X2957931Y6397142D01*
X2963418Y6396075D01*
X2968498Y6394348D01*
X2973070Y6391910D01*
X2977184Y6388760D01*
X2980791Y6384950D01*
X2983890Y6380480D01*
X2986430Y6375349D01*
X2988462Y6369507D01*
X2989935Y6363055D01*
X2990799Y6355943D01*
X2991104Y6348222D01*
X2885143Y6348222D01*
X2884678Y6343700D01*
X2884424Y6336538D01*
X2884678Y6329222D01*
X2885338Y6322212D01*
X2886506Y6315557D01*
X2888030Y6309207D01*
X2890012Y6303213D01*
X2892348Y6297523D01*
X2895092Y6292189D01*
X2898140Y6287211D01*
X2901543Y6282639D01*
X2905252Y6278372D01*
X2909265Y6274511D01*
X2913532Y6271006D01*
X2918104Y6267907D01*
X2922930Y6265214D01*
X2927908Y6262878D01*
X2933141Y6260998D01*
X2938576Y6259474D01*
X2944164Y6258407D01*
X2949905Y6257747D01*
X2955798Y6257544D01*
X2963418Y6257848D01*
X2970580Y6258763D01*
X2977235Y6260134D01*
X2983534Y6262014D01*
X2989427Y6264300D01*
X2994964Y6266891D01*
X3000248Y6269736D01*
X3005328Y6272784D01*
X2996946Y6288024D01*
X2992678Y6285280D01*
X2988360Y6282842D01*
X2983839Y6280759D01*
X2979216Y6278930D01*
X2974390Y6277508D01*
X2969310Y6276441D01*
X2964078Y6275781D01*
X2958592Y6275578D01*
X2953105Y6275832D01*
X2947822Y6276594D01*
X2942793Y6277864D01*
X2938068Y6279591D01*
X2933598Y6281775D01*
X2929432Y6284417D01*
X2925572Y6287465D01*
X2922066Y6290919D01*
X2918866Y6294831D01*
X2916021Y6299047D01*
X2913532Y6303619D01*
X2911398Y6308598D01*
X2909671Y6313830D01*
X2908401Y6319418D01*
X2907487Y6325311D01*
X2907030Y6331458D01*
X3010154Y6331458D01*
X3010966Y6337757D01*
X3011170Y6345174D01*
X3011017Y6351625D01*
X3010509Y6357772D01*
X3009696Y6363665D01*
X3008579Y6369304D01*
X3007156Y6374638D01*
X3005429Y6379718D01*
X3003397Y6384442D01*
X3001060Y6388912D01*
X2998470Y6393027D01*
X2995574Y6396837D01*
X2992374Y6400342D01*
X2988919Y6403492D01*
X2985160Y6406337D01*
X2981147Y6408775D01*
X2976880Y6410909D01*
X2972358Y6412636D01*
X2967583Y6414008D01*
X2962554Y6414973D01*
X2957271Y6415582D01*
G37*
G36*
X3506978Y6415786D02*
G01*
X3500932Y6415582D01*
X3495040Y6414922D01*
X3489350Y6413906D01*
X3483813Y6412585D01*
X3478479Y6410960D01*
X3473348Y6409131D01*
X3463848Y6404965D01*
X3455466Y6400444D01*
X3448304Y6395974D01*
X3457448Y6380226D01*
X3461969Y6383274D01*
X3466896Y6386271D01*
X3472179Y6389116D01*
X3477818Y6391656D01*
X3483813Y6393840D01*
X3490010Y6395516D01*
X3496513Y6396583D01*
X3503168Y6396990D01*
X3509314Y6396583D01*
X3514648Y6395415D01*
X3519271Y6393484D01*
X3523234Y6390944D01*
X3526485Y6387896D01*
X3529177Y6384290D01*
X3531362Y6380276D01*
X3532987Y6375908D01*
X3534156Y6371285D01*
X3534918Y6366408D01*
X3535324Y6361430D01*
X3535426Y6356350D01*
X3525977Y6355232D01*
X3508654Y6352489D01*
X3493465Y6349187D01*
X3486607Y6347256D01*
X3480308Y6345174D01*
X3474465Y6342938D01*
X3469132Y6340500D01*
X3464255Y6337858D01*
X3459937Y6335064D01*
X3456025Y6332016D01*
X3452622Y6328816D01*
X3449726Y6325362D01*
X3447237Y6321704D01*
X3445205Y6317843D01*
X3443681Y6313728D01*
X3442563Y6309360D01*
X3441903Y6304788D01*
X3441753Y6301232D01*
X3463798Y6301232D01*
X3464001Y6305042D01*
X3464712Y6308648D01*
X3465829Y6312103D01*
X3467506Y6315354D01*
X3469690Y6318453D01*
X3472383Y6321348D01*
X3475685Y6324041D01*
X3479596Y6326581D01*
X3484118Y6328968D01*
X3489299Y6331204D01*
X3495192Y6333236D01*
X3501745Y6335115D01*
X3509010Y6336842D01*
X3517036Y6338417D01*
X3525824Y6339840D01*
X3535426Y6341110D01*
X3535426Y6296914D01*
X3529736Y6292088D01*
X3524250Y6287820D01*
X3518865Y6284214D01*
X3513582Y6281216D01*
X3508298Y6278880D01*
X3502914Y6277203D01*
X3497427Y6276187D01*
X3491737Y6275832D01*
X3486150Y6276187D01*
X3480968Y6277254D01*
X3476193Y6279134D01*
X3472078Y6281775D01*
X3468624Y6285280D01*
X3466033Y6289649D01*
X3464356Y6294983D01*
X3463798Y6301232D01*
X3441753Y6301232D01*
X3442106Y6293358D01*
X3443224Y6287312D01*
X3445052Y6281775D01*
X3447542Y6276797D01*
X3450691Y6272326D01*
X3454349Y6268466D01*
X3458514Y6265164D01*
X3463188Y6262420D01*
X3468268Y6260338D01*
X3473754Y6258763D01*
X3479546Y6257848D01*
X3485642Y6257544D01*
X3492703Y6258001D01*
X3499561Y6259271D01*
X3506266Y6261252D01*
X3512769Y6263944D01*
X3519017Y6267196D01*
X3525062Y6270955D01*
X3530904Y6275120D01*
X3536442Y6279642D01*
X3537204Y6279642D01*
X3539236Y6261100D01*
X3558032Y6261100D01*
X3558032Y6354572D01*
X3557879Y6361226D01*
X3557320Y6367627D01*
X3556457Y6373723D01*
X3555187Y6379464D01*
X3553561Y6384848D01*
X3551529Y6389878D01*
X3549091Y6394551D01*
X3546195Y6398818D01*
X3542944Y6402628D01*
X3539185Y6405981D01*
X3535019Y6408928D01*
X3530396Y6411315D01*
X3525265Y6413246D01*
X3519678Y6414668D01*
X3513582Y6415481D01*
G37*
G36*
X3672078Y6415786D02*
G01*
X3665778Y6415227D01*
X3659632Y6413550D01*
X3653739Y6410858D01*
X3648151Y6407200D01*
X3642817Y6402628D01*
X3637838Y6397244D01*
X3633266Y6391097D01*
X3629151Y6384290D01*
X3628390Y6384290D01*
X3626104Y6411976D01*
X3607815Y6411976D01*
X3607815Y6261100D01*
X3630422Y6261100D01*
X3630422Y6359398D01*
X3634486Y6368542D01*
X3638956Y6376162D01*
X3643782Y6382359D01*
X3648811Y6387185D01*
X3653993Y6390843D01*
X3659174Y6393332D01*
X3664305Y6394754D01*
X3669284Y6395212D01*
X3673246Y6395059D01*
X3676700Y6394602D01*
X3679951Y6393840D01*
X3683508Y6392672D01*
X3687826Y6412484D01*
X3684219Y6414058D01*
X3680510Y6415074D01*
X3676548Y6415633D01*
G37*
G36*
X3203194Y6411976D02*
G01*
X3203194Y6316218D01*
X3203346Y6309207D01*
X3203854Y6302603D01*
X3204718Y6296456D01*
X3205886Y6290767D01*
X3207461Y6285484D01*
X3209340Y6280708D01*
X3211626Y6276340D01*
X3214268Y6272428D01*
X3217214Y6268923D01*
X3220618Y6265926D01*
X3224377Y6263386D01*
X3228492Y6261303D01*
X3233013Y6259626D01*
X3237890Y6258458D01*
X3243224Y6257798D01*
X3248914Y6257544D01*
X3256534Y6258052D01*
X3263646Y6259525D01*
X3270351Y6261963D01*
X3276650Y6265214D01*
X3282594Y6269228D01*
X3288334Y6273952D01*
X3293821Y6279286D01*
X3299206Y6285230D01*
X3300222Y6285230D01*
X3302000Y6261100D01*
X3320796Y6261100D01*
X3320796Y6411976D01*
X3298190Y6411976D01*
X3298190Y6303772D01*
X3292652Y6297371D01*
X3287369Y6291935D01*
X3282238Y6287363D01*
X3277158Y6283706D01*
X3272078Y6280912D01*
X3266897Y6278930D01*
X3261512Y6277762D01*
X3255772Y6277356D01*
X3250692Y6277610D01*
X3246120Y6278422D01*
X3242106Y6279794D01*
X3238500Y6281724D01*
X3235401Y6284214D01*
X3232759Y6287312D01*
X3230575Y6291021D01*
X3228848Y6295339D01*
X3227476Y6300266D01*
X3226562Y6305854D01*
X3226003Y6312103D01*
X3225800Y6319012D01*
X3225800Y6411976D01*
G37*
G36*
X7221220Y7078980D02*
G01*
X7215530Y7078827D01*
X7209942Y7078370D01*
X7204456Y7077608D01*
X7199122Y7076541D01*
X7193940Y7075220D01*
X7184034Y7071664D01*
X7174738Y7066991D01*
X7166152Y7061200D01*
X7162139Y7057948D01*
X7158278Y7054392D01*
X7154672Y7050582D01*
X7151268Y7046569D01*
X7148068Y7042251D01*
X7145070Y7037730D01*
X7142276Y7032955D01*
X7139787Y7027976D01*
X7137450Y7022693D01*
X7135418Y7017258D01*
X7133640Y7011568D01*
X7130796Y6999579D01*
X7129830Y6993229D01*
X7129119Y6986727D01*
X7128662Y6979970D01*
X7128509Y6973062D01*
X7128662Y6966051D01*
X7129068Y6959244D01*
X7129780Y6952691D01*
X7130745Y6946341D01*
X7131964Y6940194D01*
X7133488Y6934250D01*
X7135215Y6928561D01*
X7137196Y6923074D01*
X7139431Y6917842D01*
X7141921Y6912813D01*
X7144613Y6908088D01*
X7147509Y6903567D01*
X7150658Y6899249D01*
X7153960Y6895236D01*
X7157516Y6891477D01*
X7161275Y6887972D01*
X7165187Y6884720D01*
X7169302Y6881723D01*
X7173620Y6878980D01*
X7178090Y6876542D01*
X7182713Y6874357D01*
X7187539Y6872478D01*
X7192518Y6870852D01*
X7197598Y6869531D01*
X7202881Y6868515D01*
X7208266Y6867753D01*
X7213803Y6867296D01*
X7219442Y6867144D01*
X7226198Y6867347D01*
X7232700Y6867906D01*
X7238949Y6868871D01*
X7244943Y6870141D01*
X7250684Y6871766D01*
X7256170Y6873697D01*
X7261301Y6875881D01*
X7266127Y6878370D01*
X7270648Y6881063D01*
X7274864Y6884009D01*
X7278674Y6887159D01*
X7282180Y6890512D01*
X7282180Y6975348D01*
X7216140Y6975348D01*
X7216140Y6956298D01*
X7260590Y6956298D01*
X7260590Y6900418D01*
X7257135Y6897522D01*
X7253173Y6894982D01*
X7248702Y6892747D01*
X7243825Y6890867D01*
X7238644Y6889394D01*
X7233158Y6888327D01*
X7227519Y6887667D01*
X7221728Y6887464D01*
X7215225Y6887718D01*
X7208977Y6888429D01*
X7203033Y6889648D01*
X7197445Y6891324D01*
X7192111Y6893509D01*
X7187082Y6896100D01*
X7182408Y6899097D01*
X7178040Y6902551D01*
X7173975Y6906412D01*
X7170267Y6910679D01*
X7166864Y6915353D01*
X7163816Y6920433D01*
X7161123Y6925868D01*
X7158786Y6931659D01*
X7156754Y6937806D01*
X7155078Y6944309D01*
X7153808Y6951167D01*
X7152894Y6958330D01*
X7152335Y6965797D01*
X7152131Y6973570D01*
X7152335Y6981291D01*
X7152944Y6988708D01*
X7153909Y6995820D01*
X7155281Y7002576D01*
X7157059Y7009028D01*
X7159142Y7015073D01*
X7161631Y7020814D01*
X7164425Y7026148D01*
X7167575Y7031126D01*
X7171029Y7035698D01*
X7174788Y7039914D01*
X7178903Y7043674D01*
X7183323Y7047077D01*
X7187996Y7050024D01*
X7192975Y7052564D01*
X7198207Y7054646D01*
X7203694Y7056272D01*
X7209485Y7057440D01*
X7215479Y7058152D01*
X7221728Y7058406D01*
X7229348Y7057999D01*
X7236307Y7056881D01*
X7242657Y7055103D01*
X7248398Y7052716D01*
X7253630Y7049820D01*
X7258354Y7046518D01*
X7262723Y7042810D01*
X7266686Y7038848D01*
X7279640Y7054088D01*
X7273188Y7060082D01*
X7269530Y7063028D01*
X7265568Y7065822D01*
X7261250Y7068515D01*
X7256627Y7071004D01*
X7251649Y7073239D01*
X7246315Y7075170D01*
X7240574Y7076744D01*
X7234529Y7077964D01*
X7228078Y7078725D01*
G37*
G36*
X7561580Y7078980D02*
G01*
X7554874Y7078725D01*
X7548422Y7077964D01*
X7542275Y7076694D01*
X7536383Y7075017D01*
X7530795Y7072833D01*
X7525613Y7070242D01*
X7520787Y7067296D01*
X7516317Y7063892D01*
X7512303Y7060184D01*
X7508748Y7056069D01*
X7505700Y7051649D01*
X7503109Y7046925D01*
X7501077Y7041946D01*
X7499553Y7036663D01*
X7498638Y7031126D01*
X7498334Y7025386D01*
X7498791Y7018274D01*
X7500112Y7011771D01*
X7502144Y7005878D01*
X7504887Y7000544D01*
X7508240Y6995718D01*
X7511999Y6991400D01*
X7516215Y6987489D01*
X7520736Y6984034D01*
X7525461Y6980936D01*
X7530287Y6978142D01*
X7539990Y6973570D01*
X7576820Y6957161D01*
X7583373Y6953910D01*
X7589316Y6950456D01*
X7594447Y6946544D01*
X7598664Y6941972D01*
X7601813Y6936638D01*
X7603794Y6930288D01*
X7604506Y6922770D01*
X7604150Y6917639D01*
X7603134Y6912813D01*
X7601407Y6908342D01*
X7599070Y6904228D01*
X7596073Y6900519D01*
X7592517Y6897217D01*
X7588351Y6894322D01*
X7583627Y6891934D01*
X7578344Y6890003D01*
X7572603Y6888632D01*
X7566304Y6887768D01*
X7559548Y6887464D01*
X7554112Y6887667D01*
X7548778Y6888276D01*
X7543495Y6889292D01*
X7538313Y6890664D01*
X7533233Y6892442D01*
X7528306Y6894525D01*
X7523530Y6896912D01*
X7518908Y6899656D01*
X7514488Y6902703D01*
X7510221Y6906006D01*
X7506208Y6909562D01*
X7502398Y6913372D01*
X7488428Y6897624D01*
X7492949Y6893052D01*
X7497775Y6888835D01*
X7502804Y6884924D01*
X7508138Y6881368D01*
X7513726Y6878167D01*
X7519568Y6875322D01*
X7525664Y6872884D01*
X7531963Y6870852D01*
X7538466Y6869277D01*
X7545222Y6868109D01*
X7552131Y6867398D01*
X7559294Y6867144D01*
X7567015Y6867448D01*
X7574381Y6868312D01*
X7581290Y6869684D01*
X7587843Y6871563D01*
X7593939Y6873951D01*
X7599578Y6876796D01*
X7604810Y6880047D01*
X7609535Y6883704D01*
X7613751Y6887768D01*
X7617459Y6892137D01*
X7620660Y6896862D01*
X7623302Y6901840D01*
X7625384Y6907123D01*
X7626908Y6912660D01*
X7627823Y6918401D01*
X7628128Y6924294D01*
X7627721Y6931558D01*
X7626603Y6938213D01*
X7624775Y6944258D01*
X7622336Y6949744D01*
X7619288Y6954723D01*
X7615681Y6959244D01*
X7611618Y6963359D01*
X7607096Y6967067D01*
X7602220Y6970471D01*
X7596987Y6973570D01*
X7591450Y6976465D01*
X7585709Y6979158D01*
X7549997Y6994245D01*
X7544053Y6997141D01*
X7538313Y7000392D01*
X7533081Y7004151D01*
X7528559Y7008571D01*
X7525054Y7013803D01*
X7522768Y7019950D01*
X7521956Y7027164D01*
X7522667Y7034072D01*
X7524800Y7040168D01*
X7528204Y7045553D01*
X7532827Y7050024D01*
X7538567Y7053630D01*
X7545324Y7056221D01*
X7553045Y7057847D01*
X7561580Y7058406D01*
X7568692Y7058050D01*
X7575448Y7057034D01*
X7581798Y7055358D01*
X7587792Y7053122D01*
X7593431Y7050278D01*
X7598816Y7046925D01*
X7603947Y7043115D01*
X7608824Y7038848D01*
X7621016Y7053580D01*
X7617358Y7057237D01*
X7613497Y7060641D01*
X7609281Y7063892D01*
X7604861Y7066838D01*
X7600188Y7069531D01*
X7595311Y7071918D01*
X7590180Y7074001D01*
X7584846Y7075728D01*
X7579309Y7077100D01*
X7573568Y7078116D01*
X7567675Y7078776D01*
G37*
G36*
X7331709Y7075170D02*
G01*
X7331709Y7056628D01*
X7391857Y7056526D01*
X7404100Y7055510D01*
X7409637Y7054596D01*
X7414666Y7053376D01*
X7419289Y7051852D01*
X7423505Y7050024D01*
X7427264Y7047839D01*
X7430566Y7045299D01*
X7433462Y7042353D01*
X7435900Y7039051D01*
X7437881Y7035292D01*
X7439456Y7031126D01*
X7440523Y7026554D01*
X7441234Y7021525D01*
X7441438Y7015988D01*
X7441234Y7010450D01*
X7440625Y7005370D01*
X7439558Y7000646D01*
X7438085Y6996277D01*
X7436154Y6992366D01*
X7433818Y6988759D01*
X7431074Y6985558D01*
X7427874Y6982714D01*
X7424216Y6980224D01*
X7420102Y6978091D01*
X7415580Y6976313D01*
X7410602Y6974840D01*
X7405116Y6973722D01*
X7399223Y6972909D01*
X7392873Y6972452D01*
X7354824Y6972300D01*
X7354824Y7056628D01*
X7331709Y7056628D01*
X7331709Y6870700D01*
X7354824Y6870700D01*
X7354824Y6953503D01*
X7389368Y6953503D01*
X7396022Y6953656D01*
X7402474Y6954113D01*
X7408621Y6954875D01*
X7414514Y6955942D01*
X7420152Y6957314D01*
X7425486Y6958990D01*
X7430516Y6960971D01*
X7435291Y6963257D01*
X7439710Y6965899D01*
X7443774Y6968845D01*
X7447534Y6972096D01*
X7450937Y6975652D01*
X7453985Y6979564D01*
X7456678Y6983780D01*
X7458964Y6988352D01*
X7460843Y6993178D01*
X7462316Y6998411D01*
X7463434Y7003948D01*
X7464094Y7009790D01*
X7464298Y7015988D01*
X7464094Y7022388D01*
X7463434Y7028332D01*
X7462316Y7033869D01*
X7460792Y7039000D01*
X7458913Y7043775D01*
X7456576Y7048144D01*
X7453884Y7052157D01*
X7450785Y7055815D01*
X7447381Y7059117D01*
X7443571Y7062063D01*
X7439406Y7064705D01*
X7434935Y7066991D01*
X7430160Y7068972D01*
X7425029Y7070699D01*
X7419594Y7072122D01*
X7413904Y7073239D01*
X7407909Y7074103D01*
X7401661Y7074712D01*
X7395108Y7075068D01*
G37*
D10*
X5918200Y4218178D02*
G01*
X5918200Y4024376D01*
X5918200Y4218178D02*
G01*
X5992113Y4024376D01*
X6066027Y4218178D02*
G01*
X5992113Y4024376D01*
X6066027Y4218178D02*
G01*
X6066027Y4024376D01*
X6237731Y4153662D02*
G01*
X6237731Y4024376D01*
X6237731Y4125976D02*
G01*
X6219190Y4144263D01*
X6200902Y4153662D01*
X6173215Y4153662D01*
X6154674Y4144263D01*
X6136131Y4125976D01*
X6126988Y4098289D01*
X6126988Y4079747D01*
X6136131Y4052062D01*
X6154674Y4033520D01*
X6173215Y4024376D01*
X6200902Y4024376D01*
X6219190Y4033520D01*
X6237731Y4052062D01*
X6298691Y4218178D02*
G01*
X6308090Y4209034D01*
X6317234Y4218178D01*
X6308090Y4227576D01*
X6298691Y4218178D01*
X6308090Y4153662D02*
G01*
X6308090Y4024376D01*
X6378193Y4153662D02*
G01*
X6378193Y4024376D01*
X6378193Y4116578D02*
G01*
X6405879Y4144263D01*
X6424422Y4153662D01*
X6452108Y4153662D01*
X6470650Y4144263D01*
X6479793Y4116578D01*
X6479793Y4024376D01*
X6682993Y4218178D02*
G01*
X6682993Y4024376D01*
X6682993Y4218178D02*
G01*
X6766052Y4218178D01*
X6793738Y4209034D01*
X6803136Y4199889D01*
X6812279Y4181347D01*
X6812279Y4162805D01*
X6803136Y4144263D01*
X6793738Y4135120D01*
X6766052Y4125976D01*
X6682993Y4125976D02*
G01*
X6766052Y4125976D01*
X6793738Y4116578D01*
X6803136Y4107434D01*
X6812279Y4088892D01*
X6812279Y4061205D01*
X6803136Y4042663D01*
X6793738Y4033520D01*
X6766052Y4024376D01*
X6682993Y4024376D01*
X6919468Y4153662D02*
G01*
X6900925Y4144263D01*
X6882384Y4125976D01*
X6873240Y4098289D01*
X6873240Y4079747D01*
X6882384Y4052062D01*
X6900925Y4033520D01*
X6919468Y4024376D01*
X6947154Y4024376D01*
X6965695Y4033520D01*
X6983984Y4052062D01*
X6993381Y4079747D01*
X6993381Y4098289D01*
X6983984Y4125976D01*
X6965695Y4144263D01*
X6947154Y4153662D01*
X6919468Y4153662D01*
X7165086Y4153662D02*
G01*
X7165086Y4024376D01*
X7165086Y4125976D02*
G01*
X7146543Y4144263D01*
X7128256Y4153662D01*
X7100570Y4153662D01*
X7082027Y4144263D01*
X7063486Y4125976D01*
X7054341Y4098289D01*
X7054341Y4079747D01*
X7063486Y4052062D01*
X7082027Y4033520D01*
X7100570Y4024376D01*
X7128256Y4024376D01*
X7146543Y4033520D01*
X7165086Y4052062D01*
X7226045Y4153662D02*
G01*
X7226045Y4024376D01*
X7226045Y4098289D02*
G01*
X7235190Y4125976D01*
X7253731Y4144263D01*
X7272274Y4153662D01*
X7299959Y4153662D01*
X7471663Y4218178D02*
G01*
X7471663Y4024376D01*
X7471663Y4125976D02*
G01*
X7453375Y4144263D01*
X7434834Y4153662D01*
X7407147Y4153662D01*
X7388606Y4144263D01*
X7370063Y4125976D01*
X7360920Y4098289D01*
X7360920Y4079747D01*
X7370063Y4052062D01*
X7388606Y4033520D01*
X7407147Y4024376D01*
X7434834Y4024376D01*
X7453375Y4033520D01*
X7471663Y4052062D01*
D11*
X7618222Y8178292D02*
G01*
X7623556Y8167878D01*
X7633970Y8157463D01*
X7644129Y8152384D01*
X7664958Y8152384D01*
X7675372Y8157463D01*
X7685786Y8167878D01*
X7691120Y8178292D01*
X7696200Y8194039D01*
X7696200Y8219947D01*
X7691120Y8235442D01*
X7685786Y8245855D01*
X7675372Y8256270D01*
X7664958Y8261350D01*
X7644129Y8261350D01*
X7633970Y8256270D01*
X7623556Y8245855D01*
X7618222Y8235442D01*
X7618222Y8219947D01*
X7644129Y8219947D02*
G01*
X7618222Y8219947D01*
X7583931Y8152384D02*
G01*
X7583931Y8261350D01*
X7583931Y8152384D02*
G01*
X7537195Y8152384D01*
X7521702Y8157463D01*
X7516368Y8162797D01*
X7511288Y8173212D01*
X7511288Y8188705D01*
X7516368Y8199120D01*
X7521702Y8204200D01*
X7537195Y8209534D01*
X7583931Y8209534D01*
X7476997Y8152384D02*
G01*
X7476997Y8261350D01*
X7411465Y8152384D02*
G01*
X7421879Y8157463D01*
X7432293Y8167878D01*
X7437374Y8178292D01*
X7442708Y8194039D01*
X7442708Y8219947D01*
X7437374Y8235442D01*
X7432293Y8245855D01*
X7421879Y8256270D01*
X7411465Y8261350D01*
X7390638Y8261350D01*
X7380224Y8256270D01*
X7369809Y8245855D01*
X7364729Y8235442D01*
X7359650Y8219947D01*
X7359650Y8194039D01*
X7364729Y8178292D01*
X7369809Y8167878D01*
X7380224Y8157463D01*
X7390638Y8152384D01*
X7411465Y8152384D01*
X10934700Y8152384D02*
G01*
X10934700Y8261350D01*
X10895329Y8178292D02*
G01*
X10895329Y8173212D01*
X10889995Y8162797D01*
X10884915Y8157463D01*
X10874502Y8152384D01*
X10853674Y8152384D01*
X10843259Y8157463D01*
X10838179Y8162797D01*
X10832845Y8173212D01*
X10832845Y8183626D01*
X10838179Y8194039D01*
X10848340Y8209534D01*
X10900409Y8261350D01*
X10827765Y8261350D01*
X10715497Y8178292D02*
G01*
X10720577Y8167878D01*
X10730991Y8157463D01*
X10741406Y8152384D01*
X10762234Y8152384D01*
X10772647Y8157463D01*
X10783061Y8167878D01*
X10788141Y8178292D01*
X10793475Y8194039D01*
X10793475Y8219947D01*
X10788141Y8235442D01*
X10783061Y8245855D01*
X10772647Y8256270D01*
X10762234Y8261350D01*
X10741406Y8261350D01*
X10730991Y8256270D01*
X10720577Y8245855D01*
X10715497Y8235442D01*
X10681208Y8173212D02*
G01*
X10670793Y8167878D01*
X10655300Y8152384D01*
X10655300Y8261350D01*
X9309100Y8152384D02*
G01*
X9309100Y8261350D01*
X9269729Y8178292D02*
G01*
X9269729Y8173212D01*
X9264395Y8162797D01*
X9259315Y8157463D01*
X9248902Y8152384D01*
X9228074Y8152384D01*
X9217659Y8157463D01*
X9212579Y8162797D01*
X9207245Y8173212D01*
X9207245Y8183626D01*
X9212579Y8194039D01*
X9222740Y8209534D01*
X9274809Y8261350D01*
X9202165Y8261350D01*
X9089897Y8178292D02*
G01*
X9094977Y8167878D01*
X9105391Y8157463D01*
X9115806Y8152384D01*
X9136634Y8152384D01*
X9147047Y8157463D01*
X9157461Y8167878D01*
X9162541Y8178292D01*
X9167875Y8194039D01*
X9167875Y8219947D01*
X9162541Y8235442D01*
X9157461Y8245855D01*
X9147047Y8256270D01*
X9136634Y8261350D01*
X9115806Y8261350D01*
X9105391Y8256270D01*
X9094977Y8245855D01*
X9089897Y8235442D01*
X9050274Y8178292D02*
G01*
X9050274Y8173212D01*
X9045193Y8162797D01*
X9039859Y8157463D01*
X9029700Y8152384D01*
X9008872Y8152384D01*
X8998458Y8157463D01*
X8993124Y8162797D01*
X8988043Y8173212D01*
X8988043Y8183626D01*
X8993124Y8194039D01*
X9003538Y8209534D01*
X9055608Y8261350D01*
X8982709Y8261350D01*
D12*
X12334189Y7994650D02*
G01*
X1134186Y7994650D01*
X1134186Y4451350D01*
X12334189Y4451350D01*
X12334189Y7994650D01*
X8173402Y8765679D02*
G01*
X8173402Y9744196D01*
X6863405Y8422731D02*
G01*
X6863405Y8336701D01*
X8173402Y8336701D01*
X8173402Y8422728D01*
X6863405Y9744196D02*
G01*
X6863405Y8765677D01*
X6863405Y9744196D02*
G01*
X8173402Y9744196D01*
X6865858Y8909720D02*
G01*
X7319340Y8909011D01*
X7319340Y9123006D01*
X7697343Y9123006D01*
X7697343Y8911018D01*
X8173854Y8910721D01*
X7519441Y9697224D02*
G01*
X7519441Y9744202D01*
X8038851Y9322714D02*
G01*
X7812841Y9322714D01*
X6904857Y9049720D02*
G01*
X6939859Y9624014D01*
X7228174Y9622896D01*
X7277679Y9049390D01*
X7226802Y9049771D01*
X7175774Y9503796D01*
X7168255Y9571614D01*
X6993275Y9570547D01*
X6945878Y9092722D01*
X6942881Y9049720D01*
X6904857Y9049720D01*
X7519441Y9123210D02*
G01*
X7519339Y9322015D01*
X7427442Y9288208D01*
X7427442Y9564230D01*
X7519339Y9534004D01*
X7519441Y9697224D01*
X8069778Y9628543D02*
G01*
X8119282Y9055036D01*
X8068406Y9055417D01*
X8017377Y9509442D01*
X8009859Y9577260D01*
X7787482Y9098368D02*
G01*
X7784485Y9055366D01*
X7746461Y9055366D01*
X7747055Y9055074D02*
G01*
X7782057Y9629368D01*
X8070372Y9628251D01*
X8010453Y9576968D02*
G01*
X7835473Y9575901D01*
X7788076Y9098076D01*
X7196856Y9320738D02*
G01*
X6970847Y9320738D01*
X7182860Y9441743D02*
G01*
X6979864Y9441743D01*
X8024855Y9443720D02*
G01*
X7821858Y9443720D01*
X11424602Y8765679D02*
G01*
X11424602Y9744196D01*
X10114605Y8422731D02*
G01*
X10114605Y8336701D01*
X11424602Y8336701D01*
X11424602Y8422728D01*
X10114605Y9744196D02*
G01*
X10114605Y8765677D01*
X10114605Y9744196D02*
G01*
X11424602Y9744196D01*
X10117058Y8909720D02*
G01*
X10570540Y8909011D01*
X10570540Y9123006D01*
X10948543Y9123006D01*
X10948543Y8911018D01*
X11425054Y8910721D01*
X10770641Y9697224D02*
G01*
X10770641Y9744202D01*
X11290051Y9322714D02*
G01*
X11064041Y9322714D01*
X10156057Y9049720D02*
G01*
X10191059Y9624014D01*
X10479374Y9622896D01*
X10528879Y9049390D01*
X10478002Y9049771D01*
X10426974Y9503796D01*
X10419455Y9571614D01*
X10244475Y9570547D01*
X10197078Y9092722D01*
X10194081Y9049720D01*
X10156057Y9049720D01*
X10770641Y9123210D02*
G01*
X10770539Y9322015D01*
X10678642Y9288208D01*
X10678642Y9564230D01*
X10770539Y9534004D01*
X10770641Y9697224D01*
X11320978Y9628543D02*
G01*
X11370482Y9055036D01*
X11319606Y9055417D01*
X11268577Y9509442D01*
X11261059Y9577260D01*
X11038682Y9098368D02*
G01*
X11035685Y9055366D01*
X10997661Y9055366D01*
X10998255Y9055074D02*
G01*
X11033257Y9629368D01*
X11321572Y9628251D01*
X11261653Y9576968D02*
G01*
X11086673Y9575901D01*
X11039276Y9098076D01*
X10448056Y9320738D02*
G01*
X10222047Y9320738D01*
X10434060Y9441743D02*
G01*
X10231064Y9441743D01*
X11276055Y9443720D02*
G01*
X11073058Y9443720D01*
X9799002Y8765679D02*
G01*
X9799002Y9744196D01*
X8489005Y8422731D02*
G01*
X8489005Y8336701D01*
X9799002Y8336701D01*
X9799002Y8422728D01*
X8489005Y9744196D02*
G01*
X8489005Y8765677D01*
X8489005Y9744196D02*
G01*
X9799002Y9744196D01*
X8491458Y8909720D02*
G01*
X8944940Y8909011D01*
X8944940Y9123006D01*
X9322943Y9123006D01*
X9322943Y8911018D01*
X9799454Y8910721D01*
X9145041Y9697224D02*
G01*
X9145041Y9744202D01*
X9664451Y9322714D02*
G01*
X9438441Y9322714D01*
X8530457Y9049720D02*
G01*
X8565459Y9624014D01*
X8853774Y9622896D01*
X8903279Y9049390D01*
X8852402Y9049771D01*
X8801374Y9503796D01*
X8793855Y9571614D01*
X8618875Y9570547D01*
X8571478Y9092722D01*
X8568481Y9049720D01*
X8530457Y9049720D01*
X9145041Y9123210D02*
G01*
X9144939Y9322015D01*
X9053042Y9288208D01*
X9053042Y9564230D01*
X9144939Y9534004D01*
X9145041Y9697224D01*
X9695378Y9628543D02*
G01*
X9744882Y9055036D01*
X9694006Y9055417D01*
X9642977Y9509442D01*
X9635459Y9577260D01*
X9413082Y9098368D02*
G01*
X9410085Y9055366D01*
X9372061Y9055366D01*
X9372655Y9055074D02*
G01*
X9407657Y9629368D01*
X9695972Y9628251D01*
X9636053Y9576968D02*
G01*
X9461073Y9575901D01*
X9413676Y9098076D01*
X8822456Y9320738D02*
G01*
X8596447Y9320738D01*
X8808460Y9441743D02*
G01*
X8605464Y9441743D01*
X9650455Y9443720D02*
G01*
X9447458Y9443720D01*
G75*
G01*
X5702300Y5626100D02*
G03*
X5895772Y5762229I142673J2777D01*
G75*
G01*
X6654800Y6197600D02*
G03*
X5842000Y5638800I-406087J-279855D01*
G75*
G01*
X10384480Y6596281D02*
G03*
X10284719Y7473833I-263003J414548D01*
G75*
G01*
X10350500Y7569200D02*
G03*
X10210800Y7378700I-69501J-95506D01*
G75*
G01*
X9410700Y6083300D02*
G03*
X9502016Y4995733I390047J-514868D01*
G75*
G01*
X9398000Y4902200D02*
G03*
X9575800Y5105400I88576J101884D01*
G75*
G01*
X3441700Y6604000D02*
G03*
X2311131Y6962041I-638436J-51966D01*
G75*
G01*
X2057400Y7162800D02*
G03*
X2606703Y6826415I257209J-196676D01*
G75*
G01*
X7366000Y7251700D02*
G03*
X6565651Y7705999I-442129J153237D01*
G75*
G01*
X6346502Y7846527D02*
G03*
X6781800Y7581900I206698J-150328D01*
M02*
