G04 Layer: BottomLayer*
G04 EasyEDA v6.5.22, 2023-02-03 23:32:18*
G04 deee44f2b4474ee3b8db254c25de0345,4bb84c5f6c124816bf94f4484d05adb3,10*
G04 Gerber Generator version 0.2*
G04 Scale: 100 percent, Rotated: No, Reflected: No *
G04 Dimensions in millimeters *
G04 leading zeros omitted , absolute positions ,4 integer and 5 decimal *
%FSLAX45Y45*%
%MOMM*%

%ADD10C,0.2540*%
%ADD11O,1.9999959999999999X2.999994*%
%ADD12C,1.7000*%
%ADD13C,5.0000*%
%ADD14C,1.5240*%

%LPD*%
D10*
X10871200Y7772400D02*
G01*
X10871200Y8039100D01*
X7175500Y8039100D01*
X7175500Y8444572D01*
X7170877Y8449195D01*
X9496501Y8204200D02*
G01*
X7874000Y8204200D01*
X7874000Y8446096D01*
X7870901Y8449195D01*
X9496501Y8449195D02*
G01*
X9496501Y8204200D01*
X11125200Y8204200D01*
X11125200Y7772400D01*
X11122101Y8449195D02*
G01*
X11125200Y8204200D01*
X10422077Y8449195D02*
G01*
X10422077Y8594204D01*
X8796477Y8449195D02*
G01*
X8796477Y8594204D01*
X7170877Y8449195D02*
G01*
X7170877Y8594204D01*
X8193404Y8594204D02*
G01*
X6843395Y8594204D01*
X8468995Y8594204D02*
G01*
X8193404Y8594204D01*
X9819004Y8594204D02*
G01*
X8468995Y8594204D01*
X9819004Y8594204D02*
G01*
X10094595Y8594204D01*
X11444604Y8594204D02*
G01*
X10094595Y8594204D01*
D11*
G01*
X6843395Y8594191D03*
G01*
X8193404Y8594191D03*
D12*
G01*
X7870901Y8449183D03*
G01*
X7620888Y8449183D03*
G01*
X7420889Y8449183D03*
G01*
X7170877Y8449183D03*
D11*
G01*
X10094595Y8594191D03*
G01*
X11444604Y8594191D03*
D12*
G01*
X11122101Y8449183D03*
G01*
X10872088Y8449183D03*
G01*
X10672089Y8449183D03*
G01*
X10422077Y8449183D03*
D11*
G01*
X8468995Y8594191D03*
G01*
X9819004Y8594191D03*
D12*
G01*
X9496501Y8449183D03*
G01*
X9246488Y8449183D03*
G01*
X9046489Y8449183D03*
G01*
X8796477Y8449183D03*
D13*
G01*
X1016000Y8483600D03*
G01*
X12382500Y8483600D03*
G01*
X12382500Y4114800D03*
G01*
X1016000Y4114800D03*
D14*
G01*
X11633200Y4724400D03*
G01*
X11633200Y7772400D03*
G01*
X11379200Y7772400D03*
G01*
X11125200Y7772400D03*
G01*
X10871200Y7772400D03*
G01*
X10363200Y7772400D03*
G01*
X10109200Y7772400D03*
G01*
X9855200Y7772400D03*
G01*
X9601200Y7772400D03*
G01*
X9347200Y7772400D03*
G01*
X9093200Y7772400D03*
G01*
X8839200Y7772400D03*
G01*
X11379200Y4724400D03*
G01*
X11125200Y4724400D03*
G01*
X10871200Y4724400D03*
G01*
X10617200Y4724400D03*
G01*
X10363200Y4724400D03*
G01*
X10109200Y4724400D03*
G01*
X9855200Y4724400D03*
G01*
X9601200Y4724400D03*
G01*
X9347200Y4724400D03*
G01*
X9093200Y4724400D03*
G01*
X8839200Y4724400D03*
G01*
X8585200Y7772400D03*
G01*
X8331200Y7772400D03*
G01*
X8585200Y4724400D03*
G01*
X8331200Y4724400D03*
G01*
X8077200Y7772400D03*
G01*
X8077200Y4724400D03*
G01*
X10617200Y7772400D03*
M02*
