G04 Layer: BoardOutlineLayer*
G04 EasyEDA v6.5.22, 2023-02-04 20:07:11*
G04 918ed048709340b69971ac0d1e5c2f20,4bb84c5f6c124816bf94f4484d05adb3,10*
G04 Gerber Generator version 0.2*
G04 Scale: 100 percent, Rotated: No, Reflected: No *
G04 Dimensions in millimeters *
G04 leading zeros omitted , absolute positions ,4 integer and 5 decimal *
%FSLAX45Y45*%
%MOMM*%

%ADD10C,0.2540*%
D10*
X699998Y3999992D02*
G01*
X699998Y8599982D01*
X12499975Y3799992D02*
G01*
X899998Y3799992D01*
X12699974Y8599982D02*
G01*
X12699974Y3999992D01*
X899998Y8799982D02*
G01*
X12499975Y8799982D01*
G75*
G01*
X12499975Y8799982D02*
G02*
X12699975Y8599983I0J-199999D01*
G75*
G01*
X12699975Y3999992D02*
G02*
X12499975Y3799992I-200000J0D01*
G75*
G01*
X899998Y3799992D02*
G02*
X699999Y3999992I0J200000D01*
G75*
G01*
X699999Y8599983D02*
G02*
X899998Y8799982I199999J0D01*
X6863405Y8734204D02*
G01*
X6863405Y9744202D01*
X8173402Y8734196D02*
G01*
X6863405Y8734196D01*
X8173402Y8734196D02*
G01*
X8173405Y9744199D01*
X10114605Y8734204D02*
G01*
X10114605Y9744202D01*
X11424602Y8734196D02*
G01*
X10114605Y8734196D01*
X11424602Y8734196D02*
G01*
X11424605Y9744199D01*
X8489005Y8734204D02*
G01*
X8489005Y9744202D01*
X9799002Y8734196D02*
G01*
X8489005Y8734196D01*
X9799002Y8734196D02*
G01*
X9799005Y9744199D01*
X5588000Y5334000D02*
G01*
X6350000Y5334000D01*
X6350000Y5334000D02*
G01*
X7112000Y5334000D01*
X7112000Y5334000D02*
G01*
X7112000Y4470400D01*
X7112000Y4470400D02*
G01*
X6350000Y4470400D01*
X6350000Y4470400D02*
G01*
X5588000Y4470400D01*
X5588000Y4470400D02*
G01*
X5588000Y4914900D01*
X5588000Y4914900D02*
G01*
X5588000Y5334000D01*
X1155700Y7975600D02*
G01*
X1155700Y4470400D01*
X1155700Y4470400D02*
G01*
X1778000Y4470400D01*
X1778000Y4470400D02*
G01*
X1778000Y7975600D01*
X1778000Y7975600D02*
G01*
X1155700Y7975600D01*
X6070600Y7975600D02*
G01*
X5067300Y7975600D01*
X5067300Y7975600D02*
G01*
X5067300Y7112000D01*
X5067300Y7112000D02*
G01*
X6070600Y7112000D01*
X6070600Y7112000D02*
G01*
X6070600Y7975600D01*

%LPD*%
M02*
