G04 Layer: BottomSolderMaskLayer*
G04 EasyEDA v6.5.22, 2023-02-04 20:07:11*
G04 918ed048709340b69971ac0d1e5c2f20,4bb84c5f6c124816bf94f4484d05adb3,10*
G04 Gerber Generator version 0.2*
G04 Scale: 100 percent, Rotated: No, Reflected: No *
G04 Dimensions in millimeters *
G04 leading zeros omitted , absolute positions ,4 integer and 5 decimal *
%FSLAX45Y45*%
%MOMM*%

%ADD10O,2.101596X3.1015939999999995*%
%ADD11C,1.8016*%
%ADD12C,4.1016*%
%ADD13C,1.7272*%

%LPD*%
D10*
G01*
X6843395Y8594191D03*
G01*
X8193404Y8594191D03*
D11*
G01*
X7870901Y8449183D03*
G01*
X7620888Y8449183D03*
G01*
X7420889Y8449183D03*
G01*
X7170877Y8449183D03*
D10*
G01*
X10094595Y8594191D03*
G01*
X11444604Y8594191D03*
D11*
G01*
X11122101Y8449183D03*
G01*
X10872088Y8449183D03*
G01*
X10672089Y8449183D03*
G01*
X10422077Y8449183D03*
D10*
G01*
X8468995Y8594191D03*
G01*
X9819004Y8594191D03*
D11*
G01*
X9496501Y8449183D03*
G01*
X9246488Y8449183D03*
G01*
X9046489Y8449183D03*
G01*
X8796477Y8449183D03*
D12*
G01*
X965200Y8534400D03*
G01*
X12433300Y8534400D03*
G01*
X12433300Y4064000D03*
G01*
X965200Y4064000D03*
D13*
G01*
X11633200Y4724400D03*
G01*
X11633200Y7772400D03*
G01*
X11379200Y7772400D03*
G01*
X11125200Y7772400D03*
G01*
X10871200Y7772400D03*
G01*
X10363200Y7772400D03*
G01*
X10109200Y7772400D03*
G01*
X9855200Y7772400D03*
G01*
X9601200Y7772400D03*
G01*
X9347200Y7772400D03*
G01*
X9093200Y7772400D03*
G01*
X8839200Y7772400D03*
G01*
X11379200Y4724400D03*
G01*
X11125200Y4724400D03*
G01*
X10871200Y4724400D03*
G01*
X10617200Y4724400D03*
G01*
X10363200Y4724400D03*
G01*
X10109200Y4724400D03*
G01*
X9855200Y4724400D03*
G01*
X9601200Y4724400D03*
G01*
X9347200Y4724400D03*
G01*
X9093200Y4724400D03*
G01*
X8839200Y4724400D03*
G01*
X8585200Y7772400D03*
G01*
X8331200Y7772400D03*
G01*
X8585200Y4724400D03*
G01*
X8331200Y4724400D03*
G01*
X8077200Y7772400D03*
G01*
X8077200Y4724400D03*
G01*
X10617200Y7772400D03*
M02*
